<svg width="201" height="50" viewBox="0 0 201 50" fill="none" xmlns="http://www.w3.org/2000/svg">
<path fill-rule="evenodd" clip-rule="evenodd" d="M124.307 39.1025C112.792 46.2121 96.042 50 81.5954 50C61.3562 50 43.2106 43.7645 29.3921 33.3916C28.3453 32.5757 29.2525 31.4685 30.5786 32.1095C45.4439 39.3356 63.7988 43.648 82.7818 43.648C95.5535 43.648 109.651 41.4335 122.632 36.8298C124.586 36.1888 126.192 37.937 124.307 39.1025Z" fill="white" fill-opacity="0.6"/>
<path fill-rule="evenodd" clip-rule="evenodd" d="M129.123 34.4989C127.657 32.9254 119.352 33.7413 115.653 34.1492C114.536 34.2658 114.327 33.4499 115.374 32.8672C122.004 28.9627 132.822 30.1282 134.078 31.4103C135.334 32.6924 133.729 41.7833 127.517 46.0956C126.54 46.7366 125.633 46.387 126.052 45.5129C127.448 42.5991 130.588 36.1306 129.123 34.4989Z" fill="white" fill-opacity="0.6"/>
<path fill-rule="evenodd" clip-rule="evenodd" d="M115.862 5.47785V1.68997C115.862 1.10722 116.351 0.757568 116.979 0.757568L137.218 0.757568C137.846 0.757568 138.405 1.1655 138.405 1.68997V4.8951C138.405 5.41957 137.846 6.11888 136.869 7.28438L126.401 19.7552C130.309 19.697 134.427 20.1632 137.916 21.7949C138.684 22.1445 138.893 22.7273 138.963 23.2517V27.2727C138.963 27.8555 138.265 28.4965 137.497 28.1468C131.286 25.4079 122.981 25.1165 116.142 28.2051C115.444 28.4965 114.676 27.9137 114.676 27.331V23.4848C114.676 22.9021 114.676 21.8531 115.444 20.9207L127.587 6.41025L117.049 6.41025C116.421 6.41025 115.862 6.00233 115.862 5.47785V5.47785ZM42.0939 28.9627H35.9523C35.394 28.9044 34.9054 28.5548 34.8357 28.0886V1.74825C34.8357 1.22378 35.394 0.815847 36.0221 0.815847L41.7449 0.815847C42.373 0.815847 42.7918 1.22377 42.8616 1.68997V5.1282H43.0011C44.4667 1.80652 47.3281 0.233097 51.0968 0.233097C54.9353 0.233097 57.378 1.80652 59.053 5.1282C60.5186 1.80652 63.9383 0.233097 67.5674 0.233097C70.1496 0.233097 72.9413 1.10722 74.686 3.14685C76.6402 5.3613 76.2214 8.56643 76.2214 11.4219V28.0886C76.2214 28.613 75.6631 29.021 75.035 29.021L68.9632 29.021C68.3351 28.9627 67.8465 28.5548 67.8465 28.0886V14.1025C67.8465 12.9953 67.9861 10.1981 67.707 9.14917C67.2184 7.40092 65.8924 6.87645 64.0779 6.87645C62.6123 6.87645 61.0071 7.69231 60.379 9.03263C59.7509 10.373 59.8206 12.5874 59.8206 14.1025V28.0886C59.8206 28.613 59.2623 29.021 58.6342 29.021H52.4926C51.8645 28.9627 51.376 28.5548 51.376 28.0886V14.1025C51.376 11.1888 51.9343 6.81817 47.6073 6.81817C43.2105 6.81817 43.3501 11.014 43.3501 14.1025V28.0886C43.2803 28.5548 42.7918 28.9627 42.0939 28.9627V28.9627ZM155.852 0.233097C164.995 0.233097 169.95 6.7599 169.95 15.0932C169.95 23.1352 164.506 29.5454 155.852 29.5454C146.919 29.5454 142.034 23.0186 142.034 14.8601C141.964 6.64335 146.919 0.233097 155.852 0.233097ZM155.852 5.65267C151.316 5.65267 151.037 10.8392 151.037 14.0443C151.037 17.2494 150.967 24.1259 155.783 24.1259C160.528 24.1259 160.807 18.5897 160.807 15.2098C160.807 12.9953 160.668 10.3147 159.9 8.21678C159.202 6.35198 157.806 5.65267 155.852 5.65267ZM181.745 28.9627H175.603C174.975 28.9044 174.486 28.4965 174.486 28.0303V1.63169C174.556 1.16549 175.045 0.757568 175.673 0.757568L181.396 0.757568C181.954 0.757568 182.373 1.10723 182.512 1.51515V5.53613H182.652C184.397 1.92308 186.77 0.233097 191.027 0.233097C193.749 0.233097 196.47 1.04894 198.215 3.32167C199.82 5.41957 199.82 8.97435 199.82 11.5385V28.1468C199.751 28.613 199.262 28.9627 198.634 28.9627H192.492C191.934 28.9044 191.445 28.5548 191.376 28.1468V13.8112C191.376 10.8974 191.794 6.70163 187.537 6.70163C186.072 6.70163 184.676 7.51748 183.978 8.79953C183.14 10.4312 183.001 12.0046 183.001 13.8112V28.0303C182.931 28.5548 182.373 28.9627 181.745 28.9627V28.9627ZM99.7408 16.3753C99.7408 18.3566 99.8106 20.0466 98.6242 21.8531C97.6471 23.31 96.1117 24.1841 94.3669 24.1841C91.9941 24.1841 90.5983 22.669 90.5983 20.4545C90.5983 16.0839 95.2742 15.268 99.7408 15.268V16.3753ZM105.952 28.9044C105.533 29.1958 104.975 29.2541 104.487 29.021C102.463 27.6224 102.044 26.9231 100.927 25.5827C97.5773 28.4382 95.1346 29.3123 90.8076 29.3123C85.6431 29.3123 81.5953 26.6317 81.5953 21.3287C81.5953 17.1329 84.3171 14.3356 88.1556 12.937C91.5055 11.7133 96.1815 11.4802 99.7408 11.1305V10.4895C99.7408 9.26573 99.8804 7.80886 98.9731 6.75991C98.2054 5.82751 96.8096 5.41957 95.5534 5.41957C93.1805 5.41957 91.0868 6.41026 90.5983 8.50816C90.4587 8.97436 90.1097 9.44055 89.5514 9.44055L83.6192 8.91607C83.1307 8.79952 82.5724 8.50816 82.7119 7.86713C84.1077 1.80653 90.5982 0 96.4606 0C99.4616 0 103.37 0.641022 105.743 2.5641C108.744 4.8951 108.465 8.04196 108.465 11.4219V19.4056C108.465 21.7949 109.651 22.8438 110.768 24.1841C111.186 24.6503 111.256 25.2331 110.768 25.5245C109.442 26.3986 107.208 28.0303 105.952 28.9044V28.9044ZM19.1328 16.3753C19.1328 18.3566 19.2026 20.0466 18.0161 21.8531C17.0391 23.31 15.5037 24.1841 13.7589 24.1841C11.386 24.1841 9.99024 22.669 9.99024 20.4545C9.99024 16.0839 14.6662 15.268 19.1328 15.268V16.3753ZM25.2744 28.9044C24.8556 29.1958 24.2973 29.2541 23.8088 29.021C21.7848 27.6224 21.3661 26.9231 20.2494 25.5827C16.8995 28.4382 14.4568 29.3123 10.1298 29.3123C4.96533 29.3123 0.91748 26.6317 0.91748 21.3287C0.91748 17.1329 3.63931 14.3356 7.47778 12.937C10.8277 11.7133 15.5037 11.4802 19.063 11.1305V10.4895C19.063 9.26573 19.2026 7.80886 18.2953 6.75991C17.5276 5.82751 16.1318 5.41957 14.8756 5.41957C12.5027 5.41957 10.409 6.41026 9.92045 8.50816C9.78087 8.97436 9.43192 9.44055 8.87359 9.44055L2.9414 8.91607C2.45287 8.79952 1.89455 8.50816 2.03413 7.86713C3.42994 1.80653 9.92046 0 15.7829 0C18.7838 0 22.6921 0.641022 25.065 2.5641C28.066 4.8951 27.7868 8.04196 27.7868 11.4219L27.7868 19.4056C27.7868 21.7949 28.9733 22.8438 30.0899 24.1841C30.5086 24.6503 30.5784 25.2331 30.0899 25.5245C28.7639 26.3986 26.5306 28.0303 25.2744 28.9044V28.9044Z" fill="white" fill-opacity="0.6"/>
</svg>
