<svg width="29" height="29" viewBox="0 0 29 29" fill="none" xmlns="http://www.w3.org/2000/svg">
<path d="M3.62502 14.5C3.62502 14.7404 3.7205 14.9709 3.89045 15.1408C4.06041 15.3108 4.29092 15.4063 4.53127 15.4063H22.2813L15.6713 22.0151C15.5871 22.0993 15.5204 22.1993 15.4748 22.3093C15.4292 22.4193 15.4058 22.5372 15.4058 22.6563C15.4058 22.7753 15.4292 22.8933 15.4748 23.0033C15.5204 23.1133 15.5871 23.2132 15.6713 23.2974C15.7555 23.3816 15.8555 23.4484 15.9655 23.494C16.0755 23.5396 16.1934 23.563 16.3125 23.563C16.4316 23.563 16.5495 23.5396 16.6595 23.494C16.7695 23.4484 16.8695 23.3816 16.9537 23.2974L25.1099 15.1412C25.1942 15.057 25.261 14.9571 25.3067 14.8471C25.3523 14.737 25.3757 14.6191 25.3757 14.5C25.3757 14.3809 25.3523 14.263 25.3067 14.153C25.261 14.043 25.1942 13.943 25.1099 13.8588L16.9537 5.70259C16.7836 5.53254 16.553 5.43701 16.3125 5.43701C16.072 5.43701 15.8414 5.53254 15.6713 5.70259C15.5013 5.87264 15.4058 6.10328 15.4058 6.34377C15.4058 6.58425 15.5013 6.81489 15.6713 6.98494L22.2813 13.5938H4.53127C4.29092 13.5938 4.06041 13.6892 3.89045 13.8592C3.7205 14.0292 3.62502 14.2597 3.62502 14.5Z" fill="white"/>
</svg>
