<svg width="33" height="33" viewBox="0 0 33 33" fill="none" xmlns="http://www.w3.org/2000/svg">
<path d="M9.79955 21.9303C9.91956 22.0784 10.0935 22.1728 10.2831 22.1926C10.4727 22.2125 10.6624 22.1562 10.8105 22.0362L21.7476 13.1729L20.9748 20.5457C20.9649 20.6396 20.9737 20.7346 21.0006 20.8251C21.0274 20.9156 21.0718 21 21.1313 21.0734C21.1908 21.1468 21.2641 21.2077 21.3471 21.2527C21.4301 21.2978 21.5212 21.326 21.6151 21.3358C21.709 21.3457 21.804 21.3369 21.8945 21.3101C21.9851 21.2832 22.0694 21.2388 22.1428 21.1793C22.2162 21.1199 22.2771 21.0465 22.3221 20.9635C22.3672 20.8805 22.3954 20.7894 22.4053 20.6955L23.3582 11.5971C23.3681 11.5032 23.3594 11.4082 23.3325 11.3176C23.3057 11.2271 23.2613 11.1427 23.2018 11.0693C23.1423 10.9959 23.069 10.935 22.9859 10.89C22.9029 10.8449 22.8118 10.8167 22.7179 10.8069L13.6194 9.85401C13.4297 9.83414 13.2399 9.89044 13.0917 10.0105C12.9436 10.1306 12.8492 10.3046 12.8293 10.4943C12.8094 10.684 12.8657 10.8738 12.9858 11.022C13.1059 11.1702 13.2799 11.2646 13.4696 11.2845L20.8426 12.0561L9.90543 20.9194C9.75733 21.0394 9.66297 21.2133 9.64311 21.4029C9.62326 21.5925 9.67953 21.7822 9.79955 21.9303Z" fill="black"/>
</svg>
