<svg width="61" height="61" viewBox="0 0 61 61" fill="none" xmlns="http://www.w3.org/2000/svg">
<path d="M53.9779 13.4413L31.1029 5.81634C30.7115 5.68589 30.2885 5.68589 29.8972 5.81634L7.02215 13.4413C6.64258 13.5679 6.31244 13.8106 6.07852 14.1352C5.84459 14.4598 5.71872 14.8498 5.71875 15.2499V34.3124C5.71875 34.818 5.91959 35.3028 6.27708 35.6603C6.63457 36.0178 7.11943 36.2186 7.625 36.2186C8.13057 36.2186 8.61543 36.0178 8.97292 35.6603C9.33041 35.3028 9.53125 34.818 9.53125 34.3124V17.8948L17.5351 20.5612C15.4086 23.9967 14.7324 28.1358 15.6549 32.0695C16.5775 36.0032 19.0234 39.41 22.4556 41.5418C18.1666 43.2241 14.4589 46.267 11.7473 50.4274C11.6062 50.637 11.5083 50.8725 11.4591 51.1203C11.4099 51.3681 11.4104 51.6232 11.4607 51.8708C11.511 52.1183 11.6099 52.3535 11.7519 52.5624C11.8938 52.7714 12.0759 52.9501 12.2875 53.0881C12.4991 53.2262 12.736 53.3207 12.9844 53.3664C13.2329 53.412 13.488 53.4078 13.7348 53.354C13.9816 53.3002 14.2153 53.1979 14.4223 53.053C14.6292 52.9081 14.8053 52.7235 14.9402 52.5099C18.5311 47.0009 24.2022 43.8436 30.5 43.8436C36.7978 43.8436 42.4689 47.0009 46.0598 52.5099C46.3394 52.9255 46.7713 53.2143 47.2621 53.3139C47.7529 53.4136 48.2632 53.3161 48.6827 53.0425C49.1023 52.7688 49.3972 52.3411 49.5039 51.8518C49.6105 51.3624 49.5203 50.8507 49.2527 50.4274C46.5411 46.267 42.8191 43.2241 38.5444 41.5418C41.9733 39.4101 44.4169 36.0055 45.3393 32.0746C46.2617 28.1438 45.5876 24.0076 43.4649 20.5731L53.9779 17.0704C54.3575 16.9439 54.6877 16.7012 54.9217 16.3766C55.1558 16.052 55.2817 15.662 55.2817 15.2618C55.2817 14.8617 55.1558 14.4716 54.9217 14.147C54.6877 13.8224 54.3575 13.5797 53.9779 13.4533V13.4413ZM41.9375 28.5936C41.938 30.4019 41.5098 32.1844 40.688 33.7951C39.8662 35.4058 38.6742 36.7986 37.2098 37.8594C35.7455 38.9202 34.0505 39.6187 32.2639 39.8976C30.4773 40.1764 28.6501 40.0277 26.9321 39.4637C25.2141 38.8996 23.6544 37.9362 22.3808 36.6526C21.1072 35.369 20.1561 33.8017 19.6056 32.0794C19.055 30.357 18.9207 28.5287 19.2135 26.7443C19.5064 24.96 20.2182 23.2705 21.2904 21.8145L29.8972 24.6739C30.2885 24.8044 30.7115 24.8044 31.1029 24.6739L39.7096 21.8145C41.1578 23.778 41.9387 26.1539 41.9375 28.5936ZM30.5 20.8662L13.6535 15.2499L30.5 9.63361L47.3465 15.2499L30.5 20.8662Z" fill="black"/>
<path d="M29.917 5.87573C30.2955 5.74958 30.7045 5.74958 31.083 5.87573L53.915 13.4861V13.4988L53.958 13.5125C54.3252 13.6347 54.6448 13.8695 54.8711 14.1833C55.0974 14.4972 55.2187 14.8746 55.2188 15.2615C55.2188 15.6484 55.0973 16.0257 54.8711 16.3396C54.6448 16.6536 54.3252 16.8892 53.958 17.0115L43.4453 20.5134L43.3701 20.5388L43.4121 20.6062C45.526 24.0266 46.1969 28.1457 45.2783 32.0603C44.3597 35.975 41.9265 39.366 38.5117 41.489L38.4053 41.5544L38.5215 41.6003C42.7834 43.2776 46.4954 46.311 49.2002 50.4607C49.459 50.8702 49.5455 51.3653 49.4424 51.8386C49.3392 52.3118 49.0541 52.7254 48.6484 52.99C48.2427 53.2546 47.7491 53.3491 47.2744 53.2527C46.7997 53.1563 46.3817 52.8772 46.1113 52.4753H46.1123C42.5105 46.9497 36.8199 43.781 30.5 43.781C24.1801 43.781 18.4895 46.9497 14.8877 52.4753V52.4763C14.7572 52.6828 14.5868 52.8616 14.3867 53.0017C14.1866 53.1418 13.9603 53.2407 13.7217 53.2927C13.483 53.3447 13.2363 53.3485 12.9961 53.3044C12.7558 53.2603 12.5259 53.1694 12.3213 53.0359C12.1167 52.9024 11.9409 52.7292 11.8037 52.5271C11.6665 52.325 11.5701 52.0976 11.5215 51.8582C11.4729 51.6188 11.473 51.3721 11.5205 51.1326C11.5681 50.8931 11.6626 50.6653 11.7988 50.4626L11.7998 50.4617C14.5047 46.3116 18.2022 43.2776 22.4785 41.6003L22.5947 41.5544L22.4883 41.489C19.0702 39.3659 16.6346 35.9729 15.7158 32.0554C14.7971 28.138 15.4703 24.0159 17.5879 20.5945L17.6299 20.5271L17.5547 20.5017L9.55078 17.8357L9.46875 17.8083V34.3123C9.46875 34.8012 9.27444 35.2702 8.92871 35.616C8.58294 35.9617 8.11399 36.156 7.625 36.156C7.13601 36.156 6.66706 35.9617 6.32129 35.616C5.97556 35.2702 5.78125 34.8012 5.78125 34.3123V15.2498C5.78125 14.8628 5.9027 14.4855 6.12891 14.1716C6.35517 13.8577 6.67487 13.6231 7.04199 13.5007L29.917 5.87573ZM39.6895 21.7556L31.083 24.615C30.752 24.7253 30.3974 24.7387 30.0605 24.656L29.917 24.615L21.3105 21.7556L21.2666 21.741L21.2402 21.7771C20.1621 23.241 19.4458 24.94 19.1514 26.7341C18.8569 28.5282 18.9923 30.3666 19.5459 32.0984C20.0995 33.8301 21.0554 35.4064 22.3359 36.697C23.6164 37.9875 25.1849 38.956 26.9121 39.5232C28.6394 40.0903 30.4771 40.2401 32.2734 39.9597C34.0697 39.6793 35.7738 38.9764 37.2461 37.9099C38.7184 36.8434 39.9178 35.4434 40.7441 33.824C41.5704 32.2045 42.0005 30.4116 42 28.5935C42.0011 26.1404 41.2159 23.7512 39.7598 21.7771L39.7334 21.741L39.6895 21.7556ZM30.4805 9.57397L13.6338 15.1902L13.4561 15.2498L13.6338 15.3093L30.4805 20.9255L30.5 20.9324L30.5195 20.9255L47.3662 15.3093L47.5439 15.2498L47.3662 15.1902L30.5195 9.57397L30.5 9.56812L30.4805 9.57397Z" stroke="black" stroke-opacity="0.5" stroke-width="0.125"/>
</svg>
