<svg width="59" height="59" viewBox="0 0 59 59" fill="none" xmlns="http://www.w3.org/2000/svg">
<path d="M29.5 0L29.8151 28.1195L42.2996 2.92142L30.3829 28.3929L52.564 11.107L30.7758 28.8856L58.2604 22.9356L30.916 29.5L58.2604 36.0644L30.7758 30.1144L52.564 47.893L30.3829 30.6071L42.2996 56.0786L29.8151 30.8805L29.5 59L29.1849 30.8805L16.7004 56.0786L28.6171 30.6071L6.43597 47.893L28.2242 30.1144L0.739626 36.0644L28.084 29.5L0.739626 22.9356L28.2242 28.8856L6.43597 11.107L28.6171 28.3929L16.7004 2.92142L29.1849 28.1195L29.5 0Z" fill="white" fill-opacity="0.5"/>
</svg>
