<svg width="358" height="59" viewBox="0 0 358 59" fill="none" xmlns="http://www.w3.org/2000/svg">
<path d="M20.544 29.076C19.52 29.076 18.656 29.252 17.952 29.604C17.28 29.924 16.72 30.308 16.272 30.756C15.792 31.236 15.424 31.796 15.168 32.436L14.688 32.292L16.176 27.444H29.28V27.972C28.96 28.068 28.672 28.308 28.416 28.692C28.16 29.044 27.936 29.588 27.744 30.324C27.584 31.028 27.504 32.036 27.504 33.348V46.5H26.688C26.688 46.308 26.544 46.036 26.256 45.684C25.968 45.332 25.408 45.156 24.576 45.156C23.872 45.156 23.232 45.268 22.656 45.492C22.08 45.684 21.488 45.908 20.88 46.164C20.272 46.388 19.584 46.596 18.816 46.788C18.08 47.012 17.152 47.124 16.032 47.124C13.568 47.124 11.424 46.58 9.6 45.492C7.776 44.404 6.256 43.012 5.04 41.316C3.824 39.62 2.912 37.748 2.304 35.7C1.728 33.62 1.44 31.62 1.44 29.7C1.44 27.78 1.728 25.796 2.304 23.748C2.912 21.668 3.776 19.78 4.896 18.084C6.048 16.388 7.456 14.996 9.12 13.908C10.816 12.82 12.768 12.276 14.976 12.276C15.584 12.276 16.112 12.308 16.56 12.372C17.008 12.436 17.408 12.516 17.76 12.612C18.144 12.676 18.48 12.74 18.768 12.804C19.056 12.868 19.344 12.9 19.632 12.9C20.368 12.9 20.832 12.724 21.024 12.372C21.216 12.02 21.312 11.668 21.312 11.316C21.312 11.156 21.296 10.98 21.264 10.788L21.792 10.644L25.296 20.868L24.768 21.06C24.192 20.228 23.52 19.396 22.752 18.564C22.016 17.7 21.184 16.932 20.256 16.26C19.36 15.588 18.4 15.044 17.376 14.628C16.352 14.18 15.312 13.956 14.256 13.956C12.656 13.956 11.328 14.356 10.272 15.156C9.248 15.924 8.416 16.916 7.776 18.132C7.168 19.316 6.736 20.628 6.48 22.068C6.256 23.508 6.144 24.868 6.144 26.148C6.144 28.004 6.448 30.02 7.056 32.196C7.664 34.372 8.544 36.404 9.696 38.292C10.848 40.148 12.272 41.7 13.968 42.948C15.664 44.196 17.584 44.82 19.728 44.82C20.304 44.82 20.784 44.788 21.168 44.724C21.552 44.628 21.856 44.548 22.08 44.484C22.336 44.388 22.544 44.276 22.704 44.148V29.076H20.544ZM36.6172 32.532C36.7453 33.748 37.0333 34.98 37.4813 36.228C37.9613 37.444 38.6173 38.548 39.4493 39.54C40.2813 40.532 41.3053 41.348 42.5213 41.988C43.7693 42.596 45.2093 42.9 46.8413 42.9C48.2173 42.9 49.3693 42.708 50.2973 42.324C51.2253 41.908 51.9613 41.476 52.5053 41.028C53.1773 40.484 53.7213 39.86 54.1373 39.156L54.6653 39.444C54.3453 40.436 53.8813 41.396 53.2733 42.324C52.6653 43.22 51.9133 44.036 51.0173 44.772C50.1533 45.476 49.1453 46.052 47.9933 46.5C46.8413 46.916 45.5613 47.124 44.1533 47.124C42.3293 47.124 40.6493 46.772 39.1133 46.068C37.6093 45.332 36.2973 44.372 35.1773 43.188C34.0893 41.972 33.2413 40.58 32.6333 39.012C32.0253 37.412 31.7213 35.764 31.7213 34.068C31.7213 32.372 32.0253 30.74 32.6333 29.172C33.2413 27.604 34.0893 26.228 35.1773 25.044C36.2653 23.828 37.5453 22.868 39.0173 22.164C40.5213 21.428 42.1533 21.06 43.9133 21.06C45.2573 21.06 46.5373 21.3 47.7533 21.78C48.9693 22.26 50.0093 22.98 50.8733 23.94C51.7693 24.9 52.3773 25.956 52.6973 27.108C53.0493 28.26 53.2253 29.332 53.2253 30.324C53.2253 31.028 53.1613 31.764 53.0333 32.532H36.6172ZM47.6093 30.948C47.6733 30.436 47.7053 29.94 47.7053 29.46C47.7053 28.884 47.6253 28.212 47.4653 27.444C47.3373 26.676 47.0493 25.924 46.6013 25.188C46.1533 24.452 45.5613 23.876 44.8253 23.46C44.0893 23.044 43.2413 22.836 42.2812 22.836C41.2573 22.836 40.3773 23.076 39.6413 23.556C38.9373 24.004 38.3613 24.612 37.9133 25.38C37.4653 26.148 37.1293 27.028 36.9053 28.02C36.6813 28.98 36.5693 29.956 36.5693 30.948H47.6093ZM71.0411 23.268H62.8811V40.596C62.8811 40.916 62.9131 41.284 62.9771 41.7C63.0411 42.084 63.1851 42.452 63.4091 42.804C63.6331 43.124 63.9531 43.396 64.3691 43.62C64.8171 43.844 65.3931 43.956 66.0971 43.956C66.9931 43.956 67.7451 43.796 68.3531 43.476C68.9931 43.124 69.5051 42.756 69.8891 42.372C70.3691 41.892 70.7531 41.364 71.0411 40.788L71.5691 41.076C70.8331 42.932 69.8731 44.404 68.6891 45.492C67.5371 46.58 66.0971 47.124 64.3691 47.124C63.6651 47.124 62.9291 47.012 62.1611 46.788C61.4251 46.564 60.7531 46.212 60.1451 45.732C59.5371 45.22 59.0411 44.548 58.6571 43.716C58.2731 42.884 58.0811 41.844 58.0811 40.596V23.268H55.4411V21.684H55.4891C56.8971 21.172 58.1771 20.532 59.3291 19.764C60.5131 18.964 61.5691 17.732 62.4971 16.068L62.8811 16.356V21.684H71.0411V23.268ZM94.6793 40.596C94.6793 41.908 94.8553 42.916 95.2073 43.62C95.5593 44.324 95.9593 44.852 96.4073 45.204C96.8873 45.62 97.4473 45.876 98.0873 45.972V46.5H86.4713V45.972C87.1113 45.876 87.6873 45.62 88.1992 45.204C88.6153 44.852 88.9993 44.324 89.3513 43.62C89.7033 42.916 89.8793 41.908 89.8793 40.596V18.804C89.8793 17.492 89.7033 16.484 89.3513 15.78C88.9993 15.044 88.6153 14.5 88.1992 14.148C87.6873 13.764 87.1113 13.524 86.4713 13.428V12.9H98.0873V13.428C97.4473 13.524 96.8873 13.764 96.4073 14.148C95.9593 14.5 95.5593 15.044 95.2073 15.78C94.8553 16.484 94.6793 17.492 94.6793 18.804V40.596ZM112.572 45.972V46.5H100.956V45.972C101.596 45.876 102.172 45.62 102.684 45.204C103.1 44.852 103.484 44.324 103.836 43.62C104.188 42.916 104.364 41.908 104.364 40.596V28.26C104.364 26.948 104.188 25.94 103.836 25.236C103.484 24.5 103.1 23.956 102.684 23.604C102.172 23.22 101.596 22.98 100.956 22.884V22.356C102.428 22.324 103.772 22.228 104.988 22.068C106.204 21.876 107.468 21.54 108.78 21.06L109.164 21.3V28.74C109.452 28.036 109.836 27.252 110.316 26.388C110.828 25.492 111.484 24.66 112.284 23.892C113.084 23.092 114.044 22.42 115.164 21.876C116.316 21.332 117.676 21.06 119.244 21.06C120.46 21.06 121.468 21.236 122.268 21.588C123.068 21.94 123.692 22.468 124.14 23.172C124.62 23.844 124.956 24.692 125.148 25.716C125.34 26.708 125.436 27.876 125.436 29.22V40.596C125.436 41.908 125.612 42.916 125.964 43.62C126.316 44.324 126.716 44.852 127.164 45.204C127.644 45.62 128.204 45.876 128.844 45.972V46.5H117.228V45.972C117.868 45.876 118.444 45.62 118.956 45.204C119.372 44.852 119.756 44.324 120.108 43.62C120.46 42.916 120.636 41.908 120.636 40.596V29.22C120.636 27.3 120.332 25.892 119.724 24.996C119.148 24.068 118.204 23.604 116.892 23.604C116.092 23.604 115.372 23.764 114.732 24.084C114.092 24.372 113.516 24.772 113.004 25.284C112.492 25.764 112.044 26.324 111.66 26.964C111.276 27.604 110.94 28.26 110.652 28.932C109.98 30.5 109.484 32.276 109.164 34.26V40.596C109.164 41.908 109.34 42.916 109.692 43.62C110.044 44.324 110.444 44.852 110.892 45.204C111.372 45.62 111.932 45.876 112.572 45.972ZM155.166 14.484H153.198C151.598 14.484 150.222 14.82 149.07 15.492C147.918 16.164 146.974 16.916 146.238 17.748C145.342 18.74 144.59 19.844 143.982 21.06L143.502 20.868L147.006 10.644L147.486 10.788C147.454 10.98 147.438 11.156 147.438 11.316C147.438 11.508 147.454 11.684 147.486 11.844C147.55 12.1 147.678 12.34 147.87 12.564C148.094 12.788 148.43 12.9 148.878 12.9H166.35C166.798 12.9 167.118 12.788 167.31 12.564C167.534 12.34 167.678 12.1 167.742 11.844C167.774 11.684 167.79 11.524 167.79 11.364C167.79 11.204 167.774 11.028 167.742 10.836L168.222 10.644L171.726 20.868L171.198 21.06C170.622 19.844 169.886 18.756 168.99 17.796C168.254 16.964 167.31 16.212 166.158 15.54C165.006 14.868 163.63 14.532 162.03 14.532H160.014V40.596C160.014 41.908 160.19 42.916 160.542 43.62C160.894 44.324 161.278 44.852 161.694 45.204C162.174 45.62 162.734 45.876 163.374 45.972V46.5H151.806V45.972C152.446 45.876 153.006 45.62 153.486 45.204C153.934 44.852 154.318 44.324 154.638 43.62C154.99 42.916 155.166 41.908 155.166 40.596V14.484ZM180.368 21.06C182.128 21.06 183.744 21.428 185.216 22.164C186.72 22.868 188 23.828 189.056 25.044C190.144 26.228 190.992 27.604 191.6 29.172C192.208 30.74 192.512 32.372 192.512 34.068C192.512 35.764 192.208 37.412 191.6 39.012C190.992 40.58 190.144 41.972 189.056 43.188C188 44.372 186.72 45.332 185.216 46.068C183.744 46.772 182.128 47.124 180.368 47.124C178.608 47.124 176.976 46.772 175.472 46.068C174 45.332 172.72 44.372 171.632 43.188C170.544 41.972 169.696 40.58 169.088 39.012C168.48 37.412 168.176 35.764 168.176 34.068C168.176 32.372 168.48 30.74 169.088 29.172C169.696 27.604 170.544 26.228 171.632 25.044C172.72 23.828 174 22.868 175.472 22.164C176.976 21.428 178.608 21.06 180.368 21.06ZM187.712 36.996C187.712 35.716 187.52 34.26 187.136 32.628C186.752 30.996 186.16 29.46 185.36 28.02C184.592 26.548 183.616 25.316 182.432 24.324C181.28 23.332 179.936 22.836 178.4 22.836C177.376 22.836 176.512 23.124 175.808 23.7C175.136 24.244 174.576 24.948 174.128 25.812C173.712 26.644 173.408 27.54 173.216 28.5C173.056 29.46 172.976 30.356 172.976 31.188C172.976 32.468 173.168 33.924 173.552 35.556C173.936 37.188 174.512 38.74 175.28 40.212C176.08 41.652 177.056 42.868 178.208 43.86C179.392 44.852 180.752 45.348 182.288 45.348C183.312 45.348 184.16 45.06 184.832 44.484C185.536 43.908 186.096 43.204 186.512 42.372C186.96 41.54 187.264 40.644 187.424 39.684C187.616 38.692 187.712 37.796 187.712 36.996ZM196.942 28.26C196.942 26.948 196.766 25.94 196.414 25.236C196.062 24.5 195.678 23.956 195.262 23.604C194.75 23.22 194.174 22.98 193.534 22.884V22.356C195.006 22.324 196.35 22.228 197.566 22.068C198.782 21.876 200.046 21.54 201.358 21.06L201.742 21.3V38.964C201.742 42.676 202.942 44.532 205.342 44.532C206.11 44.532 206.814 44.388 207.454 44.1C208.094 43.78 208.67 43.38 209.182 42.9C209.694 42.388 210.142 41.812 210.526 41.172C210.942 40.532 211.294 39.876 211.582 39.204C212.286 37.668 212.83 35.908 213.214 33.924V28.26C213.214 26.948 213.038 25.94 212.686 25.236C212.334 24.5 211.95 23.956 211.534 23.604C211.022 23.22 210.446 22.98 209.806 22.884V22.356C211.278 22.324 212.622 22.228 213.838 22.068C215.054 21.876 216.318 21.54 217.63 21.06L218.014 21.3V40.596C218.014 41.908 218.19 42.916 218.542 43.62C218.894 44.324 219.294 44.852 219.742 45.204C220.222 45.62 220.782 45.876 221.422 45.972V46.5H213.214V39.444C212.958 40.148 212.574 40.948 212.062 41.844C211.582 42.708 210.958 43.54 210.19 44.34C209.422 45.108 208.494 45.764 207.406 46.308C206.318 46.852 205.022 47.124 203.518 47.124C201.246 47.124 199.582 46.436 198.526 45.06C197.47 43.652 196.942 41.62 196.942 38.964V28.26ZM245.306 39.444C244.986 40.436 244.522 41.396 243.914 42.324C243.306 43.22 242.554 44.036 241.658 44.772C240.794 45.476 239.786 46.052 238.634 46.5C237.482 46.916 236.202 47.124 234.794 47.124C232.97 47.124 231.29 46.772 229.754 46.068C228.25 45.332 226.938 44.372 225.818 43.188C224.73 41.972 223.882 40.58 223.274 39.012C222.666 37.412 222.362 35.764 222.362 34.068C222.362 32.372 222.666 30.74 223.274 29.172C223.882 27.604 224.714 26.228 225.77 25.044C226.826 23.828 228.058 22.868 229.466 22.164C230.906 21.428 232.442 21.06 234.074 21.06C235.098 21.06 235.93 21.156 236.57 21.348C237.21 21.54 237.754 21.636 238.202 21.636C238.746 21.636 239.05 21.476 239.114 21.156C239.21 20.804 239.258 20.516 239.258 20.292C239.258 20.068 239.226 19.812 239.162 19.524L239.69 19.38L242.426 29.604L241.898 29.748C241.418 28.82 240.874 27.94 240.266 27.108C239.69 26.276 239.034 25.556 238.298 24.948C237.594 24.308 236.826 23.796 235.994 23.412C235.162 23.028 234.25 22.836 233.258 22.836C232.138 22.836 231.178 23.076 230.378 23.556C229.61 24.036 228.986 24.676 228.506 25.476C228.026 26.276 227.674 27.172 227.45 28.164C227.258 29.156 227.162 30.164 227.162 31.188C227.162 32.468 227.354 33.796 227.738 35.172C228.154 36.548 228.778 37.812 229.61 38.964C230.474 40.116 231.546 41.06 232.826 41.796C234.138 42.532 235.69 42.9 237.482 42.9C238.858 42.9 239.994 42.708 240.89 42.324C241.818 41.908 242.57 41.476 243.146 41.028C243.818 40.484 244.346 39.86 244.73 39.156L245.306 39.444ZM253.352 40.596C253.352 41.908 253.528 42.916 253.88 43.62C254.232 44.324 254.632 44.852 255.08 45.204C255.56 45.62 256.12 45.876 256.76 45.972V46.5H245.144V45.972C245.784 45.876 246.344 45.62 246.824 45.204C247.272 44.852 247.656 44.324 247.976 43.62C248.328 42.916 248.504 41.908 248.504 40.596V16.596C248.504 15.284 248.328 14.276 247.976 13.572C247.656 12.868 247.272 12.34 246.824 11.988C246.344 11.572 245.784 11.332 245.144 11.268V10.692C246.04 10.692 246.904 10.564 247.736 10.308C248.568 10.052 249.32 9.716 249.992 9.3C250.696 8.884 251.288 8.404 251.768 7.86C252.28 7.316 252.632 6.772 252.824 6.228H253.352V28.74C253.608 28.036 253.976 27.252 254.456 26.388C254.968 25.492 255.624 24.66 256.424 23.892C257.256 23.092 258.232 22.42 259.352 21.876C260.504 21.332 261.864 21.06 263.432 21.06C264.648 21.06 265.656 21.236 266.456 21.588C267.256 21.94 267.88 22.468 268.328 23.172C268.808 23.844 269.144 24.692 269.336 25.716C269.528 26.708 269.624 27.876 269.624 29.22V40.596C269.624 41.908 269.8 42.916 270.152 43.62C270.504 44.324 270.904 44.852 271.352 45.204C271.832 45.62 272.392 45.876 273.032 45.972V46.5H261.416V45.972C262.056 45.876 262.632 45.62 263.144 45.204C263.56 44.852 263.944 44.324 264.296 43.62C264.648 42.916 264.824 41.908 264.824 40.596V29.22C264.824 27.3 264.52 25.892 263.912 24.996C263.336 24.068 262.392 23.604 261.08 23.604C260.28 23.604 259.56 23.764 258.92 24.084C258.28 24.372 257.704 24.772 257.192 25.284C256.68 25.764 256.232 26.324 255.848 26.964C255.464 27.604 255.128 28.26 254.84 28.932C254.168 30.5 253.672 32.276 253.352 34.26V40.596Z" fill="white" fill-opacity="0.5"/>
<path d="M328.5 0L328.815 28.1195L341.3 2.92142L329.383 28.3929L351.564 11.107L329.776 28.8856L357.26 22.9356L329.916 29.5L357.26 36.0644L329.776 30.1144L351.564 47.893L329.383 30.6071L341.3 56.0786L328.815 30.8805L328.5 59L328.185 30.8805L315.7 56.0786L327.617 30.6071L305.436 47.893L327.224 30.1144L299.74 36.0644L327.084 29.5L299.74 22.9356L327.224 28.8856L305.436 11.107L327.617 28.3929L315.7 2.92142L328.185 28.1195L328.5 0Z" fill="white" fill-opacity="0.5"/>
</svg>
