<svg width="254" height="174" viewBox="0 0 254 174" fill="none" xmlns="http://www.w3.org/2000/svg">
<path d="M137.518 168.512V172.711H152.77C152.788 168.351 156.34 164.809 160.703 164.809C165.067 164.809 168.619 168.351 168.636 172.711H183.888V168.512H176.528C176.152 167.107 175.598 165.777 174.884 164.547L180.09 159.342L174.106 153.358L168.901 158.563C167.67 157.849 166.34 157.296 164.936 156.92V149.56H156.472V156.92C155.067 157.296 153.737 157.85 152.507 158.563L147.301 153.358L141.317 159.342L146.522 164.547C145.808 165.777 145.255 167.107 144.879 168.512H137.518Z" fill="#BEDCE0"/>
<path d="M8.08447 172.711C8.08447 172.711 9.93157 58.9547 32.1785 58.0965C54.4255 57.2383 40.4044 151.549 53.4903 151.549C66.5758 151.549 67.271 96.7313 81.4881 96.7313C95.7051 96.7313 89.3491 155.672 100.447 155.672C111.544 155.672 106.803 87.3468 119.088 87.3468C133.286 87.3468 127.967 145.903 136.639 145.903C150.168 145.903 141.149 53.9775 166.125 53.9775C192.836 53.9775 182.66 161.103 194.637 161.103C206.614 161.103 202.549 80.4576 223.363 80.4576C240.707 80.4576 242.789 172.712 242.789 172.712" stroke="#BEDCE0" stroke-width="0.8315" stroke-miterlimit="10"/>
<path d="M19.3607 83.5572C19.3607 84.8387 18.3215 85.8779 17.04 85.8779C15.7584 85.8779 14.7192 84.8387 14.7192 83.5572C14.7192 82.2751 15.7584 81.2365 17.04 81.2365C18.3215 81.2365 19.3607 82.2751 19.3607 83.5572Z" fill="#4A75C9"/>
<path d="M94.4164 125.987C94.4164 127.269 93.3772 128.308 92.0956 128.308C90.8141 128.308 89.7749 127.269 89.7749 125.987C89.7749 124.706 90.8141 123.667 92.0956 123.667C93.3772 123.667 94.4164 124.706 94.4164 125.987Z" fill="#4A75C9"/>
<path d="M139.839 145.991C139.839 147.272 138.8 148.312 137.518 148.312C136.237 148.312 135.198 147.272 135.198 145.991C135.198 144.709 136.237 143.67 137.518 143.67C138.8 143.67 139.839 144.709 139.839 145.991Z" fill="#4A75C9"/>
<path d="M159.736 59.0278C159.736 60.3093 158.697 61.3485 157.416 61.3485C156.134 61.3485 155.095 60.3093 155.095 59.0278C155.095 57.7462 156.134 56.707 157.416 56.707C158.697 56.707 159.736 57.7462 159.736 59.0278Z" fill="#4A75C9"/>
<path d="M210.093 107.895C210.093 109.177 209.054 110.216 207.772 110.216C206.491 110.216 205.451 109.177 205.451 107.895C205.451 106.614 206.491 105.574 207.772 105.574C209.054 105.574 210.093 106.613 210.093 107.895Z" fill="#4A75C9"/>
<path d="M237.525 114.97C238.807 114.97 239.846 113.931 239.846 112.649C239.846 111.368 238.807 110.329 237.525 110.329C236.243 110.329 235.204 111.368 235.204 112.649C235.204 113.931 236.243 114.97 237.525 114.97Z" fill="#4A75C9"/>
<path d="M229.268 78.5186H199.301C197.842 78.5186 196.659 77.3357 196.659 75.8771V55.5663C196.659 54.1077 197.842 52.9248 199.301 52.9248H229.268C230.727 52.9248 231.91 54.1072 231.91 55.5663V75.8771C231.91 77.3362 230.727 78.5186 229.268 78.5186Z" fill="#1B2536"/>
<path d="M219.251 58.3593H226.344C226.63 58.3593 226.862 58.127 226.862 57.8406C226.862 57.5542 226.63 57.322 226.344 57.322H219.251C218.965 57.322 218.732 57.5542 218.732 57.8406C218.732 58.127 218.965 58.3593 219.251 58.3593Z" fill="#D68D8D"/>
<path d="M213.713 60.3297H226.344C226.63 60.3297 226.862 60.0975 226.862 59.8111C226.862 59.5247 226.63 59.2925 226.344 59.2925H213.713C213.427 59.2925 213.195 59.5247 213.195 59.8111C213.195 60.0975 213.427 60.3297 213.713 60.3297Z" fill="white"/>
<path d="M205.576 60.3297H211.632C211.918 60.3297 212.15 60.0975 212.15 59.8111C212.15 59.5247 211.918 59.2925 211.632 59.2925H205.576C205.289 59.2925 205.057 59.5247 205.057 59.8111C205.057 60.0975 205.289 60.3297 205.576 60.3297Z" fill="#BEDCE0"/>
<path d="M204.705 62.2996H226.344C226.63 62.2996 226.863 62.0674 226.863 61.781C226.863 61.4946 226.63 61.2623 226.344 61.2623H204.705C204.418 61.2623 204.186 61.4946 204.186 61.781C204.186 62.0674 204.418 62.2996 204.705 62.2996Z" fill="#EBBC3B"/>
<path d="M224.752 64.2701H226.344C226.631 64.2701 226.863 64.0379 226.863 63.7515C226.863 63.4651 226.631 63.2329 226.344 63.2329H224.752C224.465 63.2329 224.233 63.4651 224.233 63.7515C224.233 64.0379 224.465 64.2701 224.752 64.2701Z" fill="#4A75C9"/>
<path d="M211.8 64.2701H222.656C222.942 64.2701 223.174 64.0379 223.174 63.7515C223.174 63.4651 222.942 63.2329 222.656 63.2329H211.8C211.513 63.2329 211.281 63.4651 211.281 63.7515C211.281 64.0379 211.513 64.2701 211.8 64.2701Z" fill="#BEDCE0"/>
<path d="M219.251 66.2401H226.344C226.63 66.2401 226.862 66.0079 226.862 65.7215C226.862 65.4351 226.63 65.2029 226.344 65.2029H219.251C218.965 65.2029 218.732 65.4351 218.732 65.7215C218.732 66.0079 218.965 66.2401 219.251 66.2401Z" fill="white"/>
<path d="M208.863 68.2106H226.344C226.63 68.2106 226.862 67.9784 226.862 67.692C226.862 67.4056 226.63 67.1733 226.344 67.1733H208.863C208.576 67.1733 208.344 67.4056 208.344 67.692C208.344 67.9784 208.576 68.2106 208.863 68.2106Z" fill="#EBBC3B"/>
<path d="M204.445 70.181H226.344C226.63 70.181 226.862 69.9488 226.862 69.6624C226.862 69.376 226.63 69.1438 226.344 69.1438H204.445C204.159 69.1438 203.927 69.376 203.927 69.6624C203.927 69.9488 204.159 70.181 204.445 70.181Z" fill="white"/>
<path d="M214.751 72.151H226.344C226.631 72.151 226.863 71.9188 226.863 71.6324C226.863 71.346 226.631 71.1138 226.344 71.1138H214.751C214.464 71.1138 214.232 71.346 214.232 71.6324C214.232 71.9188 214.464 72.151 214.751 72.151Z" fill="#4A75C9"/>
<path d="M204.445 72.151H211.891C212.177 72.151 212.409 71.9188 212.409 71.6324C212.409 71.346 212.177 71.1138 211.891 71.1138H204.445C204.159 71.1138 203.927 71.346 203.927 71.6324C203.927 71.9188 204.159 72.151 204.445 72.151Z" fill="#BEDCE0"/>
<path d="M219.251 74.1215H226.344C226.63 74.1215 226.862 73.8892 226.862 73.6028C226.862 73.3164 226.63 73.0842 226.344 73.0842H219.251C218.965 73.0842 218.732 73.3164 218.732 73.6028C218.732 73.8892 218.965 74.1215 219.251 74.1215Z" fill="#D68D8D"/>
<path d="M69.2847 55.6051C71.0201 55.0202 71.6437 53.3434 71.1758 51.9008C70.708 50.4581 68.3491 50.1267 63.9621 51.7837C59.5756 53.4407 56.4169 53.2655 56.1441 54.6888C55.8712 56.1121 57.041 56.8141 59.1857 56.5408L61.0865 60.9858L69.2847 55.6051Z" fill="#365896"/>
<path d="M72.328 100.925L85.1933 166.476H76.4198L61.4466 111.716L43.2335 165.526H34.9897L49.2808 100.925H72.328Z" fill="#1B2536"/>
<path d="M63.7672 55.2544L69.4019 54.3381C69.4019 54.3381 69.7918 56.2293 69.7725 57.9061C69.7725 57.9061 70.8058 59.0101 70.7473 60.9476C70.6887 62.878 69.636 64.6128 67.7057 64.9834L67.7449 68.532H60.8625L61.8567 59.7585C61.8567 59.7585 64.1571 59.1925 63.7672 55.2544Z" fill="#D9956A"/>
<path d="M63.0945 61.3361C62.6639 62.3346 61.3848 62.7435 60.2378 62.2485C59.0907 61.7536 58.5102 60.5432 58.9407 59.5447C59.3713 58.5461 60.6504 58.1373 61.797 58.6322C62.9445 59.1267 63.5251 60.3376 63.0945 61.3361Z" fill="#D9956A"/>
<path d="M59.6729 59.7971C59.6729 59.7971 61.4667 58.7444 62.4996 60.9862" stroke="#422424" stroke-width="0.3868" stroke-miterlimit="10"/>
<path d="M60.5696 60.8692L60.8618 59.564" stroke="#422424" stroke-width="0.3868" stroke-miterlimit="10"/>
<path d="M67.2764 65.0026C67.2764 65.0026 65.4632 65.2755 63.8647 63.8914" stroke="#422424" stroke-width="0.3868" stroke-miterlimit="10"/>
<path d="M66.9678 57.1256C66.9678 57.1256 66.9654 58.2838 67.6233 59.0545C67.7322 59.1817 67.6983 59.3752 67.5498 59.4526L66.9678 59.7574" stroke="#422424" stroke-width="0.3868" stroke-miterlimit="10"/>
<path d="M65.9312 60.4399H68.7971C68.7971 60.4399 67.8808 62.916 67.1982 62.9353C66.5161 62.9551 65.9312 60.4399 65.9312 60.4399Z" fill="#422424"/>
<path d="M67.0675 61.323C66.7661 61.323 66.4793 61.3646 66.2185 61.4386C66.4536 62.1382 66.8102 62.9471 67.1982 62.9359C67.5576 62.9258 67.9805 62.2349 68.3017 61.5828C67.9514 61.4198 67.5271 61.323 67.0675 61.323Z" fill="#943232"/>
<path d="M65.2121 56.9684C64.946 57.0042 64.8062 57.4938 64.8996 58.0622C64.9281 58.2364 64.977 58.3951 65.0365 58.5344L65.4264 58.2712C65.4264 58.2712 65.3282 58.5731 65.2285 58.8571C65.3301 58.9751 65.4424 59.0409 65.5508 59.0264C65.8168 58.9906 65.9566 58.501 65.8633 57.9326C65.7699 57.3641 65.4782 56.9326 65.2121 56.9684Z" fill="#1B2536"/>
<path d="M68.2475 56.5591C67.9814 56.5949 67.8416 57.0845 67.935 57.6529C67.9635 57.8271 68.0124 57.9858 68.0719 58.1251L68.4618 57.8619C68.4618 57.8619 68.3636 58.1638 68.2639 58.4478C68.3655 58.5658 68.4778 58.6316 68.5862 58.6171C68.8522 58.5813 68.992 58.0917 68.8987 57.5233C68.8053 56.9548 68.5136 56.5233 68.2475 56.5591Z" fill="#1B2536"/>
<path d="M64.0496 56.3263C64.0496 56.3263 65.0462 56.0046 65.8052 56.3263" stroke="#365896" stroke-width="0.75" stroke-miterlimit="10" stroke-linecap="round" stroke-linejoin="round"/>
<path d="M67.4858 56.0487C67.4858 56.0487 68.0862 55.6191 69.0581 55.7536" stroke="#365896" stroke-width="0.75" stroke-miterlimit="10" stroke-linecap="round" stroke-linejoin="round"/>
<path d="M61.1522 67.1082H67.7932C68.2794 67.1082 68.7017 67.442 68.8144 67.9146L69.0592 68.9407L77.9416 72.0767L85.6231 84.8888L88.9768 80.9087L94.3579 83.2052L91.0948 91.5617C89.6642 95.2254 85.1926 96.5989 81.9517 94.371L74.7621 89.4282L73.3799 98.0294C73.3799 98.0294 78.2933 102.227 72.795 102.227H49.4799C48.8495 102.227 48.3773 101.648 48.5041 101.03L54.7024 70.7816L59.8886 68.785L60.1421 67.8759C60.2678 67.4221 60.681 67.1082 61.1522 67.1082Z" fill="#D65353"/>
<path d="M85.6226 84.8888L82.24 89.2269" stroke="#1B2536" stroke-width="0.4299" stroke-miterlimit="10"/>
<path d="M74.7612 89.4281L75.7965 82.5574" stroke="#1B2536" stroke-width="0.4299" stroke-miterlimit="10"/>
<path d="M88.4485 85.9856H66.6321L70.2789 68.5315H92.0953L88.4485 85.9856Z" fill="#EDD1C2"/>
<path d="M88.506 72.0766H72.3862C72.0297 72.0766 71.8013 71.7868 71.8763 71.4288C71.9508 71.0713 72.3006 70.781 72.6567 70.781H88.7765C89.133 70.781 89.3609 71.0708 89.2864 71.4288C89.2119 71.7868 88.8626 72.0766 88.506 72.0766Z" stroke="white" stroke-width="0.4299" stroke-miterlimit="10"/>
<path d="M87.8911 75.0208H71.7713C71.4148 75.0208 71.1869 74.731 71.2614 74.373C71.3359 74.0155 71.6857 73.7252 72.0418 73.7252H88.1616C88.5181 73.7252 88.7465 74.015 88.6715 74.373C88.597 74.7305 88.2477 75.0208 87.8911 75.0208Z" stroke="white" stroke-width="0.4299" stroke-miterlimit="10"/>
<path d="M83.0863 77.9648H71.1561C70.7996 77.9648 70.5717 77.675 70.6462 77.317C70.7212 76.9595 71.0705 76.6692 71.4265 76.6692H83.3567C83.7133 76.6692 83.9416 76.959 83.8666 77.317C83.7921 77.675 83.4429 77.9648 83.0863 77.9648Z" stroke="white" stroke-width="0.4299" stroke-miterlimit="10"/>
<path d="M86.6608 80.9086H70.541C70.1845 80.9086 69.9561 80.6188 70.0311 80.2608C70.1061 79.9033 70.4554 79.613 70.8119 79.613H86.9317C87.2883 79.613 87.5166 79.9028 87.4416 80.2608C87.3666 80.6188 87.0174 80.9086 86.6608 80.9086Z" stroke="white" stroke-width="0.4299" stroke-miterlimit="10"/>
<path d="M79.7503 83.8525H69.926C69.5695 83.8525 69.3411 83.5627 69.4161 83.2047C69.4906 82.8472 69.8404 82.5569 70.1965 82.5569H80.0207C80.3773 82.5569 80.6051 82.8467 80.5306 83.2047C80.4561 83.5627 80.1064 83.8525 79.7503 83.8525Z" stroke="white" stroke-width="0.4299" stroke-miterlimit="10"/>
<path d="M50.2289 92.6071C50.2289 92.6071 59.9128 88.1988 66.0482 86.5656C63.6424 90.9796 56.5481 96.4619 52.0789 99.6307C50.7001 100.608 48.8385 99.3917 49.1781 97.7357L50.2289 92.6071Z" fill="#1B2536"/>
<path d="M54.7015 70.7815C52.1669 71.5531 50.0223 73.1521 46.7079 76.9343C43.3934 80.7166 36.2943 87.7189 39.9232 93.5451C44.1733 100.369 60.0434 91.2447 66.0487 86.5655L62.9292 80.6774L52.8302 83.6411L56.6516 77.9648L54.7015 70.7815Z" fill="#D65353"/>
<path d="M46.9414 82.5575C46.9414 82.5575 48.6085 82.2135 51.7377 83.2052" stroke="#1B2536" stroke-width="0.4299" stroke-miterlimit="10"/>
<path d="M62.9287 80.6778L65.4241 79.7808L67.7385 74.9009C67.9765 74.3987 68.4279 74.031 68.9678 73.8989L72.1681 73.1171C72.7496 72.9749 73.3248 73.3736 73.3959 73.9681L73.6567 76.1486C73.7002 76.5109 73.4922 76.8563 73.1526 76.9879L70.633 77.9647C70.633 77.9647 72.8144 78.3183 73.7307 78.4354C73.8613 78.4519 73.8604 78.9395 73.7307 78.9618C72.8338 79.1176 70.633 79.0203 70.633 79.0203C70.633 79.0203 69.1686 81.8573 67.1507 81.9153L64.6118 83.8524L62.9287 80.6778Z" fill="#D9956A"/>
<path d="M68.8867 75.513L73.3951 74.2896" stroke="#422424" stroke-width="0.3868" stroke-miterlimit="10"/>
<path d="M69.2212 76.6697L73.5772 75.4873" stroke="#422424" stroke-width="0.3868" stroke-miterlimit="10"/>
<path d="M93.1788 82.702V79.1664L93.7608 76.2299C93.8856 75.5995 93.6209 74.9551 93.0883 74.5951L90.4594 72.8177C90.1454 72.6053 89.7158 72.7688 89.622 73.136L88.5954 77.1616C88.5378 77.3876 88.6341 77.6251 88.8334 77.7465L90.0187 78.4703L89.4657 81.1176L93.1788 82.702Z" fill="#D9956A"/>
<path d="M90.0188 78.4703L91.3153 79.2546" stroke="#422424" stroke-width="0.3868" stroke-miterlimit="10"/>
<path d="M88.8208 76.2769L91.7051 77.9648" stroke="#422424" stroke-width="0.3868" stroke-miterlimit="10"/>
<path d="M89.106 75.021L91.9903 76.7089" stroke="#422424" stroke-width="0.3868" stroke-miterlimit="10"/>
<path d="M89.4736 73.822L92.358 75.51" stroke="#422424" stroke-width="0.3868" stroke-miterlimit="10"/>
<path d="M70.6319 91.114L62.436 96.2804" stroke="#1B2536" stroke-width="0.4299" stroke-miterlimit="10"/>
<path d="M41.7946 164.591L42.5178 167.632L50.6851 171.22L51.0751 173.001H33.3723L36.4134 164.591H41.7946Z" fill="#1B2536"/>
<path d="M59.1855 56.5408C60.2915 56.4953 62.0946 55.7275 62.0946 55.7275L59.8972 58.205L59.1855 56.5408Z" fill="#1B2536"/>
<path d="M45.0696 85.9926L62.9286 80.6777L66.0481 86.5654" stroke="#1B2536" stroke-width="0.4299" stroke-miterlimit="10"/>
<path d="M52.8296 83.6411L57.3317 77.1206" stroke="#1B2536" stroke-width="0.4299" stroke-miterlimit="10"/>
<path d="M245.908 146.418V136.332H237.136C236.688 134.657 236.028 133.073 235.177 131.606L241.381 125.403L234.25 118.271L228.046 124.475C226.58 123.624 224.995 122.964 223.321 122.516V113.744H213.234V122.516C211.56 122.964 209.975 123.624 208.509 124.475L202.305 118.271L195.174 125.403L201.377 131.606C200.526 133.073 199.867 134.657 199.418 136.332H190.647V146.418H199.418C199.867 148.093 200.526 149.678 201.377 151.144L195.174 157.347L202.305 164.479L208.509 158.275C209.975 159.126 211.56 159.785 213.234 160.234V169.006H223.321V160.234C224.995 159.785 226.58 159.126 228.046 158.275L234.25 164.479L241.381 157.347L235.177 151.144C236.028 149.678 236.688 148.093 237.136 146.418H245.908ZM227.733 141.375C227.733 146.589 223.491 150.831 218.277 150.831C213.064 150.831 208.821 146.589 208.821 141.375C208.821 136.161 213.064 131.919 218.277 131.919C223.491 131.919 227.733 136.161 227.733 141.375Z" fill="#D4780E"/>
<path d="M191.61 63.3061L190.44 67.9079C190.44 67.9079 187.834 65.01 188.016 62.8523L191.61 63.3061Z" fill="#1B2536"/>
<path d="M167.128 161.53L166.486 165.663L159.721 168.811C159.123 169.089 158.659 169.591 158.429 170.209L157.416 172.926H173.347L172.477 166.032L172.951 161.53H167.128Z" fill="#D68D8D"/>
<path d="M168.818 165.741C168.818 164.836 168.084 164.104 167.18 164.104H166.728L166.486 165.664L159.72 168.811C159.122 169.089 158.658 169.591 158.428 170.209L157.415 172.927H173.347L172.476 166.032L172.507 165.742H168.818V165.741Z" fill="#1B2536"/>
<path d="M157.416 172.926H173.347L173.149 171.353H158.002L157.416 172.926Z" fill="#4A6CAB"/>
<path d="M203.247 161.53L203.539 165.667L196.741 168.744C196.141 169.016 195.671 169.513 195.435 170.128L194.394 173.001H210.325L209.526 166.098L209.071 161.591L203.247 161.53Z" fill="#D68D8D"/>
<path d="M209.526 166.098L209.484 165.683H205.433L205.4 165.451C205.285 164.644 204.593 164.045 203.779 164.045H203.425L203.539 165.667L196.741 168.744C196.141 169.016 195.671 169.513 195.435 170.128L194.394 173.001H210.325L209.526 166.098Z" fill="#1B2536"/>
<path d="M194.394 173.001L210.324 173.001L210.142 171.426L194.996 171.269L194.394 173.001Z" fill="#4A6CAB"/>
<path d="M170.285 121.949H159.676L161.04 116.793H168.921L170.285 121.949ZM161.297 120.702H168.664L167.96 118.04H162.001L161.297 120.702Z" fill="#1B2536"/>
<path d="M174.52 136.243H155.107C153.972 136.243 153.052 135.323 153.052 134.188V123.472H176.575V134.188C176.575 135.323 175.655 136.243 174.52 136.243Z" fill="#6E9296"/>
<path d="M176.198 126.183H153.429C152.793 126.183 152.278 125.668 152.278 125.032V122.605C152.278 121.219 153.402 120.095 154.788 120.095H174.839C176.226 120.095 177.35 121.219 177.35 122.605V125.032C177.349 125.668 176.834 126.183 176.198 126.183Z" fill="#496163"/>
<path d="M158.097 123.472H156.115V126.183H158.097V123.472Z" fill="white"/>
<path d="M173.512 123.472H171.53V126.183H173.512V123.472Z" fill="white"/>
<path d="M158.097 123.472H156.115V128.878H158.097V123.472Z" stroke="#1B2536" stroke-width="0.4299" stroke-miterlimit="10"/>
<path d="M173.512 123.472H171.53V128.878H173.512V123.472Z" stroke="#1B2536" stroke-width="0.4299" stroke-miterlimit="10"/>
<path d="M180.009 101.461V106.686L170.227 130.192C169.525 131.878 169.059 133.653 168.842 135.467L165.582 162.758H174.472L178.548 140.305C178.897 138.383 179.454 136.503 180.209 134.701L188.429 113.744H190.269L201.689 162.758H210.19L202.313 106.296L201.845 101.072L180.009 101.461Z" fill="#4A6CAB"/>
<path d="M180.009 103.801H202.09" stroke="#1B2536" stroke-width="0.4299" stroke-miterlimit="10"/>
<path d="M189.349 113.744L188.646 102.046" stroke="#1B2536" stroke-width="0.4299" stroke-miterlimit="10"/>
<path d="M186.716 102.28L187.107 107.996C187.174 108.971 187.984 109.727 188.962 109.727H189.108" stroke="#1B2536" stroke-width="0.4299" stroke-miterlimit="10"/>
<path d="M197.517 102.28C197.517 102.28 196.836 109.494 202.791 109.728" stroke="#1B2536" stroke-width="0.4299" stroke-miterlimit="10"/>
<path d="M182.778 102.514C182.778 102.514 182.937 109.635 178.666 109.915" stroke="#1B2536" stroke-width="0.4299" stroke-miterlimit="10"/>
<path d="M183.948 113.744L194.476 113.9" stroke="#1B2536" stroke-width="0.4299" stroke-miterlimit="10"/>
<path d="M186.326 113.9L176.734 136.243L172.757 161.198" stroke="#1B2536" stroke-width="0.4299" stroke-miterlimit="10"/>
<path d="M201.117 109.435L207.772 161.198" stroke="#1B2536" stroke-width="0.4299" stroke-miterlimit="10"/>
<path d="M180.009 103.053L202.287 106.004L201.845 101.072L180.009 101.461V103.053Z" fill="#1B2536"/>
<path d="M173.38 89.8805L172.171 95.8853L163.905 112.457L162.39 117.71C162.231 118.262 162.645 118.813 163.22 118.813H166.698C167.248 118.813 167.676 118.338 167.619 117.791L167.258 114.329L180.594 98.459L180.671 89.8805H173.38Z" fill="#D68D8D"/>
<path d="M164.685 113.744C164.685 113.744 165.441 115.421 164.549 117.877H165.421C165.923 117.877 166.328 118.287 166.323 118.788V118.813" stroke="#422424" stroke-width="0.3868" stroke-miterlimit="10"/>
<path d="M164.978 116.278H167.408" stroke="#422424" stroke-width="0.3868" stroke-miterlimit="10"/>
<path d="M166.42 116.278L166.97 118.769" stroke="#422424" stroke-width="0.3868" stroke-miterlimit="10"/>
<path d="M165.435 116.278L165.809 117.968" stroke="#422424" stroke-width="0.3868" stroke-miterlimit="10"/>
<path d="M172.78 92.8639C172.78 92.8639 174.836 94.3264 180.621 95.5736L180.672 89.8799H173.381L172.78 92.8639Z" fill="#1B2536"/>
<path d="M188.003 73.24C188.003 73.24 195.782 73.3082 199.584 75.3358C203.385 77.3633 209.644 89.6462 209.644 89.6462L202.157 90.114L203.703 101.033C203.813 101.815 203.206 102.513 202.416 102.513H178.84C176.461 102.513 179.581 100.564 179.581 100.564L178.879 91.9461C178.879 91.9461 173.654 92.9601 170.612 91.6341L175.4 79.2806C176.351 76.8268 178.501 75.0373 181.087 74.5482L188.003 73.24Z" fill="#6E9296"/>
<path d="M190.396 71.3779L192.515 73.5443L188.851 77.8897L186.92 75.6382L185.692 77.7146L183.017 74.0296L184.727 72.3334L190.396 71.3779Z" fill="#496163"/>
<path d="M198.054 90.3494L196.659 81.8086" stroke="#1B2536" stroke-width="0.4299" stroke-miterlimit="10"/>
<path d="M178.878 91.9468L178.001 81.8086" stroke="#1B2536" stroke-width="0.4299" stroke-miterlimit="10"/>
<path d="M187.226 76.5767L189.349 101.461" stroke="#1B2536" stroke-width="0.4299" stroke-miterlimit="10"/>
<path d="M196.75 99.7066H183.647L181.948 84.2085H195.051L196.75 99.7066Z" fill="white"/>
<path d="M189.344 83.8558C189.252 83.4029 188.836 83.0474 188.372 83.0474C187.908 83.0474 187.571 83.4029 187.578 83.8558H186.253L186.371 84.938H190.787L190.669 83.8558H189.344Z" fill="#D4780E"/>
<path d="M201.689 162.758H210.189L209.847 160.302H201.116L201.689 162.758Z" fill="#6B89BF"/>
<path d="M174.918 160.302H165.875L165.582 162.758H174.472L174.918 160.302Z" fill="#6B89BF"/>
<path d="M208.065 89.7449L198.054 90.3491L198.307 92.3428L188.73 90.665C188.73 90.665 187.631 88.1015 184.659 87.7391C184.492 87.7188 184.415 87.9418 184.556 88.0332C185.023 88.3342 185.624 88.8276 185.838 89.4711L183.284 89.5683L182.069 89.2935C181.86 89.2461 181.666 89.4159 181.685 89.6293L181.948 92.5615C181.98 92.9243 182.25 93.2189 182.608 93.2852C183.044 93.366 183.756 93.4492 184.883 93.4681C186.813 94.3844 188.275 94.1115 188.275 94.1115C188.275 94.1115 193.91 98.2837 201.376 99.9997C208.844 101.715 209.371 96.0607 208.065 89.7449Z" fill="#D68D8D"/>
<path d="M181.737 90.2747C181.737 90.2747 183.143 90.773 184.545 90.6907" stroke="#422424" stroke-width="0.3868" stroke-miterlimit="10"/>
<path d="M181.817 91.2031C181.817 91.2031 183.223 91.7014 184.625 91.6192" stroke="#422424" stroke-width="0.3868" stroke-miterlimit="10"/>
<path d="M181.897 92.1321C181.897 92.1321 183.304 92.6304 184.705 92.5481" stroke="#422424" stroke-width="0.3868" stroke-miterlimit="10"/>
<path d="M198.307 92.343L203.191 93.0585" stroke="#422424" stroke-width="0.3868" stroke-miterlimit="10"/>
<path d="M182.388 62.0781C182.388 62.0781 181.92 65.1584 181.491 67.3422C181.062 69.526 181.959 71.4757 184.727 71.3586V73.1133L186.911 75.3358L190.615 72.2943L190.381 66.2503C190.381 66.2503 188.431 65.6654 188.665 62.8188L182.388 62.0781Z" fill="#D68D8D"/>
<path d="M185.098 71.378C185.098 71.378 187.184 71.3973 188.256 69.6625" stroke="#422424" stroke-width="0.3868" stroke-miterlimit="10"/>
<path d="M191.507 67.7855C190.875 68.5721 189.866 68.8101 189.252 68.3177C188.639 67.8252 188.653 66.7879 189.285 66.0018C189.917 65.2151 190.926 64.9771 191.54 65.4696C192.153 65.9621 192.138 66.9989 191.507 67.7855Z" fill="#D68D8D"/>
<path d="M189.349 67.2067C189.465 66.3862 190.83 65.5638 191.367 66.3828" stroke="#422424" stroke-width="0.3868" stroke-miterlimit="10"/>
<path d="M190.646 67.2986L189.895 66.3712" stroke="#422424" stroke-width="0.3868" stroke-miterlimit="10"/>
<path d="M183.592 65.366L183.882 65.5068C183.91 65.4081 183.932 65.3036 183.944 65.1923C184 64.6689 183.84 64.2402 183.587 64.2344C183.334 64.2286 183.083 64.6486 183.027 65.172C182.971 65.6955 183.131 66.1241 183.384 66.1299C183.542 66.1333 183.699 65.9712 183.808 65.7216L183.592 65.366Z" fill="#28364F"/>
<path d="M186.314 65.4275L186.604 65.5683C186.631 65.4696 186.654 65.3651 186.666 65.2539C186.722 64.7304 186.562 64.3018 186.309 64.296C186.056 64.2902 185.806 64.7101 185.75 65.2335C185.693 65.757 185.853 66.1856 186.106 66.1914C186.264 66.1948 186.421 66.0327 186.53 65.7831L186.314 65.4275Z" fill="#28364F"/>
<path d="M184.61 65.3293L184.069 67.4203L185.517 67.2988" stroke="#422424" stroke-width="0.3868" stroke-miterlimit="10"/>
<path d="M183.704 68.3853C183.704 68.3853 185.327 68.8241 186.614 67.6398" stroke="#422424" stroke-width="0.3868" stroke-miterlimit="10"/>
<path d="M182.342 62.1353L191.707 63.3181C191.707 63.3181 192.838 58.9195 187.766 58.2374C183.673 57.6868 182.513 61.054 182.342 62.1353Z" fill="#4A75C9"/>
<path d="M187.957 58.2684C187.893 58.2582 187.833 58.2461 187.766 58.2374C183.673 57.6868 182.513 61.054 182.342 62.1353L186.855 62.7052L187.957 58.2684Z" fill="#6E9296"/>
<path d="M186.855 62.7051L178.059 61.5904C178.124 61.1458 178.532 60.8352 178.978 60.8904L187.024 61.9025L186.855 62.7051Z" fill="#1B2536"/>
<path d="M43.7836 97.8902C43.7836 97.8902 42.6327 96.1868 40.2055 96.8303C37.7783 97.4737 37.6617 99.5206 37.6617 100.486C37.6617 101.451 37.7788 102.825 36.1117 102.913C34.4446 103 34.0353 104.375 34.0353 105.165C34.0353 105.954 33.9182 107.212 32.8655 107.768H41.4343L43.7836 97.8902Z" fill="#6E4C2E"/>
<path d="M41.8399 106.062L43.657 98.424C43.1994 98.6644 42.7586 98.9885 42.3489 99.4094C39.8008 102.026 40.7935 104.679 41.8399 106.062Z" fill="#1B2536"/>
<path d="M44.8627 99.7146C44.8627 100.791 44.0364 101.663 43.017 101.663C41.9977 101.663 41.1714 100.791 41.1714 99.7146C41.1714 98.6381 41.9977 97.7659 43.017 97.7659C44.0364 97.7659 44.8627 98.6386 44.8627 99.7146Z" fill="#1B2536"/>
<path d="M51.904 101.158C51.0849 97.9997 45.9964 95.3969 42.7797 98.7017C39.563 102.006 41.9902 105.37 43.0429 106.159L51.904 101.158Z" fill="#6E4C2E"/>
<path d="M48.169 150.257H44.7549L52.0954 169.933H20.7479L28.0884 150.257H24.6744L16.1892 173.001H56.6541L48.169 150.257Z" fill="#496163"/>
<path d="M54.5649 159.95L52.6931 167.008L59.829 170.44L60.6243 170.639C61.6843 170.904 62.38 171.917 62.247 173.001H44.6613C44.1446 173.001 43.7963 172.473 44.0004 171.997L46.1809 166.93L48.0135 159.951H54.5649V159.95Z" fill="#DE6767"/>
<path d="M47.0517 163.615L46.1814 166.93L44.001 171.997C43.7968 172.472 44.1447 173.001 44.6618 173.001H62.2475C62.381 171.917 61.6848 170.903 60.6249 170.638L59.8295 170.439L52.6937 167.008L53.5935 163.615H47.0517Z" fill="#1B2536"/>
<path d="M68.691 140.036L79.0135 161.081H66.9256C66.9256 161.081 64.976 158.43 64.976 155.778C64.976 153.126 61.2024 151.36 60.6286 149.227C60.0549 147.093 56.1638 141.818 56.1638 141.818L53.8193 136.437H62.9179C65.3712 136.437 67.6107 137.833 68.691 140.036Z" fill="#1B2536"/>
<path d="M28.0887 150.257H24.6746L22.0771 157.22C22.9156 157.902 23.8793 158.424 24.9194 158.752L28.0887 150.257Z" fill="#1B2536"/>
<path d="M48.1692 150.257H44.7551L48.0729 159.151H51.487L48.1692 150.257Z" fill="#1B2536"/>
<path d="M37.552 119.208L51.1958 155.778H27.6513C24.228 155.778 21.1647 153.652 19.9683 150.445L10.1382 124.096C9.25528 121.729 11.0051 119.208 13.5315 119.208H37.552V119.208Z" fill="#496163"/>
<path d="M49.7808 151.985L37.5521 119.208H13.5311C13.1155 119.208 12.7237 119.282 12.3579 119.406C12.3894 119.704 12.4585 120.004 12.5693 120.302L22.3994 146.651C23.5958 149.859 26.6591 151.985 30.0824 151.985H49.7808Z" fill="#1B2536"/>
<path d="M22.0171 149.091H29.9546" stroke="#1B2536" stroke-width="0.4299" stroke-miterlimit="10"/>
<path d="M45.1286 136.438H55.709C59.5546 136.438 62.2842 140.186 61.1028 143.846L55.5397 161.081H43.7638C43.7638 161.081 44.3879 158.664 45.7135 157.494C47.0391 156.324 45.3308 154.686 46.0681 152.893C46.7222 151.301 47.4716 150.876 47.741 149.383H27.6014C23.5072 149.383 18.3601 143.242 25.7882 132.012H43.9201L43.5693 134.995L45.1286 136.438Z" fill="#4A6CAB"/>
<path d="M25.8628 132.421C25.8628 132.421 38.3469 132.972 41.3256 136.438H45.1291L43.5694 134.995L43.9202 132.012L25.8628 132.421Z" fill="#1B2536"/>
<path d="M37.9507 136.438H44.7" stroke="#1B2536" stroke-width="0.4299" stroke-miterlimit="10"/>
<path d="M32.2999 132.012L30.4112 138.065C30.0715 139.154 30.8848 140.259 32.0246 140.259H50.5923C52.4215 140.259 53.7399 142.013 53.2304 143.77L48.5987 159.756" stroke="#1B2536" stroke-width="0.4299" stroke-miterlimit="10"/>
<path d="M56.1629 139.966L50.7048 143.534" stroke="#1B2536" stroke-width="0.4299" stroke-miterlimit="10"/>
<path d="M56.7294 141.078L49.9636 148.33" stroke="#1B2536" stroke-width="0.4299" stroke-miterlimit="10"/>
<path d="M35.917 136.983L28.0889 142.364" stroke="#1B2536" stroke-width="0.4299" stroke-miterlimit="10"/>
<path d="M32.9826 137.451L27.2507 139.206" stroke="#1B2536" stroke-width="0.4299" stroke-miterlimit="10"/>
<path d="M35.9167 122.975C34.4934 120.155 33.3918 117.857 33.3918 117.857" stroke="black" stroke-width="0.4392" stroke-miterlimit="10"/>
<path d="M53.8193 120.416C53.8193 120.416 51.9113 116.888 51.2959 115.701C50.6592 114.473 50.0318 112.71 45.0604 111.072C40.089 109.434 33.4209 108.967 31.1108 115.079C28.8003 121.191 26.8409 129.38 26.8409 129.38L25.2633 131.004C24.749 131.533 25.1245 132.421 25.8622 132.421H44.2708L53.8193 120.416Z" fill="#D9956A"/>
<path d="M53.8194 120.416L56.9761 126.314L68.0911 131.141C68.0911 131.141 74.167 130.811 75.1892 134.131H51.2959L46.0681 123.233L53.8194 120.416Z" fill="#D65353"/>
<path d="M39.3581 129.497C38.3659 127.737 34.2817 119.687 34.2817 119.687L36.6175 129.505C37.0243 131.215 38.5516 132.421 40.3088 132.421H41.6203C40.8458 131.737 40.0901 130.795 39.3581 129.497Z" fill="#1B2536"/>
<path d="M34.6543 127.274L28.0889 130.354" stroke="#1B2536" stroke-width="0.4299" stroke-miterlimit="10"/>
<path d="M46.7862 115.284L46.3474 118.589C46.3474 118.589 47.0494 121.037 46.3474 123.132" stroke="#1B2536" stroke-width="0.4299" stroke-miterlimit="10"/>
<path d="M45.236 103.908L46.5664 100.925L51.9035 101.159C51.9035 101.159 52.1377 101.861 51.9035 102.913C51.6694 103.966 51.3056 104.434 51.1953 105.721C51.0845 107.008 51.2896 110.78 46.7856 110.283L44.862 113.705C44.862 113.705 41.6376 114.475 40.2051 110.054L45.236 103.908Z" fill="#DE6767"/>
<path d="M45.6908 105.316C45.4939 106.243 44.4804 106.813 43.4272 106.59C42.374 106.366 41.6797 105.433 41.8766 104.507C42.0735 103.58 43.0871 103.01 44.1403 103.233C45.1935 103.457 45.8877 104.39 45.6908 105.316Z" fill="#DE6767"/>
<path d="M43.0425 104.054C43.0425 104.054 44.1673 103.742 44.8625 105.399" stroke="#422424" stroke-width="0.3868" stroke-miterlimit="10"/>
<path d="M43.3352 105.165L44.0865 104.319" stroke="#422424" stroke-width="0.3868" stroke-miterlimit="10"/>
<path d="M46.3473 107.443C46.9488 107.443 47.4363 106.956 47.4363 106.354C47.4363 105.753 46.9488 105.265 46.3473 105.265C45.7459 105.265 45.2583 105.753 45.2583 106.354C45.2583 106.956 45.7459 107.443 46.3473 107.443Z" fill="#D65353"/>
<path d="M46.4644 110.195C46.4644 110.195 44.5341 109.888 43.8176 108.791" stroke="#422424" stroke-width="0.3868" stroke-miterlimit="10"/>
<path d="M36.1603 105.262L35.2246 107.768" stroke="white" stroke-width="0.4392" stroke-miterlimit="10"/>
<path d="M37.7748 105.262L36.8391 107.768" stroke="white" stroke-width="0.4392" stroke-miterlimit="10"/>
<path d="M39.389 105.262L38.4534 107.768" stroke="white" stroke-width="0.4392" stroke-miterlimit="10"/>
<path d="M41.0033 105.262L40.0676 107.768" stroke="white" stroke-width="0.4392" stroke-miterlimit="10"/>
<path d="M50.1869 104.62L49.8899 104.738C49.8826 104.642 49.8812 104.54 49.8909 104.433C49.9359 103.928 50.1647 103.526 50.4027 103.535C50.6403 103.545 50.7965 103.962 50.7515 104.467C50.7065 104.972 50.4777 105.374 50.2402 105.365C50.0916 105.359 49.9755 105.194 49.9194 104.949L50.1869 104.62Z" fill="#1B2536"/>
<path d="M47.6313 104.521L47.3342 104.639C47.327 104.542 47.3255 104.441 47.3352 104.333C47.3802 103.828 47.609 103.426 47.8471 103.435C48.0846 103.445 48.2409 103.862 48.1959 104.367C48.1509 104.872 47.922 105.274 47.6845 105.265C47.536 105.259 47.4199 105.094 47.3637 104.848L47.6313 104.521Z" fill="#1B2536"/>
<path d="M49.3743 103.878C49.3743 103.878 49.1537 104.899 49.5156 105.546C49.6031 105.703 49.4817 105.892 49.3027 105.877L48.6428 105.823" stroke="black" stroke-width="0.4392" stroke-miterlimit="10"/>
<path d="M49.6812 106.866C49.6812 106.866 48.4528 107.275 46.9763 106.515" stroke="#422424" stroke-width="0.3868" stroke-miterlimit="10"/>
<path d="M46.9761 102.46C47.1561 102.184 48.8372 102.609 48.857 102.878C48.8769 103.147 46.7274 102.84 46.9761 102.46Z" fill="#6E4C2E"/>
<path d="M51.7088 102.912C51.5574 102.621 49.8423 102.876 49.7954 103.142C49.749 103.408 51.9183 103.315 51.7088 102.912Z" fill="#6E4C2E"/>
<path d="M47.8194 148.759C47.9752 146.732 46.5717 144.158 48.9892 142.365" stroke="#1B2536" stroke-width="0.4299" stroke-miterlimit="10"/>
<path d="M44.001 171.997C43.7968 172.472 44.1447 173.001 44.6618 173.001H62.2475C62.3075 172.514 62.1928 172.045 61.9601 171.648H44.1514L44.001 171.997Z" fill="#6B89BF"/>
<path d="M44.5104 159.151C44.0068 160.142 43.7644 161.081 43.7644 161.081H55.5403L56.1634 159.151H44.5104Z" fill="#6B89BF"/>
<path d="M44.8627 119.687L48.599 127.274L64.3913 132.304C64.3913 132.304 69.7139 131.017 72.5798 134.234C72.5798 134.234 50.6464 134.234 47.7219 134.234C44.7974 134.234 41.9314 134.059 39.3577 129.497C38.2503 127.534 36.9915 125.105 35.9165 122.975L44.8627 119.687Z" fill="#DE6767"/>
<path d="M40.937 111.716L44.8625 119.687" stroke="#1B2536" stroke-width="0.4299" stroke-miterlimit="10"/>
<path d="M43.1668 107.151C43.4674 107.151 43.7111 106.907 43.7111 106.606C43.7111 106.306 43.4674 106.062 43.1668 106.062C42.8662 106.062 42.6226 106.306 42.6226 106.606C42.6226 106.907 42.8662 107.151 43.1668 107.151Z" stroke="#943232" stroke-miterlimit="10"/>
<path d="M97.6525 172.744H53.9932L67.1599 137.451H97.6525V172.744Z" fill="#496163"/>
<path d="M66.3562 139.605L97.6524 151.021V137.451H67.1598L66.3562 139.605Z" fill="#1B2536"/>
<path d="M97.6525 138.075H50.52C49.4595 138.075 48.5994 137.216 48.5994 136.155C48.5994 135.094 49.4591 134.234 50.52 134.234H97.6525V138.075Z" fill="#496163"/>
<path d="M0 173.001H254" stroke="#28364F" stroke-width="1.2517" stroke-miterlimit="10"/>
<path d="M61.5955 22.0322H31.9122C30.7414 22.0322 29.7922 22.9814 29.7922 24.1522V44.5559C29.7922 45.7267 30.7414 46.6759 31.9122 46.6759H45.8259C46.3716 46.6759 46.8762 46.9657 47.152 47.4369L51.6038 55.0546C51.8467 55.4697 52.4819 55.2974 52.4819 54.8166V48.2114C52.4819 47.3633 53.1693 46.6759 54.0174 46.6759H61.595C62.7657 46.6759 63.7149 45.7267 63.7149 44.5559V24.1522C63.7154 22.9814 62.7662 22.0322 61.5955 22.0322Z" stroke="#BEDCE0" stroke-width="1.2362" stroke-miterlimit="10"/>
<path d="M52.8209 31.8623C54.0385 35.3901 52.1658 39.2372 48.638 40.4549C45.1103 41.6726 41.2632 39.7998 40.0455 36.2721C38.8278 32.7443 40.7005 28.8972 44.2283 27.6795C47.7561 26.4618 51.6032 28.3346 52.8209 31.8623Z" fill="#EBBC3B"/>
<path d="M51.3264 29.4145C51.6298 29.7333 51.9036 30.0835 52.1431 30.4638C55.9365 29.5688 58.2944 29.4774 58.7947 29.8005C58.5083 30.6297 54.5006 33.2388 47.0357 35.8155C39.5714 38.3921 34.807 38.8101 34.0702 38.3341C34.2647 37.7714 36.1771 36.3887 39.7151 34.7535C39.6691 34.3065 39.6681 33.8614 39.7107 33.4236C36.1442 35.0148 32.332 37.1352 32.8869 38.7429C33.8796 41.619 46.8833 37.1672 47.4363 36.9765C47.9893 36.7855 60.9703 32.2683 59.9775 29.3922C59.4236 27.7846 55.1155 28.4667 51.3264 29.4145Z" fill="#4A75C9"/>
<path d="M99.0437 126.245C99.0437 126.245 104.425 112.792 120.919 103.083C120.919 103.083 125.13 92.1111 131.158 88.2926C133.176 87.0144 135.647 89.1237 134.772 91.3462L128.756 106.623H146.422L99.0437 126.245Z" fill="#365896"/>
<path d="M146.07 44.5936C144.721 34.8351 136.243 22.2896 119.866 22.2896C103.489 22.2896 95.0116 34.8351 93.6628 44.5936C92.3373 54.1856 94.8326 59.7231 99.5897 67.5217C104.794 76.0528 106.764 87.7982 106.764 87.7982H119.866H132.968C132.968 87.7982 134.938 76.0528 140.142 67.5217C144.9 59.7226 147.395 54.1856 146.07 44.5936Z" fill="#EBBC3B"/>
<path d="M119.866 87.2946C114.115 87.2946 109.032 87.0213 106.063 86.6062L108.68 104.64C108.758 105.184 113.767 105.62 119.866 105.62C125.966 105.62 130.974 105.184 131.053 104.64L133.67 86.6062C130.7 87.0218 125.617 87.2946 119.866 87.2946Z" fill="#1B2536"/>
<path d="M119.866 108.717C123.806 108.717 127 106.439 127 103.628C127 100.818 123.806 98.5398 119.866 98.5398C115.926 98.5398 112.732 100.818 112.732 103.628C112.732 106.439 115.926 108.717 119.866 108.717Z" fill="#1B2536"/>
<path d="M126.834 65.1037L128.057 56.7202H128.045C128.1 56.3956 128.153 56.0622 128.203 55.7212C129.11 49.4992 128.699 43.3652 127.088 43.3652C126.088 43.3652 125.015 45.8645 124.267 49.3448C124.001 45.8645 123.274 43.3652 122.274 43.3652C121.274 43.3652 120.373 45.8645 119.866 49.3448C119.36 45.8645 118.459 43.3652 117.459 43.3652C116.459 43.3652 115.732 45.8645 115.466 49.3448C114.718 45.8645 113.644 43.3652 112.644 43.3652C111.033 43.3652 110.622 49.4997 111.53 55.7212C111.579 56.0622 111.632 56.3956 111.687 56.7202L112.898 65.1037" stroke="white" stroke-width="2" stroke-miterlimit="10" stroke-linecap="round" stroke-linejoin="round"/>
<path d="M107.703 16.6074L102.757 3.01685" stroke="#D4780E" stroke-width="3" stroke-miterlimit="10"/>
<path d="M97.0076 22.7826L87.7112 11.7039" stroke="#D4780E" stroke-width="3" stroke-miterlimit="10"/>
<path d="M89.0687 32.244L76.5439 25.0123" stroke="#D4780E" stroke-width="3" stroke-miterlimit="10"/>
<path d="M84.8447 43.8496L70.6016 41.3378" stroke="#D4780E" stroke-width="3" stroke-miterlimit="10"/>
<path d="M119.866 0V14.4628" stroke="#D4780E" stroke-width="3" stroke-miterlimit="10"/>
<path d="M136.975 3.01685L132.029 16.6074" stroke="#D4780E" stroke-width="3" stroke-miterlimit="10"/>
<path d="M152.021 11.7039L142.725 22.7826" stroke="#D4780E" stroke-width="3" stroke-miterlimit="10"/>
<path d="M163.188 25.0123L150.663 32.244" stroke="#D4780E" stroke-width="3" stroke-miterlimit="10"/>
<path d="M169.13 41.3378L154.887 43.8496" stroke="#D4780E" stroke-width="3" stroke-miterlimit="10"/>
<path d="M121.387 146.248V132.328L152.193 113.729C156.628 111.052 159.691 106.592 160.598 101.492L163.658 84.2902C163.855 83.1842 163.077 82.131 161.96 82.0193C160.151 81.8383 157.471 82.3395 155.427 86.0037L155.708 76.925C155.745 75.7334 154.71 74.7905 153.527 74.9386L152.873 75.0203C149.188 75.4809 146.423 78.6134 146.423 82.327V97.5851L143.184 82.7164C142.943 81.6134 141.655 81.1141 140.734 81.7672L139.614 82.5621C136.951 84.4503 135.655 87.7333 136.309 90.9316L139.167 104.897L131.069 91.9079C130.615 91.1793 129.588 91.0912 129.017 91.7323C127.369 93.5789 126.986 96.2315 128.043 98.469L132.266 107.412L126.066 113.144C126.066 113.144 96.0024 115.6 96.0024 133.147C96.0024 140.751 96.0024 146.249 96.0024 146.249H121.387V146.248Z" fill="#4A75C9"/>
<path d="M96.0024 139.463L121.387 141.335V146.248H96.0024V139.463Z" fill="#1B2536"/>
<path d="M139.703 105.619L140.151 106.224C141.492 108.036 141.268 110.565 139.629 112.113L128.054 123.047" stroke="#1B2536" stroke-width="0.7511" stroke-miterlimit="10" stroke-linecap="round" stroke-linejoin="round"/>
<path d="M146.771 99.8073L147.17 101.697C148.028 105.759 146.772 109.978 143.833 112.911L135.039 121.686" stroke="#1B2536" stroke-width="0.7511" stroke-miterlimit="10" stroke-linecap="round" stroke-linejoin="round"/>
<path d="M155.428 87.4077L155.045 101.766C154.941 105.653 153.175 109.309 150.194 111.805L142.17 118.524" stroke="#1B2536" stroke-width="0.7511" stroke-miterlimit="10" stroke-linecap="round" stroke-linejoin="round"/>
<path d="M129.107 142.622H91.6738V157.01H129.107V142.622Z" fill="#BEDCE0"/>
<path d="M130.761 153.983H90.0203V173.001H130.761V153.983Z" fill="#1B2536"/>
<path d="M113.799 167.523V153.983" stroke="#BEDCE0" stroke-miterlimit="10"/>
<path d="M120.361 158.024C120.361 159.122 119.471 160.013 118.373 160.013C117.274 160.013 116.384 159.123 116.384 158.024C116.384 156.926 117.274 156.035 118.373 156.035C119.471 156.035 120.361 156.926 120.361 158.024Z" stroke="#BEDCE0" stroke-miterlimit="10"/>
<path d="M120.361 165.134C120.361 166.233 119.471 167.123 118.373 167.123C117.274 167.123 116.384 166.233 116.384 165.134C116.384 164.036 117.274 163.146 118.373 163.146C119.471 163.146 120.361 164.036 120.361 165.134Z" stroke="#BEDCE0" stroke-miterlimit="10"/>
<path d="M59.5288 105.492L51.2961 127.558H81.7888L90.0209 105.492H59.5288Z" fill="#BEDCE0"/>
<path d="M61.0922 105.492L52.8601 127.558" stroke="#4A75C9" stroke-width="0.7511" stroke-miterlimit="10"/>
<path d="M76.087 115.246C75.5243 117.399 73.3221 119.145 71.1683 119.145C69.0145 119.145 67.7252 117.399 68.2883 115.246C68.851 113.092 71.0532 111.346 73.2065 111.346C75.3603 111.346 76.6496 113.092 76.087 115.246Z" stroke="white" stroke-width="0.7511" stroke-miterlimit="10"/>
<path d="M65.7153 121.228L66.3563 127.68H81.7887L74.6306 121.228H65.7153Z" fill="#4A75C9"/>
<path d="M74.6306 121.228L79.4447 134.131H70.529L65.7153 121.228H74.6306Z" fill="#BEDCE0"/>
<path d="M66.6726 121.228L71.644 134.235" stroke="#4A75C9" stroke-width="0.7511" stroke-miterlimit="10"/>
<path d="M202.679 38.0465C202.679 31.9396 196.711 26.989 189.349 26.989C181.987 26.989 176.019 31.9396 176.019 38.0465C176.019 42.8176 179.662 46.8828 184.767 48.4329C186.046 48.8214 187.079 49.773 187.641 50.9854L189.349 54.6641L191.057 50.9854C191.62 49.7725 192.652 48.8214 193.932 48.4329C199.036 46.8828 202.679 42.8176 202.679 38.0465Z" fill="#4A75C9"/>
<path d="M184.454 37.9058C184.454 38.5729 183.913 39.1143 183.245 39.1143C182.578 39.1143 182.037 38.5734 182.037 37.9058C182.037 37.2381 182.578 36.6973 183.245 36.6973C183.913 36.6973 184.454 37.2381 184.454 37.9058Z" fill="white"/>
<path d="M188.523 37.9058C188.523 38.5729 187.982 39.1143 187.314 39.1143C186.647 39.1143 186.106 38.5734 186.106 37.9058C186.106 37.2381 186.647 36.6973 187.314 36.6973C187.982 36.6973 188.523 37.2381 188.523 37.9058Z" fill="white"/>
<path d="M192.592 37.9058C192.592 38.5729 192.051 39.1143 191.383 39.1143C190.716 39.1143 190.175 38.5734 190.175 37.9058C190.175 37.2381 190.716 36.6973 191.383 36.6973C192.051 36.6973 192.592 37.2381 192.592 37.9058Z" fill="white"/>
<path d="M196.661 37.9058C196.661 38.5729 196.12 39.1143 195.452 39.1143C194.785 39.1143 194.244 38.5734 194.244 37.9058C194.244 37.2381 194.785 36.6973 195.452 36.6973C196.12 36.6973 196.661 37.2381 196.661 37.9058Z" fill="white"/>
</svg>
