<svg width="301" height="193" viewBox="0 0 301 193" fill="none" xmlns="http://www.w3.org/2000/svg">
<path d="M294.909 158.932C282.208 178.199 260.431 189.524 237.354 189.524H45.8214C7.32358 189.524 -14.2643 144.512 10.7026 119.166C35.6699 93.8201 13.6167 72.1727 52.1272 51.8475C89.4361 32.1567 102.174 74.1292 136.544 46.6658C170.914 19.2023 220.953 21.7932 231.947 49.7747C242.941 77.7563 240.35 87.6036 263.668 93.8211C286.986 100.038 309.785 135.274 295.795 157.556C295.503 158.02 295.208 158.479 294.909 158.932Z" fill="#BDCAE0"/>
<path d="M286.395 166.743C266.217 168.454 252.616 206.276 202.175 183.542C202.175 183.542 207.714 167.031 232.525 156.74C257.336 146.449 286.395 166.743 286.395 166.743Z" fill="#CDDCF4"/>
<path d="M209.063 180.71C214.329 177.973 219.791 175.612 225.369 173.559C226.758 173.026 228.165 172.546 229.577 172.079C230.982 171.592 232.406 171.161 233.827 170.721C235.244 170.264 236.686 169.893 238.123 169.504C238.842 169.313 239.558 169.11 240.28 168.928L242.453 168.407L244.631 167.907L246.824 167.476L249.017 167.045C249.748 166.905 250.487 166.796 251.224 166.684C252.699 166.467 254.168 166.219 255.654 166.077C257.137 165.923 258.613 165.71 260.106 165.654C266.048 165.222 272.056 165.32 277.915 166.312C271.981 166.168 266.096 166.519 260.26 167.238L259.166 167.363L258.075 167.53L255.894 167.849C254.437 168.036 252.995 168.328 251.548 168.589C250.827 168.731 250.099 168.832 249.38 168.982L247.221 169.43L245.062 169.879L242.916 170.393L240.766 170.884C240.05 171.055 239.34 171.249 238.628 171.43L236.49 171.983C235.777 172.164 235.074 172.385 234.362 172.572C232.942 172.961 231.52 173.342 230.112 173.78C228.703 174.209 227.284 174.61 225.88 175.061C220.247 176.816 214.664 178.747 209.063 180.71Z" fill="#B0BDD1"/>
<path d="M288.864 102.379C264.244 119.977 275.634 178.954 193.474 188.24C193.474 188.24 187.99 162.798 212.015 130.639C236.04 98.4809 288.864 102.379 288.864 102.379Z" fill="#DBE9FF"/>
<path d="M198.94 181.134C202.524 173.37 206.946 165.987 211.923 158.999C216.884 151.995 222.447 145.405 228.506 139.301C234.572 133.209 241.145 127.591 248.258 122.741C255.349 117.893 263 113.722 271.159 111.122C263.586 115.093 256.568 119.813 249.903 124.99C243.263 130.195 236.984 135.841 231.035 141.82C225.083 147.797 219.473 154.116 214.134 160.677C208.81 167.256 203.808 174.103 198.94 181.134Z" fill="#CDDCF4"/>
<path d="M23.2825 161.486C43.2897 164.614 54.1938 203.3 106.11 184.175C106.11 184.175 101.747 167.314 77.723 155.302C53.6981 143.289 23.2825 161.486 23.2825 161.486Z" fill="#CDDCF4"/>
<path d="M99.4386 180.865C93.9898 178.513 88.5571 176.193 83.0618 174.045C81.6927 173.497 80.3059 172.996 78.9299 172.469C77.5573 171.933 76.1642 171.453 74.7755 170.964C74.0783 170.728 73.3932 170.458 72.694 170.228L70.6011 169.526C69.9029 169.295 69.208 169.052 68.5069 168.831L66.3965 168.189L64.2924 167.525L62.1708 166.925L60.0487 166.326C59.3411 166.126 58.6224 165.974 57.9129 165.781C56.489 165.419 55.0706 165.026 53.6301 164.737L51.4767 164.266L50.401 164.022L49.318 163.821C43.5469 162.692 37.7015 161.928 31.7717 161.653C37.6859 161.077 43.6865 161.402 49.5831 162.251C51.0685 162.412 52.5251 162.728 53.9944 162.987C55.4665 163.233 56.9148 163.584 58.3709 163.904C59.098 164.068 59.8265 164.229 60.5467 164.42L62.704 165.004L64.8613 165.589L66.9985 166.24L69.1289 166.914C69.8365 167.145 70.5367 167.399 71.2408 167.64C72.6466 168.129 74.0587 168.601 75.4401 169.156C76.8273 169.695 78.217 170.225 79.5847 170.81C80.9602 171.376 82.3299 171.953 83.6771 172.583C89.0961 175.024 94.379 177.763 99.4386 180.865Z" fill="#B0BDD1"/>
<path d="M36.5825 99.6699C58.7519 118.007 44.0031 173.174 121.296 187.481C121.296 187.481 128.201 163.721 107.57 131.615C86.9385 99.5098 36.5825 99.6699 36.5825 99.6699Z" fill="#DBE9FF"/>
<path d="M116.588 180.377C112.41 173.4 108.109 166.583 103.492 159.997C98.8581 153.428 93.9596 147.067 88.7168 141.003C83.4784 134.938 77.909 129.163 71.9723 123.774C66.0093 118.412 59.6869 113.453 52.7878 109.148C60.3681 112.126 67.3604 116.582 73.7717 121.647C80.2049 126.714 86.0693 132.482 91.4171 138.669C96.757 144.866 101.59 151.495 105.816 158.479C110.058 165.449 113.742 172.758 116.588 180.377Z" fill="#CDDCF4"/>
<path d="M166.958 151.028C164.183 154.324 161.668 159.788 160.107 160.655C158.545 161.522 155.913 161.824 153.426 169.83C150.938 177.837 163.497 176.741 163.497 176.741C163.497 176.741 168.866 173.656 171.035 166.206L176.412 161.436L166.958 151.028Z" fill="#F6A397"/>
<path d="M157.244 175.863C157.244 175.863 161.308 174.539 164.756 170.898C168.217 167.242 168.663 160.739 168.663 160.739L170.321 163.837L173.636 160.293L175.234 160.138L176.413 161.435L171.035 166.205C168.867 173.656 163.497 176.74 163.497 176.74C163.497 176.74 160.035 177.04 157.106 176.168C157.182 175.979 157.244 175.863 157.244 175.863Z" fill="#D65863"/>
<path d="M185.786 122.351C181.939 125.163 179.644 127.203 177.731 131.029C175.819 134.854 163.833 148.597 163.068 149.823C162.302 151.048 169.804 164.055 175.808 167.243C175.808 167.243 184.873 156.786 190.1 152.834C195.328 148.881 193.543 134.854 191.12 130.136C188.697 125.418 185.786 122.351 185.786 122.351Z" fill="#5470D3"/>
<path d="M185.646 147.659V139.852C185.646 139.852 186.663 139.444 187.457 142.08C187.775 143.134 187.75 144.242 187.609 145.196L193.445 140.807C193.686 145.721 192.897 150.719 190.1 152.833C184.872 156.786 175.808 167.242 175.808 167.242C174.259 166.42 172.611 164.942 171.031 163.183C174.721 159.509 181.723 152.414 185.646 147.659Z" fill="#314EC6"/>
<path d="M148.356 173.656C147.358 173.968 146.62 174.445 146.62 175.702C146.62 176.96 146.837 178.955 147.314 179.735C147.791 180.516 150.255 180.983 150.255 180.983C150.255 180.983 150.09 175.789 149.57 174.835C149.049 173.881 148.356 173.656 148.356 173.656Z" fill="#F6A397"/>
<path d="M147.314 179.736C147.18 179.517 147.068 179.195 146.975 178.827C147.509 179.353 147.688 179.356 148.343 179.426L150.213 180.009C150.242 180.593 150.254 180.984 150.254 180.984C150.254 180.984 147.791 180.516 147.314 179.736Z" fill="#D65863"/>
<path d="M150.74 171.756C149.525 171.886 148.311 172.797 148.311 174.055C148.311 175.313 147.878 178.825 148.311 179.389C148.745 179.953 150.87 181.557 151.607 181.687C152.345 181.817 153.597 181.6 153.426 181.21C153.255 180.82 150.74 171.756 150.74 171.756Z" fill="#F6A397"/>
<path d="M148.127 178.445C149.048 179.484 151.402 179.39 151.402 179.39C151.402 179.39 152.437 180.495 152.564 180.85C152.641 181.065 153.065 181.347 153.123 181.565C152.733 181.714 152.069 181.768 151.607 181.687C150.885 181.559 148.832 180.017 148.343 179.425L148.127 178.447C148.127 178.447 148.127 178.446 148.127 178.445Z" fill="#D65863"/>
<path d="M155.29 169.682C151.564 169.892 150.87 170.239 150.74 171.757C150.61 173.274 150.697 177.698 151.174 178.825C151.651 179.953 151.911 180.95 152.518 181.557C153.125 182.164 154.033 182.167 154.033 182.167C154.033 182.167 156.074 179.172 156.161 176.657C156.247 174.141 155.29 169.682 155.29 169.682Z" fill="#F6A397"/>
<path d="M153.147 179.675C153.335 178.644 153.754 177.547 153.808 174.1C153.828 172.805 155.028 179.568 154.492 181.423C154.225 181.884 154.033 182.166 154.033 182.166C154.033 182.166 153.125 182.164 152.518 181.557C151.911 180.95 151.651 179.952 151.174 178.825C151.143 178.751 151.114 178.663 151.086 178.563C151.329 179.196 152.101 179.611 153.147 179.675Z" fill="#D65863"/>
<path d="M163.446 177.307C163.212 179.379 160.497 180.126 160.194 181.166C159.89 182.207 160.107 183.161 159.587 183.421C159.066 183.682 156.898 182.467 156.985 181.079C156.985 181.079 156.421 182.25 155.163 182.467C153.905 182.684 153.602 181.765 153.819 180.382C154.036 178.998 153.992 178.26 153.949 176.613C153.905 174.965 153.515 173.447 154.253 171.626C154.99 169.805 155.987 168.2 157.982 168.504C159.977 168.808 161.191 171.323 162.275 172.19C163.359 173.057 163.706 175.008 163.446 177.307Z" fill="#F6A397"/>
<path d="M156.984 181.08C157.106 178.445 157.244 176.288 157.244 175.863C157.244 175.437 157.106 172.64 158.101 172.471C158.251 172.445 160.439 173.83 160.481 174.766C160.524 175.701 160.481 177.38 159.801 177.858C159.12 178.336 156.984 181.08 156.984 181.08Z" fill="#D65863"/>
<path d="M247.354 127.969C243.401 122.953 242.04 122.443 237.96 120.063C233.88 117.682 218.408 111.647 215.221 110.882C212.032 110.117 199.176 116.11 194.957 118.023C190.738 119.935 185.37 121.817 184.455 123.681C181.394 129.921 187.457 138.765 187.489 157.296C187.506 167.003 189.718 188.829 189.718 188.829C189.718 188.829 238.301 188.92 238.981 187.899C239.661 186.879 241.361 152.026 242.211 144.885C243.06 137.745 247.354 127.969 247.354 127.969Z" fill="#5470D3"/>
<path d="M184.634 133.452C184.269 132.278 184.053 131.084 183.871 129.884C183.705 128.682 183.574 127.475 183.592 126.247C183.957 127.42 184.174 128.615 184.354 129.814C184.52 131.016 184.65 132.223 184.634 133.452Z" fill="#314EC6"/>
<path d="M202.801 126.151C200.924 125.45 196.476 126.669 195.663 126.952C194.85 127.235 196.141 123.76 196.619 123.33C197.098 122.9 197.863 121.898 199.329 122.351C200.795 122.804 202.028 124.483 202.241 125.036C202.454 125.588 202.801 126.151 202.801 126.151Z" fill="#314EC6"/>
<path d="M218.441 129.052C217.771 129.02 213.866 127.224 212.931 126.778C211.995 126.332 207.76 126.123 204.916 126.918C204.916 126.918 210.391 123.218 213.579 123.25C216.767 123.282 217.978 124.43 218.234 125.45C218.489 126.47 218.441 129.052 218.441 129.052Z" fill="#314EC6"/>
<path d="M197.556 181.014C198.078 180.504 229.805 181.524 230.443 178.209C231.081 174.893 231.519 168.864 231.519 168.864C227.7 170.904 222.154 170.055 222.154 170.055C225.852 168.847 231.208 162.78 231.463 160.995C232.248 155.495 229.31 140.333 229.31 140.333L231.463 136.002L233.981 134.599C233.981 134.599 238.757 136.978 242.841 141.353C242.565 142.563 242.345 143.758 242.21 144.885C241.409 151.618 239.852 182.978 239.106 187.4C229.279 187.762 211.465 188.414 199.545 188.823C193.769 188.837 189.717 188.83 189.717 188.83C189.717 188.83 189.642 185.959 189.469 181.842C192.795 181.646 197.232 181.33 197.556 181.014Z" fill="#314EC6"/>
<path d="M203.999 127.076C207.423 126.664 212.925 123.697 215.093 124.717C217.26 125.737 217.77 128.351 218.217 128.797C218.663 129.244 220.576 127.012 220.576 121.529C220.576 116.046 220.744 110.432 216.707 109.669C212.67 108.905 202.214 112.859 200.11 114.452C198.006 116.046 197.113 117.66 196.539 119.213C195.966 120.764 194.435 127.013 195.137 127.077C195.838 127.14 197.814 123.06 199.281 122.932C200.748 122.804 203.072 127.188 203.999 127.076Z" fill="#5470D3"/>
<path d="M202.051 122.167C201.178 120.095 200.222 118.277 200.254 116.843C200.286 115.408 200.605 114.42 202.198 113.974C203.792 113.527 204.462 114.388 204.557 116.556C204.653 118.724 202.051 122.167 202.051 122.167Z" fill="#314EC6"/>
<path d="M214.55 118.304C217.882 115.281 218.26 111.902 217.947 111.201C217.634 110.5 216.257 109.989 216.257 109.989C216.257 109.989 215.715 112.189 216.034 112.731C216.353 113.273 214.55 118.304 214.55 118.304Z" fill="#314EC6"/>
<path d="M209.245 125.611C210.057 125.247 210.904 124.962 211.768 124.728C212.637 124.516 213.529 124.348 214.455 124.408C214.912 124.443 215.403 124.542 215.812 124.866C216.172 125.206 216.447 125.514 216.753 125.863C217.361 126.553 217.779 127.39 218.164 128.177C218.249 128.358 218.383 128.571 218.442 128.591C218.449 128.593 218.446 128.604 218.515 128.561C218.572 128.521 218.639 128.451 218.701 128.375C218.949 128.057 219.152 127.66 219.352 127.274C219.752 126.51 219.968 125.665 220.139 124.803C220.305 123.942 220.4 123.062 220.462 122.179C220.539 121.297 220.563 120.41 220.576 119.521C220.751 121.292 220.754 123.085 220.509 124.865C220.39 125.753 220.167 126.651 219.766 127.478C219.568 127.883 219.367 128.284 219.074 128.672C218.997 128.768 218.913 128.865 218.79 128.954C218.731 128.999 218.65 129.041 218.553 129.064C218.453 129.088 218.331 129.072 218.24 129.029C218.058 128.937 217.98 128.815 217.907 128.711C217.836 128.604 217.781 128.5 217.728 128.397C217.342 127.59 216.96 126.818 216.399 126.159C216.13 125.833 215.816 125.473 215.539 125.195C215.25 124.955 214.836 124.835 214.418 124.782C213.57 124.682 212.683 124.8 211.821 124.962C210.95 125.114 210.095 125.35 209.245 125.611Z" fill="#314EC6"/>
<path d="M201.395 124.468C201.026 124.141 200.658 123.814 200.257 123.543C200.06 123.407 199.857 123.277 199.648 123.188C199.543 123.148 199.441 123.116 199.346 123.104C199.304 123.108 199.259 123.104 199.226 123.115C199.195 123.136 199.176 123.128 199.116 123.172C198.294 123.679 197.654 124.375 197.11 125.173C196.834 125.557 196.593 125.997 196.266 126.397C196.104 126.595 195.931 126.786 195.711 126.956C195.596 127.036 195.48 127.129 195.274 127.153C195.175 127.169 195.038 127.127 194.954 127.053C194.871 126.977 194.828 126.89 194.805 126.816C194.715 126.514 194.744 126.263 194.767 126.008C194.799 125.756 194.844 125.51 194.9 125.267C195.022 124.785 195.157 124.31 195.33 123.847C195.264 124.337 195.177 124.82 195.136 125.307C195.109 125.549 195.09 125.791 195.087 126.029C195.086 126.26 195.09 126.514 195.16 126.679C195.175 126.721 195.199 126.743 195.207 126.749C195.219 126.748 195.207 126.753 195.231 126.746C195.272 126.742 195.369 126.687 195.446 126.62C195.609 126.481 195.762 126.301 195.902 126.112C196.189 125.741 196.42 125.314 196.708 124.895C196.998 124.486 197.316 124.089 197.684 123.735C198.053 123.383 198.479 123.08 198.919 122.847C198.959 122.819 199.062 122.782 199.146 122.758C199.23 122.742 199.312 122.751 199.391 122.756C199.539 122.786 199.668 122.839 199.787 122.902C200.018 123.033 200.216 123.191 200.405 123.357C200.769 123.702 201.106 124.066 201.395 124.468Z" fill="#314EC6"/>
<path d="M201.584 109.712C201.591 111.059 201.645 112.403 201.785 113.743C202.128 117.031 201.792 121.366 202.051 122.167C202.341 123.059 204.063 126.247 204.063 126.247C204.063 126.247 207.123 124.844 208.398 123.315C209.674 121.785 211.331 121.707 213.562 119.451C215.794 117.194 217.311 113.61 216.814 110.627C216.75 110.245 216.358 106.426 216.272 102.473C216.185 98.5201 212.032 95.5166 208.079 95.5166C204.127 95.5166 201.76 101.382 201.636 105.335C201.586 106.957 201.577 108.48 201.584 109.712Z" fill="#F6A397"/>
<path d="M216.272 102.472C216.359 106.425 216.75 110.244 216.814 110.627C216.968 111.549 216.928 112.529 216.735 113.509C215.861 113.67 204.603 113.942 201.686 112.584C201.62 111.629 201.589 110.672 201.584 109.713C201.577 108.48 201.586 106.957 201.637 105.335C201.69 103.659 202.146 101.641 202.955 99.8707L212.216 96.5884C214.488 97.8008 216.217 99.939 216.272 102.472Z" fill="#D65863"/>
<path d="M194.649 86.0125C188.667 86.0125 186.429 90.6068 186.429 94.0507C186.429 97.1411 187.419 102.089 194.649 102.089C198.263 102.089 200.71 98.4903 200.71 94.0507C200.71 89.6116 198.263 86.0125 194.649 86.0125Z" fill="#504984"/>
<path d="M194.385 87.9812C189.868 87.9812 188.177 91.4505 188.177 94.0507C188.177 96.3842 188.926 100.121 194.385 100.121C197.114 100.121 198.962 97.4033 198.962 94.0507C198.962 90.6985 197.114 87.9812 194.385 87.9812Z" fill="#372D5B"/>
<path d="M187.102 88.7258C187.456 90.8216 188.493 91.6229 188.956 94.4481C189.42 97.2734 188.184 101.379 190.027 104.955C191.87 108.531 194.85 113.233 196.572 113.431C198.293 113.63 212.083 111.301 216.736 102.048C218.071 99.3926 220.926 88.9778 218.483 82.6188C216.04 76.2598 212.067 70.4325 202.884 70.2557C193.702 70.079 185.23 77.6182 187.102 88.7258Z" fill="#F6A397"/>
<path d="M194.782 100.182C195.273 100.193 195.811 100.006 196.053 99.6841C196.265 99.4024 196.353 99.0313 196.291 98.6846C195.573 99.2764 194.693 99.3779 193.809 99.2236C193.7 99.8833 194.208 100.168 194.782 100.182Z" fill="#D65863"/>
<path d="M211.026 88.7257C210.677 86.5455 209.22 85.2876 209.22 85.2876C209.22 85.2876 205.71 83.8306 202.995 83.5659C200.28 83.3008 197.499 82.5063 197.499 82.5063C197.499 82.5063 198.36 84.6865 199.817 85.6157C199.817 85.6157 193.327 85.2871 191.274 83.3672C191.274 83.3672 191.672 84.9497 192.069 86.0127C192.069 86.0127 188.89 85.6851 187.897 84.4268C187.897 84.4268 187.102 87.1973 187.102 88.7257C187.102 88.7257 183.283 83.4995 184.255 79.3495C185.226 75.1995 186.55 73.6106 186.55 73.6106C186.55 73.6106 183.814 73.8753 182.312 73.6106C182.312 73.6106 185.844 70.5202 188.493 68.4894C191.142 66.4586 199.089 66.3702 199.089 66.3702C199.089 66.3702 198.471 64.251 199.177 60.896C199.177 60.896 202.577 65.8844 206.174 67.4078C209.772 68.9313 209.288 68.8019 213.103 69.7643C216.918 70.7273 220.544 73.1692 222.067 75.222C223.59 77.2748 225.246 79.3939 226.239 79.725C226.239 79.725 223.855 79.3939 222.663 78.4008C222.663 78.4008 224.651 82.915 222.024 88.7257C219.397 94.5363 212.815 92.8171 211.538 91.5343C210.261 90.2516 211.026 88.7257 211.026 88.7257Z" fill="#BA6454"/>
<path d="M211.537 91.5347C210.261 90.2519 211.026 88.726 211.026 88.726C210.815 87.4071 210.199 86.4286 209.744 85.8588C210.699 80.0676 210.31 74.0577 208.614 68.439C209.605 68.8418 210.194 69.0225 211.629 69.3911C213.39 72.0411 214.708 75.0226 215.615 78.0427C216.77 81.8885 217.33 86.0433 216.252 89.9116C215.975 90.9033 215.573 91.8706 215.063 92.7764C213.431 92.6397 212.053 92.0518 211.537 91.5347Z" fill="#874438"/>
<path d="M213.335 86.5676C213.335 86.5676 213.789 72.0434 206.174 67.408C206.174 67.408 212.068 66.7459 215.445 72.6396C218.822 78.5333 218.593 83.5881 218.508 86.4211C218.423 89.2537 213.335 86.5676 213.335 86.5676Z" fill="#504984"/>
<path d="M215.657 86.0125C221.639 86.0125 223.877 90.6068 223.877 94.0507C223.877 97.1411 222.886 102.089 215.657 102.089C212.042 102.089 209.595 98.4903 209.595 94.0507C209.595 89.6116 212.042 86.0125 215.657 86.0125Z" fill="#504984"/>
<path d="M212.432 94.0507C212.432 90.1097 215.034 86.9148 218.243 86.9148C221.452 86.9148 223.877 90.1097 223.877 94.0507C223.877 97.9917 221.452 101.187 218.243 101.187C215.034 101.187 212.432 97.9917 212.432 94.0507Z" fill="#372D5B"/>
<path d="M219.01 98.9067C221.193 98.9067 222.964 96.7326 222.964 94.0506C222.964 91.3687 221.193 89.1946 219.01 89.1946C216.826 89.1946 215.055 91.3687 215.055 94.0506C215.055 96.7326 216.826 98.9067 219.01 98.9067Z" fill="#504984"/>
<path d="M200.496 102.089C198.879 102.979 193.599 103.275 193.24 103.226C192.881 103.177 193.618 107.186 194.911 107.334C196.204 107.483 198.79 107.136 199.868 106.098C200.946 105.059 200.496 102.089 200.496 102.089Z" fill="#D65863"/>
<path d="M200.158 103.258C200.058 102.902 199.98 102.617 199.905 102.339C198.127 102.946 194.626 103.203 193.547 103.229C193.635 103.765 193.789 104.307 194.008 104.84C194.042 104.818 194 104.892 194.034 104.87C196.364 105.236 198.735 104.481 200.158 103.258Z" fill="white"/>
<path d="M199.783 92.5056C199.783 91.7742 200.144 91.1814 200.589 91.1814C201.034 91.1814 201.395 91.7742 201.395 92.5056C201.395 93.2371 201.034 93.8299 200.589 93.8299C200.144 93.8299 199.783 93.2371 199.783 92.5056Z" fill="#3F1751"/>
<path d="M190.564 93.1233C190.564 92.3919 190.874 91.7991 191.257 91.7991C191.639 91.7991 191.949 92.3919 191.949 93.1233C191.949 93.8548 191.639 94.4476 191.257 94.4476C190.874 94.4481 190.564 93.8548 190.564 93.1233Z" fill="#3F1751"/>
<path d="M204.294 87.3425C203.744 87.0398 203.151 86.8303 202.543 86.6555C201.932 86.4915 201.298 86.3948 200.655 86.3723C200.016 86.3401 199.339 86.3225 198.72 86.5613C198.1 86.7752 197.537 87.1653 197.122 87.6795L197.169 87.7581C197.834 87.6863 198.383 87.5232 198.963 87.4466C199.53 87.3616 200.081 87.1541 200.673 87.1062C201.846 87.0066 203.074 87.0994 204.256 87.426L204.294 87.3425Z" fill="#3F1751"/>
<path d="M188.234 89.0539C188.521 88.9426 188.824 88.8727 189.125 88.8376C189.425 88.797 189.725 88.7824 190.022 88.779C190.322 88.7751 190.618 88.882 190.91 88.8102C191.058 88.777 191.208 88.7487 191.362 88.6847C191.516 88.632 191.674 88.5636 191.843 88.445L191.853 88.3537C191.565 88.0724 191.239 87.9523 190.908 87.8922C190.573 87.8292 190.242 87.9635 189.921 88.0514C189.597 88.1359 189.281 88.2487 188.984 88.4005C188.691 88.5627 188.405 88.7321 188.177 88.9811L188.234 89.0539Z" fill="#3F1751"/>
<path d="M197.556 184.156C197.56 184.361 197.273 184.658 196.572 184.658C195.87 184.658 177.009 184.658 174.459 184.658C171.909 184.658 171.314 183.649 172.078 182.374C172.844 181.099 176.074 178.294 184.065 176.338C192.055 174.383 196.257 178.955 197.556 181.014C198.509 182.524 197.556 184.156 197.556 184.156Z" fill="#504984"/>
<path d="M171.89 182.757C172.33 184.22 189.203 183.456 189.203 183.456C189.203 183.456 187.493 181.145 185.601 181.079C183.709 181.014 182.789 181.671 180.253 182.107C177.716 182.544 179.597 181.075 179.597 181.075C179.597 181.075 177.805 180.678 177.076 180.113C177.076 180.113 181.255 178.878 183.009 178.591C184.762 178.304 189.225 178.495 189.799 178.591C190.204 178.658 192.264 177.462 194.753 178.063C196.142 179.077 197.062 180.228 197.557 181.014C198.509 182.523 197.557 184.156 197.557 184.156C197.561 184.361 197.273 184.658 196.572 184.658C195.871 184.658 177.01 184.658 174.46 184.658C172.17 184.658 171.46 183.845 171.89 182.757Z" fill="#372D5B"/>
<path d="M244.06 170.331C244.06 170.331 228.334 172.762 219.811 174.288C211.736 175.733 204.764 176.36 202.788 175.977C200.811 175.595 194.053 173.108 191.885 172.216C189.717 171.323 185.382 170.813 183.151 171.514C180.919 172.216 179.091 172.981 178.199 172.981C177.306 172.981 177.476 174.426 178.666 174.723C179.856 175.021 180.919 174.978 180.919 174.978C180.919 174.978 176.881 177.188 176.159 177.401C175.436 177.614 176.292 178.932 177.27 178.847C177.27 178.847 176.414 179.357 176.712 179.867C177.009 180.377 179.134 180.377 179.134 180.377C179.134 180.377 176.542 181.652 178.709 182.162C180.877 182.672 183.469 180.249 184.532 180.037C185.595 179.825 188.06 179.952 189.25 180.845C190.44 181.737 195.541 185.86 202.512 183.395C202.512 183.395 249.825 185.312 254.543 185.312C259.261 185.312 262.111 181.142 260.598 173.109C259.085 165.075 256.153 159.082 256.153 159.082L239.831 160.23L244.06 170.331Z" fill="#F6A397"/>
<path d="M184.644 173.701C185.061 173.603 185.393 173.546 185.601 173.533C185.601 173.533 185.197 173.603 184.644 173.701Z" fill="#D65863"/>
<path d="M180.919 174.978C180.919 174.978 179.856 175.021 178.666 174.723C178.332 174.64 178.081 174.464 177.908 174.256C179.232 174.841 180.861 174.468 181.753 174.255C182.316 174.121 183.699 173.869 184.644 173.701C183.698 173.923 182.311 174.358 180.919 174.978Z" fill="#D65863"/>
<path d="M181.127 176.891C181.229 176.844 181.315 176.808 181.371 176.791C181.371 176.791 181.28 176.829 181.127 176.891Z" fill="#D65863"/>
<path d="M176.167 178.348C176.182 178.362 176.649 178.773 177.631 178.345C178.45 177.99 180.436 177.175 181.128 176.891C180.257 177.286 177.898 178.618 177.27 178.846C176.835 178.884 176.426 178.644 176.167 178.348Z" fill="#D65863"/>
<path d="M178.609 179.908C179.332 179.696 180.84 178.782 181.765 178.345C182.689 177.908 183.869 177.857 183.869 177.857C183.869 177.857 183.518 177.889 182.593 178.345C181.669 178.801 179.134 180.376 179.134 180.376C179.134 180.376 177.77 180.375 177.075 180.113C177.083 180.113 177.889 180.12 178.609 179.908Z" fill="#D65863"/>
<path d="M192.061 180.95C193.4 181.779 197.353 182.863 199.712 182.416C202.071 181.97 202.581 179.993 202.581 179.993L203.24 182.118C203.24 182.118 236.053 183.054 242.727 182.754C249.323 182.457 259.612 182.307 260.956 178.345C260.587 182.944 258.096 185.311 254.543 185.311C249.825 185.311 202.512 183.394 202.512 183.394C195.541 185.859 190.441 181.736 189.25 180.844C188.261 180.101 186.393 179.889 185.179 179.961C186.99 179.326 190.723 180.121 192.061 180.95Z" fill="#D65863"/>
<path d="M244.06 170.331C244.06 170.331 250.207 169.495 251.44 169.368L250.505 165.542L242.727 167.115L244.06 170.331Z" fill="#D65863"/>
<path d="M260.489 159.622C260.721 160.221 260.574 160.894 260.115 161.343C257.257 164.133 253.507 167.933 249.649 168.518C245.441 169.155 238.427 169.41 238.045 168.518C237.663 167.625 236.26 156.276 233.71 150.538C231.159 144.8 229.502 141.867 228.864 138.552C228.227 135.237 233.965 127.459 236.515 126.821C239.065 126.183 244.931 125.801 247.353 127.968C249.776 130.136 251.562 138.425 254.367 144.673C256.63 149.714 259.475 156.998 260.489 159.622Z" fill="#5470D3"/>
<path d="M244.707 126.709C243.926 126.62 243.145 126.555 242.363 126.537C241.583 126.505 240.802 126.508 240.025 126.554C239.249 126.602 238.476 126.679 237.715 126.816C237.332 126.877 236.957 126.966 236.581 127.05C236.231 127.177 235.87 127.271 235.548 127.472C235.205 127.626 234.907 127.868 234.592 128.078C234.306 128.33 234 128.56 233.738 128.843C233.178 129.37 232.705 129.988 232.227 130.598C231.761 131.219 231.336 131.875 230.933 132.544C230.519 133.208 230.15 133.899 229.791 134.598C230.318 133.114 231.047 131.704 231.92 130.381C232.365 129.724 232.847 129.087 233.41 128.517C233.675 128.216 234 127.97 234.299 127.702C234.633 127.472 234.947 127.213 235.322 127.039C235.673 126.827 236.078 126.719 236.467 126.586C236.858 126.504 237.246 126.411 237.641 126.36C238.429 126.247 239.222 126.172 240.014 126.18C241.596 126.177 243.178 126.331 244.707 126.709Z" fill="#314EC6"/>
<path d="M257.306 161.972C257.285 159.934 252.983 141.256 249.182 130.845C250.798 134.403 252.308 140.086 254.367 144.672C256.631 149.714 259.475 156.998 260.489 159.622C260.721 160.221 260.574 160.894 260.115 161.343C259.021 162.412 257.794 163.628 256.482 164.755C256.581 164.659 257.325 163.874 257.306 161.972Z" fill="#314EC6"/>
<path d="M52.1967 140.929C52.119 141.557 52.2504 142.191 52.5556 142.746C53.6684 144.77 54.2324 147.095 54.1596 149.404C54.1117 150.925 53.7992 152.481 54.2133 153.946C54.9277 156.473 57.5947 158.036 58.4531 160.518C59.2139 162.718 58.5064 165.485 60.0879 167.194C60.48 167.617 61.0885 167.941 61.6241 167.727C61.8932 167.619 62.0948 167.394 62.2862 167.177C64.0993 165.118 66.0402 162.615 65.4811 159.93C64.9557 157.407 62.3556 155.702 61.8624 153.172C61.4596 151.105 62.5162 148.72 61.3321 146.979C61.0054 146.498 60.5377 146.131 60.1807 145.673C58.7725 143.864 59.294 140.982 57.6714 139.363C57.1421 138.835 56.48 138.536 55.7583 138.382C54.0566 138.017 52.4105 139.202 52.1967 140.929Z" fill="#BA5E5B"/>
<path d="M62.5075 172.989C62.6164 171.643 62.6627 170.297 62.713 168.947C62.6515 167.601 62.5797 166.255 62.4645 164.91C62.3493 163.565 62.1979 162.22 61.9601 160.883C61.7184 159.554 61.399 158.197 60.8399 156.948C59.8639 154.479 59.0743 151.898 58.2769 149.34L57.1206 145.483C56.6455 144.223 56.1816 142.961 55.7334 141.69C55.9297 143.028 56.2358 144.341 56.5044 145.663L57.6636 149.529C58.4659 152.1 59.2476 154.665 60.2481 157.195C60.7892 158.405 61.0885 159.685 61.3282 160.995C61.5612 162.304 61.7106 163.633 61.8248 164.965C61.9366 166.297 62.0153 167.635 62.0665 168.974L62.5075 172.989Z" fill="#FFA6A4"/>
<path d="M55.4021 145.709C55.6238 146.045 55.9099 146.297 56.2171 146.52C56.3748 146.626 56.5598 146.695 56.7317 146.782C56.906 146.865 57.0584 146.977 57.2 147.105L57.2615 147.161L57.3162 147.077C57.4446 146.881 57.6009 146.699 57.7234 146.5C57.8421 146.299 57.9666 146.101 58.0721 145.893C58.2772 145.475 58.43 145.032 58.5076 144.55L58.4695 144.531C58.1331 144.884 57.8719 145.274 57.6629 145.69C57.5613 145.9 57.4788 146.119 57.3904 146.335C57.3064 146.553 57.2557 146.787 57.1766 147.009L57.2923 146.981C57.1287 146.884 56.9759 146.771 56.845 146.629C56.7117 146.491 56.5916 146.335 56.4441 146.216C56.1409 145.988 55.8167 145.79 55.428 145.676L55.4021 145.709Z" fill="#FFA6A4"/>
<path d="M55.729 150.311C55.9605 150.501 56.1987 150.707 56.4483 150.879C56.6978 151.056 56.9512 151.226 57.2251 151.363C57.502 151.496 57.7959 151.601 58.0621 151.752C58.3296 151.899 58.5738 152.086 58.8126 152.28L58.8965 152.348L58.9815 152.237C59.3507 151.753 59.6661 151.24 59.964 150.716C60.2442 150.182 60.4942 149.631 60.6734 149.041L60.6363 149.02C60.2228 149.478 59.88 149.976 59.5675 150.492C59.2725 151.017 58.9952 151.553 58.7715 152.118L58.9405 152.075C58.6612 151.945 58.3863 151.808 58.1343 151.634C57.8809 151.462 57.6543 151.247 57.4102 151.06C57.1631 150.877 56.8936 150.73 56.6187 150.593C56.3399 150.459 56.0635 150.33 55.7378 150.268L55.729 150.311Z" fill="#FFA6A4"/>
<path d="M57.364 156.383C57.6174 156.639 57.9002 156.827 58.1917 156.997C58.4793 157.174 58.7952 157.292 59.1321 157.371C59.4676 157.453 59.7718 157.601 60.0423 157.808C60.3123 158.013 60.5765 158.239 60.847 158.416L61.0511 158.549L61.203 158.322C61.4266 157.987 61.6297 157.64 61.7874 157.269C61.9457 156.898 62.0863 156.517 62.1644 156.102L62.1175 156.076C61.8089 156.365 61.5623 156.687 61.3338 157.02C61.1048 157.352 60.9207 157.709 60.7576 158.077L61.1136 157.983C60.805 157.813 60.4769 157.715 60.1522 157.602C59.8279 157.49 59.5315 157.33 59.2645 157.107C58.9988 156.881 58.7083 156.704 58.3885 156.586C58.072 156.463 57.7444 156.364 57.386 156.334L57.364 156.383Z" fill="#FFA6A4"/>
<path d="M64.6483 173.253C65.7001 173.08 69.644 171.818 69.3686 170.788C68.1865 166.368 67.0043 161.354 71.0981 159.192C73.0684 158.152 75.5411 157.623 76.6627 155.698C77.818 153.716 76.9674 151.195 75.9308 149.149C74.8941 147.102 73.6456 144.91 74.0899 142.659C74.5553 140.302 76.7843 138.562 77.1412 136.186C77.6281 132.941 74.4776 130.327 71.4507 129.06C70.4214 128.63 69.2895 128.261 68.2045 128.523C67.4296 128.71 66.7577 129.207 66.2265 129.801C64.1005 132.178 64.1874 135.765 64.6722 138.917C65.1571 142.07 65.8998 145.398 64.7128 148.359C63.8695 150.462 62.0643 152.439 62.5477 154.652C62.7415 155.538 63.2943 156.312 63.5047 157.194C64.0731 159.574 62.0965 161.717 61.1907 163.989C60.0218 166.92 60.824 170.503 63.0399 172.727C63.4618 173.15 64.0589 173.35 64.6483 173.253Z" fill="#E67471"/>
<path d="M64.2761 173.301C64.5197 171.552 64.7634 169.808 65.0754 168.077C65.1496 167.644 65.2404 167.214 65.3098 166.781C65.3757 166.348 65.4143 165.911 65.4861 165.479C65.6169 164.613 65.7624 163.75 65.9275 162.891C66.2615 161.177 66.6609 159.47 67.2468 157.846C67.5408 157.038 67.8894 156.247 68.3499 155.565C68.5784 155.225 68.8484 154.924 69.1473 154.721C69.5413 154.462 69.9173 154.128 70.2112 153.731C70.8177 152.928 71.0008 151.907 70.9788 150.986C70.9583 150.054 70.7821 149.163 70.5848 148.294C70.1795 146.558 69.6692 144.881 69.3856 143.174C69.0975 141.475 69.0413 139.734 69.49 138.105C69.6282 137.707 69.7366 137.303 69.8675 136.898C70.0013 136.494 70.1746 136.102 70.3704 135.719C70.7635 134.951 71.2757 134.237 71.8431 133.558C71.1473 134.104 70.5023 134.734 69.9637 135.463C69.6932 135.826 69.4402 136.209 69.2249 136.614C69.0022 137.015 68.8138 137.442 68.7161 137.893C68.2254 139.676 68.2952 141.544 68.594 143.306C68.8894 145.077 69.4085 146.78 69.8025 148.473C69.9954 149.319 70.159 150.168 70.1761 150.999C70.1937 151.827 70.0335 152.635 69.5657 153.253C69.3343 153.564 69.0442 153.827 68.7029 154.051C68.2718 154.345 67.9524 154.721 67.6887 155.109C67.1628 155.889 66.8015 156.726 66.4924 157.57C65.8821 159.262 65.4782 160.998 65.1389 162.738C64.9709 163.61 64.8239 164.484 64.6916 165.359C64.6311 165.798 64.5495 166.233 64.4963 166.673C64.4514 167.113 64.4318 167.556 64.404 167.998C64.3093 169.767 64.2434 171.534 64.2761 173.301Z" fill="#FFA6A4"/>
<path d="M71.2622 138.801C70.9594 138.907 70.7055 139.083 70.4702 139.271C70.2372 139.463 70.0146 139.666 69.8505 139.923C69.6845 140.178 69.5366 140.447 69.3237 140.656C69.1191 140.873 68.872 141.049 68.6347 141.24L68.9467 141.259C68.8417 141.033 68.7118 140.821 68.5927 140.604C68.4701 140.388 68.3471 140.174 68.2016 139.975C68.0653 139.77 67.9091 139.577 67.7606 139.38C67.6112 139.184 67.4423 139.002 67.307 138.793L67.2543 138.802C67.2426 139.077 67.3261 139.333 67.41 139.574C67.5023 139.814 67.6054 140.047 67.7299 140.267C67.8461 140.491 67.9931 140.695 68.1425 140.898C68.2958 141.098 68.4428 141.3 68.6191 141.485L68.8144 141.69L68.9311 141.504C69.0907 141.251 69.2446 140.988 69.4438 140.768C69.6347 140.539 69.894 140.375 70.1391 140.2C70.3857 140.026 70.5805 139.804 70.771 139.579C70.9604 139.35 71.1367 139.114 71.2954 138.844L71.2622 138.801Z" fill="#FFA6A4"/>
<path d="M67.4387 145.494C67.5637 145.795 67.7273 146.069 67.9094 146.327C68.0955 146.581 68.2893 146.829 68.512 147.05C68.7395 147.267 69.0003 147.451 69.2444 147.651C69.4837 147.855 69.6946 148.085 69.886 148.335L69.9471 148.415L70.033 148.346C70.3514 148.093 70.6043 147.861 70.8553 147.592C71.0931 147.32 71.346 147.063 71.5672 146.781C71.7904 146.5 71.9984 146.208 72.1961 145.908C72.3959 145.61 72.5751 145.298 72.7831 145.006L72.7528 144.962C72.4037 145.127 72.1317 145.382 71.8621 145.626C71.5965 145.876 71.3504 146.142 71.1224 146.421C70.8919 146.698 70.6961 147.002 70.4822 147.29C70.2733 147.572 70.097 147.922 69.8987 148.169L70.0457 148.18C69.8035 147.982 69.5852 147.758 69.3977 147.507C69.2146 147.251 69.0506 146.979 68.8582 146.734C68.6609 146.493 68.4363 146.278 68.2132 146.061C67.9856 145.848 67.7444 145.648 67.4802 145.46L67.4387 145.494Z" fill="#FFA6A4"/>
<path d="M74.4711 150.66C74.1391 151.05 73.7948 151.409 73.4428 151.752C73.0897 152.096 72.7103 152.396 72.3417 152.727C71.9652 153.047 71.5389 153.333 71.056 153.473C70.577 153.624 70.0687 153.643 69.5784 153.638L69.7977 153.792C69.7112 153.379 69.5828 152.99 69.4476 152.597C69.3147 152.203 69.1448 151.822 68.9392 151.457C68.7361 151.091 68.4949 150.742 68.2107 150.428C67.9216 150.12 67.5867 149.832 67.1868 149.689L67.1599 149.736C67.4627 150.01 67.6961 150.326 67.8987 150.664C68.1048 150.999 68.2796 151.353 68.451 151.71L68.9431 152.796C69.1048 153.16 69.2474 153.539 69.389 153.908L69.4573 154.086L69.6082 154.062C70.1302 153.981 70.6253 153.804 71.1092 153.634C71.5872 153.447 72.079 153.283 72.5492 153.043C73.0243 152.81 73.4247 152.45 73.7601 152.048C74.0951 151.646 74.3686 151.188 74.518 150.684L74.4711 150.66Z" fill="#FFA6A4"/>
<path d="M64.9608 154.614C64.7996 155.001 64.7445 155.423 64.7552 155.841C64.7728 156.258 64.8387 156.679 64.9847 157.072C65.1385 157.463 65.3636 157.822 65.6161 158.147L66.3519 159.125L66.4042 159.195L66.4891 159.134C66.8871 158.852 67.3402 158.637 67.7724 158.412C68.2035 158.18 68.6503 157.982 69.0976 157.792C69.5444 157.6 69.9902 157.404 70.4492 157.232C70.9042 157.046 71.3725 156.897 71.8476 156.718L71.8398 156.666C70.8256 156.644 69.8012 156.859 68.8686 157.27C68.4008 157.474 67.9608 157.735 67.535 158.012C67.1107 158.295 66.7323 158.636 66.3617 158.988L66.4989 158.997C66.2264 158.71 65.9779 158.393 65.8197 158.027C65.6429 157.671 65.556 157.284 65.4349 156.921C65.1995 156.189 65.0501 155.435 65.0135 154.627L64.9608 154.614Z" fill="#FFA6A4"/>
<path d="M57.4976 184.658H68.7557C69.8006 184.658 70.6888 183.754 70.846 182.532L72.6283 168.683C72.8231 167.167 71.8324 165.803 70.5379 165.803H55.7154C54.4204 165.803 53.4297 167.167 53.625 168.683L55.4072 182.532C55.5645 183.754 56.4527 184.658 57.4976 184.658Z" fill="#504984"/>
<path d="M55.7157 165.803H63.2935C61.9986 165.803 61.0078 167.168 61.2032 168.683L62.9854 182.532C63.1426 183.755 64.0308 184.658 65.0758 184.658H57.4975C56.4526 184.658 55.5644 183.755 55.4071 182.532L53.6249 168.683C53.43 167.168 54.4208 165.803 55.7157 165.803Z" fill="#372D5B"/>
<path d="M158.345 180.855H111.259C110.785 180.855 110.401 181.239 110.401 181.713V183.799C110.401 184.274 110.785 184.658 111.259 184.658H158.345V180.855Z" fill="#282142"/>
<path d="M170.463 183.478V184.326C170.463 184.509 170.315 184.658 170.132 184.658H158.271C157.901 184.658 157.602 184.358 157.602 183.99V181.519C157.602 181.12 157.949 180.81 158.345 180.855L170.168 183.149C170.336 183.167 170.463 183.31 170.463 183.478Z" fill="#504984"/>
<path d="M76.0585 100.825H164.061C165.842 100.825 167.431 101.942 168.034 103.617L187.28 157.065C188.085 159.821 186.068 161.887 182.827 162.236C182.331 162.289 179.967 161.227 176.254 159.481H97.5795C95.7991 159.481 94.2097 158.364 93.6067 156.689L76.2206 108.407C73.2811 106.873 71.6053 105.996 71.6053 105.996C71.6053 105.996 70.5174 100.825 76.0585 100.825Z" fill="#504984"/>
<path d="M161.306 103.58H73.3036C72.0536 103.58 71.1824 104.82 71.6058 105.996L90.8518 159.444C91.4548 161.119 93.0442 162.236 94.8245 162.236H182.827C184.077 162.236 184.948 160.996 184.525 159.82L165.279 106.372C164.676 104.697 163.087 103.58 161.306 103.58Z" fill="#372D5B"/>
<path d="M141.439 162.236L137.533 147.747L122.727 162.236H141.439Z" fill="#282142"/>
<path d="M120.012 122.351C120.4 124.74 121.946 125.703 123.797 125.703C125.649 125.703 127.042 124.173 126.718 122.351C126.393 120.528 124.785 118.998 122.933 118.998C121.081 118.998 119.716 120.523 120.012 122.351Z" fill="#504984"/>
<path d="M161.371 153.342L160.239 150.199H161.661L162.793 153.342H161.371Z" fill="#282142"/>
<path d="M158.375 153.342L157.244 150.199H158.666L159.798 153.342H158.375Z" fill="#282142"/>
<path d="M155.38 153.342L154.248 150.199H155.67L156.802 153.342H155.38Z" fill="#282142"/>
<path d="M152.384 153.342L151.253 150.199H152.675L153.807 153.342H152.384Z" fill="#282142"/>
<path d="M109.837 153.342L108.706 150.199H110.128L111.259 153.342H109.837Z" fill="#282142"/>
<path d="M106.842 153.342L105.71 150.199H107.132L108.264 153.342H106.842Z" fill="#282142"/>
<path d="M103.846 153.342L102.715 150.199H104.137L105.269 153.342H103.846Z" fill="#282142"/>
<path d="M100.851 153.342L99.719 150.199H101.141L102.273 153.342H100.851Z" fill="#282142"/>
<path d="M111.722 179.492C112.591 176.995 123.121 143.015 123.121 143.015H136.639L137.532 147.747C137.532 147.747 128.469 176.995 127.601 179.492C127.535 179.683 127.471 179.874 127.412 180.065H127.413C126.619 182.506 128.714 182.496 131.074 182.496C133.435 182.496 154.914 182.496 154.914 182.496V184.658H131.074H115.196C110.42 184.658 110.854 181.99 111.722 179.492Z" fill="#372D5B"/>
<path d="M136.639 143.015C136.639 143.015 126.108 176.995 125.24 179.492C124.372 181.99 123.937 184.658 128.714 184.658H112.836C108.059 184.658 108.494 181.99 109.362 179.492C110.231 176.995 120.761 143.015 120.761 143.015H136.639Z" fill="#504984"/>
<path d="M133.329 143.015C132.281 142.966 131.234 142.942 130.187 142.908C129.139 142.872 128.092 142.864 127.045 142.841C125.998 142.825 124.95 142.794 123.903 142.794L120.761 142.774L120.585 142.773L120.531 142.943C120.093 144.312 119.661 145.682 119.249 147.059L117.996 151.184C117.19 153.943 116.383 156.7 115.646 159.481C116.614 156.772 117.511 154.042 118.409 151.312L119.713 147.203C120.154 145.836 120.575 144.461 120.989 143.086L120.76 143.255L123.902 143.235C124.949 143.235 125.997 143.205 127.044 143.188C128.091 143.165 129.139 143.157 130.186 143.121C131.234 143.087 132.281 143.063 133.329 143.015Z" fill="#7F74D1"/>
<path d="M41.2364 193H274.319C276.623 193 278.49 191.133 278.49 188.829C278.49 186.525 276.623 184.658 274.319 184.658H41.2364C38.9327 184.658 37.0654 186.526 37.0654 188.829C37.0654 191.132 38.9327 193 41.2364 193Z" fill="#8E5058"/>
<path d="M41.2364 193H274.319C276.623 193 278.49 191.133 278.49 188.829H37.0654C37.0654 191.132 38.9327 193 41.2364 193Z" fill="#64364A"/>
<path d="M89.563 60.627C93.9789 41.7604 82.2642 22.8862 63.3976 18.4704C44.5309 14.0546 25.6568 25.7692 21.2409 44.6358C16.8251 63.5025 28.5398 82.3766 47.4064 86.7925C66.273 91.2083 85.1472 79.4936 89.563 60.627Z" fill="#5470D3"/>
<mask id="mask0_17_2864" style="mask-type:luminance" maskUnits="userSpaceOnUse" x="20" y="10" width="71" height="78">
<path d="M90.4861 52.6351C90.4861 72.0115 74.7782 87.7189 55.4023 87.7189C36.026 87.7189 20.3186 72.011 20.3186 52.6351C20.3186 33.2588 36.0265 10.7388 55.4023 10.7388C74.7787 10.7383 90.4861 33.2588 90.4861 52.6351Z" fill="white"/>
</mask>
<g mask="url(#mask0_17_2864)">
<path d="M104.734 80.6333C105.401 83.9815 102.302 86.9567 101.332 87.5148C100.361 88.0724 93.8489 90.676 89.9368 90.7693C86.0251 90.862 80.8624 82.587 82.9752 81.6573C85.0885 80.7276 99.4824 79.7046 101.063 79.7046C102.644 79.7041 104.734 80.6333 104.734 80.6333Z" fill="#FFC5C7"/>
<path d="M94.4753 78.867C92.7683 88.9092 88.713 96.7194 87.4474 96.8591C86.1822 96.9987 74.0257 92.8141 70.6741 91.2803C67.3229 89.7461 71.7034 66.1778 73.7889 66.5928C75.8744 67.0079 80.4472 71.5358 84.2232 73.7067C87.9996 75.8777 94.4753 78.867 94.4753 78.867Z" fill="white"/>
<path d="M74.4524 83.0415C75.6243 85.0513 85.2847 90.1452 90.6051 92.0021C89.2901 94.9675 88.0513 96.7923 87.4478 96.8587C86.3643 96.9783 77.2972 93.928 72.6096 92.0852C73.0022 88.3541 74.4524 83.0415 74.4524 83.0415Z" fill="#DCEDFF"/>
<path d="M104.749 80.1687C104.844 84.1527 101.256 84.725 96.9598 83.702C92.6643 82.679 85.6504 73.0089 82.5278 68.6392C79.4057 64.269 73.5799 56.4817 72.3753 55.7844C71.1706 55.0871 68.4079 54.717 66.0441 50.7877C63.6803 46.8585 66.7897 38.6293 67.9069 37.6532C69.0241 36.6766 78.5966 39.9364 79.7084 41.5844C80.8203 43.2319 78.9208 52.0886 79.2577 53.2043C79.5951 54.32 87.7418 63.4321 91.299 65.6635C94.8557 67.895 104.679 77.2863 104.749 80.1687Z" fill="#FFC5C7"/>
<path d="M72.8093 44.2272C71.6833 43.669 71.4113 41.1353 72.1193 41.5821C72.8278 42.0284 74.0666 42.0191 75.7424 41.9957C77.4187 41.9722 78.1057 41.8277 78.1057 41.8277C78.1057 41.8277 78.2776 42.9254 78.2688 43.8248C78.2688 43.8248 73.9353 44.7853 72.8093 44.2272Z" fill="#FE8A8B"/>
<path d="M65.3552 44.8033C66.0378 43.5342 66.5647 42.5718 66.5647 42.5718L73.1498 48.9103C74.9506 47.3487 77.1533 45.9239 77.1533 45.9239L77.7329 46.9571C76.6674 48.7599 75.7392 52.572 75.7182 53.5017C75.7182 53.5017 74.707 54.6174 74.1425 54.7107C74.1425 54.7107 81.1876 65.8686 85.7165 71.3546C90.2185 76.8083 93.3021 81.5252 95.4247 83.0414C91.1424 80.5726 85.3014 72.5211 82.5274 68.6387C79.4053 64.2685 73.5795 56.4812 72.3749 55.784C71.1703 55.0867 68.4075 54.7166 66.0437 50.7873C65.1062 49.2287 65.0363 46.9942 65.3552 44.8033Z" fill="#FE8A8B"/>
<path d="M79.0615 45.44C78.9819 46.09 72.4379 51.7629 71.7528 52.4138C71.7015 52.4626 71.1903 52.5374 71.0492 52.4138C69.3089 50.8845 61.7096 37.0854 61.5739 36.5873C61.4474 36.123 66.4919 31.3758 68.0325 30.1062C68.2425 29.9334 69.1067 30.0379 69.2488 30.2478C70.8036 32.5496 79.1651 44.5997 79.0615 45.44Z" fill="#0C0835"/>
<path d="M78.3584 45.4401C78.2788 46.09 71.7348 51.763 71.0497 52.4139C70.3651 53.0648 61.0177 37.1255 60.8713 36.5874C60.7443 36.123 66.3611 31.453 67.9017 30.183C68.1112 30.0101 68.4041 30.0375 68.5457 30.2474C70.1005 32.5497 78.4615 44.5998 78.3584 45.4401Z" fill="#252384"/>
<path d="M77.2567 44.5075C77.182 45.1154 71.0603 50.4226 70.4197 51.0315C69.779 51.6404 61.0347 36.729 60.8975 36.2256C60.7788 35.791 66.0333 31.4222 67.4743 30.2342C67.6706 30.0726 67.9445 30.098 68.0773 30.2948C69.531 32.4481 77.3534 43.7213 77.2567 44.5075Z" fill="#57AFF7"/>
<path d="M73.3318 36.7294C72.3186 36.1185 71.0745 34.0497 70.9626 33.3524C70.8508 32.6551 70.9197 32.0272 71.4641 31.888C72.0091 31.7483 73.6863 33.9334 74.5223 34.5843C75.3582 35.2352 76.3758 36.5834 75.9613 37.4902C75.5467 38.3969 73.6893 38.0478 73.49 37.9086C73.2913 37.769 73.3318 36.7294 73.3318 36.7294Z" fill="#FFC5C7"/>
<path d="M71.1508 32.0713C70.8295 32.8638 72.9228 36.046 74.7583 36.9615L74.0756 37.7418C74.0756 37.7418 73.7661 37.6735 73.3681 37.5792C73.3139 37.2262 73.3315 36.7296 73.3315 36.7296C72.3183 36.1187 71.0741 34.0498 70.9623 33.3526C70.8778 32.8237 70.8993 32.3379 71.1508 32.0713Z" fill="#FE8A8B"/>
<path d="M75.6884 39.9438C73.9447 39.0121 72.5775 39.1166 71.6287 38.7333C70.6805 38.35 70.5081 36.8851 71.1531 36.641C71.7987 36.3969 75.7279 37.0248 76.7412 37.4779C77.7539 37.9311 78.2383 40.0195 78.2383 40.0195L75.6884 39.9438Z" fill="#FFC5C7"/>
<path d="M74.9246 38.8574C75.9105 39.0435 76.2499 38.8574 76.2499 38.8574C76.222 39.2427 76.5853 39.4346 76.995 39.9825L75.6883 39.9439C73.9446 39.0122 72.5774 39.1167 71.6292 38.7334C71.1965 38.5586 70.9338 38.1582 70.8284 37.752C71.2503 38.5552 73.9432 38.6724 74.9246 38.8574Z" fill="#FE8A8B"/>
<path d="M79.7079 41.584C78.7773 42.8716 74.2156 42.3135 73.2957 42.1738C72.3762 42.0342 71.7986 41.4536 71.8928 40.8676C72.0823 39.6865 78.1107 39.8955 78.6088 40.0815C79.1069 40.268 79.7079 41.584 79.7079 41.584Z" fill="#FFC5C7"/>
<path d="M71.926 41.1523C72.5491 41.772 74.0477 42.125 75.6829 42.2569C77.0985 42.3711 77.913 42.3164 78.101 42.2998C76.3817 42.5738 73.9417 42.2715 73.2957 42.1739C72.5281 42.0576 72.0247 41.6304 71.926 41.1523Z" fill="#FE8A8B"/>
<path d="M58.3579 59.6197C68.0412 64.5475 69.6301 64.3571 73.7893 66.5925C77.9486 68.8279 76.7108 92.3494 76.4471 95.9759C76.1834 99.602 75.181 114.014 75.7337 117.92C76.2865 121.825 78.4389 136.33 79.392 138.562C80.3451 140.793 82.1635 144.559 79.351 146.79C76.5384 149.022 70.5881 150.556 57.6684 149.719C44.7487 148.882 30.8222 140.932 30.2059 139.817C29.5897 138.701 36.3818 118.199 36.666 114.293C36.9502 110.388 37.7212 107.459 38.1324 105.646C38.5435 103.833 34.4335 95.325 33.7768 89.8855C33.12 84.4459 27.2103 69.4407 28.3309 66.6921C29.4515 63.9435 39.7447 60.881 46.7536 57.3858C53.7626 53.8901 58.3579 59.6197 58.3579 59.6197Z" fill="white"/>
<path d="M67.9587 65.719C66.3645 70.9584 63.1188 75.6826 58.7994 79.0498C53.5551 77.7632 48.223 75.4526 43.9285 72.1796C48.7274 75.7143 53.9614 78.6875 59.565 80.7178C64.298 76.8413 67.1067 71.7767 67.9587 65.719Z" fill="#DCEDFF"/>
<path d="M65.9815 63.2247C64.1216 62.4313 61.7319 61.3365 58.3578 59.6197C58.3578 59.6197 53.7625 53.8901 46.7531 57.3853C44.3209 58.5982 41.4942 59.7589 38.792 60.8722C42.9674 67.9758 49.7326 73.5326 57.5414 76.1752C61.6596 72.9325 64.6206 68.2859 65.9815 63.2247Z" fill="#FFC5C7"/>
<path d="M30.206 139.817C29.5898 138.701 36.3819 118.198 36.6661 114.293C36.9503 110.388 37.7213 107.459 38.1324 105.646C38.5436 103.833 34.4336 95.325 33.7769 89.8854C33.6626 88.9401 33.3877 87.7022 33.021 86.2935L37.3873 83.0415C39.9479 90.1837 41.5451 102.736 43.9719 105.805C46.3987 108.873 52.4443 110.128 52.4443 110.128C52.4443 110.128 46.4729 111.523 43.8694 110.965C43.8694 110.965 41.0895 121.984 41.0578 127.423C41.0265 132.863 41.5314 141.092 41.5954 142.207C41.6193 142.624 41.5275 144.076 41.403 145.732C35.1456 143.255 30.5542 140.446 30.206 139.817Z" fill="#DCEDFF"/>
<path d="M47.8533 47.4768C47.7537 53.2968 47.3694 57.2949 46.0793 58.4111C46.0793 58.4111 48.2972 68.069 57.1523 67.2443C60.148 66.9655 59.8623 61.9444 58.3579 59.6196L59.2495 52.4808L47.8533 47.4768Z" fill="#FFC5C7"/>
<path d="M46.7537 57.3857C47.5115 55.6005 47.7737 52.1219 47.8533 47.4768L59.2495 52.4813L58.6777 57.059C56.6577 57.9653 46.7537 57.3857 46.7537 57.3857Z" fill="#FE8A8B"/>
<path d="M35.0674 90.4837C37.7339 85.2414 38.8013 76.7286 36.3945 72.248C33.9878 67.7674 29.4452 66.1546 28.3309 66.6922C27.2161 67.2298 24.1985 74.2197 21.3649 77.4454C18.5314 80.6715 10.7934 89.722 10.559 90.4837C10.3247 91.2455 16.1519 97.3935 27.1121 101.909C28.4168 102.447 35.0674 90.4837 35.0674 90.4837Z" fill="white"/>
<path d="M26.9378 94.5481L25.1893 98.1336C25.1893 98.1336 33.8027 89.4987 37.379 83.0552C36.9454 85.7432 36.1392 88.3776 35.0679 90.4836C35.0679 90.4836 28.4174 102.447 27.1122 101.909C25.2366 101.137 23.5237 100.315 21.9534 99.4818L26.9378 94.5481Z" fill="#DCEDFF"/>
<path d="M59.9081 47.9988C59.3158 45.5994 59.3285 43.1457 59.1854 40.692C59.0785 38.8575 58.9852 37.1783 57.3201 36.0811C56.1033 35.2793 54.5774 35.1216 53.1457 35.3032C49.298 35.7915 48.4704 39.5411 48.7648 43.091C48.9904 45.8083 50.0519 48.4178 51.1057 50.9173C49.6906 50.8548 47.7584 50.1131 46.9137 48.9354C47.2931 50.4852 48.0118 51.9091 49.1359 53.0053C45.0347 52.9345 41.229 50.2513 39.0566 46.6477C36.8847 43.0441 36.1962 38.6446 36.4276 34.4028C36.702 29.3695 38.2714 24.3245 41.3848 20.4489C47.6466 12.6543 59.7103 11.7456 67.0567 18.444C69.5821 20.7468 71.4142 23.8333 72.3302 27.181C73.5348 31.5815 73.5099 36.3033 72.5714 40.7545C72.1828 42.5978 72.005 44.1931 71.8219 46.0388C71.7653 46.6111 71.0714 53.2548 71.4728 53.2309C68.8824 53.3881 65.9067 52.8651 64.1518 50.8851C64.9385 52.245 65.6177 53.5551 66.4038 54.915C63.1328 54.3705 60.7289 51.3226 59.9081 47.9988Z" fill="#372D5B"/>
<path d="M46.4661 38.9445C45.3089 38.2604 43.9177 37.8893 42.8444 38.9777C41.2634 40.5817 43.5095 48.0433 46.9192 46.2303C46.9192 46.2303 51.8564 53.1342 55.48 55.0869C59.1036 57.0396 61.6852 56.0635 63.0421 54.6684C64.3991 53.2739 69.0266 47.5526 69.8592 41.4885C70.156 39.3268 69.8377 35.0728 69.9036 34.1661C70.1067 31.3769 71.1634 29.0869 68.9632 26.8974C66.7405 24.6859 63.6618 23.348 60.5279 23.2371C56.5811 23.098 52.6357 24.8714 50.0218 27.8324C47.1346 31.1045 46.6341 34.7984 46.4661 38.9445Z" fill="#FFC5C7"/>
<path d="M43.4048 41.0171C43.6997 39.6499 44.8658 39.3808 45.733 40.3335C46.6221 41.3101 46.7716 44.4024 46.543 44.858C46.3145 45.3136 44.7871 45.2813 44.4976 44.3375C44.208 43.3936 45.0977 42.8018 45.9561 43.0816C45.9561 43.0816 46.1959 41.7036 45.4942 40.8164C44.7925 39.9292 44.0611 40.2686 43.8818 40.4966C43.7026 40.7241 43.4048 41.0171 43.4048 41.0171Z" fill="#FE8A8B"/>
<path d="M52.8425 34.9698C53.1726 34.6621 53.5227 34.377 53.8899 34.106C54.2596 33.8394 54.6541 33.6001 55.073 33.4043C55.4886 33.209 55.9237 32.998 56.3841 32.9629C56.8402 32.9223 57.2987 32.9595 57.7157 33.1387L57.7098 33.2012C57.4867 33.2905 57.2743 33.3476 57.0653 33.4082L56.4505 33.5786C56.0506 33.6963 55.636 33.7319 55.2308 33.8667C54.8279 34.001 54.4305 34.1724 54.0388 34.3696C53.6443 34.562 53.263 34.7905 52.8777 35.0186L52.8425 34.9698Z" fill="#3F1751"/>
<path d="M68.2677 33.4042C67.8941 33.2065 67.4986 33.0619 67.0875 32.9755C66.6788 32.8837 66.2603 32.8373 65.8404 32.8271C65.418 32.8183 64.9986 32.9047 64.5816 32.9013C64.1612 32.9028 63.7388 32.9155 63.2773 32.8691L63.2642 32.809C63.6592 32.5224 64.1089 32.3676 64.563 32.2792C65.0205 32.1869 65.4786 32.2626 65.92 32.3285C66.3643 32.3935 66.7965 32.5077 67.2022 32.6767C67.6046 32.8505 67.9874 33.0663 68.3063 33.352L68.2677 33.4042Z" fill="#3F1751"/>
<path d="M56.9838 37.4213C56.9682 36.8314 56.6713 36.3812 56.3202 36.4154C55.9691 36.4501 55.6972 36.9559 55.7128 37.5463C55.7284 38.1361 56.0253 38.5863 56.3764 38.5522C56.7275 38.5175 56.999 38.0111 56.9838 37.4213Z" fill="#3F1751"/>
<path d="M66.2993 36.6768C66.2837 36.087 66.0386 35.6314 65.752 35.6597C65.4649 35.6875 65.2451 36.189 65.2603 36.7789C65.2759 37.3687 65.521 37.8243 65.8076 37.796C66.0947 37.7677 66.3145 37.2667 66.2993 36.6768Z" fill="#3F1751"/>
<path d="M59.9009 43.1553C60.7085 43.7168 61.899 43.7046 62.7779 43.126C62.6778 43.5806 62.4747 44.0235 62.0323 44.1851C61.5904 44.3467 61.1016 44.2993 60.6953 44.1128C60.2891 43.9258 60.1577 43.5171 59.9009 43.1553Z" fill="#FE8A8B"/>
<path d="M56.6685 46.6165C58.6143 46.6477 63.2911 46.2888 64.8161 46.072C64.215 48.0428 62.6378 49.9896 60.4361 49.9906C58.4532 49.992 57.1436 48.3626 56.6685 46.6165Z" fill="#C31F2A"/>
<path d="M58.4531 49.3469C59.2271 49.1081 60.0142 49.2306 60.3306 49.3288C60.3306 49.3288 61.3594 48.6086 62.8546 49.0822C62.1744 49.631 61.3648 49.9904 60.4356 49.9909C59.6704 49.9909 59.0088 49.7453 58.4531 49.3469Z" fill="#FB8384"/>
<path d="M63.4962 47.7205C61.5269 48.3343 59.3775 48.1575 57.5225 47.489C57.5103 47.198 57.4878 46.9046 57.4653 46.6116C59.3882 46.5706 62.5006 46.3377 64.1671 46.1521C64.0236 46.697 63.8073 47.2298 63.4962 47.7205Z" fill="white"/>
<path d="M48.4119 32.5253C51.5849 32.3901 54.7329 31.6913 57.6651 30.4711C58.2232 29.1806 58.2422 28.035 58.3257 26.6317C59.1231 28.0946 59.5972 29.7318 59.6788 31.3959C61.5265 31.2763 63.3834 31.1767 65.2311 31.0571C65.7487 29.5927 65.8112 28.0848 65.7292 26.534C66.3537 27.9911 66.6672 29.8251 66.8806 31.3959C67.9959 30.9989 69.4094 31.5776 70.5745 31.7866C72.0184 28.5697 71.9242 22.7419 68.8694 20.3024C65.8942 17.9264 60.7267 17.2794 57.0913 17.8058C49.3568 18.9255 43.2785 25.3475 43.7585 33.3476C44.0325 37.9117 46.3221 42.2277 49.6053 45.4099C47.6531 41.5153 47.2654 36.7281 48.4119 32.5253Z" fill="#372D5B"/>
</g>
<path d="M145.036 60.1022C147.87 49.1972 141.327 38.0596 130.422 35.2257C119.517 32.3919 108.379 38.9348 105.545 49.8399C102.711 60.7449 109.254 71.8825 120.159 74.7164C131.064 77.5502 142.202 71.0073 145.036 60.1022Z" fill="#E67471"/>
<path d="M115.235 62.9532H135.365C136.289 62.9532 137.038 62.2042 137.038 61.2803V48.6531C137.038 47.7293 136.289 46.9802 135.365 46.9802H115.235C114.311 46.9802 113.562 47.7293 113.562 48.6531V61.2808C113.562 62.2042 114.311 62.9532 115.235 62.9532Z" fill="#DBE9FF"/>
<path d="M115.235 62.9533H135.365C136.289 62.9533 137.038 62.2043 137.038 61.2804L125.3 53.8989L113.562 61.2804C113.562 62.2043 114.311 62.9533 115.235 62.9533Z" fill="#CDDCF4"/>
<path d="M115.235 46.9797H135.365C136.289 46.9797 137.038 47.7288 137.038 48.6526L125.3 56.0341L113.562 48.6526C113.562 47.7288 114.311 46.9797 115.235 46.9797Z" fill="#5470D3"/>
<path d="M274.55 104.205C285.527 101.662 292.364 90.7013 289.821 79.7242C287.278 68.747 276.317 61.9099 265.34 64.4531C254.363 66.9962 247.526 77.9566 250.069 88.9338C252.612 99.9109 263.572 106.748 274.55 104.205Z" fill="#E67471"/>
<path d="M275.667 80.3356H273.615C273.43 79.5265 273.11 78.7702 272.682 78.0875L274.134 76.6358C274.332 76.4376 274.332 76.1168 274.134 75.919L272.521 74.3057C272.322 74.1079 272.002 74.1079 271.804 74.3057L270.352 75.7574C269.669 75.3292 268.913 75.0098 268.104 74.8243V72.773C268.104 72.4932 267.877 72.2661 267.597 72.2661H265.316C265.036 72.2661 264.809 72.4932 264.809 72.773V74.8243C264 75.0098 263.244 75.3292 262.561 75.7574L261.109 74.3057C260.911 74.1079 260.59 74.1079 260.392 74.3057L258.779 75.919C258.581 76.1168 258.581 76.4381 258.779 76.6358L260.231 78.0875C259.803 78.7702 259.483 79.5265 259.298 80.3356H257.246C256.967 80.3356 256.74 80.5627 256.74 80.8425V83.1238C256.74 83.4035 256.967 83.6306 257.246 83.6306H259.298C259.483 84.4397 259.803 85.1961 260.231 85.8787L258.779 87.3304C258.581 87.5286 258.581 87.8494 258.779 88.0472L260.392 89.6605C260.591 89.8588 260.911 89.8588 261.109 89.6605L262.561 88.2088C263.244 88.6371 264 88.9564 264.809 89.142V91.1933C264.809 91.473 265.036 91.7001 265.316 91.7001H267.597C267.877 91.7001 268.104 91.473 268.104 91.1933V89.142C268.913 88.9564 269.669 88.6371 270.352 88.2088L271.804 89.6605C272.002 89.8588 272.323 89.8588 272.521 89.6605L274.134 88.0472C274.332 87.849 274.332 87.5281 274.134 87.3304L272.682 85.8787C273.11 85.1961 273.43 84.4397 273.615 83.6306H275.667C275.946 83.6306 276.173 83.4035 276.173 83.1238V80.8425C276.173 80.5627 275.946 80.3356 275.667 80.3356ZM266.456 85.1316C264.718 85.1316 263.308 83.7224 263.308 81.9836C263.308 80.2453 264.717 78.8356 266.456 78.8356C268.194 78.8356 269.604 80.2448 269.604 81.9836C269.604 83.7219 268.195 85.1316 266.456 85.1316Z" fill="#DBE9FF"/>
<path d="M266.456 77.6018C264.036 77.6018 262.074 79.5638 262.074 81.9837C262.074 84.4037 264.036 86.3657 266.456 86.3657C268.876 86.3657 270.838 84.4037 270.838 81.9837C270.838 79.5638 268.876 77.6018 266.456 77.6018ZM266.456 84.6596C264.978 84.6596 263.78 83.4618 263.78 81.9837C263.78 80.5057 264.978 79.3079 266.456 79.3079C267.933 79.3079 269.132 80.5057 269.132 81.9837C269.132 83.4618 267.934 84.6596 266.456 84.6596Z" fill="#5470D3"/>
<path d="M284.427 89.3219H283.38C283.285 88.9083 283.122 88.522 282.903 88.1734L283.645 87.4317C283.746 87.3306 283.746 87.1665 283.645 87.0655L282.821 86.2412C282.719 86.1402 282.555 86.1402 282.454 86.2412L281.713 86.9829C281.364 86.7642 280.977 86.6011 280.564 86.5064V85.4585C280.564 85.3154 280.448 85.1997 280.305 85.1997H279.14C278.997 85.1997 278.881 85.3154 278.881 85.4585V86.5064C278.467 86.6011 278.081 86.7642 277.732 86.9829L276.991 86.2412C276.89 86.1402 276.726 86.1402 276.625 86.2412L275.8 87.0655C275.699 87.1665 275.699 87.3306 275.8 87.4317L276.542 88.1734C276.323 88.522 276.16 88.9088 276.065 89.3219H275.018C274.875 89.3219 274.758 89.4381 274.758 89.5807V90.7462C274.758 90.8893 274.875 91.005 275.018 91.005H276.065C276.16 91.4186 276.323 91.8048 276.542 92.1535L275.8 92.8952C275.699 92.9963 275.699 93.1603 275.8 93.2614L276.625 94.0856C276.726 94.1867 276.89 94.1867 276.991 94.0856L277.732 93.3439C278.081 93.5627 278.467 93.7258 278.881 93.8205V94.8684C278.881 95.0114 278.997 95.1272 279.14 95.1272H280.305C280.448 95.1272 280.564 95.0114 280.564 94.8684V93.8205C280.978 93.7258 281.364 93.5627 281.713 93.3439L282.454 94.0856C282.555 94.1867 282.719 94.1867 282.821 94.0856L283.645 93.2614C283.746 93.1603 283.746 92.9963 283.645 92.8952L282.903 92.1535C283.122 91.8048 283.285 91.4186 283.38 91.005H284.427C284.571 91.005 284.686 90.8893 284.686 90.7462V89.5807C284.687 89.4381 284.571 89.3219 284.427 89.3219ZM279.722 91.7721C278.834 91.7721 278.114 91.0519 278.114 90.1642C278.114 89.276 278.834 88.5562 279.722 88.5562C280.61 88.5562 281.33 89.2764 281.33 90.1642C281.331 91.0519 280.61 91.7721 279.722 91.7721Z" fill="#DBE9FF"/>
<path d="M279.722 87.9253C278.486 87.9253 277.484 88.9278 277.484 90.1641C277.484 91.4005 278.486 92.4024 279.722 92.4024C280.959 92.4024 281.961 91.4005 281.961 90.1641C281.961 88.9273 280.959 87.9253 279.722 87.9253ZM279.722 91.5308C278.967 91.5308 278.355 90.919 278.355 90.1641C278.355 89.4092 278.967 88.7974 279.722 88.7974C280.477 88.7974 281.089 89.4092 281.089 90.1641C281.089 90.9185 280.478 91.5308 279.722 91.5308Z" fill="#5470D3"/>
<path d="M185.517 45.4705C195.972 41.2665 201.038 29.3835 196.834 18.9292C192.63 8.47485 180.747 3.40799 170.293 7.61203C159.839 11.8161 154.772 23.699 158.976 34.1534C163.18 44.6077 175.063 49.6745 185.517 45.4705Z" fill="#E67471"/>
<path d="M167.778 37.0224H188.028C188.919 37.0224 189.641 36.3002 189.641 35.4091V18.5616C189.641 17.6704 188.919 16.9482 188.028 16.9482H167.778C166.887 16.9482 166.165 17.6704 166.165 18.5616V35.4096C166.165 36.3002 166.887 37.0224 167.778 37.0224Z" fill="white"/>
<path d="M166.165 21.1495H189.641V18.5616C189.641 17.6704 188.919 16.9482 188.028 16.9482H167.778C166.887 16.9482 166.165 17.6704 166.165 18.5616V21.1495Z" fill="#5470D3"/>
<path d="M184.033 17.8443C184.296 17.8443 184.509 17.6309 184.509 17.3682V16.5288C184.509 16.2661 184.296 16.0527 184.033 16.0527C183.771 16.0527 183.557 16.2661 183.557 16.5288V17.3682C183.557 17.6309 183.77 17.8443 184.033 17.8443Z" fill="white"/>
<path d="M185.394 17.8443C185.657 17.8443 185.87 17.6309 185.87 17.3682V16.5288C185.87 16.2661 185.657 16.0527 185.394 16.0527C185.131 16.0527 184.918 16.2661 184.918 16.5288V17.3682C184.918 17.6309 185.131 17.8443 185.394 17.8443Z" fill="white"/>
<path d="M170.411 17.8443C170.675 17.8443 170.887 17.6309 170.887 17.3682V16.5288C170.887 16.2661 170.675 16.0527 170.411 16.0527C170.149 16.0527 169.935 16.2661 169.935 16.5288V17.3682C169.935 17.6309 170.149 17.8443 170.411 17.8443Z" fill="white"/>
<path d="M171.772 17.8443C172.035 17.8443 172.248 17.6309 172.248 17.3682V16.5288C172.248 16.2661 172.035 16.0527 171.772 16.0527C171.509 16.0527 171.296 16.2661 171.296 16.5288V17.3682C171.296 17.6309 171.51 17.8443 171.772 17.8443Z" fill="white"/>
<path d="M179.384 25.6805H180.644C180.858 25.6805 181.031 25.5071 181.031 25.2932V24.0339C181.031 23.8201 180.858 23.6467 180.644 23.6467H179.384C179.17 23.6467 178.997 23.8201 178.997 24.0339V25.2932C178.997 25.5076 179.17 25.6805 179.384 25.6805Z" fill="#DBE9FF"/>
<path d="M174.545 25.6807H175.804C176.018 25.6807 176.192 25.5074 176.192 25.2935V24.0337C176.192 23.8198 176.018 23.6465 175.804 23.6465H174.545C174.331 23.6465 174.158 23.8198 174.158 24.0337V25.2935C174.158 25.5078 174.331 25.6807 174.545 25.6807Z" fill="#DBE9FF"/>
<path d="M169.706 25.6807H170.966C171.179 25.6807 171.353 25.5074 171.353 25.2935V24.0337C171.353 23.8198 171.179 23.6465 170.966 23.6465H169.706C169.492 23.6465 169.319 23.8198 169.319 24.0337V25.2935C169.319 25.5078 169.492 25.6807 169.706 25.6807Z" fill="#DBE9FF"/>
<path d="M184.224 29.8482H185.483C185.697 29.8482 185.871 29.6748 185.871 29.461V28.2012C185.871 27.9873 185.697 27.814 185.483 27.814H184.224C184.01 27.814 183.837 27.9873 183.837 28.2012V29.4605C183.836 29.6748 184.01 29.8482 184.224 29.8482Z" fill="#DBE9FF"/>
<path d="M179.384 29.8482H180.644C180.858 29.8482 181.031 29.6748 181.031 29.461V28.2012C181.031 27.9873 180.858 27.814 180.644 27.814H179.384C179.17 27.814 178.997 27.9873 178.997 28.2012V29.4605C178.997 29.6748 179.17 29.8482 179.384 29.8482Z" fill="#DBE9FF"/>
<path d="M174.545 29.8482H175.804C176.018 29.8482 176.191 29.6748 176.191 29.461V28.2012C176.191 27.9873 176.018 27.814 175.804 27.814H174.544C174.33 27.814 174.157 27.9873 174.157 28.2012V29.461C174.158 29.6748 174.331 29.8482 174.545 29.8482Z" fill="#DBE9FF"/>
<path d="M169.706 29.8482H170.966C171.179 29.8482 171.353 29.6748 171.353 29.461V28.2012C171.353 27.9873 171.179 27.814 170.966 27.814H169.706C169.492 27.814 169.319 27.9873 169.319 28.2012V29.461C169.319 29.6748 169.492 29.8482 169.706 29.8482Z" fill="#DBE9FF"/>
<path d="M184.224 34.0152H185.483C185.697 34.0152 185.871 33.8418 185.871 33.628V32.3682C185.871 32.1543 185.697 31.981 185.483 31.981H184.224C184.01 31.981 183.837 32.1543 183.837 32.3682V33.628C183.836 33.8418 184.01 34.0152 184.224 34.0152Z" fill="#DBE9FF"/>
<path d="M179.384 34.0152H180.644C180.858 34.0152 181.031 33.8418 181.031 33.628V32.3682C181.031 32.1543 180.858 31.981 180.644 31.981H179.384C179.17 31.981 178.997 32.1543 178.997 32.3682V33.628C178.997 33.8418 179.17 34.0152 179.384 34.0152Z" fill="#DBE9FF"/>
<path d="M174.545 34.0152H175.804C176.018 34.0152 176.191 33.8418 176.191 33.628V32.3682C176.191 32.1543 176.018 31.981 175.804 31.981H174.545C174.331 31.981 174.157 32.1543 174.157 32.3682V33.628C174.158 33.8418 174.331 34.0152 174.545 34.0152Z" fill="#DBE9FF"/>
<path d="M250.732 51.4499C258.699 43.4824 258.699 30.5645 250.732 22.597C242.764 14.6295 229.847 14.6295 221.879 22.597C213.912 30.5645 213.912 43.4824 221.879 51.4499C229.847 59.4174 242.764 59.4174 250.732 51.4499Z" fill="#E67471"/>
<path d="M246.186 46.9044C251.643 41.4473 251.643 32.5996 246.186 27.1425C240.729 21.6854 231.882 21.6854 226.424 27.1425C220.967 32.5996 220.967 41.4473 226.424 46.9044C231.882 52.3615 240.729 52.3615 246.186 46.9044Z" fill="white"/>
<path d="M236.308 23.0481C228.59 23.0481 222.334 29.3046 222.334 37.022C222.334 44.7395 228.59 50.9959 236.308 50.9959C244.025 50.9959 250.282 44.7395 250.282 37.022C250.282 29.3046 244.025 23.0481 236.308 23.0481ZM237.479 48.928V47.0198C237.479 46.6648 237.192 46.3772 236.837 46.3772H235.778C235.423 46.3772 235.136 46.6648 235.136 47.0198V48.928C229.464 48.3767 224.953 43.8654 224.401 38.1939H226.31C226.665 38.1939 226.952 37.9063 226.952 37.5513V36.4932C226.952 36.1382 226.665 35.8506 226.31 35.8506H224.401C224.953 30.1791 229.464 25.6678 235.136 25.1165V27.0247C235.136 27.3797 235.423 27.6673 235.778 27.6673H236.837C237.192 27.6673 237.479 27.3797 237.479 27.0247V25.1165C243.151 25.6678 247.662 30.1791 248.213 35.8506H246.305C245.95 35.8506 245.663 36.1382 245.663 36.4932V37.5513C245.663 37.9063 245.95 38.1939 246.305 38.1939H248.213C247.662 43.8654 243.151 48.3767 237.479 48.928Z" fill="#5470D3"/>
<path d="M231.063 50.3625V49.0548L235.975 43.6783C236.551 43.0486 237.026 42.5013 237.399 42.0363C237.772 41.5665 238.048 41.1257 238.227 40.714C238.411 40.2974 238.503 39.8615 238.503 39.4062C238.503 38.8831 238.377 38.4302 238.125 38.0476C237.878 37.6649 237.539 37.3694 237.108 37.1612C236.677 36.9529 236.193 36.8488 235.655 36.8488C235.083 36.8488 234.585 36.9674 234.158 37.2048C233.737 37.4373 233.41 37.7642 233.177 38.1856C232.95 38.607 232.836 39.101 232.836 39.6678H231.121C231.121 38.7959 231.322 38.0306 231.724 37.3719C232.126 36.7131 232.674 36.1997 233.366 35.8316C234.064 35.4635 234.846 35.2794 235.713 35.2794C236.585 35.2794 237.358 35.4635 238.031 35.8316C238.704 36.1997 239.232 36.6962 239.615 37.321C239.997 37.9458 240.189 38.6409 240.189 39.4062C240.189 39.9535 240.089 40.4888 239.891 41.0119C239.697 41.5301 239.358 42.109 238.874 42.7483C238.394 43.3828 237.728 44.1578 236.876 45.0733L233.533 48.6479V48.7641H240.45V50.3625H231.063ZM230.714 72.311V70.8289L237.253 60.4828H238.329V62.7787H237.602L232.662 70.5964V70.7126H241.467V72.311H230.714ZM237.718 75.3625V71.8606V71.1704V60.4828H239.433V75.3625H237.718ZM249.479 59.7854L244.684 77.6003H243.115L247.91 59.7854H249.479ZM231.528 100.363L238.183 87.1975V87.0812H230.511V85.4828H240.043V87.1684L233.417 100.363H231.528Z" fill="#D1C8D9"/>
</svg>
