<svg width="49" height="49" viewBox="0 0 49 49" fill="none" xmlns="http://www.w3.org/2000/svg">
<path d="M24.5 0C18.0022 0 11.7705 2.58124 7.17588 7.17588C2.58124 11.7705 4.90571e-07 18.0022 0 24.5C-4.9057e-07 30.9978 2.58124 37.2295 7.17588 41.8241C11.7705 46.4188 18.0022 49 24.5 49L24.5 24.5L24.5 0Z" fill="#0745E8"/>
<path d="M24.5 4C24.809 15.1913 33.8087 24.191 45 24.5C33.8087 24.809 24.809 33.8087 24.5 45C24.191 33.8087 15.1913 24.809 4 24.5C15.1913 24.191 24.191 15.1913 24.5 4Z" fill="url(#paint0_linear_9_2326)"/>
<defs>
<linearGradient id="paint0_linear_9_2326" x1="45" y1="24.5" x2="4" y2="24.5" gradientUnits="userSpaceOnUse">
<stop offset="0.4999" stop-color="#0745E8"/>
<stop offset="0.5" stop-color="#6D5C72"/>
<stop offset="0.5001" stop-color="white"/>
</linearGradient>
</defs>
</svg>
