<svg width="200" height="50" viewBox="0 0 200 50" fill="none" xmlns="http://www.w3.org/2000/svg">
<path fill-rule="evenodd" clip-rule="evenodd" d="M43.5825 7.79384C37.0772 7.79384 32.9847 16.8501 32.9847 29.5107C32.9847 41.7163 37.5051 49.9274 43.5825 49.9274C48.9601 49.9274 53.1652 43.7906 53.7495 33.1212H47.3243C47.0106 37.3454 45.8412 39.9504 43.5432 39.9504C40.7373 39.9504 39.6087 34.6588 39.6087 29.5107C39.6087 23.9908 40.1931 17.7693 43.894 17.7693C45.5676 17.7693 47.0877 20.1581 47.1293 23.5312H53.5529C53.0888 13.0144 48.6093 7.79384 43.5825 7.79384V7.79384ZM114.562 7.79233C111.695 7.79233 109.679 10.3883 108.473 14.5656H108.392V8.9459H101.967V48.7784H108.588V28.0956C108.588 22.2809 109.86 18.5298 112.171 18.5313C115.608 18.5313 115.484 24.0619 115.484 29.5077V48.7784H122.108V23.2167C122.108 17.4594 121.303 7.79233 114.562 7.79233V7.79233ZM133.894 7.79233C131.593 7.79233 129.257 8.56339 127.464 10.5621C125.672 12.6274 124.425 16.008 124.31 21.2255H130.504C130.816 17.8495 131.984 16.2423 133.815 16.2423C135.18 16.2423 137.009 17.3823 137.009 20.3759C137.009 22.8403 136.385 23.6007 135.257 24.0649C130.66 25.9018 123.492 24.9085 123.492 37.8731C123.492 46.0902 126.53 49.9244 130.384 49.9244C132.803 49.9244 135.337 48.544 137.049 45.0168C137.128 46.3215 137.204 47.5447 137.437 48.7784H144.101C143.322 45.6321 143.323 41.9446 143.323 38.5655V21.1424C143.323 9.86816 138.682 7.79233 133.893 7.79233H133.894ZM136.932 30.1261C137.088 38.3418 136.034 41.866 132.88 41.866C131.399 41.866 130.115 40.5582 130.115 37.3439C130.115 34.1916 131.363 32.9624 132.842 32.2745C134.286 31.508 135.998 31.2827 136.932 30.1276L136.932 30.1261ZM145.485 0.0680354V48.7814H152.107V0.0665235L145.485 0.0680354ZM167.87 0.0680354V13.2473H167.789C166.426 9.63987 164.517 7.79686 162.024 7.79686C156.296 7.79686 153.493 17.6197 153.493 27.9792C153.493 39.1839 156.182 49.9274 162.53 49.9274C164.868 49.9274 166.816 47.9332 168.102 44.1716H168.178V48.7799H174.492V0.0680354H167.87ZM164.166 17.7724C167.049 17.7724 168.102 23.0716 168.102 28.8243C168.102 33.8862 167.401 39.9504 164.166 39.9504C161.128 39.9504 160.117 33.8877 160.117 28.4403C160.117 23.3785 161.128 17.7724 164.166 17.7724V17.7724ZM175.874 0.0680354V13.2442H178.973L182.068 0.0680354H175.874ZM55.1343 0.0680354V48.7814H65.7669C73.2806 48.7814 77.8863 40.1832 77.8863 24.2252C77.8863 9.14094 73.3486 0.0680354 65.7669 0.0680354H55.1343ZM62.1914 11.3619H65.1667C69.015 11.3619 70.74 16.4298 70.74 24.1874C70.74 32.7205 69.3491 37.4921 65.1667 37.4921H62.1914V11.3619ZM5.10842 0L0 48.7799H7.29374L9.17368 29.4079C9.3748 27.2675 9.54595 25.1162 9.68694 22.9567H9.76026C9.87516 24.3053 10.1722 26.9753 10.4708 29.2537L13.121 48.7799H20.3702L23.0158 29.2537C23.3174 26.9753 23.613 24.3053 23.7264 22.9567H23.8042C23.8685 23.9923 24.0718 26.9133 24.316 29.4079L26.1959 48.7799H33.4882L28.3805 0H20.6506L17.5537 24.5003C17.2944 26.3993 16.9746 29.4745 16.7811 31.0786H16.7086C16.512 29.4745 16.1945 26.3993 15.936 24.5003L12.8376 0L5.10842 0ZM89.9075 7.79384C83.3795 7.79384 79.2674 16.9302 79.2674 28.8969C79.2674 40.8666 83.378 50 89.906 50C96.4348 50 100.543 40.8681 100.543 28.8969C100.543 16.9302 96.4355 7.79384 89.9075 7.79384V7.79384ZM89.906 17.7693C92.7686 17.7693 93.9176 22.5212 93.9176 28.8969C93.9176 35.2786 92.7694 40.0245 89.9068 40.0245C87.0419 40.0245 85.8929 35.2786 85.8929 28.8969C85.8929 22.5197 87.0411 17.7693 89.906 17.7693V17.7693ZM189.945 7.7893C186.025 7.7893 180.662 10.3973 180.662 19.9933C180.662 30.7384 185.986 30.9637 190.101 33.038C191.252 33.5793 193.292 34.1886 193.291 37.2607C193.291 40.4115 191.483 41.485 190.214 41.485C189.291 41.485 188.494 41.0239 187.881 40.1016C187.227 39.1007 186.805 37.6387 186.805 35.6491H180.486C180.68 46.7827 185.524 49.9244 190.254 49.9244C194.753 49.9244 200 46.3926 200 35.7277C200 32.4272 198.964 26.5928 194.926 24.9766C191.926 23.6794 187.372 22.9899 187.372 19.2283C187.372 16.4616 189.103 16.2317 190.177 16.2317C190.986 16.2317 191.628 16.5402 192.167 17.2296C192.705 17.922 193.014 18.994 193.014 20.6828H199.136C198.906 10.3232 194.329 7.7893 189.945 7.7893V7.7893Z" fill="white" fill-opacity="0.6"/>
</svg>
