<svg width="201" height="50" viewBox="0 0 201 50" fill="none" xmlns="http://www.w3.org/2000/svg">
<path d="M31.2448 0.162474C31.2448 0.243709 25.1737 10.2356 17.7229 22.3802C10.2721 34.5248 3.44211 45.7352 2.54525 47.238L0.958496 50L9.99609 49.8781L18.9647 49.7563L20.2065 47.9285C20.8274 46.9131 24.4149 41.1048 28.1403 35.0122C31.8657 28.9196 34.9702 24.0049 35.0392 24.0455C35.1772 24.1267 34.6943 29.2851 33.9354 35.5402C33.2455 41.7953 32.6246 47.6036 32.6246 48.4159V49.9594H41.5242C49.32 49.9594 50.4928 49.8781 50.9067 49.2283C51.1137 48.8627 57.8747 37.8554 65.8084 24.8578C73.8112 11.8197 80.5032 0.893587 80.7101 0.568648C81.0551 0.0812396 79.6753 4.8615e-06 71.9485 0.0812396L62.8419 0.203092L59.4614 5.68644C57.5987 8.69212 54.1492 14.3379 51.8036 18.1966C49.527 22.0552 47.4573 25.1422 47.3193 25.0203C47.0433 24.8578 48.6301 8.85459 49.596 2.72137L50.0099 4.8615e-06H40.6273C35.4531 4.8615e-06 31.2448 0.0812396 31.2448 0.162474Z" fill="white" fill-opacity="0.6"/>
<path d="M84.0216 0.690468C83.8146 1.09664 77.1227 12.0227 69.1889 24.9797C61.2551 37.9366 54.5632 48.8627 54.3562 49.2282C53.8733 49.9187 54.6322 49.9594 64.7736 49.9594H75.7429L90.4376 25.8732C98.5093 12.6726 105.27 1.42158 105.546 0.893555L105.891 -2.71723e-05H95.1979C85.6773 -2.71723e-05 84.4355 0.0812076 84.0216 0.690468Z" fill="white" fill-opacity="0.6"/>
<path d="M109.134 1.09664C106.374 5.32085 79.5371 49.3907 79.5371 49.7156C79.5371 49.8375 84.3664 49.9187 90.3684 49.8781L101.131 49.7563L107.064 40.0081C110.306 34.6466 113.066 30.6255 113.204 31.0723C113.273 31.5191 112.79 35.9464 112.1 40.9017L110.858 49.9594H121.69H132.452L132.935 47.6035C133.142 46.3444 133.97 40.1706 134.798 33.9155L136.246 22.5426L147.699 12.3883C153.977 6.78308 159.703 1.74652 160.462 1.09664L161.703 -2.71723e-05H151.838H141.972L131.348 9.34197C125.484 14.5004 120.586 18.6027 120.448 18.5621C120.31 18.4809 122.724 14.3379 125.76 9.38259C128.795 4.42727 131.279 0.284294 131.279 0.20306C131.279 0.0812076 126.45 -2.71723e-05 120.586 -2.71723e-05H109.892L109.134 1.09664Z" fill="white" fill-opacity="0.6"/>
<path d="M161.428 3.93989C160.048 6.13323 153.356 17.0593 146.526 28.2291C139.696 39.3989 133.901 48.8627 133.694 49.2689C133.211 49.9188 134.246 49.9594 152.045 49.8782L170.879 49.7563L173.501 45.4915C174.95 43.1357 176.33 40.9423 176.536 40.5362C176.812 39.9675 176.054 39.8863 169.431 39.9269C165.36 39.9269 161.98 39.7644 161.842 39.5613C161.704 39.3582 162.946 37.0024 164.601 34.3217L167.637 29.4476L174.881 29.3258L182.194 29.2039L185.022 24.5329C186.609 21.974 187.851 19.6588 187.851 19.4557C187.851 19.2526 184.746 19.0902 180.952 19.0902C177.157 19.0902 174.053 19.0089 174.053 18.9277C174.053 18.8465 174.812 17.5061 175.778 16.0033C176.743 14.4598 177.985 12.4289 178.606 11.4541L179.71 9.74817H187.575C191.921 9.74817 195.44 9.70756 195.44 9.62632C195.44 9.54509 196.681 7.51422 198.199 5.03656C199.717 2.59952 200.959 0.487411 200.959 0.284324C200.959 0.121855 192.611 2.65509e-06 182.401 2.65509e-06H163.842L161.428 3.93989Z" fill="white" fill-opacity="0.6"/>
</svg>
