<svg width="220" height="163" viewBox="0 0 220 163" fill="none" xmlns="http://www.w3.org/2000/svg">
<path d="M2.50891 72.3927C4.985 71.208 7.44939 79.0907 7.44939 79.0907C11.6577 84.6518 17.5389 77.2538 16.964 85.5666C15.9576 100.113 33.7077 90.1408 25.5185 105.328C17.3294 120.515 32.749 113.915 27.66 126.161C22.5714 138.407 29.1672 153.012 21.5104 147.01C21.5104 147.01 14.768 132.225 7.81523 127.651C0.862407 123.077 11.9807 117.65 9.80516 111.436C6.64514 102.412 -0.967742 102.766 4.52125 93.0689C10.0107 83.3711 -5.90774 76.4178 2.50891 72.3927Z" fill="url(#paint0_linear_210_315)"/>
<path d="M23.9348 141.446C20.616 139.112 16.7316 122.845 16.4997 113.157C16.3809 108.193 14.9141 106.126 13.6193 104.302C12.382 102.558 11.3137 101.052 11.9363 97.5939C13.1258 90.9865 9.99846 88.1333 9.9668 88.1051L10.3292 87.6925C10.4681 87.8143 13.725 90.756 12.477 97.6908C11.8953 100.921 12.854 102.273 14.0675 103.983C15.3413 105.779 16.9264 108.012 17.0492 113.143C17.2976 123.541 21.2692 138.899 24.2509 140.996L23.9348 141.446Z" fill="white"/>
<path d="M25.1771 142.651C24.7489 142.651 24.2837 142.602 23.7737 142.499C22.4945 142.24 21.6557 141.565 21.2806 140.493C20.3857 137.934 22.4589 133.778 24.1415 131.774C24.1693 131.741 26.9854 128.299 26.6853 123.528C26.6346 122.728 26.5518 121.988 26.4788 121.335C26.2669 119.447 26.1139 118.083 26.925 117.172C27.6396 116.369 29.0191 116.022 31.5376 116.009C35.9549 115.988 37.7013 114.16 39.1052 112.69C39.701 112.066 40.2641 111.477 40.948 111.103C43.1493 109.901 45.4808 109.725 46.492 110.684C46.9723 111.139 47.3781 112.031 46.5822 113.694C45.8554 115.213 44.9123 116.176 44.1543 116.949C43.1347 117.989 42.4615 118.676 42.8123 120.046C42.8946 120.368 42.9896 120.692 43.0846 121.018C43.7656 123.347 44.5372 125.987 40.5515 127.778C39.7058 128.158 38.9347 128.461 38.2547 128.728C35.4722 129.82 33.7925 130.479 31.8966 134.481C31.5293 135.256 31.2054 135.991 30.8922 136.7C29.3972 140.089 28.266 142.651 25.1771 142.651ZM41.2111 111.586C40.6021 111.918 40.0926 112.452 39.5022 113.07C38.0272 114.615 36.1917 116.537 31.541 116.559C29.2252 116.57 27.9285 116.872 27.3356 117.538C26.6872 118.266 26.829 119.528 27.0248 121.274C27.0984 121.934 27.1822 122.681 27.2333 123.494C27.548 128.49 24.6847 131.981 24.5629 132.127C22.8974 134.11 21.0112 138.058 21.7994 140.313C22.1058 141.19 22.8068 141.745 23.8828 141.962C27.6372 142.721 28.6733 140.372 30.3904 136.48C30.7051 135.767 31.0305 135.029 31.4007 134.248C33.3902 130.049 35.2456 129.321 38.0549 128.218C38.7291 127.953 39.4929 127.654 40.3269 127.279C43.8771 125.683 43.2365 123.493 42.5585 121.173C42.461 120.841 42.3646 120.511 42.2808 120.184C41.8536 118.514 42.6963 117.654 43.7631 116.566C44.5304 115.782 45.3999 114.895 46.0877 113.458C46.4482 112.704 46.7454 111.681 46.115 111.083C45.2849 110.296 43.1766 110.513 41.2111 111.586Z" fill="url(#paint1_linear_210_315)"/>
<path d="M23.8327 145.82L23.2847 145.791C23.3115 145.276 24.0032 133.137 28.8769 129.584C34.2247 125.687 35.9101 121.498 36.7129 118.687C37.6589 115.374 42.4747 114.488 42.6793 114.452L42.7748 114.992C42.728 115.001 38.0925 115.855 37.241 118.837C36.4158 121.727 34.6845 126.031 29.2004 130.029C24.5356 133.428 23.839 145.697 23.8327 145.82Z" fill="url(#paint2_linear_210_315)"/>
<path d="M34.9764 84.643C31.5124 83.4549 32.2319 90.132 30.7681 95.0725C29.3042 100.013 14.4833 97.2276 20.7044 109.598C26.9256 121.97 12.8368 113.735 17.0451 124.531C21.2534 135.327 17.4105 146.872 21.9851 143.935C26.5597 140.999 24.5552 127.404 29.3125 125.789C34.0698 124.174 34.8463 122.289 30.1358 117.898C25.4257 113.507 42.4782 109.147 38.2699 100.28C34.0616 91.4132 38.9791 86.0153 34.9764 84.643Z" fill="url(#paint3_linear_210_315)"/>
<path d="M24.1085 143.419C23.673 141.571 19.9523 125.307 23.4236 123.341C26.4837 121.608 26.4082 114.869 25.9304 108.505C25.508 102.871 32.7429 100.238 33.0512 100.129L33.2349 100.647C33.1633 100.672 26.0867 103.249 26.4779 108.464C26.968 115 27.0206 121.935 23.6939 123.819C21.0576 125.312 23.4845 138.383 24.6424 143.294L24.1085 143.419Z" fill="white"/>
<path d="M31.9833 137.627L27.0369 156.392H15.9834L11.0376 137.627H31.9833Z" fill="#0745E8"/>
<path d="M31.9832 137.627C31.9832 137.627 21.0944 139.672 21.0944 156.392H15.9834L11.0371 137.627H31.9832Z" fill="#0745E8"/>
<path d="M63.7367 33.4821H32.2661L32.3207 33.202C32.8263 30.6095 35.1134 28.7282 37.76 28.7282C38.1419 28.7282 38.5228 28.7682 38.8945 28.8461C40.5342 25.7299 43.7195 23.8024 47.2522 23.8024C50.2622 23.8024 53.0997 25.2472 54.8782 27.676C55.5271 27.4787 56.2003 27.3789 56.8842 27.3789C60.3088 27.3789 63.1731 29.8316 63.6948 33.2113L63.7367 33.4821ZM32.8453 33.0116H63.1814C62.5905 30.0498 59.9303 27.8489 56.8833 27.8489C56.1915 27.8489 55.5115 27.9586 54.8602 28.1748L54.6946 28.2299L54.5943 28.0867C52.9107 25.6983 50.1662 24.2724 47.2517 24.2724C43.8365 24.2724 40.7626 26.1688 39.2301 29.2212L39.1459 29.3893L38.9637 29.344C38.5715 29.2475 38.1667 29.1983 37.76 29.1983C35.4339 29.1988 33.4114 30.7854 32.8453 33.0116Z" fill="#6AAFE8"/>
<path d="M187.831 135.35H138.994H90.1563L83.1704 161.459H138.994H194.817L187.831 135.35Z" fill="#0745E8"/>
<path d="M90.9257 142.284H97.3168C97.5838 142.284 97.7854 142.492 97.7353 142.716L97.1166 145.496C97.0781 145.668 96.9028 145.792 96.6977 145.792H90.1974C89.9246 145.792 89.722 145.576 89.7814 145.349L90.5097 142.569C90.5535 142.402 90.7264 142.284 90.9257 142.284Z" fill="white"/>
<path d="M100.247 142.284H105.079L104.436 145.792H99.5122L100.247 142.284Z" fill="white"/>
<path d="M107.495 142.284H112.326L111.82 145.792L106.896 145.797L107.495 142.284Z" fill="white"/>
<path d="M114.742 142.284H119.573L119.206 145.792H114.282L114.742 142.284Z" fill="white"/>
<path d="M121.988 142.284H126.82L126.59 145.792H121.667L121.988 142.284Z" fill="white"/>
<path d="M129.235 142.284H134.067L133.975 145.792L129.052 145.797L129.235 142.284Z" fill="white"/>
<path d="M187.228 142.284H179.982L180.762 145.792H188.147L187.228 142.284Z" fill="white"/>
<path d="M177.567 142.284H172.735L173.378 145.792H178.301L177.567 142.284Z" fill="white"/>
<path d="M170.319 142.284H165.488L165.993 145.792L170.917 145.797L170.319 142.284Z" fill="white"/>
<path d="M163.073 142.284H158.241L158.608 145.792H163.531L163.073 142.284Z" fill="white"/>
<path d="M155.825 142.284H150.994L151.224 145.792H156.146L155.825 142.284Z" fill="white"/>
<path d="M148.578 142.284H143.747L143.838 145.792L148.762 145.797L148.578 142.284Z" fill="white"/>
<path d="M136.483 142.284H141.314L141.395 145.792H136.483V142.284Z" fill="white"/>
<path d="M88.7995 148.405H98.8953L98.3204 152.023H88.0332L88.7995 148.405Z" fill="white"/>
<path d="M188.806 148.405H176.327L177.037 152.023H189.753L188.806 148.405Z" fill="white"/>
<path d="M173.83 148.405H168.839L169.407 152.023H174.494L173.83 148.405Z" fill="white"/>
<path d="M166.343 148.405H161.351L161.777 152.023H166.864L166.343 148.405Z" fill="white"/>
<path d="M158.855 148.405H153.863L154.147 152.023H159.234L158.855 148.405Z" fill="white"/>
<path d="M151.368 148.405H146.376L146.518 152.023H151.605L151.368 148.405Z" fill="white"/>
<path d="M87.2917 154.853H97.6131L96.8599 158.447H86.3506L87.2917 154.853Z" fill="white"/>
<path d="M100.193 154.853H105.354L104.742 158.447H99.4873L100.193 154.853Z" fill="white"/>
<path d="M107.935 154.853H113.095H146.636L146.78 158.447H107.37L107.935 154.853Z" fill="white"/>
<path d="M149.22 154.853H154.38L154.663 158.447H149.408L149.22 154.853Z" fill="white"/>
<path d="M156.961 154.853H162.122L162.546 158.447H157.291L156.961 154.853Z" fill="white"/>
<path d="M164.702 154.853H169.863L170.427 158.447H165.173L164.702 154.853Z" fill="white"/>
<path d="M172.443 154.853H177.604L178.31 158.447H173.055L172.443 154.853Z" fill="white"/>
<path d="M180.184 154.853H190.505L191.447 158.447H180.936L180.184 154.853Z" fill="white"/>
<path d="M143.89 148.405H138.939V152.023H143.985L143.89 148.405Z" fill="white"/>
<path d="M136.402 148.405H131.411L131.269 152.023H136.355L136.402 148.405Z" fill="white"/>
<path d="M128.915 148.405H123.924L123.64 152.023H128.726L128.915 148.405Z" fill="white"/>
<path d="M121.427 148.405H116.436L116.009 152.023H121.095L121.427 148.405Z" fill="white"/>
<path d="M113.94 148.405H108.948L108.379 152.023H113.466L113.94 148.405Z" fill="white"/>
<path d="M106.452 148.405H101.46L100.75 152.023H105.836L106.452 148.405Z" fill="white"/>
<path d="M91.1611 140.08L91.9815 136.949H94.3275L93.5617 140.08H91.1611Z" fill="white"/>
<path d="M96.674 136.949H101.365L100.709 140.08H95.9355L96.674 136.949Z" fill="white"/>
<path d="M103.711 136.949H108.403L107.87 140.08H103.096L103.711 136.949Z" fill="white"/>
<path d="M110.748 136.949H115.44L115.03 140.08H110.256L110.748 136.949Z" fill="white"/>
<path d="M117.786 136.949H122.478L122.191 140.08H117.417L117.786 136.949Z" fill="white"/>
<path d="M124.824 136.949H129.515L129.351 140.08H124.578L124.824 136.949Z" fill="white"/>
<path d="M131.861 136.949H136.553L136.512 140.08H131.738L131.861 136.949Z" fill="white"/>
<path d="M138.899 136.949H143.59L143.673 140.08H138.899V136.949Z" fill="white"/>
<path d="M145.936 136.949H150.629L150.833 140.08H146.06L145.936 136.949Z" fill="white"/>
<path d="M152.973 136.949H157.665L157.994 140.08H153.22L152.973 136.949Z" fill="white"/>
<path d="M160.011 136.949H164.703L165.154 140.08H160.381L160.011 136.949Z" fill="white"/>
<path d="M167.049 136.949H171.741L172.315 140.08H167.541L167.049 136.949Z" fill="white"/>
<path d="M174.086 136.949H178.778L179.475 140.08H174.702L174.086 136.949Z" fill="white"/>
<path d="M181.124 136.949H185.815L186.636 140.08H181.862L181.124 136.949Z" fill="white"/>
<path d="M194.817 161.459H83.1704V163H194.817V161.459Z" fill="url(#paint4_linear_210_315)"/>
<path d="M131.645 126.722H147.011V80.0517H131.645V126.722Z" fill="#518AFA"/>
<path d="M77.6584 102.533H200.998C203.577 102.533 205.669 100.443 205.669 97.8633V13.6047C205.669 11.0254 203.577 8.9346 200.998 8.9346H77.6584C75.079 8.9346 72.9883 11.0254 72.9883 13.6047V97.8633C72.9883 100.443 75.079 102.533 77.6584 102.533Z" fill="#0745E8"/>
<path d="M77.6777 85.5204H200.743V13.519H77.6777V85.5204Z" fill="url(#paint5_linear_210_315)"/>
<path d="M135.048 94.5771C135.048 96.9412 136.964 98.8575 139.328 98.8575C141.692 98.8575 143.608 96.9407 143.608 94.5771C143.608 92.2136 141.692 90.2977 139.328 90.2977C136.964 90.2977 135.048 92.2136 135.048 94.5771Z" fill="#696969"/>
<path d="M173.891 124.96H104.765V128.484H173.891V124.96Z" fill="url(#paint6_linear_210_315)"/>
<path d="M98.5343 19.0319H84.7515V20.4436H98.5343V19.0319Z" fill="#E0E0E0"/>
<path d="M112.343 29.6586H102.392V31.0699H112.343V29.6586Z" fill="#E0E0E0"/>
<path d="M120.497 29.6586H113.894V31.0699H120.497V29.6586Z" fill="#1487E3"/>
<path d="M133.989 72.3216H127.385V73.7333H133.989V72.3216Z" fill="#1487E3"/>
<path d="M91.5108 56.3822H84.9072V57.7929H91.5108V56.3822Z" fill="#1487E3"/>
<path d="M137.746 29.6586H121.802V31.0699H137.746V29.6586Z" fill="#E0E0E0"/>
<path d="M95.1526 51.03H84.9072V52.4403H95.1526V51.03Z" fill="#E0E0E0"/>
<path d="M122.682 61.6953H112.437V63.1065H122.682V61.6953Z" fill="#E0E0E0"/>
<path d="M160.951 72.3216H150.706V73.7333H160.951V72.3216Z" fill="#E0E0E0"/>
<path d="M105.443 61.6953H99.189V63.1065H105.443V61.6953Z" fill="#E0E0E0"/>
<path d="M97.2989 61.6953H84.9072V63.1065H97.2989V61.6953Z" fill="#1487E3"/>
<path d="M91.7417 67.0084H84.9072V68.4201H91.7417V67.0084Z" fill="#E0E0E0"/>
<path d="M111 19.0319H101.216V20.4436H111V19.0319Z" fill="#78C2FF"/>
<path d="M111 34.9718H101.216V36.3835H111V34.9718Z" fill="#1487E3"/>
<path d="M100.504 40.2854H96.3232V41.6966H100.504V40.2854Z" fill="#E0E0E0"/>
<path d="M101.533 45.677H92.1431V47.0882H101.533V45.677Z" fill="#78C2FF"/>
<path d="M115.916 45.677H102.953V47.0882H115.916V45.677Z" fill="#1487E3"/>
<path d="M156.969 67.0084H144.006V68.4201H156.969V67.0084Z" fill="#1487E3"/>
<path d="M94.6917 40.3243H84.9072V41.7356H94.6917V40.3243Z" fill="#1487E3"/>
<path d="M90.7129 45.677H84.9072V47.0882H90.7129V45.677Z" fill="#1487E3"/>
<path d="M107.952 40.3243H102.475V41.7356H107.952V40.3243Z" fill="#FF8761"/>
<path d="M90.5491 72.3216H85.0718V73.7333H90.5491V72.3216Z" fill="#FF8761"/>
<path d="M94.6532 29.6586H84.8687V31.0699H94.6532V29.6586Z" fill="#78C2FF"/>
<path d="M103.306 56.3822H93.5215V57.7929H103.306V56.3822Z" fill="#78C2FF"/>
<path d="M103.427 67.0084H93.6421V68.4201H103.427V67.0084Z" fill="#78C2FF"/>
<path d="M120.808 67.0084H111.024V68.4201H120.808V67.0084Z" fill="#78C2FF"/>
<path d="M98.8167 34.9718H84.8687V36.3835H98.8167V34.9718Z" fill="#78C2FF"/>
<path d="M160.013 19.0319H150.229V20.4436H160.013V19.0319Z" fill="#78C2FF"/>
<path d="M125.157 72.3216H115.373V73.7333H125.157V72.3216Z" fill="#78C2FF"/>
<path d="M169.607 19.0319H163.057V20.4436H169.607V19.0319Z" fill="#78C2FF"/>
<path d="M191.767 24.3455H185.217V25.7562H191.767V24.3455Z" fill="#78C2FF"/>
<path d="M126.1 19.0319H113.634V20.4436H126.1V19.0319Z" fill="#1487E3"/>
<path d="M175.523 72.3216H163.057V73.7333H175.523V72.3216Z" fill="#1487E3"/>
<path d="M105.083 72.3216H92.6172V73.7333H105.083V72.3216Z" fill="#1487E3"/>
<path d="M174.671 24.3455H162.206V25.7562H174.671V24.3455Z" fill="#1487E3"/>
<path d="M159.383 29.6586H146.917V31.0699H159.383V29.6586Z" fill="#1487E3"/>
<path d="M148.55 72.3216H136.084V73.7333H148.55V72.3216Z" fill="#1487E3"/>
<path d="M146.633 61.6953H134.167V63.1065H146.633V61.6953Z" fill="#1487E3"/>
<path d="M110.088 61.6953H107.401V63.1065H110.088V61.6953Z" fill="#FF8761"/>
<path d="M176.084 33.5739L162.908 32.2777L162.77 33.6821L175.946 34.9783L176.084 33.5739Z" fill="#78C2FF"/>
<path d="M147.786 19.0319H135.32V20.4436H147.786V19.0319Z" fill="#FF8761"/>
<path d="M137.164 41.4993L117.856 32.8903L118.433 31.6023L137.74 40.2113L137.164 41.4993Z" fill="#1487E3"/>
<path d="M122.682 56.4606H115.373V57.8713H122.682V56.4606Z" fill="#FF8761"/>
<path d="M132.968 19.0319H128.405V20.4436H132.968V19.0319Z" fill="#E0E0E0"/>
<path d="M118.197 34.9718H113.634V36.3835H118.197V34.9718Z" fill="#E0E0E0"/>
<path d="M182.241 24.3455H177.678V25.7562H182.241V24.3455Z" fill="#E0E0E0"/>
<path d="M91.8899 24.3455H84.7515V25.7562H91.8899V24.3455Z" fill="#1487E3"/>
<path d="M109.434 51.069H103.798V52.4797H109.434V51.069Z" fill="#1487E3"/>
<path d="M95.9472 24.3455H93.6421V25.7562H95.9472V24.3455Z" fill="#1487E3"/>
<path d="M160.013 24.3455H140.961V25.7562H160.013V24.3455Z" fill="#E0E0E0"/>
<path d="M141.733 67.0084H122.682V68.4201H141.733V67.0084Z" fill="#E0E0E0"/>
<path d="M99.993 24.3455H97.6406V25.7562H99.993V24.3455Z" fill="#FF8761"/>
<path d="M139.201 24.3455H132.967V25.7562H139.201V24.3455Z" fill="#1487E3"/>
<path d="M145.435 29.6586H139.202V31.0699H145.435V29.6586Z" fill="#FF8761"/>
<path d="M131.521 61.6953H125.289V63.1065H131.521V61.6953Z" fill="#FF8761"/>
<path d="M113.383 72.3216H107.15V73.7333H113.383V72.3216Z" fill="#FF8761"/>
<path d="M131.319 24.3455H118.057V25.7562H131.319V24.3455Z" fill="#1487E3"/>
<path d="M162.176 61.6953H148.914V63.1065H162.176V61.6953Z" fill="#1487E3"/>
<path d="M113.46 56.4606H105.712V57.8713H113.46V56.4606Z" fill="#1487E3"/>
<path d="M109.088 67.0084H105.213V68.4201H109.088V67.0084Z" fill="#1487E3"/>
<path d="M116.175 24.3455H111.612V25.7562H116.175V24.3455Z" fill="#78C2FF"/>
<path d="M163.232 67.0084H158.67V68.4201H163.232V67.0084Z" fill="#FF8761"/>
<path d="M100.816 29.6586H96.2529V31.0699H100.816V29.6586Z" fill="#FF8761"/>
<path d="M101.726 51.069H97.1626V52.4797H101.726V51.069Z" fill="#FF8761"/>
<path d="M109.871 24.3455H101.921V25.7562H109.871V24.3455Z" fill="#1487E3"/>
<path d="M84.7512 56.7679H50.1235V31.3246H50.5936V56.2979H84.7512V56.7679Z" fill="#78C2FF"/>
<path d="M83.0049 77.8276C83.003 77.8266 83.0015 77.8261 82.9985 77.8266C83.0241 77.8384 83.0276 77.8394 83.0049 77.8276Z" fill="#323657"/>
<path d="M50.3582 31.5599C49.4054 31.5599 48.6309 30.7849 48.6309 29.8325C48.6309 28.8802 49.4059 28.1047 50.3582 28.1047C51.3111 28.1047 52.0856 28.8802 52.0856 29.8325C52.0856 30.7849 51.3106 31.5599 50.3582 31.5599ZM50.3582 28.5753C49.665 28.5753 49.1009 29.1394 49.1009 29.8325C49.1009 30.5257 49.665 31.0898 50.3582 31.0898C51.0514 31.0898 51.6155 30.5262 51.6155 29.8325C51.615 29.1394 51.0514 28.5753 50.3582 28.5753Z" fill="#78C2FF"/>
<path d="M35.8777 65.1403L35.7013 64.6794C35.543 64.6585 35.3881 64.6229 35.2371 64.5728L34.8771 64.9103L33.8327 64.1675L34.0339 63.7164C33.9374 63.5907 33.8527 63.4558 33.7815 63.313L33.2881 63.2974L33.0747 62.0329L33.536 61.857C33.5565 61.6992 33.592 61.5438 33.6422 61.3933L33.3046 61.0333L34.048 59.9893L34.4981 60.1905C34.6243 60.0936 34.7592 60.0093 34.9014 59.9382L34.9175 59.4447L36.1816 59.2314L36.358 59.6922C36.5163 59.7131 36.6717 59.7482 36.8222 59.7984L37.1817 59.4613L38.2261 60.2042L38.0249 60.6548C38.1214 60.7809 38.2061 60.9159 38.2778 61.0586L38.7707 61.0737L38.9841 62.3378L38.5228 62.5146C38.5018 62.6725 38.4663 62.8278 38.4161 62.9784L38.7537 63.3379L38.0108 64.3828L37.5602 64.1816C37.4345 64.2785 37.2991 64.3628 37.1569 64.4344L37.1408 64.9279L35.8777 65.1403ZM35.1548 64.166L35.258 64.2055C35.4451 64.2776 35.6419 64.3224 35.8431 64.3394L35.9532 64.3492L36.1042 64.7442L36.7983 64.6268L36.812 64.2045L36.9133 64.1592C37.0974 64.0773 37.2684 63.9697 37.4214 63.8411L37.5057 63.77L37.8919 63.9424L38.3002 63.3681L38.0108 63.0597L38.0503 62.9565C38.1219 62.7694 38.1672 62.5726 38.1842 62.3724L38.194 62.2618L38.589 62.1108L38.4721 61.4166L38.0488 61.4035L38.004 61.3027C37.9217 61.1185 37.8145 60.947 37.6859 60.7941L37.6148 60.7093L37.7867 60.323L37.2129 59.9153L36.905 60.2046L36.8017 60.1647C36.6142 60.0931 36.4179 60.0483 36.2172 60.0307L36.1071 60.0205L35.9556 59.6259L35.261 59.7429L35.2473 60.1652L35.1465 60.211C34.9623 60.2928 34.7914 60.4 34.6384 60.5286L34.5536 60.6002L34.1673 60.4278L33.7591 61.0016L34.0485 61.31L34.009 61.4127C33.9374 61.6003 33.8921 61.7966 33.8751 61.9973L33.8653 62.1069L33.4698 62.2589L33.5867 62.9535L34.0095 62.9662L34.0548 63.067C34.1367 63.2517 34.2438 63.4226 34.3729 63.5756L34.444 63.6599L34.2716 64.0462L34.8454 64.4544L35.1548 64.166ZM36.0272 63.58C35.7403 63.58 35.4602 63.4904 35.222 63.3213C34.5955 62.8761 34.4489 62.0036 34.8946 61.3777C35.3399 60.7517 36.2123 60.6046 36.8383 61.0503C37.4647 61.4956 37.6114 62.368 37.1661 62.994C36.9503 63.297 36.6288 63.4981 36.262 63.56C36.1831 63.5736 36.1047 63.58 36.0272 63.58ZM36.0311 61.1448C35.7052 61.1448 35.3842 61.2973 35.1815 61.5823C35.0203 61.8088 34.957 62.0845 35.0033 62.3588C35.0495 62.633 35.1996 62.8732 35.4261 63.0344C35.6526 63.1952 35.9293 63.259 36.2031 63.2127C36.4773 63.1659 36.7175 63.0164 36.8782 62.7899C37.2114 62.3217 37.1013 61.6709 36.6337 61.3382C36.451 61.2072 36.2401 61.1448 36.0311 61.1448Z" fill="#A1D4FF"/>
<path d="M26.0841 66.6153L25.69 65.5865C25.2676 65.5387 24.8531 65.4442 24.4536 65.3029L23.6513 66.0565L21.4709 64.5055L21.9201 63.4996C21.6565 63.1688 21.4305 62.8084 21.2473 62.425L20.1459 62.3904L19.7012 59.7511L20.73 59.3575C20.7772 58.9352 20.8727 58.5206 21.0135 58.1217L20.2599 57.3189L21.8114 55.1385L22.8169 55.5876C23.1476 55.3236 23.5081 55.098 23.892 54.9149L23.927 53.8135L26.5658 53.3687L26.9594 54.3975C27.3818 54.4453 27.7963 54.5398 28.1953 54.6811L28.9981 53.9275L31.1785 55.479L30.7298 56.4844C30.9938 56.8152 31.2189 57.1761 31.4025 57.559L32.5035 57.5941L32.9482 60.2329L31.9194 60.6265C31.8717 61.0493 31.7771 61.4634 31.6364 61.8628L32.39 62.6656L30.8384 64.846L29.833 64.3969C29.5022 64.6609 29.1418 64.8865 28.7584 65.0701L28.7233 66.171L26.0841 66.6153ZM24.3455 64.7598L24.4829 64.8119C24.9295 64.9834 25.3987 65.0906 25.8775 65.1315L26.0246 65.1441L26.3851 66.0867L28.264 65.7701L28.2956 64.7617L28.4306 64.7018C28.8695 64.506 29.2777 64.2507 29.6435 63.9429L29.756 63.8479L30.6767 64.2595L31.7815 62.7061L31.0918 61.971L31.1444 61.8336C31.3153 61.3874 31.423 60.9178 31.4639 60.4385L31.4761 60.2918L32.4187 59.9314L32.1021 58.0525L31.0937 58.0208L31.0338 57.8859C30.838 57.447 30.5827 57.0388 30.2748 56.6729L30.1798 56.5599L30.591 55.6393L29.038 54.5339L28.3029 55.2237L28.1656 55.1716C27.7189 55.0001 27.2498 54.893 26.7704 54.852L26.6233 54.8394L26.2628 53.8968L24.384 54.2134L24.3518 55.2218L24.2174 55.2817C23.778 55.4775 23.3698 55.7328 23.0039 56.0411L22.8914 56.1356L21.9707 55.7245L20.8659 57.2775L21.5562 58.0125L21.5036 58.1504C21.3321 58.5966 21.2249 59.0662 21.184 59.5451L21.1713 59.6917L20.2287 60.0522L20.5454 61.9315L21.5542 61.9637L21.6141 62.0981C21.81 62.537 22.0657 62.9457 22.3736 63.3116L22.4686 63.4236L22.0574 64.3443L23.6104 65.4491L24.3455 64.7598ZM26.3208 63.0344C25.7104 63.0344 25.0942 62.8517 24.5603 62.4713C23.8978 62.0002 23.4589 61.2992 23.3235 60.4974C23.1885 59.6956 23.3737 58.8894 23.8452 58.2274C24.8185 56.86 26.7222 56.5385 28.0896 57.5123C29.4569 58.4851 29.778 60.3888 28.8047 61.7566C28.2114 62.5896 27.2731 63.0344 26.3208 63.0344ZM26.3301 57.4182C26.1863 57.4182 26.0417 57.4299 25.897 57.4543C25.2189 57.5683 24.6266 57.94 24.2281 58.5002C23.8296 59.0599 23.6732 59.7419 23.7872 60.4195C23.9012 61.0971 24.2729 61.6899 24.8326 62.0884C25.9886 62.9106 27.5985 62.6398 28.4208 61.4838C28.8193 60.9241 28.9761 60.2426 28.8617 59.565C28.7477 58.8869 28.376 58.2946 27.8163 57.8956C27.3764 57.5819 26.86 57.4182 26.3301 57.4182Z" fill="#A1D4FF"/>
<path d="M199.291 102.354C199.291 102.354 199.72 104.038 199.778 104.291C199.837 104.545 202.476 103.847 202.476 103.847L202.474 101.788C202.474 101.788 199.601 102.076 199.291 102.354Z" fill="#5C544D"/>
<path d="M199.726 104.077C199.726 104.077 198.987 105.199 198.213 105.737C197.44 106.275 194.453 106.97 194.017 107.488C193.703 107.862 193.265 109.275 198.057 108.63C201.461 108.171 203.141 108.287 203.447 107.694C203.753 107.1 202.476 103.663 202.476 103.663C202.476 103.663 201.748 104.059 199.726 104.077Z" fill="#3C4145"/>
<path d="M198.732 150.269L189.167 52.81L190.373 52.6936L199.938 150.152L198.732 150.269Z" fill="#0745E8"/>
<path d="M209.873 50.7911L208.667 50.9094L218.234 148.366L219.44 148.248L209.873 50.7911Z" fill="#0745E8"/>
<path d="M209.422 52.5092L189.922 54.4018L190.039 55.6071L209.539 53.7145L209.422 52.5092Z" fill="#0745E8"/>
<path d="M210.316 61.585L190.814 63.4678L190.93 64.6737L210.432 62.7909L210.316 61.585Z" fill="#0745E8"/>
<path d="M211.195 70.6213L191.695 72.5158L191.812 73.7216L211.312 71.8271L211.195 70.6213Z" fill="#0745E8"/>
<path d="M212.08 79.7161L192.578 81.6009L192.695 82.8063L212.196 80.9216L212.08 79.7161Z" fill="#0745E8"/>
<path d="M212.959 88.7629L193.459 90.6633L193.577 91.8691L213.076 89.9687L212.959 88.7629Z" fill="#0745E8"/>
<path d="M213.825 97.8375L194.326 99.73L194.443 100.936L213.942 99.0433L213.825 97.8375Z" fill="#0745E8"/>
<path d="M214.704 106.905L195.205 108.798L195.322 110.003L214.821 108.111L214.704 106.905Z" fill="#0745E8"/>
<path d="M215.59 115.964L196.091 117.857L196.208 119.062L215.707 117.17L215.59 115.964Z" fill="#0745E8"/>
<path d="M216.465 125.04L196.965 126.932L197.082 128.138L216.582 126.245L216.465 125.04Z" fill="#0745E8"/>
<path d="M217.354 134.11L197.855 136.011L197.972 137.216L217.472 135.316L217.354 134.11Z" fill="#0745E8"/>
<path d="M218.232 143.165L198.732 145.058L198.849 146.264L218.349 144.371L218.232 143.165Z" fill="#0745E8"/>
<path d="M196.036 66.9081C196.036 66.9081 194.115 74.0406 193.608 76.5908C193.168 78.8126 192.28 84.7288 192.154 86.1356C192.028 87.5424 197.824 101.159 198.427 103.618L203.708 102.771C203.708 102.771 198.137 88.5985 199.59 85.4497C201.751 80.766 202.033 80.9072 203.736 77.0492C205.438 73.1906 209.337 73.0995 210.384 65.9406C210.384 65.9406 197.453 64.638 196.036 66.9081Z" fill="#3C4145"/>
<path d="M205.426 32.2526C205.426 32.2526 201.919 30.9432 200.302 33.6122C198.686 36.2817 198.841 41.6255 200.609 42.2821C202.376 42.9393 205.032 42.5959 205.937 40.9255C206.842 39.2556 207.658 36.8409 207.619 35.227C207.58 33.6136 206.347 32.7188 205.426 32.2526Z" fill="#EEA886"/>
<path d="M201.198 42.1185C201.198 42.1185 201.34 43.0382 201.106 43.4907C200.871 43.9432 205.516 43.9554 205.516 43.9554C205.516 43.9554 205.893 41.4925 206.608 39.4115C207.323 37.3304 201.198 42.1185 201.198 42.1185Z" fill="#EEA886"/>
<path d="M206.608 39.4115C206.608 39.4115 206.287 39.94 204.978 39.7354C203.669 39.5299 202.073 37.7893 201.527 37.5979C200.981 37.4064 200.976 37.0859 200.976 37.0859L200.633 37.5857L200.053 37.6222C200.053 37.6222 200.582 36.0649 199.784 35.4302C198.985 34.7949 200.613 30.3893 204.809 31.8561C204.809 31.8561 208.032 32.7446 207.915 34.5777C207.798 36.4103 207.329 38.4981 206.608 39.4115Z" fill="#3A3F47"/>
<path d="M201.063 36.419C201.136 36.1117 201.918 35.2329 202.217 36.1735C202.517 37.1142 201.765 38.3797 201.346 38.2716C200.927 38.163 200.877 37.1984 201.063 36.419Z" fill="#EEA886"/>
<path d="M214.437 55.5258C214.398 55.9856 213.873 56.4835 213.515 56.7295C213.285 56.8868 213.01 56.9823 212.715 56.992L212.507 56.9994L208.862 57.1236C208.862 57.1236 206.153 48.3679 211.235 45.0291C211.393 45.0442 214.79 51.3058 214.437 55.5258Z" fill="#518AFA"/>
<path d="M203.447 107.694C203.14 108.287 201.461 108.172 198.056 108.629C197.126 108.755 196.393 108.803 195.817 108.795L195.619 106.747C196.615 106.401 197.773 106.044 198.213 105.737C198.987 105.199 199.726 104.077 199.726 104.077C201.747 104.06 202.476 103.663 202.476 103.663C202.476 103.663 203.753 107.1 203.447 107.694Z" fill="#3C4145"/>
<path d="M201.195 43.2237C201.195 43.2237 204.054 42.5583 205.666 43.1025L205.909 43.3275C205.909 43.3275 206.399 44.2667 204.556 44.3476C202.711 44.4279 199.813 44.5624 201.195 43.2237Z" fill="#FFD255"/>
<path d="M212.369 110.228C212.369 110.228 212.797 111.911 212.856 112.165C212.914 112.418 215.554 111.72 215.554 111.72L215.551 109.661C215.551 109.661 212.679 109.95 212.369 110.228Z" fill="#5C544D"/>
<path d="M210.383 65.9406C210.383 65.9406 211.346 69.9108 211.631 73.8853C211.894 77.5587 212.374 81.5873 212.755 85.4293C213.179 89.7117 214.391 96.6352 214.455 98.9257C214.518 101.217 216.446 111.229 216.446 111.229L211.514 111.796C211.514 111.796 208.309 94.1027 207.552 92.2939C206.795 90.4857 203.042 77.5918 202.916 76.1451C202.789 74.6978 210.383 65.9406 210.383 65.9406Z" fill="#3C4145"/>
<path d="M212.804 111.95C212.804 111.95 212.064 113.072 211.291 113.61C210.517 114.148 207.53 114.844 207.094 115.361C206.78 115.735 206.342 117.148 211.134 116.503C214.538 116.044 216.219 116.16 216.524 115.567C216.83 114.973 215.554 111.536 215.554 111.536C215.554 111.536 214.825 111.932 212.804 111.95Z" fill="#3C4145"/>
<path d="M195.038 75.8172C194.618 75.7573 196.081 63.2341 195.969 62.4489C195.894 61.9252 195.906 57.8552 195.936 55.3182L195.479 52.7506C195.224 52.565 194.882 52.3506 194.474 52.1149C193.838 51.7476 193.04 51.3282 192.154 50.8854C192.257 50.2789 192.328 49.8015 192.356 49.5224C192.577 47.2669 194.092 46.0715 194.95 45.5688C195.301 45.3637 195.542 45.2736 195.542 45.2736C195.869 45.1348 196.189 45.0013 196.5 44.8732C198.569 44.0217 201.196 43.2233 201.196 43.2233H205.416C205.416 43.2233 208.63 43.8653 210.544 44.6486C210.79 44.7494 211.02 44.8776 211.236 45.0281L210.662 57.0607C210.662 57.0636 210.662 57.0661 210.661 57.069C210.661 57.0729 210.66 57.0778 210.659 57.0841C210.401 58.7778 210.129 60.7746 210.038 62.1741C210.001 62.746 210.655 65.8154 210.997 68.6335L212.19 75.3763C212.19 75.3763 211.5 78.171 195.038 75.8172Z" fill="#518AFA"/>
<path d="M173.489 36.7917C173.489 36.7917 173.738 37.1005 173.913 37.1824C173.913 37.1824 174.243 37.3066 174.471 37.4094C174.543 37.442 174.606 37.4722 174.644 37.4961C174.804 37.595 175.126 37.8605 175.577 37.99C176.028 38.1201 178.067 38.5843 178.067 38.5843L178.541 37.3748L178.881 36.3976C178.881 36.3976 176.994 33.9522 176.588 33.7832C176.548 33.7666 176.508 33.752 176.469 33.7413C176.112 33.6312 175.799 33.6994 175.605 33.6628C175.533 33.6497 174.815 33.5693 174.659 33.7189C174.443 33.9269 174.378 34.1587 174.415 34.3609C174.415 34.3609 174.009 34.7871 173.98 35.1822C173.98 35.1822 173.593 35.5631 173.697 36.0649C173.697 36.0649 173.348 36.495 173.489 36.7917Z" fill="#EEA886"/>
<path d="M195.343 52.6546C194.872 52.3511 194.262 51.9405 192.153 50.8854C188.226 48.9208 183.378 45.3594 182.457 44.8449C181.04 44.0538 176.562 38.5834 176.562 38.5834C176.793 37.7596 178.915 36.1058 178.915 36.1058C178.915 36.1058 185.704 42.535 187.187 43.3266C188.462 44.0066 194.763 44.6944 196.499 44.8727C196.781 44.9015 196.942 44.9175 196.942 44.9175C198.756 47.3907 196.355 53.3064 195.343 52.6546Z" fill="#518AFA"/>
<path d="M67.0327 5.99234C67.0327 5.99234 65.8285 3.78174 65.1436 2.98626C64.4582 2.19077 62.1823 1.59404 62.4916 0.577881C62.8009 -0.438761 65.8504 0.00306612 66.6902 0.997787C67.53 1.99251 70.0933 2.34568 70.182 2.7651C70.2706 3.18501 69.292 5.48329 68.7425 5.85887C68.193 6.23493 67.0327 5.99234 67.0327 5.99234Z" fill="#6A75BA"/>
<path d="M61.9139 7.86487C61.9139 7.86487 59.9523 6.30947 59.0077 5.85108C58.0632 5.39318 55.7371 5.74927 55.6178 4.69365C55.4979 3.63804 58.4724 2.83233 59.6376 3.41152C60.8033 3.99121 63.2959 3.29754 63.5444 3.64778C63.7923 3.99803 63.8069 6.49555 63.4518 7.05867C63.0962 7.62131 61.9139 7.86487 61.9139 7.86487Z" fill="#545D94"/>
<path d="M66.2704 11.9139C66.2704 11.9139 67.1268 6.05763 67.0878 5.04147C67.0771 4.75114 68.8502 4.85928 68.7674 5.41705C68.5867 6.63195 69.4056 11.3391 69.2633 12.2008C69.1211 13.0631 66.1973 12.4566 66.2704 11.9139Z" fill="#EEA886"/>
<path d="M63.5873 13.5969C63.5873 13.5969 61.9827 7.91065 61.6086 6.96513C61.442 6.54425 63.0773 5.89247 63.2989 6.64314C63.6467 7.82102 66.2363 11.8252 66.4477 12.6724C66.6596 13.52 63.7354 14.124 63.5873 13.5969Z" fill="#EEA886"/>
<path d="M64.7014 17.549C64.7014 17.549 62.9779 11.7376 62.7124 11.1184L65.4306 9.4388C65.4306 9.4388 66.6898 13.1512 66.8671 14.0792C67.044 15.0072 64.7014 17.549 64.7014 17.549Z" fill="#207CD6"/>
<path d="M112.813 2.1937C112.813 2.1937 110.189 2.85717 108.94 4.84222C107.691 6.82728 106.612 9.11339 104.265 10.1505C101.919 11.1876 101.904 13.86 102.086 14.2721C102.269 14.6847 109.478 22.7876 111.05 23.1009C112.623 23.4136 115.568 23.1959 115.253 21.1139C114.938 19.0314 111.852 14.5527 113.584 12.2934C115.316 10.0336 115.753 7.95207 115.753 7.95207L112.813 2.1937Z" fill="#2E334D"/>
<path d="M112.356 11.8847C112.356 11.8847 112.279 11.8593 112.151 11.8472C112.002 11.8335 111.784 11.8374 111.537 11.9207C111.475 11.9412 111.393 11.9831 111.297 12.0401C110.673 12.4078 109.197 13.4055 108.997 13.4294C108.767 13.4566 108.962 10.0141 108.962 10.0141C108.962 10.0141 109.747 8.62333 109.846 7.7085C109.945 6.79318 112.356 11.8847 112.356 11.8847Z" fill="#EEA886"/>
<path d="M93.8928 15.4826C93.8928 15.4826 91.009 13.461 87.6283 14.0909C84.2476 14.7203 83.8827 16.301 82.7224 16.3726C81.5625 16.4442 77.6845 16.113 74.5025 17.041C71.3206 17.9689 68.6355 18.0683 68.2711 17.8033C67.9068 17.5383 70.2596 12.2344 70.2596 11.5057L66.3153 10.4783C66.3153 10.4783 65.1881 15.185 64.7463 16.246C64.2738 17.3805 63.3653 19.5161 64.6581 21.3725C65.9509 23.229 69.5635 22.3921 71.7512 22.7662C73.9389 23.1403 83.7307 22.9002 85.4411 22.8086C87.297 22.7092 92.899 22.4437 92.899 22.4437L93.8928 15.4826Z" fill="#207CD6"/>
<path d="M117.577 5.00298C117.577 5.00298 117.761 7.85172 117.128 8.70615C116.875 9.04812 116.703 9.2342 116.589 9.33406C116.426 9.47533 116.301 9.65362 116.228 9.85627C116.033 10.4043 115.912 11.1749 115.757 11.3401C115.587 11.5193 115.095 11.0629 114.917 11.0619C114.739 11.0609 113.003 12.5589 112.589 12.252C112.174 11.9456 109.642 9.37644 109.854 7.61498C110.067 5.854 110.844 3.22398 113.694 3.24054C116.545 3.25662 117.359 4.2942 117.577 5.00298Z" fill="#EEA886"/>
<path d="M108.963 18.5983C108.908 18.7152 107.86 20.3885 106.712 21.3599C106.235 21.7632 105.742 22.0453 105.294 22.0453C105.158 22.0453 105.025 22.0472 104.896 22.0506C103.578 22.0862 102.566 22.2879 100.787 22.3765C98.9389 22.4686 94.4563 22.2109 94.3233 22.2109C94.1903 22.2109 92.898 22.4432 92.898 22.4432C92.4338 21.8796 93.6599 15.5153 93.8922 15.4821C94.1241 15.449 95.6157 16.0126 97.041 15.7803C98.4664 15.5484 99.0295 15.4159 101.151 12.9296C103.272 10.4437 105.394 9.81389 106.289 10.0126C107.184 10.2119 108.963 10.0126 108.963 10.0126C108.963 10.0126 109.04 18.4327 108.963 18.5983Z" fill="#FFC955"/>
<path d="M116.38 7.0426C116.38 7.0426 116.911 8.41923 117.192 8.60873C117.192 8.60873 118.217 7.52437 117.559 4.84905C116.901 2.17373 114.417 1.92188 112.814 2.1937C110.818 2.53177 108.809 9.28486 108.913 9.94249C109.016 10.6001 111.252 6.4522 113.211 6.78637C115.17 7.12006 115.186 7.22918 116.38 7.0426Z" fill="#2E334D"/>
<path d="M112.151 11.8472C112.002 11.8335 111.784 11.8374 111.536 11.9207C111.475 11.9412 111.393 11.9831 111.296 12.0401C110.838 11.3254 110.413 9.63072 110.399 9.57324C110.705 10.5012 112.151 11.8472 112.151 11.8472Z" fill="#A77860"/>
<path d="M106.712 21.3603C106.236 21.7637 105.742 22.0457 105.295 22.0457C105.159 22.0457 105.025 22.0477 104.896 22.0511L105.439 16.7755L106.712 21.3603Z" fill="#C29941"/>
<path d="M117.025 30.4449L115.753 31.6023C114.655 31.0143 111.905 29.0346 111.376 28.5835C110.82 28.1105 107.119 25.0153 106.611 24.3099C106.098 23.6046 105.45 16.3127 105.515 15.979C105.581 15.6492 108.732 15.4802 109.09 16.2518C109.09 16.2518 109.255 20.4104 109.339 21.1066C109.419 21.8027 109.686 22.4316 110.164 23.0171C110.824 23.8277 112.231 25.7099 113.593 27.2313C113.919 27.5942 116.605 30.0834 117.025 30.4449Z" fill="#EEA886"/>
<path d="M109.35 16.3444C109.35 16.3444 109.548 10.8067 107.747 10.8753C105.47 10.9621 105.129 13.748 105.438 16.7755C105.438 16.7755 108.841 16.8086 109.35 16.3444Z" fill="#FFC955"/>
<path d="M116.413 29.9027C116.413 29.9027 116.582 30.1691 116.828 30.2524C117.252 30.3957 117.879 30.1199 118.188 30.6753C118.497 31.2306 117.004 32.6175 116.604 32.7017C116.202 32.786 115.56 32.162 115.057 30.9305C114.555 29.6991 116.413 29.9027 116.413 29.9027Z" fill="#EEA886"/>
<path d="M118.056 30.5023C118.056 30.5023 118.818 31.082 119.588 31.8264C120.263 32.4791 120.95 33.3365 120.777 33.4982C120.54 33.7194 120.079 32.9833 119.367 32.3788C118.71 31.822 118.748 32.0368 118.748 32.0368C118.748 32.0368 118.74 31.9749 119.339 32.7149C119.982 33.5104 120.648 34.4544 120.449 34.5908C120.325 34.6761 120.319 34.699 120.038 34.4466C120.168 34.6249 120.138 34.6839 120.069 34.7419C119.71 35.0429 118.582 34.0131 118.134 33.6044C118.476 33.9205 118.693 34.1875 118.346 34.2284C117.949 34.2752 116.419 32.7509 115.819 32.255C115.165 31.7138 118.056 30.5023 118.056 30.5023Z" fill="#EEA886"/>
<path d="M95.1882 15.7359C95.1882 15.7359 94.5803 20.0938 94.8799 22.2377C94.8799 22.2377 95.197 22.4729 95.8278 22.2825C95.8278 22.2825 95.9852 17.5256 96.3383 15.8368C96.3383 15.8368 96.1445 15.6901 95.1882 15.7359Z" fill="#E0E0E0"/>
<path d="M55.3569 138.395C55.3569 138.395 55.1182 140.067 55.0884 140.318C55.0587 140.57 52.4336 140.17 52.4336 140.17L52.2207 138.179C52.2207 138.179 55.0285 138.159 55.3569 138.395Z" fill="#5C544D"/>
<path d="M55.1159 140.105C55.1159 140.105 55.948 141.113 56.7522 141.553C57.5565 141.991 58.8206 142.166 59.2965 142.62C59.6399 142.949 60.5475 144.362 57.2062 144.334C53.865 144.305 52.254 144.533 51.896 143.991C51.538 143.45 52.4143 139.992 52.4143 139.992C52.4143 139.992 53.2054 140.28 55.1159 140.105Z" fill="#3C4145"/>
<path d="M74.1669 138.395C74.1669 138.395 73.9282 140.067 73.8985 140.318C73.8683 140.57 71.2432 140.17 71.2432 140.17L71.0303 138.179C71.0303 138.179 73.8386 138.159 74.1669 138.395Z" fill="#5C544D"/>
<path d="M73.926 140.105C73.926 140.105 74.758 141.113 75.5623 141.553C76.3665 141.991 79.3273 142.353 79.8027 142.807C80.1462 143.136 80.7171 144.457 76.0163 144.334C72.676 144.245 71.0641 144.533 70.7061 143.991C70.348 143.45 71.2244 139.992 71.2244 139.992C71.2244 139.992 71.9697 140.299 73.926 140.105Z" fill="#3C4145"/>
<path d="M56.2892 95.2157C56.2892 95.2157 54.8921 99.3661 55.0762 102.943C55.2604 106.519 54.3538 110.433 53.9831 114.169C53.57 118.334 51.8797 128.195 51.8183 130.423C51.7569 132.651 52.0808 139.766 52.0808 139.766L55.465 139.844C55.465 139.844 58.3074 122.605 59.0434 120.846C59.7795 119.087 63.43 106.547 63.5523 105.14C63.6746 103.733 56.2892 95.2157 56.2892 95.2157Z" fill="#33373B"/>
<path d="M70.5157 95.9542C70.5157 95.9542 72.3746 105.757 72.6201 107.946C72.8652 110.135 73.0288 118.539 73.1516 119.908C73.2739 121.276 73.9695 137.811 74.6237 139.844H70.297C70.297 139.844 66.9757 127.823 66.9757 122.136C66.9757 116.448 64.41 109.771 62.7543 106.019C61.098 102.266 57.3072 102.177 56.2891 95.2152C56.2891 95.2152 69.1371 93.7461 70.5157 95.9542Z" fill="#3C4145"/>
<path d="M61.7234 62.4528C61.7234 62.4528 65.1338 61.1784 66.7062 63.7748C68.2787 66.3708 68.1272 71.568 66.4081 72.2071C64.689 72.8467 62.1067 72.5125 61.2265 70.8879C60.3467 69.2633 59.5517 66.9154 59.5902 65.3458C59.6287 63.7758 60.8285 62.9053 61.7234 62.4528Z" fill="#EEA886"/>
<path d="M65.836 72.0473C65.836 72.0473 65.6981 72.9412 65.9256 73.3815C66.1536 73.8214 61.636 73.8336 61.636 73.8336C61.636 73.8336 61.2691 71.4384 60.574 69.4148C59.8789 67.3908 65.836 72.0473 65.836 72.0473Z" fill="#EEA886"/>
<path d="M60.5747 69.4148C60.5747 69.4148 60.8865 69.9292 62.1589 69.7295C63.4313 69.5298 64.9842 67.8365 65.5157 67.6504C66.0472 67.4643 66.052 67.1526 66.052 67.1526L66.3848 67.6387L66.9493 67.6738C66.9493 67.6738 66.4344 66.1593 67.2109 65.5417C67.9874 64.924 66.4047 60.6392 62.3235 62.066C62.3235 62.066 59.1889 62.9296 59.3028 64.713C59.4168 66.4959 59.8728 68.5263 60.5747 69.4148Z" fill="#FCCCA2"/>
<path d="M66.1941 73.3289C66.1941 73.3289 66.1795 72.4872 65.798 72.4068C65.4166 72.3254 61.5883 71.9577 61.1206 72.1418V73.1219C61.1206 73.1219 62.0223 73.6772 66.1941 73.3289Z" fill="#E2D2CA"/>
<path d="M65.967 66.5042C65.8959 66.2051 65.1355 65.3507 64.8442 66.266C64.5529 67.1804 65.284 68.4114 65.6918 68.3061C66.0995 68.2009 66.1482 67.2622 65.967 66.5042Z" fill="#EEA886"/>
<path d="M66.1942 73.3289C66.1942 73.3289 68.2928 74.0835 70.7235 75.1162C70.7235 75.1162 73.5197 76.1597 73.8227 79.2481C73.9834 80.8873 75.7288 89.5874 76.0557 90.323C76.3825 91.059 80.2533 102.884 80.3892 103.129C80.5256 103.375 77.2306 104.743 77.0124 104.633C76.7946 104.524 73.2654 93.8479 72.9108 93.0568C72.9108 93.0568 70.8794 86.6554 70.8249 85.7011C70.8249 85.7011 70.7664 88.4208 70.6578 89.1841C70.5487 89.9474 72.4641 104.771 72.4095 105.18C72.3549 105.589 63.7035 106.108 60.241 105.727C56.7784 105.345 53.9843 104.548 53.9843 104.548C53.9843 104.548 56.7088 92.8497 56.625 91.553C56.4428 88.7267 55.4983 83.4043 55.4983 83.4043L52.6748 88.7267L56.2889 98.0245L55.4612 100.85C55.4612 100.85 48.7457 90.7025 48.5279 89.7755C48.3097 88.8484 48.8572 87.6676 49.2113 86.9038C49.566 86.141 51.894 80.3305 52.4391 79.5126C52.9847 78.6942 53.9058 75.4192 56.133 74.5073C57.9953 73.7454 61.1202 73.1209 61.1202 73.1209L66.1942 73.3289Z" fill="#495054"/>
<path d="M70.8076 108.481L86.6284 104.425L83.7981 93.3872L67.9773 97.444L70.8076 108.481Z" fill="#D6D6D6"/>
<path d="M81.7667 105.543C81.7667 105.543 82.2187 106.274 82.3838 106.482C82.549 106.691 81.9781 106.822 81.7335 106.611C81.489 106.4 81.7667 105.543 81.7667 105.543Z" fill="#C98462"/>
<path d="M78.4719 108.038C78.4719 108.038 78.2049 107.76 78.1469 107.582C78.1469 107.582 78.0675 107.248 77.9969 107.015C77.974 106.941 77.9526 106.877 77.9346 106.837C77.8586 106.671 77.6423 106.327 77.5726 105.876C77.5025 105.425 77.3057 103.401 77.3057 103.401L78.5313 103.092L79.5158 102.884C79.5158 102.884 81.6426 105.006 81.7561 105.418C81.7668 105.459 81.7761 105.499 81.7819 105.538C81.8443 105.896 81.7395 106.189 81.7512 106.381C81.7546 106.451 81.7444 107.155 81.5802 107.287C81.3532 107.469 81.1214 107.504 80.9309 107.443C80.9309 107.443 80.4696 107.782 80.0852 107.761C80.0852 107.761 79.6697 108.088 79.1987 107.926C79.1987 107.926 78.7408 108.21 78.4719 108.038Z" fill="#DE9D7D"/>
<path d="M73.6885 95.2377C73.6885 95.2377 76.4963 103.741 77.0122 104.633C77.0122 104.633 79.0713 104.2 80.389 103.129L77.3064 93.9521L73.6885 95.2377Z" fill="#495054"/>
<defs>
<linearGradient id="paint0_linear_210_315" x1="-0.000154397" y1="110.337" x2="28.7151" y2="110.337" gradientUnits="userSpaceOnUse">
<stop stop-color="#3076A1"/>
<stop offset="1" stop-color="#639C38"/>
</linearGradient>
<linearGradient id="paint1_linear_210_315" x1="21.065" y1="126.36" x2="47.0327" y2="126.36" gradientUnits="userSpaceOnUse">
<stop stop-color="#3076A1"/>
<stop offset="1" stop-color="#639C38"/>
</linearGradient>
<linearGradient id="paint2_linear_210_315" x1="23.2848" y1="130.136" x2="42.7753" y2="130.136" gradientUnits="userSpaceOnUse">
<stop stop-color="#3076A1"/>
<stop offset="1" stop-color="#639C38"/>
</linearGradient>
<linearGradient id="paint3_linear_210_315" x1="16.2461" y1="114.452" x2="38.9445" y2="114.452" gradientUnits="userSpaceOnUse">
<stop stop-color="#3076A1"/>
<stop offset="1" stop-color="#639C38"/>
</linearGradient>
<linearGradient id="paint4_linear_210_315" x1="31.4236" y1="162.23" x2="143.071" y2="162.23" gradientUnits="userSpaceOnUse">
<stop stop-color="#E37E30"/>
<stop offset="1" stop-color="#E8A12E"/>
</linearGradient>
<linearGradient id="paint5_linear_210_315" x1="77.6777" y1="49.5197" x2="200.742" y2="49.5197" gradientUnits="userSpaceOnUse">
<stop stop-color="#404B61"/>
<stop offset="0.486" stop-color="#3C4860"/>
<stop offset="1" stop-color="#2F3E5C"/>
</linearGradient>
<linearGradient id="paint6_linear_210_315" x1="104.765" y1="126.722" x2="173.891" y2="126.722" gradientUnits="userSpaceOnUse">
<stop stop-color="#FF9F55"/>
<stop offset="1" stop-color="#FFD255"/>
</linearGradient>
</defs>
</svg>
