<svg width="211" height="189" viewBox="0 0 211 189" fill="none" xmlns="http://www.w3.org/2000/svg">
<path d="M70.4428 28.2556C70.4403 28.2744 70.4377 28.2932 70.4349 28.312H28.2544C28.2544 24.0485 31.461 20.5912 35.42 20.5912C36.5826 20.5912 37.6807 20.8898 38.6533 21.4218C39.7045 17.8282 43.1243 15.3727 46.9409 16.1785C50.2881 16.8853 52.6578 20.1255 52.6578 23.7989V23.8357C52.7736 23.8549 52.9678 24.0212 53.0026 23.9016C54.2544 19.5975 59.3656 19.0535 62.8863 19.4241C67.1429 19.8723 71.1206 23.2495 70.4428 28.2556Z" fill="white" fill-opacity="0.2"/>
<path d="M199.841 178.238C196.551 178.238 193.883 180.492 193.883 183.276C193.883 184.449 194.359 185.53 195.157 186.386H178.416C176.309 179.964 175.163 173.056 175.163 165.857C175.163 158.659 176.309 151.748 178.419 145.326H195.166C194.362 144.469 193.883 143.386 193.883 142.207C193.883 139.422 196.551 137.166 199.841 137.166C203.134 137.166 205.802 139.422 205.802 142.207C205.802 143.386 205.323 144.469 204.519 145.326H213.29V160.728C212.509 159.917 211.534 159.438 210.48 159.438C207.897 159.438 205.802 162.312 205.802 165.854C205.802 169.4 207.897 172.274 210.48 172.274C211.534 172.274 212.509 171.795 213.29 170.984V186.386H204.528C205.326 185.53 205.802 184.449 205.802 183.276C205.802 180.492 203.134 178.238 199.841 178.238Z" fill="#343434"/>
<path d="M44.4502 77.5883C44.4502 34.7374 76.7064 0 116.496 0C156.286 0 188.543 34.7375 188.543 77.5883H44.4502Z" fill="#343434"/>
<path d="M107.695 186.693C104.103 186.693 101.169 183.595 101.077 179.75L90.2368 173.642H142.757L131.917 179.75C131.825 183.595 128.891 186.693 125.299 186.693H107.695Z" fill="#102048"/>
<path d="M141.597 173.949L131.634 179.563C131.634 183.331 128.797 186.386 125.299 186.386H107.695C104.196 186.386 101.359 183.331 101.359 179.563L91.3962 173.949H141.597ZM143.916 173.335H141.597H91.3963H89.0771L91.132 174.493L100.798 179.94C100.981 183.866 104.004 187 107.695 187H125.299C128.989 187 132.013 183.866 132.196 179.94L141.862 174.493L143.916 173.335Z" fill="white"/>
<path d="M116.405 139.177C147.99 139.177 173.595 111.603 173.595 77.5882C173.595 43.5739 147.99 15.9999 116.405 15.9999C84.8208 15.9999 59.2163 43.5739 59.2163 77.5882C59.2163 111.603 84.8208 139.177 116.405 139.177Z" fill="white"/>
<path d="M116.405 139.177C147.99 139.177 173.595 111.603 173.595 77.5882C173.595 43.5739 147.99 15.9999 116.405 15.9999C84.8208 15.9999 59.2163 43.5739 59.2163 77.5882C59.2163 111.603 84.8208 139.177 116.405 139.177Z" fill="white"/>
<path d="M141.597 120.469H91.3965V149.914H141.597V120.469Z" fill="#0745E8"/>
<path d="M141.597 149.914H91.3965V165.919H141.597V149.914Z" fill="#708CD5"/>
<path d="M153.747 48.7977C150.454 48.7977 147.786 51.0541 147.786 53.8385C147.786 55.0174 148.265 56.101 149.069 56.9575H135.56V42.9986C134.77 43.8367 133.781 44.3371 132.703 44.3371C130.118 44.3371 128.025 41.4637 128.025 37.9179C128.025 34.3752 130.118 31.5018 132.703 31.5018C133.781 31.5018 134.77 32.0022 135.56 32.8403V19.4032C151.808 25.5891 164.687 39.459 170.431 56.9575H158.422C159.226 56.101 159.705 55.0174 159.705 53.8385C159.705 51.0541 157.036 48.7977 153.747 48.7977Z" fill="#FBD682"/>
<path d="M135.56 123.578C134.77 124.416 133.781 124.916 132.703 124.916C130.118 124.916 128.025 122.043 128.025 118.5C128.025 114.954 130.118 112.081 132.703 112.081C133.781 112.081 134.77 112.581 135.56 113.419V98.0177H149.06C148.262 97.1612 147.786 96.0806 147.786 94.9079C147.786 92.1234 150.454 89.8701 153.747 89.8701C157.036 89.8701 159.705 92.1234 159.705 94.9079C159.705 96.0806 159.228 97.1612 158.43 98.0177H170.434C164.69 115.519 151.811 129.389 135.56 135.575V123.578Z" fill="#0745E8"/>
<path d="M153.747 89.8701C150.454 89.8701 147.786 92.1235 147.786 94.9079C147.786 96.0806 148.262 97.1612 149.06 98.0177H135.56V82.2598C136.389 83.2821 137.484 83.9053 138.69 83.9053C141.272 83.9053 143.367 81.0318 143.367 77.4892C143.367 73.9434 141.272 71.07 138.69 71.07C137.484 71.07 136.389 71.6931 135.56 72.7154V56.9575H149.069C148.265 56.101 147.786 55.0174 147.786 53.8385C147.786 51.0541 150.454 48.7977 153.747 48.7977C157.036 48.7977 159.704 51.0541 159.704 53.8385C159.704 55.0174 159.226 56.101 158.422 56.9575H170.431C172.541 63.3798 173.687 70.2902 173.687 77.4892C173.687 84.6881 172.541 91.5954 170.434 98.0177H158.43C159.228 97.1612 159.704 96.0806 159.704 94.9079C159.704 92.1235 157.036 89.8701 153.747 89.8701Z" fill="#0745E8"/>
<path d="M97.4349 135.575V123.627C96.6538 124.437 95.6789 124.916 94.6242 124.916C92.0415 124.916 89.9463 122.043 89.9463 118.5C89.9463 114.954 92.0415 112.081 94.6242 112.081C95.6789 112.081 96.6538 112.56 97.4349 113.37V98.0177H111.811C111.013 97.1612 110.536 96.0806 110.536 94.9079C110.536 92.1234 113.205 89.8701 116.497 89.8701C119.787 89.8701 122.455 92.1234 122.455 94.9079C122.455 96.0806 121.979 97.1612 121.181 98.0177H135.559V113.419C134.77 112.581 133.781 112.081 132.703 112.081C130.117 112.081 128.025 114.954 128.025 118.5C128.025 122.043 130.117 124.916 132.703 124.916C133.781 124.916 134.77 124.416 135.559 123.578V135.575C129.596 137.844 123.182 139.078 116.497 139.078C109.812 139.078 103.398 137.844 97.4349 135.575Z" fill="#0745E8"/>
<path d="M116.497 65.2525C113.205 65.2525 110.536 62.9961 110.536 60.2147C110.536 58.9714 111.07 57.8325 111.953 56.9575H97.4349V43.0477C96.6538 43.8582 95.6789 44.3371 94.6242 44.3371C92.0415 44.3371 89.9463 41.4637 89.9463 37.9179C89.9463 34.3752 92.0415 31.5018 94.6242 31.5018C95.6789 31.5018 96.6538 31.9807 97.4349 32.7911V19.4032C103.398 17.1346 109.812 15.9005 116.497 15.9005C123.182 15.9005 129.596 17.1346 135.559 19.4032V32.8403C134.77 32.0022 133.781 31.5018 132.703 31.5018C130.117 31.5018 128.025 34.3752 128.025 37.9179C128.025 41.4637 130.117 44.3371 132.703 44.3371C133.781 44.3371 134.77 43.8367 135.559 42.9986V56.9575H121.038C121.922 57.8325 122.455 58.9714 122.455 60.2147C122.455 62.9961 119.787 65.2525 116.497 65.2525Z" fill="#0745E8"/>
<path d="M83.986 48.7977C80.6964 48.7977 78.0282 51.0541 78.0282 53.8385C78.0282 55.0174 78.5071 56.101 79.311 56.9575H62.5635C68.3075 39.459 81.1867 25.5891 97.4353 19.4032V32.7911C96.6543 31.9807 95.6793 31.5018 94.6246 31.5018C92.0419 31.5018 89.9467 34.3752 89.9467 37.9179C89.9467 41.4637 92.0419 44.3371 94.6246 44.3371C95.6793 44.3371 96.6543 43.8582 97.4353 43.0477V56.9575H88.6639C89.4678 56.101 89.9467 55.0174 89.9467 53.8385C89.9467 51.0541 87.2785 48.7977 83.986 48.7977Z" fill="#FBD682"/>
<path d="M153.747 48.7977C150.454 48.7977 147.786 51.0541 147.786 53.8385C147.786 55.0174 148.265 56.101 149.069 56.9575H135.56V42.9986C134.77 43.8367 133.781 44.3371 132.703 44.3371C130.118 44.3371 128.025 41.4637 128.025 37.9179C128.025 34.3752 130.118 31.5018 132.703 31.5018C133.781 31.5018 134.77 32.0022 135.56 32.8403V19.4032C151.808 25.5891 164.687 39.459 170.431 56.9575H158.422C159.226 56.101 159.705 55.0174 159.705 53.8385C159.705 51.0541 157.036 48.7977 153.747 48.7977Z" fill="#0745E8"/>
<path d="M153.747 89.8701C150.454 89.8701 147.786 92.1235 147.786 94.9079C147.786 96.0806 148.262 97.1612 149.06 98.0177H135.56V82.2598C136.389 83.2821 137.484 83.9053 138.69 83.9053C141.272 83.9053 143.367 81.0318 143.367 77.4892C143.367 73.9434 141.272 71.07 138.69 71.07C137.484 71.07 136.389 71.6931 135.56 72.7154V56.9575H149.069C148.265 56.101 147.786 55.0174 147.786 53.8385C147.786 51.0541 150.454 48.7977 153.747 48.7977C157.036 48.7977 159.704 51.0541 159.704 53.8385C159.704 55.0174 159.226 56.101 158.422 56.9575H170.431C172.541 63.3798 173.687 70.2902 173.687 77.4892C173.687 84.6881 172.541 91.5954 170.434 98.0177H158.43C159.228 97.1612 159.704 96.0806 159.704 94.9079C159.704 92.1235 157.036 89.8701 153.747 89.8701Z" fill="#0745E8"/>
<path d="M116.497 65.2525C113.205 65.2525 110.536 62.9961 110.536 60.2147C110.536 58.9714 111.07 57.8325 111.953 56.9575H97.4349V43.0477C96.6538 43.8582 95.6789 44.3371 94.6242 44.3371C92.0415 44.3371 89.9463 41.4637 89.9463 37.9179C89.9463 34.3752 92.0415 31.5018 94.6242 31.5018C95.6789 31.5018 96.6538 31.9807 97.4349 32.7911V19.4032C103.398 17.1346 109.812 15.9005 116.497 15.9005C123.182 15.9005 129.596 17.1346 135.559 19.4032V32.8403C134.77 32.0022 133.781 31.5018 132.703 31.5018C130.117 31.5018 128.025 34.3752 128.025 37.9179C128.025 41.4637 130.117 44.3371 132.703 44.3371C133.781 44.3371 134.77 43.8367 135.559 42.9986V56.9575H121.038C121.922 57.8325 122.455 58.9714 122.455 60.2147C122.455 62.9961 119.787 65.2525 116.497 65.2525Z" fill="#0745E8"/>
<path d="M83.986 48.7977C80.6964 48.7977 78.0282 51.0541 78.0282 53.8385C78.0282 55.0174 78.5071 56.101 79.311 56.9575H62.5635C68.3075 39.459 81.1867 25.5891 97.4353 19.4032V32.7911C96.6543 31.9807 95.6793 31.5018 94.6246 31.5018C92.0419 31.5018 89.9467 34.3752 89.9467 37.9179C89.9467 41.4637 92.0419 44.3371 94.6246 44.3371C95.6793 44.3371 96.6543 43.8582 97.4353 43.0477V56.9575H88.6639C89.4678 56.101 89.9467 55.0174 89.9467 53.8385C89.9467 51.0541 87.2785 48.7977 83.986 48.7977Z" fill="#0745E8"/>
<path d="M170.432 57.2645H157.729L158.222 56.7393C159.006 55.9039 159.42 54.9008 159.42 53.8385C159.42 51.2283 156.875 49.1047 153.747 49.1047C150.617 49.1047 148.071 51.2283 148.071 53.8385C148.071 54.9008 148.486 55.9039 149.27 56.7393L149.763 57.2645H135.275V43.673C134.503 44.3106 133.624 44.6441 132.703 44.6441C129.967 44.6441 127.741 41.6267 127.741 37.918C127.741 34.2109 129.967 31.1949 132.703 31.1949C133.624 31.1949 134.503 31.5285 135.275 32.166V19.4032H135.845V33.5737L135.36 33.059C134.589 32.2411 133.671 31.8088 132.703 31.8088C130.281 31.8088 128.311 34.5493 128.311 37.9179C128.311 41.2881 130.281 44.03 132.703 44.03C133.671 44.03 134.589 43.5976 135.36 42.7798L135.845 42.265V56.6504H148.435C147.829 55.8121 147.501 54.8344 147.501 53.8384C147.501 50.8895 150.303 48.4906 153.747 48.4906C157.189 48.4906 159.99 50.8895 159.99 53.8384C159.99 54.8345 159.662 55.8121 159.056 56.6504H170.432L170.432 57.2645Z" fill="#FDF6E6"/>
<path d="M135.845 135.575H135.275V124.252C134.503 124.89 133.624 125.223 132.703 125.223C129.967 125.223 127.741 122.207 127.741 118.5C127.741 114.791 129.967 111.774 132.703 111.774C133.624 111.774 134.503 112.108 135.275 112.745V97.7107H148.429C147.827 96.8734 147.501 95.8988 147.501 94.9079C147.501 91.9609 150.303 89.5633 153.747 89.5633C157.189 89.5633 159.99 91.9609 159.99 94.9079C159.99 95.8988 159.664 96.8734 159.062 97.7107H170.435V98.3247H157.74L158.229 97.8003C159.008 96.9645 159.42 95.9645 159.42 94.9079C159.42 92.2993 156.875 90.1772 153.747 90.1772C150.617 90.1772 148.071 92.2993 148.071 94.9079C148.071 95.9645 148.483 96.9645 149.262 97.8003L149.751 98.3247H135.845V114.153L135.36 113.638C134.589 112.82 133.671 112.388 132.703 112.388C130.281 112.388 128.311 115.13 128.311 118.5C128.311 121.869 130.281 124.609 132.703 124.609C133.671 124.609 134.589 124.177 135.36 123.36L135.845 122.845V135.575Z" fill="#FDF6E6"/>
<path d="M97.7204 56.9575H97.1502V43.7119C96.3908 44.3238 95.5282 44.644 94.6246 44.644C91.888 44.644 89.6616 41.6266 89.6616 37.9179C89.6616 34.2108 91.888 31.1948 94.6246 31.1948C95.5282 31.1948 96.3908 31.5149 97.1502 32.1268V19.4032H97.7204V33.5133L97.2375 33.0122C96.4789 32.2249 95.5754 31.8088 94.6246 31.8088C92.2023 31.8088 90.2317 34.5493 90.2317 37.9179C90.2317 41.2881 92.2024 44.03 94.6246 44.03C95.5754 44.03 96.4789 43.6138 97.2375 42.8266L97.7204 42.3254V56.9575Z" fill="#FDF6E6"/>
<path d="M141.882 165.612H91.1113V174.256H141.882V165.612Z" fill="#102048"/>
<path d="M141.597 165.919V173.949H91.3963V165.919H141.597ZM142.167 165.305H141.597H91.3963H90.8262V165.919V173.949V174.563H91.3963H141.597H142.167V173.949V165.919V165.305Z" fill="white"/>
<path d="M106.308 106.135H94.7603V105.214H105.453V92.6024H106.308V106.135Z" fill="#FDF6E6"/>
<path d="M47.8669 185.442C31.9136 178.413 19.6751 163.886 14.7271 146.105L31.4491 146.981C30.6905 146.083 30.2637 144.979 30.3166 143.808C30.4422 141.027 33.2089 138.916 36.4946 139.088C39.7833 139.26 42.3467 141.65 42.2211 144.431C42.1682 145.603 41.644 146.657 40.8081 147.471L49.5606 147.929L48.8682 163.263C48.1247 162.413 47.1724 161.884 46.119 161.829C43.5394 161.693 41.317 164.454 41.1571 167.996C40.9974 171.534 42.9606 174.514 45.5402 174.649C46.5937 174.704 47.589 174.277 48.4057 173.508L47.8669 185.442Z" fill="#343434"/>
<path d="M16.8188 159.84V186.369H67.7639V159.84H16.8188ZM48.0704 167.717C48.0704 168.821 47.2315 169.724 46.2063 169.724H38.3764C37.3512 169.724 36.5123 168.821 36.5123 167.717C36.5123 166.612 37.3512 165.709 38.3764 165.709H46.2063C47.2315 165.709 48.0704 166.612 48.0704 167.717Z" fill="#E5ECFF" stroke="#1B2536" stroke-width="3.75" stroke-miterlimit="10"/>
<path opacity="0.2" d="M67.7639 186.369C67.7639 186.369 31.7235 183.637 16.8188 159.84V186.369H67.7639Z" fill="#1F3C88"/>
<path d="M197.086 19.2678C197.086 19.6564 197.059 20.037 197.006 20.4093H154.826C154.826 16.1458 158.032 12.6884 161.991 12.6884C163.154 12.6884 164.252 12.9871 165.225 13.519C166.14 10.389 168.853 8.12225 172.06 8.12225C176.019 8.12225 178.551 10.0024 178.551 14.2658V14.3558C179.941 14.5849 181.199 15.2396 182.206 16.2012C182.852 12.6496 186.448 11.1918 189.917 11.5469C194.509 12.017 197.086 15.0043 197.086 19.2678Z" fill="white" fill-opacity="0.2"/>
<path d="M156.651 109.084C157.061 107.875 156.471 107.151 156.453 106.495C156.436 105.839 156.622 105.256 156.293 105.17C155.964 105.084 155.574 105.625 155.36 108.476L156.651 109.084Z" fill="#F9B384"/>
<path d="M157.011 110.235L156.583 112.092H153.901L152.26 108.144C152.023 107.668 151.383 105.755 151.44 105.352C151.547 104.601 152.398 106.463 152.438 106.494C152.287 105.929 151.772 104.151 152.01 103.75C152.295 103.27 153.16 105.349 153.382 105.975C153.271 105.395 152.645 103.204 152.951 102.885C153.317 102.503 154.165 104.923 154.297 105.682C154.263 105.114 154.009 103.173 154.362 103.219C154.849 103.283 155.7 106.687 155.7 106.687C155.7 106.687 156.571 108.105 157.011 110.235Z" fill="#F9B384"/>
<path d="M152.812 107.641C153.117 107.335 153.456 107.063 153.838 106.863C154.03 106.767 154.233 106.691 154.444 106.653C154.655 106.616 154.874 106.618 155.079 106.675L155.07 106.734C154.661 106.701 154.263 106.812 153.898 107.001C153.529 107.184 153.192 107.44 152.847 107.688L152.812 107.641Z" fill="#E28B6D"/>
<path d="M155.359 107.416C155.179 107.421 155.009 107.5 154.94 107.665C154.868 107.824 154.855 108.019 154.87 108.209C154.881 108.4 154.918 108.592 154.968 108.779C155.018 108.966 155.079 109.151 155.167 109.32L155.122 109.356C154.996 109.199 154.916 109.011 154.85 108.82C154.787 108.627 154.742 108.427 154.729 108.22C154.721 108.015 154.729 107.794 154.836 107.6C154.859 107.551 154.903 107.513 154.935 107.471C154.978 107.44 155.022 107.407 155.069 107.386C155.119 107.375 155.167 107.356 155.216 107.353L155.362 107.356L155.359 107.416Z" fill="#E28B6D"/>
<path d="M166.599 182.959L166.857 179.392H162.397L161.779 180.896C161.519 181.531 161.163 182.105 160.737 182.609C162.059 183.358 164.118 184.175 166.599 182.959Z" fill="#F9B384"/>
<path d="M160.737 182.609C160.117 183.344 159.344 183.924 158.466 184.286L156.472 185.108C155.936 185.475 156.177 186.369 156.813 186.369H164.885C165.713 186.369 166.402 185.683 166.466 184.794L166.599 182.959C164.118 184.175 162.06 183.358 160.737 182.609Z" fill="#102048"/>
<path d="M177.522 182.959L177.264 179.392H181.723L182.341 180.896C182.602 181.531 182.958 182.105 183.383 182.609C182.061 183.358 180.003 184.175 177.522 182.959Z" fill="#F9B384"/>
<path d="M183.383 182.609C184.004 183.344 184.776 183.924 185.654 184.286L187.648 185.108C188.185 185.475 187.943 186.369 187.308 186.369H179.235C178.407 186.369 177.719 185.683 177.654 184.794L177.521 182.959C180.002 184.175 182.061 183.358 183.383 182.609Z" fill="#102048"/>
<path d="M182.843 180.077H175.169L171.001 145.318L168.835 161.113L168.384 180.077H161.178C160.613 165.358 161.328 149.54 163.687 132.312L163.846 129.573L164.029 126.451L178.524 127.596L178.698 129.724L179.034 133.782L182.843 180.077Z" fill="#1F3C88"/>
<path opacity="0.6" d="M179.034 133.782C177.67 136.003 168.152 135.927 163.634 133.207L163.846 129.573L178.698 129.724L179.034 133.782Z" fill="#102048"/>
<path d="M163.284 127.367C163.284 127.367 161.85 131.366 163.08 132.133C164.311 132.901 178.515 133.054 179.639 132.133C180.763 131.212 178.043 128.91 178.302 127.375C178.561 125.84 163.284 127.367 163.284 127.367Z" fill="#708CD5"/>
<path d="M162.069 110.926C161.57 112.115 159.717 115.722 159.717 115.722L157.009 110.235C156.403 110.764 155.689 111.258 153.567 111.29C153.567 111.29 156.617 123.436 159.361 124.685C163.861 126.733 164.92 117.564 164.92 117.564L162.069 110.926Z" fill="#708CD5"/>
<path d="M162.069 110.926L162.802 109.072C163.093 108.337 163.605 107.71 164.279 107.375C164.343 107.343 164.409 107.313 164.476 107.286C165.75 106.766 168.111 105.949 170.301 105.975C171.085 105.975 174.002 105.937 178.741 107.242L180.064 125.469L164.386 125.124L162.069 110.926Z" fill="#708CD5"/>
<path opacity="0.3" d="M176.063 110.926C176.431 117.776 175.918 125.137 172.214 125.612L176.492 126.909L181.087 124.261L179.27 113.478L176.063 110.926Z" fill="#1F3C88"/>
<path d="M176.756 106.747C177.702 106.97 179.28 107.204 180.064 107.779C180.848 108.355 183.057 120.673 183.627 123.512C184.197 126.352 184.34 129.268 172.652 129.729L171.512 126.275L178.353 123.436L175.73 110.926L176.756 106.747Z" fill="#708CD5"/>
<path d="M164.158 111.865C164.24 113.098 164.278 114.332 164.316 115.566L164.35 117.418C164.355 118.036 164.358 118.653 164.345 119.271L164.262 119.273C164.218 118.657 164.19 118.04 164.163 117.423L164.104 115.572C164.08 114.338 164.055 113.103 164.075 111.867L164.158 111.865Z" fill="#1F3C88"/>
<path d="M177.195 124.587V125.297L173.932 128.472L173.676 127.163L177.195 124.587Z" fill="#102048"/>
<path d="M173.457 128.012L177.195 124.587L170.158 123.64L173.457 128.012Z" fill="white"/>
<path d="M173.932 128.472H160.401L158.135 116.874H171.666L173.932 128.472Z" fill="#102048"/>
<path d="M166.79 123.487H165.277L164.992 121.859H166.505L166.79 123.487Z" fill="white"/>
<path d="M165.572 94.1412C164.054 89.9929 170.397 88.458 171.015 91.9295C171.015 91.9295 172.828 90.9159 174.627 91.9905C178.093 94.0606 175.855 99.8913 174.627 99.8913L168.365 99.0114L165.572 94.1412Z" fill="#6F3428"/>
<path d="M173.502 102.002V106.249C173.502 107.415 172.464 108.362 171.178 108.362C169.896 108.362 168.858 107.415 168.858 106.249V102.002H173.502Z" fill="#F9B384"/>
<path d="M172.501 103.596C171.905 104.446 170.625 105.425 168.858 105.447V103.209L172.501 103.596Z" fill="#3C1C16"/>
<path d="M173.501 95.1381V102.408C173.501 102.408 172.176 104.833 169.465 104.633C168.119 104.532 167.441 103.626 167.087 102.174C166.948 101.625 166.859 100.992 166.797 100.299C166.694 99.1352 166.665 97.7875 166.628 96.3323V95.1381H173.501Z" fill="#F9B384"/>
<path d="M166.684 93.3749C165.847 92.5892 164.152 93.1865 163.653 94.292C162.95 95.8533 163.867 97.429 165.056 97.8605C166.781 98.4864 167.481 96.5327 167.481 96.5327C167.481 96.5327 168.038 97.3809 169.279 97.1966C170.173 97.0638 170.481 96.1177 170.481 96.1177C170.481 96.1177 170.757 98.5328 173.702 98.4745C174.334 98.2422 174.627 95.6031 174.627 95.6031L172.685 93.4288L166.684 93.3749Z" fill="#6F3428"/>
<path d="M172.652 129.729C171.205 130.048 169.689 130.237 168.219 129.994C167.304 129.844 166.407 129.505 165.668 128.893C165.059 128.388 164.532 127.666 164.199 126.92C164.118 126.74 164.062 126.473 164.201 126.309C164.353 126.131 164.63 126.438 164.777 126.557C165.492 127.135 166.024 127.989 166.024 127.989C166.024 127.989 164.915 126.028 165.193 125.712C165.407 125.469 165.731 125.528 166.847 127.524C166.847 127.524 167.058 128.015 167.259 127.759C167.368 127.621 166.622 126.076 167.165 125.943C167.58 125.84 167.972 127.3 168.257 127.875C168.614 128.322 169.231 127.875 169.231 127.875L172.241 128.485L172.652 129.729Z" fill="#F9B384"/>
<path d="M169.153 127.966C169.103 127.63 169.021 127.302 168.907 126.998C168.881 126.927 168.852 126.857 168.84 126.78C168.795 126.495 169.03 126.409 169.188 126.468C169.533 126.597 169.842 127.092 170.044 127.477C170.222 127.815 170.327 128.242 170.275 128.652C170.259 128.778 169.287 128.78 169.224 128.627C169.209 128.592 169.207 128.549 169.205 128.508C169.197 128.326 169.18 128.145 169.153 127.966Z" fill="#F9B384"/>
<path d="M170.343 139.513C170.526 140.776 170.703 142.039 170.867 143.304L171.348 147.1L171.791 150.902L171.996 152.805L172.183 154.711L172.072 154.726L171.799 152.833L171.544 150.936L171.068 147.139L170.629 143.337C170.486 142.069 170.357 140.799 170.233 139.529L170.343 139.513Z" fill="#708CD5"/>
<path d="M168.503 109.307C169.251 110.042 170.258 110.451 171.253 110.38C171.75 110.351 172.239 110.202 172.684 109.956C173.132 109.714 173.533 109.376 173.901 108.996L173.963 109.057C173.631 109.484 173.231 109.858 172.771 110.134C172.312 110.407 171.794 110.575 171.266 110.608C170.739 110.636 170.205 110.544 169.72 110.327C169.234 110.113 168.79 109.787 168.443 109.37L168.503 109.307Z" fill="#1F3C88"/>
<path d="M173.174 98.8363C173.481 98.0167 174.075 97.7889 174.652 98.0797C175.568 98.5411 175.265 101.097 173.174 101.153V98.8363Z" fill="#F9B384"/>
<path d="M173.633 99.2986C173.59 99.057 173.658 98.8037 173.82 98.6049C173.904 98.5097 174.038 98.4365 174.172 98.4478C174.306 98.461 174.411 98.5377 174.484 98.6292L174.434 98.7015C174.337 98.6653 174.248 98.6366 174.172 98.649C174.096 98.6567 174.031 98.6978 173.972 98.7639C173.909 98.8256 173.864 98.9146 173.82 99.0042C173.777 99.0958 173.744 99.1943 173.717 99.2985L173.633 99.2986Z" fill="#6F3428"/>
<path d="M168.247 99.2616C168.247 99.5485 168.099 99.781 167.917 99.781C167.735 99.781 167.587 99.5485 167.587 99.2616C167.587 98.9748 167.735 98.7422 167.917 98.7422C168.099 98.7422 168.247 98.9748 168.247 99.2616Z" fill="#3C1C16"/>
<path d="M171.04 99.2616C171.04 99.5485 170.893 99.781 170.711 99.781C170.529 99.781 170.381 99.5485 170.381 99.2616C170.381 98.9748 170.529 98.7422 170.711 98.7422C170.893 98.7422 171.04 98.9748 171.04 99.2616Z" fill="#3C1C16"/>
<path d="M169.188 99.4631C169.223 99.5692 169.243 99.68 169.259 99.7918C169.266 99.8478 169.269 99.9044 169.271 99.9611C169.273 100.015 169.278 100.089 169.241 100.166C169.16 100.319 169.028 100.342 168.957 100.39C168.887 100.43 168.831 100.497 168.798 100.574C168.724 100.722 168.764 100.923 168.885 101.034C169.005 101.15 169.208 101.168 169.403 101.149L169.421 101.237C169.229 101.314 168.983 101.347 168.772 101.193C168.567 101.038 168.492 100.717 168.608 100.474C168.664 100.355 168.755 100.256 168.866 100.198C168.97 100.146 169.057 100.114 169.084 100.071C169.113 100.036 169.11 99.8982 169.114 99.8007C169.119 99.6947 169.112 99.5886 169.106 99.4809L169.188 99.4631Z" fill="#E28B6D"/>
<path d="M168.433 102.335C168.598 102.393 168.775 102.422 168.95 102.436C169.125 102.447 169.3 102.452 169.472 102.424C169.645 102.405 169.814 102.364 169.975 102.296C170.137 102.233 170.289 102.142 170.439 102.035L170.497 102.101C170.378 102.26 170.221 102.387 170.049 102.481C169.876 102.572 169.687 102.628 169.496 102.651C169.306 102.668 169.114 102.668 168.927 102.629C168.74 102.592 168.555 102.532 168.394 102.415L168.433 102.335Z" fill="#3C1C16"/>
<path d="M167.132 98.5038C167.208 98.365 167.303 98.2323 167.432 98.133C167.558 98.0314 167.722 97.972 167.885 97.9801C168.047 97.9892 168.198 98.054 168.33 98.1379C168.461 98.2248 168.574 98.3345 168.675 98.4532L168.638 98.4981C168.515 98.4121 168.397 98.3212 168.27 98.255C168.144 98.1871 168.012 98.138 167.879 98.1319C167.608 98.1087 167.371 98.3098 167.177 98.5392L167.132 98.5038Z" fill="#3C1C16"/>
<path d="M169.93 98.5038C170.017 98.3504 170.14 98.2154 170.293 98.1272C170.444 98.036 170.622 97.9977 170.795 98.0068C171.146 98.0316 171.454 98.239 171.674 98.4991L171.637 98.5439C171.373 98.3497 171.093 98.1743 170.787 98.1585C170.483 98.1304 170.188 98.2861 169.975 98.5392L169.93 98.5038Z" fill="#3C1C16"/>
<path opacity="0.4" d="M171.693 102.037C172.183 102.037 172.581 101.609 172.581 101.08C172.581 100.552 172.183 100.124 171.693 100.124C171.202 100.124 170.804 100.552 170.804 101.08C170.804 101.609 171.202 102.037 171.693 102.037Z" fill="#EE6F57"/>
<path opacity="0.4" d="M167.906 101.226C167.906 101.729 167.544 102.138 167.088 102.174C166.948 101.625 166.86 100.992 166.797 100.299C166.868 100.277 166.939 100.268 167.016 100.268C167.507 100.268 167.906 100.698 167.906 101.226Z" fill="#EE6F57"/>
<path d="M200.262 96.9549H188.861C185.992 96.9549 183.666 94.4502 183.666 91.3606V89.5943C183.666 86.5047 185.992 84.0001 188.861 84.0001H200.262C203.131 84.0001 205.457 86.5048 205.457 89.5943V91.3606C205.457 94.4503 203.131 96.9549 200.262 96.9549Z" fill="#C6EAE9"/>
<path d="M186.98 92.1574L181.723 96.9549H192.237L186.98 92.1574Z" fill="#C6EAE9"/>
<path d="M190.642 91.6851C191.262 91.6851 191.764 91.1444 191.764 90.4775C191.764 89.8105 191.262 89.2699 190.642 89.2699C190.023 89.2699 189.521 89.8105 189.521 90.4775C189.521 91.1444 190.023 91.6851 190.642 91.6851Z" fill="white"/>
<path d="M194.562 91.6851C195.181 91.6851 195.683 91.1444 195.683 90.4775C195.683 89.8105 195.181 89.2699 194.562 89.2699C193.942 89.2699 193.44 89.8105 193.44 90.4775C193.44 91.1444 193.942 91.6851 194.562 91.6851Z" fill="white"/>
<path d="M198.481 91.6851C199.1 91.6851 199.603 91.1444 199.603 90.4775C199.603 89.8105 199.1 89.2699 198.481 89.2699C197.862 89.2699 197.36 89.8105 197.36 90.4775C197.36 91.1444 197.862 91.6851 198.481 91.6851Z" fill="white"/>
<path d="M52.5856 114.001C52.0167 114.77 50.2007 121.302 50.2007 121.302C50.2007 121.302 52.1014 122.584 55.0311 122.243C54.9223 122.24 52.5856 114.001 52.5856 114.001Z" fill="#EE6F57"/>
<path d="M58.381 183.442L58.6038 180.363H54.754L54.2205 181.661C53.9954 182.209 53.6882 182.705 53.3208 183.14C54.4622 183.786 56.2395 184.492 58.381 183.442Z" fill="#F9B384"/>
<path d="M53.3213 183.14C52.7857 183.775 52.1185 184.276 51.3608 184.588L49.6395 185.298C49.1764 185.614 49.3848 186.386 49.9332 186.386H56.902C57.6168 186.386 58.2113 185.794 58.2668 185.026L58.3814 183.442C56.2399 184.492 54.4625 183.786 53.3213 183.14Z" fill="#102048"/>
<path d="M69.8024 183.442L69.5796 180.363H73.4294L73.963 181.661C74.188 182.209 74.4952 182.705 74.8626 183.14C73.7212 183.786 71.9439 184.492 69.8024 183.442Z" fill="#F9B384"/>
<path d="M74.8624 183.14C75.3979 183.775 76.0651 184.276 76.8228 184.588L78.5441 185.298C79.0072 185.614 78.7989 186.386 78.2504 186.386H71.2816C70.5669 186.386 69.9724 185.794 69.9168 185.026L69.8022 183.442C71.9438 184.492 73.7211 183.786 74.8624 183.14Z" fill="#102048"/>
<path d="M75.097 181.565H67.2977L61.6278 144.892L59.8547 181.565H52.7252L53.1471 143.916C52.4202 140.413 52.6568 137.709 53.6688 134.872C53.9225 134.151 54.2304 133.42 54.5838 132.665C54.8204 132.161 55.077 131.642 55.3564 131.111H67.8307L68.0531 132.665L68.1785 133.521L75.097 181.565Z" fill="#708CD5"/>
<path d="M67.7914 107.351L64.1006 112.331L68.1787 114.242L70.8678 108.359L69.6679 107.182L67.7914 107.351Z" fill="#F9B384"/>
<path d="M61.9328 113.116H57.6982L57.9833 106.913H62.2179L61.9328 113.116Z" fill="#F9B384"/>
<path d="M64.0121 102.029C64.9302 103.302 65.4282 103.956 65.3814 104.241C65.3348 104.526 65.008 105.129 63.8721 104.928C63.9187 104.71 64.0121 102.029 64.0121 102.029Z" fill="#E28B6D"/>
<path d="M64.2531 105.673C64.0954 106.743 63.6591 107.516 62.6839 107.62C60.1946 107.889 57.8289 106.771 57.8289 106.771L57.3716 100.917L59.5717 99.2188L64.0114 99.9349C64.0587 100.991 64.2348 102.296 64.3032 103.53C64.3452 104.297 64.3478 105.039 64.2531 105.673Z" fill="#F9B384"/>
<path d="M62.2072 100.716C63.2861 101.811 64.5822 101.902 65.3846 101.163C67.0829 99.5988 65.9717 95.8227 62.2072 97.2303C62.2072 97.2303 58.0576 95.197 55.6508 97.8783C53.2441 100.56 55.0711 103.438 52.0996 107.662C52.0996 107.662 57.7813 111.702 64.462 107.878C63.3942 105.818 61.2919 107.446 61.232 103.984C61.2113 103.934 60.9001 101.051 62.2072 100.716Z" fill="#102048"/>
<path opacity="0.3" d="M68.7004 132.665C68.6548 132.941 68.4752 133.23 68.1787 133.521C66.2859 135.379 59.6724 137.196 53.6689 134.872C53.9227 134.151 54.2305 133.42 54.584 132.665H68.7004Z" fill="#1F3C88"/>
<path d="M68.187 133.586C67.3147 134 58.1413 136.094 53.7827 133.38C53.452 133.07 52.594 132.778 53.8055 131.111C55.017 129.441 53.1071 120.557 52.5854 114C54.1847 112.333 56.354 111.145 58.3979 110.715C60.1282 110.35 61.9926 110.506 63.5119 110.715C65.0313 110.924 67.5485 112.02 67.5485 112.02L67.3546 119.476C67.3546 119.476 67.2947 119.829 67.2206 120.416C67.2206 120.413 67.2206 120.413 67.2178 120.416C67.0895 121.429 66.9071 123.142 66.9014 124.904C66.8871 127.041 67.1294 129.257 68.0217 130.399C69.5781 132.398 69.0564 133.168 68.187 133.586Z" fill="#EE6F57"/>
<path d="M72.1156 116.664L71.0638 123.029C71.0551 123.026 71.0493 123.023 71.0435 123.016L69.7215 122.118L69.6837 122.09C69.6634 122.075 69.643 122.059 69.6227 122.046L64.5089 118.573L62.353 110.578C64.4595 110.916 66.7637 111.085 68.2048 112.49C69.2448 113.507 70.9446 115.375 72.1156 116.664Z" fill="#EE6F57"/>
<path d="M78.7836 108.638C78.7836 108.638 77.1125 120.754 76.8218 121.966C76.7819 122.132 76.7362 122.298 76.6792 122.466C76.3286 123.532 75.6274 124.572 74.2448 124.468C73.9369 124.447 73.5635 124.333 73.1644 124.167C72.4802 123.885 71.7191 123.446 71.0635 123.028L72.1154 116.664C72.5658 117.159 72.9392 117.567 73.1672 117.806L74.9899 108.051L78.7836 108.638Z" fill="#F9B384"/>
<path d="M86.3663 97.0664C83.0738 97.0664 80.4056 99.3197 80.4056 102.104C80.4056 103.277 80.8816 104.357 81.6798 105.214H67.3041V89.8122C66.523 90.6226 65.5481 91.1015 64.4933 91.1015C61.9107 91.1015 59.8154 88.2281 59.8154 84.6823C59.8154 81.1396 61.9107 78.2662 64.4933 78.2662C65.5481 78.2662 66.523 78.7451 67.3041 79.5556V64.1538H81.8224C80.9387 65.0287 80.4056 66.1676 80.4056 67.411C80.4056 70.1923 83.0738 72.4487 86.3663 72.4487C89.6559 72.4487 92.3241 70.1923 92.3241 67.411C92.3241 66.1676 91.791 65.0287 90.9073 64.1538H105.428V79.9117C106.258 78.8894 107.353 78.2662 108.558 78.2662C111.141 78.2662 113.236 81.1396 113.236 84.6854C113.236 88.2281 111.141 91.1015 108.558 91.1015C107.353 91.1015 106.258 90.4783 105.428 89.456V105.214H91.0499C91.848 104.357 92.3241 103.277 92.3241 102.104C92.3241 99.3197 89.6559 97.0664 86.3663 97.0664Z" fill="#0745E8"/>
<path d="M74.995 108.974C74.8225 107.766 75.0427 106.468 75.2922 104.999L79.1777 105.039C78.6724 106.303 79.6038 107.568 78.7834 108.638L76.9876 110.712L74.995 108.974Z" fill="#F9B384"/>
<path d="M70.8677 108.359C71.8267 107.662 72.8957 105.057 72.8957 105.057C72.152 105.017 69.4574 104.949 68.4138 105.058C68.4138 105.058 68.4208 106.621 67.7912 107.351C67.416 107.787 70.8677 108.359 70.8677 108.359Z" fill="#F9B384"/>
<path d="M61.8547 103.826C61.7554 103.202 61.416 102.84 60.8523 102.662C60.4826 102.545 59.9732 102.733 59.842 103.185C59.6086 103.989 59.9665 106.017 61.6781 105.112C61.8698 105.022 61.9785 104.603 61.8547 103.826Z" fill="#F9B384"/>
<path d="M53.875 125.003C53.7573 124.252 53.644 123.5 53.5404 122.746L53.2382 120.485L52.964 118.219C52.8778 117.463 52.7988 116.706 52.7285 115.948L52.8113 115.935C52.9321 116.686 53.0441 117.438 53.149 118.192L53.4481 120.454L53.7193 122.72C53.8067 123.476 53.8846 124.234 53.9579 124.991L53.875 125.003Z" fill="#6F3428"/>
<path opacity="0.3" d="M67.2181 120.416C67.0898 121.429 66.9074 123.142 66.9017 124.904C65.6531 122.473 65.1001 118.976 65.1001 118.976C65.1001 118.976 66.1605 119.694 67.2181 120.416Z" fill="#6F3428"/>
<path d="M67.5462 112.064C67.3008 112.085 67.0618 112.119 66.8401 112.219C66.621 112.319 66.4107 112.443 66.2259 112.609C66.0392 112.772 65.8688 112.959 65.7138 113.162C65.5572 113.362 65.4126 113.58 65.2818 113.803L65.2056 113.766C65.2909 113.504 65.4188 113.266 65.5658 113.039C65.7164 112.815 65.8926 112.61 66.0935 112.431C66.3 112.262 66.5304 112.118 66.7809 112.035C67.0315 111.947 67.2986 111.939 67.552 111.974L67.5462 112.064Z" fill="#6F3428"/>
<path d="M59.4476 144.645C59.8176 144.72 60.1854 144.791 60.5592 144.812C60.9318 144.833 61.3056 144.846 61.6785 144.813C62.0515 144.79 62.4239 144.747 62.7938 144.682C63.1637 144.62 63.5331 144.539 63.8969 144.441L63.9248 144.526C63.5698 144.685 63.2013 144.793 62.8276 144.88C62.4533 144.962 62.0729 145.015 61.6906 145.041C61.3082 145.062 60.9232 145.054 60.5424 145.005C60.1608 144.963 59.786 144.862 59.4243 144.732L59.4476 144.645Z" fill="#1F3C88"/>
<path opacity="0.4" d="M64.2531 105.673C64.1926 105.687 64.1296 105.693 64.0638 105.693C63.4987 105.693 63.0439 105.203 63.0439 104.594C63.0439 103.989 63.4987 103.496 64.0638 103.496C64.1453 103.496 64.2267 103.507 64.303 103.53C64.3451 104.297 64.3477 105.039 64.2531 105.673Z" fill="#EE6F57"/>
<path d="M60.9373 103.679C60.8428 103.52 60.7347 103.356 60.6154 103.322C60.5607 103.305 60.5003 103.318 60.4329 103.359C60.3633 103.395 60.3003 103.462 60.2252 103.52L60.1626 103.472C60.2003 103.375 60.2505 103.282 60.3343 103.207C60.4139 103.134 60.5447 103.081 60.6698 103.12C60.7881 103.165 60.8706 103.254 60.9213 103.35C60.9734 103.446 61.0046 103.549 61.0109 103.655L60.9373 103.679Z" fill="#6F3428"/>
<path d="M56.4705 98.3629C56.6285 97.3145 55.9674 96.3267 54.9939 96.1565C54.0205 95.9864 53.1033 96.6984 52.9453 97.7468C52.7873 98.7952 53.4483 99.783 54.4218 99.9531C55.3952 100.123 56.3125 99.4113 56.4705 98.3629Z" fill="#102048"/>
<path opacity="0.4" d="M76.6789 122.467C76.3283 123.532 75.627 124.572 74.2445 124.468C73.9366 124.447 73.5632 124.333 73.1641 124.167C73.7313 122.513 74.9229 122.058 76.6789 122.467Z" fill="#EE6F57"/>
<path d="M79.3787 104.357C79.3502 104.514 79.2653 104.681 79.2276 104.891C78.9447 106.468 78.8513 106.706 78.8513 106.706L77.7339 106.092C77.9534 105.266 78.5097 104.095 78.8062 103.699C78.9658 103.484 79.0708 103.347 79.2447 103.522C79.3787 103.651 79.4557 103.921 79.3787 104.357Z" fill="#F9B384"/>
<path d="M79.3783 104.357C78.9137 104.219 79.1502 103.986 79.2443 103.522C79.3783 103.651 79.4553 103.921 79.3783 104.357Z" fill="#E28B6D"/>
<path d="M69.1301 103.539C69.1075 103.697 69.1346 103.886 69.1039 104.097C68.8729 105.684 68.8859 105.941 68.8859 105.941L70.1305 105.772C70.1843 104.915 70.0301 103.61 69.8761 103.129C69.7936 102.869 69.7381 102.702 69.5194 102.803C69.3527 102.875 69.1952 103.101 69.1301 103.539Z" fill="#F9B384"/>
<path d="M69.1304 103.539C69.611 103.579 69.462 103.273 69.5197 102.803C69.3529 102.875 69.1955 103.101 69.1304 103.539Z" fill="#E28B6D"/>
<path d="M70.1458 104.784C70.1453 104.919 70.1947 105.047 70.2714 105.139C70.3478 105.231 70.4793 105.306 70.5497 105.469C70.6103 105.631 70.5832 105.796 70.5426 105.936C70.4985 106.077 70.4346 106.211 70.3468 106.324L70.2996 106.292C70.3521 106.163 70.3959 106.033 70.4225 105.9C70.4513 105.769 70.4619 105.634 70.4196 105.529C70.3857 105.421 70.268 105.349 70.1781 105.221C70.0876 105.092 70.058 104.925 70.0903 104.777L70.1458 104.784Z" fill="#E28B6D"/>
<path d="M78.171 104.969C78.1384 105.165 78.0411 105.352 77.8942 105.485C77.7445 105.627 77.5582 105.663 77.4756 105.803C77.38 105.935 77.3395 106.118 77.3276 106.299C77.3143 106.481 77.3361 106.666 77.3855 106.846L77.334 106.869C77.2462 106.696 77.2038 106.495 77.2031 106.294C77.2064 106.096 77.2418 105.884 77.3639 105.71C77.4963 105.526 77.6974 105.488 77.8192 105.383C77.9516 105.278 78.0584 105.128 78.1169 104.954L78.171 104.969Z" fill="#E28B6D"/>
<g opacity="0.3">
<path d="M53.8535 131.081C54.095 131.402 54.4496 131.609 54.8056 131.783C55.1673 131.952 55.5419 132.096 55.9264 132.205C56.3086 132.322 56.6975 132.418 57.0904 132.486C57.4826 132.557 57.8787 132.606 58.2762 132.605L58.2885 132.724C57.8805 132.808 57.465 132.793 57.057 132.751C56.6487 132.704 56.2457 132.616 55.8501 132.498C55.4576 132.37 55.0664 132.227 54.7002 132.016C54.34 131.807 53.9706 131.551 53.7578 131.142L53.8535 131.081Z" fill="#6F3428"/>
</g>
<path d="M27.5833 107.702H38.9851C41.8541 107.702 44.1797 105.197 44.1797 102.108V100.341C44.1797 97.2518 41.854 94.7471 38.9851 94.7471H27.5833C24.7143 94.7471 22.3887 97.2518 22.3887 100.341V102.108C22.3886 105.197 24.7143 107.702 27.5833 107.702Z" fill="#D3DFFF"/>
<path d="M40.866 102.905L46.1232 107.702H35.6089L40.866 102.905Z" fill="#D3DFFF"/>
<path d="M37.4646 102.392C38.0672 102.238 38.4405 101.588 38.2981 100.939C38.1558 100.29 37.5519 99.8879 36.9492 100.041C36.3465 100.194 35.9733 100.845 36.1156 101.494C36.2579 102.143 36.8619 102.545 37.4646 102.392Z" fill="white"/>
<path d="M33.5456 102.392C34.1483 102.239 34.5215 101.588 34.3792 100.939C34.2369 100.29 33.6329 99.8881 33.0302 100.041C32.4275 100.195 32.0543 100.845 32.1966 101.494C32.339 102.143 32.9429 102.545 33.5456 102.392Z" fill="white"/>
<path d="M29.6262 102.392C30.2289 102.239 30.6021 101.588 30.4598 100.939C30.3174 100.29 29.7135 99.8884 29.1108 100.042C28.5081 100.195 28.1349 100.845 28.2772 101.494C28.4195 102.143 29.0235 102.545 29.6262 102.392Z" fill="white"/>
<path d="M0 186.369H228.051" stroke="#102048" stroke-width="3.75" stroke-miterlimit="10"/>
</svg>
