<svg width="219" height="137" viewBox="0 0 219 137" fill="none" xmlns="http://www.w3.org/2000/svg">
<path d="M25.932 114.097C26.6303 114.097 27.1965 113.531 27.1965 112.832C27.1965 112.134 26.6303 111.568 25.932 111.568C25.2336 111.568 24.6675 112.134 24.6675 112.832C24.6675 113.531 25.2336 114.097 25.932 114.097Z" fill="#A4AFFF"/>
<path d="M195.34 79.545C196.038 79.545 196.604 78.9789 196.604 78.2805C196.604 77.5821 196.038 77.016 195.34 77.016C194.641 77.016 194.075 77.5821 194.075 78.2805C194.075 78.9789 194.641 79.545 195.34 79.545Z" fill="#A4AFFF"/>
<path d="M48.438 56.0596C48.438 56.4977 48.0828 56.8528 47.6448 56.8528C47.2067 56.8528 46.8516 56.4977 46.8516 56.0596C46.8516 55.6216 47.2067 55.2664 47.6448 55.2664C48.0828 55.2664 48.438 55.6216 48.438 56.0596Z" fill="#A4AFFF"/>
<path d="M19.3388 114.097C19.3388 114.535 18.9837 114.89 18.5456 114.89C18.1076 114.89 17.7524 114.535 17.7524 114.097C17.7524 113.659 18.1076 113.304 18.5456 113.304C18.9837 113.304 19.3388 113.659 19.3388 114.097Z" fill="#A4AFFF"/>
<path d="M176.79 114.844C177.488 114.844 178.054 114.278 178.054 113.579C178.054 112.881 177.488 112.315 176.79 112.315C176.092 112.315 175.525 112.881 175.525 113.579C175.525 114.278 176.092 114.844 176.79 114.844Z" fill="#A4AFFF"/>
<path d="M203.678 114.844C204.376 114.844 204.943 114.278 204.943 113.579C204.943 112.881 204.376 112.315 203.678 112.315C202.98 112.315 202.414 112.881 202.414 113.579C202.414 114.278 202.98 114.844 203.678 114.844Z" fill="#A4AFFF"/>
<path d="M139.931 61.2991C139.931 62.2334 139.173 62.9912 138.238 62.9912C137.304 62.9912 136.546 62.2338 136.546 61.2991C136.546 60.3643 137.304 59.607 138.238 59.607C139.173 59.607 139.931 60.3647 139.931 61.2991Z" fill="#A4AFFF"/>
<path d="M189.1 107.262H186.972C186.835 107.262 186.724 107.151 186.724 107.014V104.886C186.724 104.749 186.835 104.638 186.972 104.638H189.1C189.237 104.638 189.348 104.749 189.348 104.886V107.014C189.348 107.151 189.237 107.262 189.1 107.262Z" fill="#DEE3FC"/>
<path d="M192.61 107.262H190.482C190.345 107.262 190.234 107.151 190.234 107.014V104.886C190.234 104.749 190.345 104.638 190.482 104.638H192.61C192.747 104.638 192.858 104.749 192.858 104.886V107.014C192.858 107.151 192.747 107.262 192.61 107.262Z" fill="#DEE3FC"/>
<path d="M196.12 107.262H193.992C193.855 107.262 193.744 107.151 193.744 107.014V104.886C193.744 104.749 193.855 104.638 193.992 104.638H196.12C196.257 104.638 196.367 104.749 196.367 104.886V107.014C196.367 107.151 196.257 107.262 196.12 107.262Z" fill="#DEE3FC"/>
<path d="M26.85 105.824H24.7221C24.585 105.824 24.4741 105.713 24.4741 105.576V103.449C24.4741 103.312 24.585 103.201 24.7221 103.201H26.85C26.987 103.201 27.098 103.312 27.098 103.449V105.576C27.098 105.713 26.9867 105.824 26.85 105.824Z" fill="#DEE3FC"/>
<path d="M30.3593 105.824H28.2314C28.0943 105.824 27.9834 105.713 27.9834 105.576V103.449C27.9834 103.312 28.0943 103.201 28.2314 103.201H30.3593C30.4963 103.201 30.6072 103.312 30.6072 103.449V105.576C30.6072 105.713 30.4963 105.824 30.3593 105.824Z" fill="#DEE3FC"/>
<path d="M33.8692 105.824H31.7416C31.6046 105.824 31.4937 105.713 31.4937 105.576V103.449C31.4937 103.312 31.6046 103.201 31.7416 103.201H33.8692C34.0062 103.201 34.1171 103.312 34.1171 103.449V105.576C34.1171 105.713 34.0062 105.824 33.8692 105.824Z" fill="#DEE3FC"/>
<path d="M121.676 128.414H71.1475C66.7442 128.414 63.1748 124.844 63.1748 120.441V7.97273C63.1748 3.56941 66.7442 0 71.1475 0H121.676C126.079 0 129.648 3.56941 129.648 7.97273V120.441C129.648 124.844 126.079 128.414 121.676 128.414Z" fill="#3945BA"/>
<path d="M121.42 126.589H71.4029C67.5459 126.589 64.4194 123.462 64.4194 119.605V8.10792C64.4194 4.25095 67.5459 1.12445 71.4029 1.12445H121.421C125.278 1.12445 128.404 4.25095 128.404 8.10792V119.605C128.404 123.462 125.277 126.589 121.42 126.589Z" fill="white"/>
<path d="M125.603 7.88907V119.257C125.603 121.869 123.485 123.986 120.873 123.986H71.9496C69.3377 123.986 67.2202 121.869 67.2202 119.257V7.88907C67.2202 5.27718 69.3377 3.15973 71.9496 3.15973H80.1079C80.5605 3.15973 80.9747 3.41554 81.1774 3.82036L82.0438 5.54979C82.4386 6.34785 83.2534 6.84752 84.1396 6.84752H108.683C109.57 6.84752 110.384 6.34785 110.779 5.54979L111.646 3.82036C111.848 3.41554 112.262 3.15973 112.715 3.15973H120.873C123.485 3.15973 125.603 5.2768 125.603 7.88907Z" fill="#DEE3FC"/>
<path d="M106.711 4.82419H86.9433C86.4835 4.82419 86.1108 4.45149 86.1108 3.99178C86.1108 3.53206 86.4835 3.15936 86.9433 3.15936H106.711C107.171 3.15936 107.544 3.53206 107.544 3.99178C107.544 4.45149 107.171 4.82419 106.711 4.82419Z" fill="#DEE3FC"/>
<path d="M117.836 120.12H73.8474C72.1191 120.12 70.7183 118.72 70.7183 116.991V101.459C70.7183 99.7306 72.1191 98.3298 73.8474 98.3298H117.836C119.565 98.3298 120.966 99.7306 120.966 101.459V116.991C120.966 118.72 119.565 120.12 117.836 120.12Z" stroke="#698BD1" stroke-miterlimit="10" stroke-linecap="round" stroke-linejoin="round" stroke-dasharray="2.84 2.84"/>
<path d="M115.607 66.6481H93.7854C92.5389 66.6481 91.5283 65.6375 91.5283 64.3909V53.6058C91.5283 52.3592 92.5389 51.3487 93.7854 51.3487H115.607C116.854 51.3487 117.864 52.3592 117.864 53.6058V64.3909C117.864 65.6375 116.854 66.6481 115.607 66.6481Z" stroke="#698BD1" stroke-miterlimit="10" stroke-linecap="round" stroke-linejoin="round" stroke-dasharray="2.84 2.84"/>
<path d="M120.305 94.7051H75.2366C73.7514 94.7051 72.5474 93.5011 72.5474 92.0159V73.0071C72.5474 71.5219 73.7514 70.3179 75.2366 70.3179H120.305C121.79 70.3179 122.994 71.5219 122.994 73.0071V92.0159C122.994 93.5011 121.79 94.7051 120.305 94.7051Z" fill="#4B5A9B"/>
<path d="M120.966 71.0301V90.0497C120.966 91.5323 119.763 92.7311 118.281 92.7311H73.4033C71.9208 92.7311 70.7183 91.5323 70.7183 90.0497V71.0301C70.7183 69.5475 71.9208 68.345 73.4033 68.345H118.281C119.763 68.345 120.966 69.5475 120.966 71.0301Z" fill="#7F95F4"/>
<path d="M88.076 90.7492H74.8549C73.8522 90.7492 73.0396 89.9366 73.0396 88.9338V75.7127C73.0396 74.7104 73.8522 73.8974 74.8549 73.8974H88.076C89.0787 73.8974 89.8914 74.71 89.8914 75.7127V88.9338C89.8914 89.9366 89.0787 90.7492 88.076 90.7492Z" fill="white"/>
<path d="M103.745 76.0298H92.1016C91.7849 76.0298 91.5283 75.7732 91.5283 75.4565C91.5283 75.1398 91.7849 74.8833 92.1016 74.8833H103.745C104.062 74.8833 104.319 75.1398 104.319 75.4565C104.319 75.7732 104.062 76.0298 103.745 76.0298Z" fill="#B2C1F9"/>
<path d="M98.4393 78.319H92.1016C91.7849 78.319 91.5283 78.0624 91.5283 77.7458C91.5283 77.4291 91.7849 77.1725 92.1016 77.1725H98.4393C98.756 77.1725 99.0126 77.4291 99.0126 77.7458C99.0126 78.0621 98.756 78.319 98.4393 78.319Z" fill="#B2C1F9"/>
<path d="M117.921 78.319H100.772C100.455 78.319 100.199 78.0624 100.199 77.7458C100.199 77.4291 100.455 77.1725 100.772 77.1725H117.921C118.238 77.1725 118.495 77.4291 118.495 77.7458C118.495 78.0621 118.238 78.319 117.921 78.319Z" fill="#B2C1F9"/>
<path d="M101.908 80.6079H92.1021C91.7854 80.6079 91.5288 80.3513 91.5288 80.0346C91.5288 79.7179 91.7854 79.4614 92.1021 79.4614H101.908C102.224 79.4614 102.481 79.7179 102.481 80.0346C102.481 80.3513 102.224 80.6079 101.908 80.6079Z" fill="#B2C1F9"/>
<path d="M110.231 80.6079H104.066C103.75 80.6079 103.493 80.3513 103.493 80.0346C103.493 79.7179 103.75 79.4614 104.066 79.4614H110.231C110.548 79.4614 110.804 79.7179 110.804 80.0346C110.804 80.3513 110.547 80.6079 110.231 80.6079Z" fill="#B2C1F9"/>
<path d="M117.921 80.6079H112.245C111.928 80.6079 111.671 80.3513 111.671 80.0346C111.671 79.7179 111.928 79.4614 112.245 79.4614H117.921C118.238 79.4614 118.495 79.7179 118.495 80.0346C118.495 80.3513 118.238 80.6079 117.921 80.6079Z" fill="#B2C1F9"/>
<path d="M117.921 82.8967H92.1016C91.7849 82.8967 91.5283 82.6402 91.5283 82.3235C91.5283 82.0068 91.7849 81.7502 92.1016 81.7502H117.921C118.238 81.7502 118.495 82.0068 118.495 82.3235C118.495 82.6402 118.238 82.8967 117.921 82.8967Z" fill="#B2C1F9"/>
<path d="M106.312 85.1856H92.1021C91.7854 85.1856 91.5288 84.929 91.5288 84.6123C91.5288 84.2957 91.7854 84.0391 92.1021 84.0391H106.312C106.629 84.0391 106.885 84.2957 106.885 84.6123C106.885 84.929 106.628 85.1856 106.312 85.1856Z" fill="#B2C1F9"/>
<path d="M117.921 85.1856H108.603C108.286 85.1856 108.03 84.929 108.03 84.6123C108.03 84.2957 108.286 84.0391 108.603 84.0391H117.921C118.238 84.0391 118.495 84.2957 118.495 84.6123C118.495 84.929 118.238 85.1856 117.921 85.1856Z" fill="#B2C1F9"/>
<path d="M100.451 87.4744H92.1016C91.7849 87.4744 91.5283 87.2179 91.5283 86.9012C91.5283 86.5845 91.7849 86.3279 92.1016 86.3279H100.451C100.767 86.3279 101.024 86.5845 101.024 86.9012C101.024 87.2179 100.767 87.4744 100.451 87.4744Z" fill="#B2C1F9"/>
<path d="M111.06 87.4744H102.71C102.394 87.4744 102.137 87.2179 102.137 86.9012C102.137 86.5845 102.394 86.3279 102.71 86.3279H111.06C111.376 86.3279 111.633 86.5845 111.633 86.9012C111.633 87.2179 111.376 87.4744 111.06 87.4744Z" fill="#B2C1F9"/>
<path d="M117.921 87.4744H113.077C112.76 87.4744 112.503 87.2179 112.503 86.9012C112.503 86.5845 112.76 86.3279 113.077 86.3279H117.921C118.238 86.3279 118.495 86.5845 118.495 86.9012C118.495 87.2179 118.238 87.4744 117.921 87.4744Z" fill="#B2C1F9"/>
<path d="M103.745 89.7637H92.1016C91.7849 89.7637 91.5283 89.5071 91.5283 89.1904C91.5283 88.8737 91.7849 88.6172 92.1016 88.6172H103.745C104.062 88.6172 104.319 88.8737 104.319 89.1904C104.319 89.5067 104.062 89.7637 103.745 89.7637Z" fill="#B2C1F9"/>
<path d="M117.922 76.0298H106.278C105.961 76.0298 105.705 75.7732 105.705 75.4565C105.705 75.1398 105.961 74.8833 106.278 74.8833H117.922C118.238 74.8833 118.495 75.1398 118.495 75.4565C118.495 75.7732 118.238 76.0298 117.922 76.0298Z" fill="#B2C1F9"/>
<path d="M120.966 71.0301V71.8292H70.7183V71.0301C70.7183 69.5475 71.9208 68.345 73.4033 68.345H118.281C119.763 68.345 120.966 69.5475 120.966 71.0301Z" fill="#3052CE"/>
<path d="M111.495 70.1498C111.495 70.4938 111.216 70.7724 110.872 70.7724C110.528 70.7724 110.25 70.4938 110.25 70.1498C110.25 69.8063 110.528 69.5273 110.872 69.5273C111.216 69.5273 111.495 69.8063 111.495 70.1498Z" fill="#DEE3FC"/>
<path d="M114.679 70.1498C114.679 70.4938 114.401 70.7724 114.057 70.7724C113.713 70.7724 113.434 70.4938 113.434 70.1498C113.434 69.8063 113.713 69.5273 114.057 69.5273C114.401 69.5273 114.679 69.8063 114.679 70.1498Z" fill="#DEE3FC"/>
<path d="M117.864 70.1498C117.864 70.4938 117.586 70.7724 117.242 70.7724C116.898 70.7724 116.619 70.4938 116.619 70.1498C116.619 69.8063 116.898 69.5273 117.242 69.5273C117.585 69.5277 117.864 69.8063 117.864 70.1498Z" fill="#DEE3FC"/>
<path d="M86.2752 66.648H76.3307C74.8559 66.648 73.6602 65.4523 73.6602 63.9775V54.033C73.6602 52.5582 74.8559 51.3625 76.3307 51.3625H86.2752C87.75 51.3625 88.9457 52.5579 88.9457 54.033V63.9775C88.9454 65.4526 87.75 66.648 86.2752 66.648Z" stroke="#495AD6" stroke-width="0.8956" stroke-miterlimit="10"/>
<path d="M78.918 56.7946L76.7158 58.9968L78.9356 61.2162" stroke="#495AD6" stroke-width="1.6716" stroke-miterlimit="10" stroke-linecap="round" stroke-linejoin="round"/>
<path d="M83.6866 56.7946L85.8888 58.9968L83.6694 61.2162" stroke="#495AD6" stroke-width="1.6716" stroke-miterlimit="10" stroke-linecap="round" stroke-linejoin="round"/>
<path d="M82.3337 56.7946L80.2715 61.2162" stroke="#495AD6" stroke-width="1.6716" stroke-miterlimit="10" stroke-linecap="round" stroke-linejoin="round"/>
<path d="M120.966 14.0532V45.1502C120.966 46.8382 119.599 48.205 117.911 48.205H73.7731C72.0888 48.205 70.7183 46.8382 70.7183 45.1502V14.0532C70.7183 12.3652 72.0888 10.9984 73.7731 10.9984H117.911C119.599 10.9984 120.966 12.3652 120.966 14.0532Z" fill="#B2C1F9"/>
<path d="M110.789 28.106C114.811 28.106 118.071 24.8457 118.071 20.8238C118.071 16.802 114.811 13.5416 110.789 13.5416C106.767 13.5416 103.507 16.802 103.507 20.8238C103.507 24.8457 106.767 28.106 110.789 28.106Z" fill="#F0F4FF"/>
<path d="M100.254 48.205H73.7731C72.0888 48.205 70.7183 46.8382 70.7183 45.1502V40.2543L82.3063 20.1815C82.9113 19.1321 84.4275 19.1321 85.0325 20.1815L93.7824 35.336L100.28 46.5917C100.594 47.1294 100.546 47.7419 100.254 48.205Z" fill="white"/>
<path d="M111.674 48.205H86.3506L93.7822 35.336L97.7855 28.4011C98.3308 27.4562 99.6939 27.4562 100.239 28.4011L111.674 48.205Z" fill="#F0F4FF"/>
<path d="M161.902 105.988H142.38V135.328H161.902V105.988Z" fill="#3B47BC"/>
<path d="M161.903 135.328H169.377V105.989H161.903V135.328Z" fill="#495AD6"/>
<path d="M168.46 107.115H162.972V108.051H168.46V107.115Z" fill="#B2C1F9"/>
<path d="M168.46 109.127H162.972V110.063H168.46V109.127Z" fill="#B2C1F9"/>
<path d="M168.46 111.138H162.972V112.075H168.46V111.138Z" fill="#B2C1F9"/>
<path d="M168.46 113.15H162.972V114.086H168.46V113.15Z" fill="#B2C1F9"/>
<path d="M168.46 115.161H162.972V116.097H168.46V115.161Z" fill="#B2C1F9"/>
<path d="M168.46 117.173H162.972V118.109H168.46V117.173Z" fill="#B2C1F9"/>
<path d="M168.46 119.184H162.972V120.12H168.46V119.184Z" fill="#B2C1F9"/>
<path d="M168.46 121.196H162.972V122.132H168.46V121.196Z" fill="#B2C1F9"/>
<path d="M168.46 123.207H162.972V124.143H168.46V123.207Z" fill="#B2C1F9"/>
<path d="M168.46 125.219H162.972V126.155H168.46V125.219Z" fill="#B2C1F9"/>
<path d="M168.46 127.23H162.972V128.166H168.46V127.23Z" fill="#B2C1F9"/>
<path d="M168.46 129.242H162.972V130.178H168.46V129.242Z" fill="#B2C1F9"/>
<path d="M168.46 131.253H162.972V132.19H168.46V131.253Z" fill="#B2C1F9"/>
<path d="M168.46 133.265H162.972V134.201H168.46V133.265Z" fill="#B2C1F9"/>
<path d="M139.208 135.328H149.13C149.13 135.328 149.685 133.561 148.483 131.372C148.483 131.372 147.684 132.013 145.292 131.579C145.292 131.579 144.294 132.427 143.604 132.758C142.911 133.094 138.941 133.874 139.208 135.328Z" fill="#281616"/>
<path d="M139.901 107.351C140.542 111.175 143.499 124.111 144.77 131.754C147.093 131.952 148.209 131.685 148.8 131.549C148.684 128.884 148.455 122.509 148.482 119.714C148.526 114.989 148.748 108.759 146.668 105.34L139.675 105.89C139.717 106.26 139.756 106.56 139.79 106.775C139.824 106.981 139.862 107.171 139.901 107.351Z" fill="#002C54"/>
<path d="M121.262 135.328H131.184C131.184 135.328 131.738 133.561 130.536 131.372C130.536 131.372 129.738 132.013 127.346 131.579C127.346 131.579 126.348 132.427 125.658 132.758C124.965 133.094 120.995 133.874 121.262 135.328Z" fill="#281616"/>
<path d="M127.059 131.53C128.955 131.999 130.328 131.954 130.978 131.88C131.506 128.809 132.339 122.049 133.089 118.881C134.253 113.957 135.392 107.185 134.6 104.768L127.721 103.041C127.698 103.259 127.138 123.986 127.059 131.53Z" fill="#052635"/>
<path d="M154.437 95.9894C154.299 94.63 154.14 93.6371 154.14 93.6371L146.454 95.5181L139.925 97.0055C137.505 97.5448 134.581 98.1939 132.004 98.7764C129.112 99.4337 127.191 101.631 127.825 104.527L128.55 108.04C132.595 107.985 151.616 106.162 153.243 105.34C155.081 104.412 155.634 101.13 154.437 95.9894Z" fill="#052635"/>
<path d="M165.91 95.9894C165.772 94.6301 165.109 93.1714 165.109 93.1714L157.927 95.5181L151.399 97.0056C148.978 97.5448 146.055 98.1939 143.477 98.7765C140.585 99.4337 138.664 101.631 139.298 104.527L140.023 108.04C144.068 107.985 160.977 107.396 164.716 105.34C166.52 104.348 167.107 101.13 165.91 95.9894Z" fill="#002C54"/>
<path d="M144.398 84.9746C144.398 84.9746 147.812 83.4326 148.751 84.9791C149.266 85.8257 148.91 87.3983 147.746 88.0585C146.581 88.7188 140.002 91.5013 133.793 93.053C133.793 93.053 133.527 92.1892 133.1 91.2817C133.1 91.2817 135.886 90.1263 138.655 88.1814C141.424 86.2361 144.398 84.9746 144.398 84.9746Z" fill="#E5918F"/>
<path d="M145.252 74.3145L142.326 86.0001C142.326 86.0001 142.629 88.9544 145.612 87.5043C148.596 86.0542 150.573 76.7445 150.573 76.7445L145.252 74.3145Z" fill="#E5918F"/>
<path d="M150.201 80.8502C149.84 80.7629 149.494 80.6673 149.161 80.5672C148.82 80.4675 148.495 80.3633 148.187 80.255C145.407 79.3019 143.905 78.1573 143.905 78.1573C144.779 74.3579 145.832 71.8065 146.768 70.1252C146.793 70.0838 146.818 70.046 146.839 70.0005C146.864 69.959 146.889 69.9172 146.914 69.8757C147.417 69.0392 148.142 68.336 148.949 67.7575C149.032 67.6993 149.111 67.6451 149.195 67.5869L149.54 73.6879L149.598 74.3164L150.201 80.8502Z" fill="white"/>
<path d="M150.201 80.8502C149.84 80.7628 149.494 80.6672 149.161 80.5671C148.82 80.4674 148.495 80.3632 148.187 80.2549C148.771 76.1452 149.298 73.5631 149.298 73.5631L149.598 74.3164L150.201 80.8502Z" fill="#C7E5F2"/>
<path d="M167.473 70.3003C167.402 72.1067 167.086 75.0073 166.811 77.9205C166.723 78.8444 166.64 79.7725 166.57 80.6672C166.52 81.2248 165.679 84.2004 165.646 84.7333C165.496 87.2803 164.247 89.1863 165.429 93.065C165.713 93.993 165.783 94.4717 165.783 94.8545C165.783 95.1208 165.438 95.3997 165.3 95.4744C164.805 95.7616 163.831 95.9614 162.649 96.1071H162.645C160.319 96.3901 157.181 96.4443 155.287 96.4443C152.744 96.4443 148.928 96.0406 148.445 95.3998C148.004 94.8131 148.412 93.9597 148.62 92.7819C149.556 87.4674 149.223 84.6956 149.165 80.8588C149.165 80.7632 149.161 80.6672 149.161 80.5675C149.065 74.6495 148.674 69.5848 148.949 67.7579C149.032 67.6997 149.111 67.6455 149.195 67.5873C149.598 67.3124 149.994 67.067 150.377 66.8504C150.41 66.8336 150.452 66.809 150.493 66.784C150.61 66.7175 150.73 66.6551 150.843 66.5924C150.884 66.5674 150.93 66.5465 150.976 66.5259C151.837 66.1054 153.094 65.6562 153.814 65.4063C153.906 65.3772 153.989 65.3481 154.059 65.3272C154.738 65.2857 155.474 65.2771 156.27 65.298C156.96 65.3189 158.017 65.4104 159.166 65.5602C159.17 65.5602 159.17 65.5602 159.17 65.5602C160.469 65.7267 161.888 65.9721 163.016 66.2802C163.016 66.2802 163.028 66.2843 163.036 66.2884C163.249 66.3549 164.626 66.871 166.062 68.4066C166.54 68.9145 167.031 69.5385 167.473 70.3003Z" fill="white"/>
<path d="M165.429 93.0646C165.712 93.9926 165.782 94.4713 165.782 94.8541C165.782 95.1204 165.437 95.3993 165.3 95.474C164.804 95.7612 163.83 95.961 162.648 96.1067C163.135 96.0484 163.976 95.2757 163.976 94.5793C163.976 94.0915 163.343 90.7962 163.518 88.6698C163.693 86.5475 164.038 83.1682 163.381 80.463C162.719 77.7577 162.099 74.1995 162.099 74.1995L165.807 76.4383C165.807 76.4383 166.286 77.1083 166.81 77.9198C166.723 78.8437 166.639 79.7717 166.569 80.6665C166.519 81.2244 164.247 89.1859 165.429 93.0646Z" fill="#C7E5F2"/>
<path d="M149.116 54.6596C149.116 54.6596 149.437 58.5379 150.723 58.7985C152.009 59.0592 151.693 57.4112 151.693 57.4112L151.514 55.5697L149.116 54.6596Z" fill="#002C54"/>
<path d="M155.046 68.7147C152.528 68.4152 153.468 65.968 153.814 65.4063C153.905 65.3772 154.338 65.2439 154.371 65.2233C154.375 65.2192 154.379 65.2192 154.379 65.2192C154.463 65.1527 154.525 65.0527 154.575 64.9279C154.82 64.283 154.708 62.9968 154.7 62.9136C154.7 62.9094 154.7 62.9095 154.7 62.9095V62.6764C154.741 62.5226 154.783 62.3769 154.816 62.2395L156.14 61.1991L158.941 58.9976C158.941 58.9976 158.196 62.6805 158.795 65.003C158.841 65.1778 158.932 65.4235 159.165 65.5606C159.165 65.5647 159.17 65.5606 159.17 65.5606C159.245 65.6106 159.336 65.6438 159.449 65.6603C160.135 65.9844 159.178 69.2058 155.046 68.7147Z" fill="#E5918F"/>
<path d="M157.265 61.3376C157.265 61.3376 157.242 63.7956 154.574 64.9261C154.822 64.2845 154.707 62.998 154.7 62.9151L155.817 62.0375L157.265 61.3376Z" fill="#CC6362"/>
<path d="M149.73 55.2116C149.73 55.2116 150.312 63.2582 152.485 63.942C152.485 63.942 155.253 64.2027 157.241 61.5292C157.813 60.7591 158.537 60.5858 158.774 59.6556C159.157 58.1446 159.699 55.358 159.008 53.6786C158.024 51.2866 149.824 49.3877 149.73 55.2116Z" fill="#E5918F"/>
<path d="M159.042 52.3506C159.006 50.8889 157.527 50.3426 157.527 50.3426C156.054 49.6532 152.993 49.9508 149.837 50.6548C149.097 50.8198 148.169 50.3657 147.652 50.7242C147.028 51.1574 147.65 53.1367 147.65 53.1367C148.867 56.823 153.346 55.6242 154.692 55.1694C155.012 56.1183 154.971 57.4381 155.769 58.1185C156.224 58.5061 157.014 58.5173 157.817 58.3833C157.916 58.5715 158.288 58.7369 158.363 58.9954C158.617 59.8573 158.58 61.2043 158.573 62.244L158.952 62.0584C159.002 61.7772 162.931 52.4712 159.042 52.3506Z" fill="#002C54"/>
<path d="M151.959 57.9217C152.073 58.5898 151.743 59.2033 151.223 59.2919C150.703 59.3804 150.189 58.9106 150.076 58.2421C149.962 57.574 150.291 56.9604 150.812 56.8719C151.332 56.7834 151.846 57.2532 151.959 57.9217Z" stroke="white" stroke-width="0.501" stroke-miterlimit="10"/>
<path d="M154.585 57.431C154.698 58.0991 154.369 58.7126 153.849 58.8012C153.328 58.8897 152.815 58.4199 152.701 57.7514C152.588 57.0833 152.917 56.4697 153.437 56.3812C153.957 56.2927 154.471 56.7629 154.585 57.431Z" stroke="white" stroke-width="0.501" stroke-miterlimit="10"/>
<path d="M151.959 57.9217C151.959 57.9217 152.074 57.735 152.679 57.7873" stroke="white" stroke-width="0.501" stroke-miterlimit="10"/>
<path d="M154.608 57.5912L156.852 57.2327" stroke="white" stroke-width="0.501" stroke-miterlimit="10"/>
<path d="M157.017 60.0813C158.562 60.6736 159.045 56.8693 157.577 56.7009C156.464 56.5732 156.419 58.126 156.419 58.126C156.419 58.126 156.134 59.7434 157.017 60.0813Z" fill="#E5918F"/>
<g opacity="0.5">
<path d="M157.527 57.2741C157.527 57.2741 157.427 57.3768 157.335 57.5467C157.243 57.7159 157.162 57.9474 157.147 58.1954C157.132 58.3183 157.135 58.4445 157.141 58.5644C157.145 58.685 157.16 58.7981 157.168 58.8986C157.179 58.9998 157.188 59.0846 157.194 59.1436C157.2 59.2041 157.2 59.2407 157.2 59.2407C157.2 59.2407 157.177 59.2131 157.144 59.1619C157.116 59.1089 157.057 59.0383 157.018 58.9404C156.975 58.8441 156.929 58.7279 156.905 58.5954C156.875 58.4643 156.867 58.3179 156.878 58.1711C156.892 58.0247 156.93 57.8783 156.992 57.7532C157.051 57.6263 157.136 57.5243 157.215 57.45C157.382 57.3021 157.527 57.2741 157.527 57.2741Z" fill="#CC6362"/>
<path d="M157.768 57.9964C157.768 57.9964 157.705 58.0031 157.618 58.036C157.532 58.0666 157.425 58.1275 157.344 58.2096C157.262 58.2903 157.209 58.3896 157.182 58.4677C157.154 58.5446 157.145 58.5991 157.145 58.5991L156.89 58.508C156.89 58.508 156.92 58.443 156.982 58.3571C157.043 58.2705 157.143 58.1667 157.264 58.1009C157.383 58.0326 157.513 58.0016 157.609 57.9949C157.705 57.9855 157.768 57.9964 157.768 57.9964Z" fill="#CC6362"/>
</g>
<path d="M171.876 86.5147C171.876 86.5147 171.876 86.5147 171.876 86.5184C171.196 87.3064 168.619 87.8808 167.379 86.7907C166.989 86.4434 166.549 85.5284 166.117 84.3931C165.017 81.4903 163.977 77.1475 163.977 77.1475L169.745 74.1999C169.745 74.1999 170.487 77.5273 171.126 80.6893C171.126 80.6893 171.132 80.7214 171.144 80.7774C171.352 81.7902 171.546 82.7866 171.698 83.6414C171.704 83.6657 171.706 83.6854 171.708 83.7093C171.861 84.73 171.959 85.7943 171.876 86.5147Z" fill="#E5918F"/>
<path d="M161.798 73.1075C162.355 75.424 164.106 79.8135 164.106 79.8135C165.332 80.0171 166.977 79.7911 168.34 79.3015C169.912 78.7365 171.036 77.5501 171.036 77.5501C171.036 77.5501 169.875 74.2865 168.833 71.942C167.897 69.8373 167.336 69.0515 166.931 68.6344C166.321 67.9962 165.338 67.2638 164.641 66.9311L161.798 73.1075Z" fill="white"/>
<path d="M169.092 74.6204L165.707 73.1598L163.04 66.2877C163.04 66.2877 163.529 66.4363 164.172 66.6962C164.172 66.6962 164.172 66.6962 164.175 66.6962C164.188 66.7026 164.216 66.7115 164.262 66.7302C164.277 66.7365 164.296 66.7425 164.312 66.7519C164.887 67.0211 167.118 68.336 168.662 73.1135C168.674 73.1539 168.687 73.1938 168.699 73.2342C168.863 73.785 168.983 74.2275 169.048 74.4564C169.055 74.4781 169.061 74.4998 169.067 74.5244C169.077 74.5554 169.083 74.5894 169.092 74.6204Z" fill="white"/>
<path d="M171.876 86.5147C171.876 86.5147 171.876 86.5147 171.876 86.5184C171.826 86.9408 171.709 87.2444 171.501 87.3519C171.467 87.3732 170.994 87.6552 170.961 87.6765C170.255 88.1078 168.976 88.8413 167.385 89.5254C163.527 91.1925 157.921 93.1258 154.899 94.0116C154.899 94.0116 154.601 93.1579 154.136 92.2688C154.136 92.2688 156.869 90.9994 159.556 88.9413C162.247 86.8878 166.116 84.3931 166.116 84.3931L167.094 83.2436C167.094 83.2436 170.568 80.0462 171.126 80.6896C171.126 80.6896 171.131 80.7218 171.143 80.7778C171.226 81.1113 171.502 82.338 171.697 83.6417C171.703 83.666 171.706 83.6858 171.708 83.7097C171.861 84.73 171.959 85.7943 171.876 86.5147Z" fill="#E5918F"/>
<path d="M154.536 92.0735C154.536 92.0735 153.856 92.4828 153.164 92.3371C152.781 92.2564 152.627 92.1 152.344 92.0503C152.061 92.0006 151.307 91.9076 150.933 91.7243C150.56 91.5413 150.414 91.5207 150.428 91.8957C150.441 92.2706 151.177 92.5944 151.377 92.6986C151.577 92.8024 151.827 93.1348 151.854 93.1766C151.881 93.2184 150.627 93.875 150.289 93.7416C150.289 93.7416 150.189 94.0438 150.246 94.2122C150.303 94.381 150.561 94.44 150.581 94.5248C150.601 94.6095 150.522 94.7828 150.578 94.9173C150.634 95.0517 150.864 95.0524 150.957 95.2709C151.05 95.4894 150.947 95.4931 151.015 95.7209C151.083 95.9491 151.374 95.9898 151.43 96.1074C151.485 96.2251 151.456 96.3625 151.578 96.4435C151.7 96.5246 152.828 96.1623 153.24 95.9861C153.652 95.8094 154.753 94.2253 155.971 93.6853L154.536 92.0735Z" fill="#E5918F"/>
<path d="M160.301 99.1458H151.526V98.2872H160.301C160.538 98.2872 160.731 98.4796 160.731 98.7167C160.731 98.9535 160.538 99.1458 160.301 99.1458Z" fill="#375F84"/>
<path d="M155.554 99.1458H133.583C133.32 99.1458 133.089 98.9703 133.018 98.7171L128.522 82.5293C128.422 82.1711 128.692 81.8163 129.064 81.8163H150.31C150.805 81.8163 151.24 82.1465 151.372 82.6234L155.853 98.7529C155.907 98.9505 155.758 99.1458 155.554 99.1458Z" fill="#375F84"/>
<path d="M154.758 99.1458H132.787C132.524 99.1458 132.294 98.9703 132.223 98.7171L127.726 82.5293C127.627 82.1711 127.896 81.8163 128.268 81.8163H149.515C150.01 81.8163 150.444 82.1465 150.577 82.6234L155.057 98.7529C155.112 98.9505 154.963 99.1458 154.758 99.1458Z" fill="#467CDB"/>
<path d="M67.6797 88.6863L70.2247 86.077C70.2247 86.077 70.3129 84.9133 70.4514 84.668C70.59 84.4226 70.9481 83.5137 71.1262 83.4147C71.3047 83.3157 71.6614 83.4147 71.6614 83.4147C71.6614 83.4147 72.015 83.2959 72.1734 83.2959C72.3321 83.2959 72.6286 83.4408 72.6286 83.4408C72.6286 83.4408 73.0092 83.4151 73.1675 83.4151C73.3262 83.4151 73.377 83.4595 73.377 83.4595C73.377 83.4595 73.9906 82.7537 74.2878 82.5162C74.5851 82.2783 75.0396 81.8406 75.1744 81.8421C75.3014 81.8436 75.3574 82.0669 75.2648 82.3048C75.1722 82.5427 74.7696 82.9262 74.7696 82.9262L73.61 84.6837C73.61 84.6837 73.8083 84.6045 73.914 84.5384C74.0197 84.4723 74.727 83.8117 74.7696 83.7852C74.8125 83.7586 75.1296 83.5473 75.3144 83.7586C75.4993 83.97 74.1004 85.646 73.8756 85.8705C73.6507 86.0953 72.365 86.7462 72.365 86.7462C72.365 86.7462 71.0071 89.1886 70.8749 89.3473C70.7431 89.5056 67.6797 88.6863 67.6797 88.6863Z" fill="#E49191"/>
<path d="M70.0751 76.6419C70.0751 76.6419 68.6534 84.8771 67.3153 85.0683C67.3153 85.0683 61.9732 85.2838 60.7834 78.8034C59.7511 73.1834 63.8908 71.9846 65.8271 72.4148C67.7631 72.8443 70.4908 73.124 70.0751 76.6419Z" fill="#E49191"/>
<path d="M65.3543 83.7512C65.3543 83.7512 64.6055 84.7602 64.3434 87.2037C64.3434 87.2037 62.1187 87.5219 60.0674 86.4654C60.0674 86.4654 61.1728 83.0185 61.3084 79.2765" fill="#E49191"/>
<path d="M63.8475 71.0357C60.9283 71.6806 61.1617 73.4993 61.1617 73.4993C59.7948 73.8376 59.5013 74.4019 59.5125 76.9246C59.5237 79.4476 60.4368 82.4766 60.9402 82.7231C61.4436 82.9695 64.2975 82.9815 64.5358 82.8949C64.774 82.8082 65.7726 80.494 65.54 80.0865C65.3069 79.6795 65.5515 78.0781 66.2163 78.0176C66.881 77.9568 66.7507 78.9875 66.7507 78.9875L67.297 78.8676L67.7186 77.8332C71.5764 78.0628 72.5731 73.6666 72.5731 73.6666C71.6466 73.0624 66.7671 70.3907 63.8475 71.0357Z" fill="#002C54"/>
<path d="M31.4419 126.785L34.3936 127.212L33.4159 130.659L30.2192 129.853C30.2192 129.853 28.9185 128.089 30.8824 126.785C30.9769 126.722 31.2873 126.75 31.4419 126.785Z" fill="#E5918F"/>
<path d="M53.473 117.932L49.1224 104.759C49.1224 104.759 47.8037 104.29 47.1282 104.759C47.1282 104.759 42.596 107.197 43.0796 114.146C43.4441 119.384 44.5502 125.066 44.9984 127.345L33.3909 126.916C33.3909 126.916 31.9587 128.618 32.8852 130.834C32.8852 130.834 47.4702 134.756 49.5249 135.118C51.1946 135.413 53.0223 135.64 53.9047 134.884C55.4598 133.552 53.473 117.932 53.473 117.932Z" fill="black"/>
<path d="M45.185 126.785L48.1368 127.212L47.1591 130.659L43.9624 129.853C43.9624 129.853 42.6617 128.089 44.6256 126.785C44.7201 126.722 45.0304 126.75 45.185 126.785Z" fill="#E5918F"/>
<path d="M44.114 128.593C44.0479 129.271 44.6416 129.882 44.533 130.052C44.4243 130.221 42.4402 133.55 42.4402 133.55C42.4402 133.55 43.9381 134.202 43.6964 135.144H39.903C39.903 135.144 38.9122 134.25 38.9365 132.97C38.9365 132.97 39.1942 131.496 39.8708 130.191C40.5475 128.886 42.0854 125.94 42.0854 125.94C42.0854 125.94 42.5518 125.752 43.3499 125.965C44.2842 126.214 45.185 126.785 45.185 126.785C45.185 126.785 44.2772 126.916 44.114 128.593Z" fill="#467CDB"/>
<path d="M74.5016 132.117C73.565 128.622 64.7528 113.702 61.7715 109.674C55.6481 107.015 49.1221 104.759 49.1221 104.759C46.4232 105.404 45.0938 110.843 46.6245 114.468C47.6746 116.956 54.337 123.216 58.4169 126.901L47.0951 126.887C47.0951 126.887 45.7615 128.881 46.97 130.775C46.97 130.775 65.7999 135.056 67.4513 135.298C69.1031 135.539 72.8092 135.298 72.8092 135.298C72.8092 135.298 75.29 135.059 74.5016 132.117Z" fill="#002C54"/>
<path d="M30.3708 128.593C30.3047 129.271 30.8985 129.882 30.7898 130.052C30.6811 130.221 28.697 133.55 28.697 133.55C28.697 133.55 30.1949 134.202 29.9533 135.144H26.1598C26.1598 135.144 25.169 134.25 25.1933 132.97C25.1933 132.97 25.451 131.496 26.1277 130.191C26.8044 128.886 28.3422 125.94 28.3422 125.94C28.3422 125.94 28.8087 125.752 29.6067 125.965C30.5407 126.214 31.4418 126.785 31.4418 126.785C31.4418 126.785 30.534 126.916 30.3708 128.593Z" fill="#467CDB"/>
<path d="M88.6778 86.1506L82.6052 96.8323L78.2564 92.4973L74.6567 97.8555L75.702 98.3575L75.326 98.6704C75.326 98.6704 83.7188 102.758 84.7245 101.856C85.7302 100.954 90.4162 87.3647 90.4162 87.3647L88.6778 86.1506Z" fill="#E49191"/>
<path d="M79.0313 93.1755C79.0313 93.1755 77.8848 98.0116 75.5918 100.305L69.725 98.0714C69.725 98.0714 67.0025 102.65 64.3399 106.16C63.3166 107.516 62.9768 109.424 61.7743 109.674C61.6996 109.648 61.6286 109.626 61.5539 109.607C58.2937 108.629 53.4837 109.667 49.514 108.192C45.1297 106.56 45.9812 105.641 45.9812 105.641C45.9812 105.641 48.6401 100.85 50.1489 95.7747C50.8211 93.5303 51.2879 91.4501 51.5978 89.8257C52.1543 86.9501 54.4584 84.702 57.3639 84.3098C57.3975 84.3061 57.4274 84.2986 57.461 84.2949C60.7846 83.8729 69.486 84.8999 71.1777 85.6244C72.8694 86.3489 79.0313 93.1755 79.0313 93.1755Z" fill="#467CDB"/>
<path d="M69.7251 98.0714C69.7251 98.0714 67.0027 102.65 64.34 106.16C63.3167 107.516 62.9769 109.424 61.7744 109.674C62.301 109.488 63.1748 106.717 63.4848 106.093C63.7985 105.473 64.2952 104.849 65.3707 102.672C66.4425 100.491 67.8975 97.295 67.8975 97.295L69.7251 98.0714Z" fill="#5996EF"/>
<path d="M58.417 126.901C58.417 126.901 58.5092 126.881 58.6721 126.86C58.8349 126.843 59.0683 126.809 59.3487 126.798C59.91 126.767 60.661 126.79 61.4042 126.893C61.775 126.947 62.1447 127.012 62.4861 127.098C62.8282 127.179 63.1433 127.275 63.4077 127.371C63.674 127.462 63.8876 127.563 64.037 127.63C64.1864 127.698 64.2693 127.743 64.2693 127.743C64.2693 127.743 64.1748 127.732 64.0138 127.704C63.8548 127.67 63.6232 127.639 63.3499 127.592C62.8028 127.501 62.0779 127.384 61.3497 127.287C60.9867 127.231 60.6211 127.191 60.279 127.143C59.9354 127.1 59.615 127.06 59.3401 127.025C58.7863 126.951 58.417 126.901 58.417 126.901Z" fill="black"/>
<path d="M93.2164 82.2189C93.1185 82.2092 92.496 82.7089 92.1953 82.9557L92.5415 82.2925C92.5415 82.2925 92.9994 81.8503 93.1641 81.6076C93.3288 81.3649 93.2421 81.1221 93.1122 81.109C93.0207 81.0997 92.4728 81.5344 92.1558 81.7932L92.2256 81.6599C92.2256 81.6599 92.6834 81.2177 92.8481 80.975C93.0128 80.7322 92.9262 80.4895 92.7962 80.4764C92.6663 80.4633 91.6128 81.3477 91.6128 81.3477L91.0997 82.0344L91.4865 81.2831C91.4865 81.2831 91.6905 81.034 91.826 80.7625C91.9619 80.491 91.8637 80.4081 91.7883 80.3173C91.7129 80.2266 91.0037 80.755 90.8226 80.966C90.6414 81.1774 90.0682 82.0333 90.023 82.1543L89.4303 83.3803C89.3926 83.0252 89.3329 82.4172 89.2911 82.03C89.2306 81.4716 88.7253 81.3398 88.7077 81.6113C88.6902 81.8828 88.4086 83.2183 88.4725 83.9424C88.5363 84.6665 88.6577 85.1419 88.7029 85.5493C88.7481 85.9568 88.3257 86.7709 88.3257 86.7709C88.3257 86.7709 90.0155 87.8203 90.2949 87.5062C90.5742 87.1921 91.1687 86.4945 91.4563 86.0247C91.851 85.3794 92.1177 84.5309 92.1177 84.5309L92.6457 83.4028C92.6457 83.4028 93.1036 82.9606 93.2683 82.7178C93.433 82.4747 93.3463 82.2316 93.2164 82.2189Z" fill="#E49191"/>
<path d="M190.218 48.2065H170.402C169.132 48.2065 168.102 49.236 168.102 50.5061V55.1877C168.102 56.3592 168.979 57.3264 170.112 57.4691C170.278 57.49 170.402 57.6311 170.402 57.7984V60.361C170.402 60.5093 170.592 60.5702 170.678 60.4495L172.697 57.627C172.759 57.5393 172.861 57.487 172.968 57.487H190.218C191.488 57.487 192.518 56.4574 192.518 55.1873V50.5058C192.518 49.236 191.488 48.2065 190.218 48.2065Z" stroke="white" stroke-width="0.8956" stroke-miterlimit="10"/>
<path d="M173.442 52.8398C173.442 53.2581 173.103 53.5968 172.685 53.5968C172.267 53.5968 171.928 53.2577 171.928 52.8398C171.928 52.4215 172.267 52.0828 172.685 52.0828C173.103 52.0828 173.442 52.4215 173.442 52.8398Z" stroke="white" stroke-width="0.8956" stroke-miterlimit="10"/>
<path d="M177.255 52.8398C177.255 53.2581 176.916 53.5968 176.498 53.5968C176.079 53.5968 175.741 53.2577 175.741 52.8398C175.741 52.4215 176.08 52.0828 176.498 52.0828C176.916 52.0828 177.255 52.4215 177.255 52.8398Z" stroke="white" stroke-width="0.8956" stroke-miterlimit="10"/>
<path d="M181.068 52.8398C181.068 53.2581 180.728 53.5968 180.311 53.5968C179.892 53.5968 179.553 53.2577 179.553 52.8398C179.553 52.4215 179.892 52.0828 180.311 52.0828C180.728 52.0828 181.068 52.4215 181.068 52.8398Z" stroke="white" stroke-width="0.8956" stroke-miterlimit="10"/>
<path d="M184.88 52.8398C184.88 53.2581 184.541 53.5968 184.123 53.5968C183.705 53.5968 183.366 53.2577 183.366 52.8398C183.366 52.4215 183.705 52.0828 184.123 52.0828C184.541 52.0828 184.88 52.4215 184.88 52.8398Z" stroke="white" stroke-width="0.8956" stroke-miterlimit="10"/>
<path d="M188.693 52.8398C188.693 53.2581 188.353 53.5968 187.935 53.5968C187.517 53.5968 187.178 53.2577 187.178 52.8398C187.178 52.4215 187.517 52.0828 187.935 52.0828C188.353 52.0828 188.693 52.4215 188.693 52.8398Z" stroke="white" stroke-width="0.8956" stroke-miterlimit="10"/>
<path d="M33.6317 68.73H53.4483C54.7184 68.73 55.748 69.7596 55.748 71.0297V75.7112C55.748 76.8831 54.8715 77.85 53.7385 77.9926C53.5723 78.0135 53.4483 78.1547 53.4483 78.322V80.8846C53.4483 81.0329 53.2582 81.0937 53.172 80.9731L51.1535 78.1506C51.0908 78.0628 50.9896 78.0109 50.8816 78.0109H33.6317C32.3616 78.0109 31.332 76.9813 31.332 75.7112V71.0297C31.332 69.7596 32.3616 68.73 33.6317 68.73Z" stroke="white" stroke-width="0.8956" stroke-miterlimit="10"/>
<path d="M50.4077 73.3634C50.4077 73.7816 50.7468 74.1203 51.1647 74.1203C51.583 74.1203 51.922 73.7812 51.922 73.3634C51.922 72.9451 51.583 72.6064 51.1647 72.6064C50.7468 72.606 50.4077 72.9451 50.4077 73.3634Z" stroke="white" stroke-width="0.8956" stroke-miterlimit="10"/>
<path d="M46.5952 73.3634C46.5952 73.7816 46.9343 74.1203 47.3522 74.1203C47.7705 74.1203 48.1092 73.7812 48.1092 73.3634C48.1092 72.9451 47.7701 72.6064 47.3522 72.6064C46.9343 72.606 46.5952 72.9451 46.5952 73.3634Z" stroke="white" stroke-width="0.8956" stroke-miterlimit="10"/>
<path d="M42.7827 73.3634C42.7827 73.7816 43.1218 74.1203 43.5397 74.1203C43.958 74.1203 44.2967 73.7812 44.2967 73.3634C44.2967 72.9451 43.9576 72.6064 43.5397 72.6064C43.1218 72.606 42.7827 72.9451 42.7827 73.3634Z" stroke="white" stroke-width="0.8956" stroke-miterlimit="10"/>
<path d="M38.9702 73.3634C38.9702 73.7816 39.3093 74.1203 39.7272 74.1203C40.1455 74.1203 40.4842 73.7812 40.4842 73.3634C40.4842 72.9451 40.1451 72.6064 39.7272 72.6064C39.3093 72.606 38.9702 72.9451 38.9702 73.3634Z" stroke="white" stroke-width="0.8956" stroke-miterlimit="10"/>
<path d="M35.1577 73.3634C35.1577 73.7816 35.4968 74.1203 35.9151 74.1203C36.3333 74.1203 36.672 73.7812 36.672 73.3634C36.672 72.9451 36.333 72.6064 35.9151 72.6064C35.4964 72.606 35.1577 72.9451 35.1577 73.3634Z" stroke="white" stroke-width="0.8956" stroke-miterlimit="10"/>
<path d="M153.309 37.4064H117.191C115.199 37.4064 113.584 35.7916 113.584 33.7996C113.584 31.8076 115.199 30.1928 117.191 30.1928H153.309C155.301 30.1928 156.916 31.8076 156.916 33.7996C156.916 35.7916 155.301 37.4064 153.309 37.4064Z" fill="white" stroke="#495AD6" stroke-width="0.8956" stroke-miterlimit="10"/>
<path d="M152.78 33.5512C152.78 34.6107 151.921 35.4693 150.862 35.4693C149.802 35.4693 148.944 34.6107 148.944 33.5512C148.944 32.4918 149.802 31.6332 150.862 31.6332C151.921 31.6332 152.78 32.4918 152.78 33.5512Z" stroke="#495AD6" stroke-width="1.6716" stroke-miterlimit="10"/>
<path d="M152.218 34.9072L153.277 35.9663" stroke="#495AD6" stroke-width="1.6716" stroke-miterlimit="10" stroke-linecap="round"/>
<path d="M98.5967 135.502H89.5104C87.9206 135.502 86.6318 134.213 86.6318 132.623V123.537C86.6318 121.947 87.9206 120.658 89.5104 120.658H98.5967C100.186 120.658 101.475 121.947 101.475 123.537V132.623C101.475 134.213 100.186 135.502 98.5967 135.502Z" fill="#193091"/>
<path d="M95.8912 135.502H86.8048C85.215 135.502 83.9263 134.213 83.9263 132.623V123.537C83.9263 121.947 85.215 120.658 86.8048 120.658H95.8912C97.4809 120.658 98.7697 121.947 98.7697 123.537V132.623C98.7697 134.213 97.4809 135.502 95.8912 135.502Z" fill="#495AD6"/>
<path d="M89.5949 125.278L93.8555 127.738C94.1184 127.89 94.1184 128.269 93.8555 128.421L89.5949 130.881C89.3319 131.033 89.0029 130.843 89.0029 130.54V125.62C89.0033 125.316 89.3319 125.127 89.5949 125.278Z" fill="white"/>
<path d="M192.587 135.502H180.709C178.631 135.502 176.946 133.817 176.946 131.739V119.861C176.946 117.782 178.631 116.098 180.709 116.098H192.587C194.666 116.098 196.35 117.782 196.35 119.861V131.739C196.35 133.817 194.666 135.502 192.587 135.502Z" fill="#193091"/>
<path d="M189.051 135.502H177.173C175.095 135.502 173.41 133.817 173.41 131.739V119.861C173.41 117.782 175.095 116.098 177.173 116.098H189.051C191.129 116.098 192.814 117.782 192.814 119.861V131.739C192.814 133.817 191.129 135.502 189.051 135.502Z" fill="#495AD6"/>
<path d="M185.443 120.858C185.443 122.146 184.399 123.19 183.112 123.19C181.824 123.19 180.78 122.146 180.78 120.858C180.78 119.571 181.824 118.527 183.112 118.527C184.399 118.527 185.443 119.571 185.443 120.858Z" fill="white"/>
<path d="M187.972 128.752V132.193C187.972 132.504 187.72 132.756 187.409 132.756H178.815C178.504 132.756 178.251 132.504 178.251 132.193V128.752C178.251 126.068 180.427 123.891 183.112 123.891C185.796 123.892 187.972 126.068 187.972 128.752Z" fill="white"/>
<path d="M139.719 41.5617H132.089C131.773 41.5617 131.516 41.3051 131.516 40.9885C131.516 40.6718 131.773 40.4152 132.089 40.4152H139.719C140.035 40.4152 140.292 40.6718 140.292 40.9885C140.292 41.3048 140.035 41.5617 139.719 41.5617Z" fill="#F0F4FF"/>
<path d="M147.351 41.5617H141.83C141.513 41.5617 141.256 41.3051 141.256 40.9885C141.256 40.6718 141.513 40.4152 141.83 40.4152H147.351C147.667 40.4152 147.924 40.6718 147.924 40.9885C147.924 41.3048 147.667 41.5617 147.351 41.5617Z" fill="#F0F4FF"/>
<path d="M135.331 44.0825H132.09C131.773 44.0825 131.517 43.8259 131.517 43.5092C131.517 43.1925 131.773 42.936 132.09 42.936H135.331C135.648 42.936 135.904 43.1925 135.904 43.5092C135.904 43.8255 135.647 44.0825 135.331 44.0825Z" fill="#F0F4FF"/>
<path d="M147.351 44.0825H137.255C136.938 44.0825 136.682 43.8259 136.682 43.5092C136.682 43.1925 136.938 42.936 137.255 42.936H147.351C147.667 42.936 147.924 43.1925 147.924 43.5092C147.924 43.8255 147.667 44.0825 147.351 44.0825Z" fill="#F0F4FF"/>
<path d="M142.146 46.6032H132.089C131.773 46.6032 131.516 46.3467 131.516 46.03C131.516 45.7133 131.773 45.4568 132.089 45.4568H142.146C142.463 45.4568 142.719 45.7133 142.719 46.03C142.719 46.3463 142.463 46.6032 142.146 46.6032Z" fill="#F0F4FF"/>
<path d="M147.35 46.6032H144.109C143.792 46.6032 143.536 46.3467 143.536 46.03C143.536 45.7133 143.792 45.4568 144.109 45.4568H147.35C147.667 45.4568 147.924 45.7133 147.924 46.03C147.924 46.3463 147.667 46.6032 147.35 46.6032Z" fill="#F0F4FF"/>
<path d="M43.1128 100.115H16.4804C15.6921 100.115 15.0527 99.4759 15.0527 98.6876V85.2435C15.0527 84.4548 15.6921 83.8158 16.4804 83.8158H43.1128C43.9012 83.8158 44.5405 84.4551 44.5405 85.2435V98.6876C44.5409 99.4763 43.9015 100.115 43.1128 100.115Z" fill="#193091"/>
<path d="M16.3057 86.0176H43.2872" stroke="white" stroke-width="0.8956" stroke-miterlimit="10" stroke-linecap="round"/>
<path d="M42.5753 85.2241C42.7558 85.2241 42.9021 85.0778 42.9021 84.8973C42.9021 84.7168 42.7558 84.5705 42.5753 84.5705C42.3948 84.5705 42.2485 84.7168 42.2485 84.8973C42.2485 85.0778 42.3948 85.2241 42.5753 85.2241Z" fill="white"/>
<path d="M40.8712 85.2241C41.0517 85.2241 41.198 85.0778 41.198 84.8973C41.198 84.7168 41.0517 84.5705 40.8712 84.5705C40.6907 84.5705 40.5444 84.7168 40.5444 84.8973C40.5444 85.0778 40.6907 85.2241 40.8712 85.2241Z" fill="white"/>
<path d="M39.1676 85.2241C39.3481 85.2241 39.4944 85.0778 39.4944 84.8973C39.4944 84.7168 39.3481 84.5705 39.1676 84.5705C38.9871 84.5705 38.8408 84.7168 38.8408 84.8973C38.8408 85.0778 38.9871 85.2241 39.1676 85.2241Z" fill="white"/>
<path d="M21.3353 88.2116H16.7568C16.5077 88.2116 16.3057 88.0096 16.3057 87.7605C16.3057 87.5114 16.5077 87.3094 16.7568 87.3094H21.3353C21.5843 87.3094 21.7864 87.5114 21.7864 87.7605C21.7864 88.0096 21.5843 88.2116 21.3353 88.2116Z" fill="#6589D1"/>
<path d="M21.3353 90.2966H16.7568C16.5077 90.2966 16.3057 90.0945 16.3057 89.8454C16.3057 89.5964 16.5077 89.3943 16.7568 89.3943H21.3353C21.5843 89.3943 21.7864 89.5964 21.7864 89.8454C21.7864 90.0949 21.5843 90.2966 21.3353 90.2966Z" fill="#6589D1"/>
<path d="M21.3353 92.3819H16.7568C16.5077 92.3819 16.3057 92.1799 16.3057 91.9308C16.3057 91.6817 16.5077 91.4797 16.7568 91.4797H21.3353C21.5843 91.4797 21.7864 91.6817 21.7864 91.9308C21.7864 92.1799 21.5843 92.3819 21.3353 92.3819Z" fill="#6589D1"/>
<path d="M21.3353 94.4669H16.7568C16.5077 94.4669 16.3057 94.2648 16.3057 94.0158C16.3057 93.7667 16.5077 93.5646 16.7568 93.5646H21.3353C21.5843 93.5646 21.7864 93.7667 21.7864 94.0158C21.7864 94.2648 21.5843 94.4669 21.3353 94.4669Z" fill="#6589D1"/>
<path d="M21.3353 96.5518H16.7568C16.5077 96.5518 16.3057 96.3498 16.3057 96.1007C16.3057 95.8516 16.5077 95.6496 16.7568 95.6496H21.3353C21.5843 95.6496 21.7864 95.8516 21.7864 96.1007C21.7864 96.3502 21.5843 96.5518 21.3353 96.5518Z" fill="#6589D1"/>
<path d="M21.3353 98.6372H16.7568C16.5077 98.6372 16.3057 98.4351 16.3057 98.1861C16.3057 97.937 16.5077 97.7349 16.7568 97.7349H21.3353C21.5843 97.7349 21.7864 97.937 21.7864 98.1861C21.7864 98.4351 21.5843 98.6372 21.3353 98.6372Z" fill="#6589D1"/>
<path d="M42.8358 88.2116H23.1054C22.8563 88.2116 22.6543 88.0096 22.6543 87.7605C22.6543 87.5114 22.8563 87.3094 23.1054 87.3094H42.8358C43.0849 87.3094 43.2869 87.5114 43.2869 87.7605C43.2873 88.0096 43.0852 88.2116 42.8358 88.2116Z" fill="#3B5FB7"/>
<path d="M42.8358 90.2966H23.1054C22.8563 90.2966 22.6543 90.0945 22.6543 89.8454C22.6543 89.5964 22.8563 89.3943 23.1054 89.3943H42.8358C43.0849 89.3943 43.2869 89.5964 43.2869 89.8454C43.2873 90.0949 43.0852 90.2966 42.8358 90.2966Z" fill="#3B5FB7"/>
<path d="M42.8358 92.3819H23.1054C22.8563 92.3819 22.6543 92.1799 22.6543 91.9308C22.6543 91.6817 22.8563 91.4797 23.1054 91.4797H42.8358C43.0849 91.4797 43.2869 91.6817 43.2869 91.9308C43.2873 92.1799 43.0852 92.3819 42.8358 92.3819Z" fill="#3B5FB7"/>
<path d="M42.8358 94.4669H23.1054C22.8563 94.4669 22.6543 94.2648 22.6543 94.0158C22.6543 93.7667 22.8563 93.5646 23.1054 93.5646H42.8358C43.0849 93.5646 43.2869 93.7667 43.2869 94.0158C43.2873 94.2648 43.0852 94.4669 42.8358 94.4669Z" fill="#3B5FB7"/>
<path d="M42.8358 96.5518H23.1054C22.8563 96.5518 22.6543 96.3498 22.6543 96.1007C22.6543 95.8516 22.8563 95.6496 23.1054 95.6496H42.8358C43.0849 95.6496 43.2869 95.8516 43.2869 96.1007C43.2873 96.3502 43.0852 96.5518 42.8358 96.5518Z" fill="#3B5FB7"/>
<path d="M42.8358 98.6372H23.1054C22.8563 98.6372 22.6543 98.4351 22.6543 98.1861C22.6543 97.937 22.8563 97.7349 23.1054 97.7349H42.8358C43.0849 97.7349 43.2869 97.937 43.2869 98.1861C43.2873 98.4351 43.0852 98.6372 42.8358 98.6372Z" fill="#3B5FB7"/>
<path d="M186.626 97.2991H178.779C177.617 97.2991 176.675 96.3573 176.675 95.1951V87.3475C176.675 86.1857 177.617 85.2438 178.779 85.2438H186.626C187.788 85.2438 188.73 86.1857 188.73 87.3475V95.1951C188.73 96.3573 187.788 97.2991 186.626 97.2991Z" fill="#193091"/>
<path d="M186.11 96.255H177.426C176.495 96.255 175.741 95.5002 175.741 94.5696V85.8854C175.741 84.9544 176.495 84.2001 177.426 84.2001H186.11C187.041 84.2001 187.796 84.9548 187.796 85.8854V94.5696C187.796 95.5002 187.041 96.255 186.11 96.255Z" fill="#7E89FD" stroke="#DEE3FC" stroke-miterlimit="10"/>
<path d="M179.333 93.8271C179.299 93.8271 179.265 93.8227 179.231 93.813C179.032 93.7573 178.917 93.5508 178.973 93.3525L180.796 86.899C180.852 86.6999 181.06 86.5838 181.257 86.6413C181.456 86.6969 181.571 86.9034 181.515 87.1017L179.691 93.5553C179.646 93.72 179.495 93.8271 179.333 93.8271Z" fill="white"/>
<path d="M182.381 93.8271C182.347 93.8271 182.313 93.8227 182.279 93.813C182.081 93.7573 181.965 93.5508 182.022 93.3525L183.845 86.899C183.901 86.6999 184.108 86.5838 184.306 86.6413C184.504 86.6969 184.62 86.9034 184.563 87.1017L182.74 93.5553C182.693 93.72 182.544 93.8271 182.381 93.8271Z" fill="white"/>
<path d="M184.995 89.1382H178.541C178.335 89.1382 178.168 88.9712 178.168 88.7647C178.168 88.5582 178.335 88.3913 178.541 88.3913H184.995C185.201 88.3913 185.368 88.5582 185.368 88.7647C185.368 88.9712 185.201 89.1382 184.995 89.1382Z" fill="white"/>
<path d="M184.995 92.0862H178.541C178.335 92.0862 178.168 91.9192 178.168 91.7127C178.168 91.5062 178.335 91.3393 178.541 91.3393H184.995C185.201 91.3393 185.368 91.5062 185.368 91.7127C185.368 91.9192 185.201 92.0862 184.995 92.0862Z" fill="white"/>
<path d="M41.0935 59.0054H36.4262C36.1435 59.0054 35.9146 58.7761 35.9146 58.4938C35.9146 58.2111 36.1438 57.9822 36.4262 57.9822H41.0935C41.3762 57.9822 41.6051 58.2115 41.6051 58.4938C41.6051 58.7761 41.3762 59.0054 41.0935 59.0054Z" fill="#F0F4FF"/>
<path d="M45.7952 61.2771H36.4262C36.1435 61.2771 35.9146 61.0478 35.9146 60.7655C35.9146 60.4828 36.1438 60.2539 36.4262 60.2539H45.7952C46.0779 60.2539 46.3068 60.4832 46.3068 60.7655C46.3068 61.0482 46.0779 61.2771 45.7952 61.2771Z" fill="#F0F4FF"/>
<path d="M37.5327 63.5492H36.4262C36.1435 63.5492 35.9146 63.3202 35.9146 63.0375C35.9146 62.7548 36.1438 62.5259 36.4262 62.5259H37.5327C37.8154 62.5259 38.0443 62.7548 38.0443 63.0375C38.0443 63.3199 37.8154 63.5492 37.5327 63.5492Z" fill="#F0F4FF"/>
<path d="M45.7956 63.5492H39.2719C38.9892 63.5492 38.7603 63.3202 38.7603 63.0375C38.7603 62.7548 38.9896 62.5259 39.2719 62.5259H45.7956C46.0783 62.5259 46.3073 62.7548 46.3073 63.0375C46.3073 63.3199 46.0783 63.5492 45.7956 63.5492Z" fill="#F0F4FF"/>
<path d="M45.7954 59.0054H42.9662C42.6835 59.0054 42.4546 58.7761 42.4546 58.4938C42.4546 58.2111 42.6839 57.9822 42.9662 57.9822H45.7954C46.0781 57.9822 46.3071 58.2115 46.3071 58.4938C46.3071 58.7761 46.0781 59.0054 45.7954 59.0054Z" fill="#F0F4FF"/>
<path d="M19.4751 128.812C18.8671 128.812 18.298 128.979 17.811 129.269C17.6157 127.527 16.1379 126.172 14.3432 126.172C12.4154 126.172 10.8525 127.735 10.8525 129.662C10.8525 129.792 10.86 129.919 10.8738 130.045C10.7136 130.015 10.5489 129.999 10.3801 129.999C8.90801 129.999 7.71484 131.192 7.71484 132.664C7.71484 134.136 8.90801 135.329 10.3801 135.329H19.4754C21.2751 135.329 22.7338 133.87 22.7338 132.071C22.7338 130.271 21.2747 128.812 19.4751 128.812Z" fill="white"/>
<path d="M1 135.502L218 135.502" stroke="white" stroke-width="1.1144" stroke-miterlimit="10" stroke-linecap="round"/>
</svg>
