<svg width="61" height="61" viewBox="0 0 61 61" fill="none" xmlns="http://www.w3.org/2000/svg">
<path d="M53.375 20.3334C53.3741 19.442 53.1388 18.5665 52.6927 17.7947C52.2466 17.0229 51.6053 16.382 50.8333 15.9363L33.0417 5.76966C32.2689 5.3235 31.3923 5.08862 30.5 5.08862C29.6077 5.08862 28.7311 5.3235 27.9583 5.76966L10.1667 15.9363C9.39467 16.382 8.75345 17.0229 8.30734 17.7947C7.86123 18.5665 7.62591 19.442 7.625 20.3334V40.6667C7.62591 41.5582 7.86123 42.4337 8.30734 43.2055C8.75345 43.9772 9.39467 44.6181 10.1667 45.0638L27.9583 55.2305C28.7311 55.6767 29.6077 55.9115 30.5 55.9115C31.3923 55.9115 32.2689 55.6767 33.0417 55.2305L50.8333 45.0638C51.6053 44.6181 52.2466 43.9772 52.6927 43.2055C53.1388 42.4337 53.3741 41.5582 53.375 40.6667V20.3334Z" stroke="black" stroke-opacity="0.5" stroke-width="3" stroke-linecap="round" stroke-linejoin="round"/>
<path d="M8.38745 17.7917L30.4999 30.5001L52.6125 17.7917" stroke="black" stroke-opacity="0.5" stroke-linecap="round" stroke-linejoin="round"/>
<path d="M30.5 55.9167V30.5" stroke="black" stroke-opacity="0.5" stroke-linecap="round" stroke-linejoin="round"/>
</svg>
