<svg width="76" height="76" viewBox="0 0 76 76" fill="none" xmlns="http://www.w3.org/2000/svg">
<path d="M35.5538 64.7008C35.4254 65.2146 35.1289 65.6708 34.7115 65.9967C34.294 66.3227 33.7797 66.4998 33.25 66.4999C33.0499 66.5009 32.8505 66.4769 32.6563 66.4286L23.1563 64.0536C22.8918 63.9872 22.6407 63.8758 22.4141 63.7241L15.2891 58.9741C14.7651 58.6245 14.4015 58.0811 14.2781 57.4634C14.1548 56.8457 14.2819 56.2043 14.6315 55.6803C14.9811 55.1563 15.5245 54.7926 16.1422 54.6693C16.76 54.546 17.4014 54.6731 17.9254 55.0227L24.706 59.5441L33.8082 61.8212C34.1123 61.8949 34.3988 62.028 34.6513 62.2128C34.9039 62.3976 35.1174 62.6305 35.2796 62.8981C35.4418 63.1657 35.5495 63.4628 35.5966 63.7721C35.6436 64.0815 35.6291 64.3971 35.5538 64.7008ZM74.9461 36.0643C74.7513 36.6562 74.441 37.2036 74.0334 37.675C73.6258 38.1463 73.1288 38.5322 72.5711 38.8104L65.5411 42.3254L49.1893 58.6802C48.899 58.9701 48.5387 59.1799 48.1433 59.2892C47.7479 59.3985 47.3309 59.4034 46.933 59.3036L27.933 54.5536C27.6441 54.4811 27.3712 54.3553 27.1285 54.1826L10.646 42.4144L3.43785 38.8104C2.31132 38.2472 1.45455 37.2597 1.05595 36.065C0.657338 34.8703 0.749522 33.5662 1.31223 32.4394L8.68957 17.6877C9.25272 16.5612 10.2402 15.7044 11.4349 15.3058C12.6296 14.9072 13.9338 14.9994 15.0605 15.5621L21.6096 18.8277L37.3439 14.333C37.7708 14.2109 38.2233 14.2109 38.6502 14.333L54.3846 18.8277L60.9336 15.5621C62.0604 14.9994 63.3645 14.9072 64.5592 15.3058C65.7539 15.7044 66.7414 16.5612 67.3046 17.6877L74.6819 32.4394C74.9633 32.9962 75.1315 33.6032 75.1769 34.2254C75.2222 34.8476 75.1438 35.4726 74.9461 36.0643ZM61.2364 39.9058L53.1585 23.7499H43.7119L30.875 36.2187C34.6335 38.6204 40.5264 39.2824 45.8138 33.9535C46.2267 33.5373 46.779 33.2885 47.3644 33.2551C47.9497 33.2216 48.5268 33.4059 48.9844 33.7724L59.1999 41.9572L61.2364 39.9058ZM5.56051 34.5621L10.8122 37.1894L18.1896 22.4377L12.9379 19.8104L5.56051 34.5621ZM55.8125 45.3208L47.5861 38.7332C41.7852 43.4832 34.4197 44.1096 28.316 40.2176C27.7156 39.8356 27.2086 39.3237 26.8326 38.7195C26.4566 38.1154 26.2212 37.4345 26.1437 36.7272C26.0662 36.0198 26.1486 35.3041 26.3848 34.6328C26.621 33.9616 27.005 33.352 27.5085 32.8491C27.5156 32.8405 27.5236 32.8325 27.5322 32.8254L40.85 19.9083L38 19.0949L23.0316 23.3729L14.9061 39.6208L29.5124 50.056L46.7727 54.3696L55.8125 45.3208ZM70.4307 34.5621L63.0622 19.8104L57.8105 22.4377L65.1878 37.1894L70.4307 34.5621Z" fill="black" fill-opacity="0.5"/>
</svg>
