<svg width="40" height="40" viewBox="0 0 40 40" fill="none" xmlns="http://www.w3.org/2000/svg">
<rect width="40" height="40" rx="20" fill="white" fill-opacity="0.5"/>
<path d="M31.0306 15.2806L28.2274 18.0837C27.6612 24.6481 22.1252 29.7499 15.4999 29.7499C14.1387 29.7499 13.0165 29.5343 12.1643 29.1087C11.4771 28.7646 11.1959 28.3962 11.1255 28.2912C11.0629 28.1972 11.0222 28.0902 11.0067 27.9782C10.9911 27.8663 11.0011 27.7523 11.0358 27.6448C11.0705 27.5372 11.1291 27.4389 11.2071 27.3572C11.2852 27.2754 11.3807 27.2124 11.4865 27.1727C11.5109 27.1634 13.759 26.2999 15.1868 24.6565C14.395 24.0055 13.7037 23.241 13.1355 22.3877C11.973 20.6618 10.6718 17.6637 11.073 13.1834C11.0858 13.041 11.1389 12.9052 11.2262 12.7921C11.3135 12.6789 11.4313 12.593 11.5658 12.5445C11.7002 12.4961 11.8457 12.487 11.9852 12.5185C12.1246 12.55 12.2521 12.6206 12.3527 12.7221C12.3855 12.7549 15.4727 15.8252 19.2471 16.8209V16.2499C19.2457 15.6512 19.364 15.0583 19.5952 14.5061C19.8265 13.9538 20.1658 13.4534 20.5934 13.0343C21.0086 12.6197 21.5026 12.2924 22.0464 12.0718C22.5901 11.8512 23.1726 11.7418 23.7593 11.7499C24.5464 11.7577 25.3181 11.969 25.9993 12.3633C26.6806 12.7575 27.2483 13.3214 27.6471 13.9999H30.4999C30.6483 13.9998 30.7935 14.0437 30.9169 14.1261C31.0404 14.2085 31.1366 14.3257 31.1934 14.4628C31.2502 14.6 31.2651 14.7509 31.2361 14.8964C31.2071 15.042 31.1356 15.1757 31.0306 15.2806Z" fill="black"/>
</svg>
