<svg width="40" height="40" viewBox="0 0 40 40" fill="none" xmlns="http://www.w3.org/2000/svg">
<rect width="40" height="40" rx="20" fill="#0745E8"/>
<path d="M31.0308 15.2806L28.2277 18.0837C27.6614 24.6481 22.1255 29.7499 15.5002 29.7499C14.1389 29.7499 13.0167 29.5343 12.1645 29.1087C11.4774 28.7646 11.1961 28.3962 11.1258 28.2912C11.0631 28.1972 11.0225 28.0902 11.0069 27.9782C10.9914 27.8663 11.0013 27.7523 11.036 27.6448C11.0707 27.5372 11.1293 27.4389 11.2074 27.3572C11.2854 27.2754 11.3809 27.2124 11.4867 27.1727C11.5111 27.1634 13.7592 26.2999 15.187 24.6565C14.3952 24.0055 13.704 23.241 13.1358 22.3877C11.9733 20.6618 10.672 17.6637 11.0733 13.1834C11.086 13.041 11.1391 12.9052 11.2264 12.7921C11.3137 12.6789 11.4315 12.593 11.566 12.5445C11.7005 12.4961 11.846 12.487 11.9854 12.5185C12.1248 12.55 12.2524 12.6206 12.353 12.7221C12.3858 12.7549 15.473 15.8252 19.2474 16.8209V16.2499C19.2459 15.6512 19.3643 15.0583 19.5955 14.5061C19.8267 13.9538 20.1661 13.4534 20.5936 13.0343C21.0088 12.6197 21.5029 12.2924 22.0466 12.0718C22.5904 11.8512 23.1728 11.7418 23.7595 11.7499C24.5466 11.7577 25.3183 11.969 25.9996 12.3633C26.6808 12.7575 27.2485 13.3214 27.6474 13.9999H30.5002C30.6486 13.9998 30.7937 14.0437 30.9172 14.1261C31.0406 14.2085 31.1368 14.3257 31.1936 14.4628C31.2504 14.6 31.2653 14.7509 31.2363 14.8964C31.2073 15.042 31.1358 15.1757 31.0308 15.2806Z" fill="black"/>
</svg>
