<svg width="200" height="50" viewBox="0 0 200 50" fill="none" xmlns="http://www.w3.org/2000/svg">
<g clip-path="url(#clip0_73_295)">
<path d="M175.184 16.832C176.295 16.832 177.209 16.2228 177.332 15.4359L178.429 2.35443C178.429 1.06145 176.993 0 175.188 0C173.384 0 171.95 1.06145 171.95 2.35465L173.046 15.4359C173.166 16.2226 174.08 16.832 175.188 16.832H175.184M168.483 20.9179C169.04 19.9045 168.998 18.7656 168.411 18.2596L158.219 10.7172C157.159 10.0698 155.57 10.8491 154.669 12.4989C153.764 14.1466 153.924 15.9869 154.981 16.6345L166.266 22.178C166.972 22.4538 167.934 21.9229 168.486 20.9102L168.483 20.9179M181.892 20.9109C182.448 21.9236 183.405 22.4548 184.111 22.1787L195.396 16.6352C196.46 15.9878 196.611 14.1473 195.714 12.4996C194.808 10.8514 193.216 10.0705 192.16 10.7179L181.967 18.2603C181.385 18.7656 181.341 19.9055 181.895 20.9186L181.892 20.9109M175.184 33.1727C176.295 33.1727 177.209 33.7767 177.332 34.5644L178.429 47.6439C178.429 48.9409 176.993 50 175.188 50C173.384 50 171.95 48.9409 171.95 47.6439L173.046 34.5644C173.166 33.7767 174.08 33.1727 175.188 33.1727H175.184M181.892 29.0858C182.448 28.0703 183.405 27.5438 184.111 27.823L195.396 33.3627C196.46 34.0108 196.611 35.8529 195.714 37.502C194.808 39.1449 193.216 39.9279 192.16 39.2814L181.967 31.746C181.385 31.2367 181.341 30.0962 181.895 29.0837H181.891M168.483 29.0844C169.04 30.0962 168.998 31.2367 168.411 31.7469L158.219 39.2821C157.159 39.9286 155.57 39.1456 154.669 37.5027C153.764 35.8536 153.924 34.0115 154.981 33.3634L166.266 27.8237C166.972 27.5445 167.934 28.071 168.486 29.0868H168.483" fill="white" fill-opacity="0.6"/>
<path d="M110.897 31.7222C110.897 32.1237 110.863 32.5377 110.759 32.9013C110.327 34.4116 108.845 35.6887 106.99 35.6887C105.444 35.6887 104.216 34.7621 104.216 32.8052C104.216 29.8101 107.341 28.983 110.898 29.0037L110.897 31.722V31.7222ZM116.476 26.5027C116.476 21.564 114.476 17.2183 107.717 17.2183C104.248 17.2183 101.494 18.2464 99.9912 19.1627L101.092 23.1331C102.466 22.2182 104.655 21.4608 106.727 21.4608C110.155 21.4508 110.716 23.5091 110.716 24.8263V25.1381C103.243 25.1264 98.5192 27.8564 98.5192 33.4176C98.5192 36.8157 100.925 39.9984 105.108 39.9984C107.678 39.9984 109.83 38.9162 111.118 37.181H111.245C111.245 37.181 112.098 40.9483 116.803 39.5069C116.558 37.9402 116.477 36.2677 116.477 34.2566L116.476 26.5027M0.0375977 10.4925C0.0375977 10.4925 4.92108 31.6034 5.70089 35.0296C6.61056 39.0287 8.25004 40.5009 12.9747 39.5069L16.0238 26.4189C16.797 23.1664 17.3144 20.8475 17.8126 17.5422H17.8993C18.2491 20.8825 18.7453 23.1765 19.3815 26.4297C19.3815 26.4297 20.6221 32.3718 21.2586 35.4917C21.8957 38.6107 23.669 40.5777 28.2974 39.5069L35.5633 10.4916H29.6987L27.217 23.0369C26.5498 26.6871 25.945 29.5426 25.4782 32.8812H25.3952C24.9711 29.572 24.4311 26.833 23.7535 23.2757L21.1719 10.4916H15.0604L12.2973 22.9534C11.5153 26.7413 10.7819 29.7986 10.3174 33.0262H10.2329C9.7559 29.987 9.12099 26.1428 8.43388 22.4779C8.43388 22.4779 6.79351 13.5641 6.21656 10.4916L0.0375977 10.4925M46.6567 31.7222C46.6567 32.1237 46.6228 32.5377 46.5171 32.9013C46.0857 34.4116 44.6026 35.6887 42.7483 35.6887C41.202 35.6887 39.9758 34.7621 39.9758 32.8052C39.9758 29.8101 43.0996 28.983 46.6573 29.0037L46.6567 31.722V31.7222ZM52.2352 26.5027C52.2352 21.564 50.235 17.2183 43.4775 17.2183C40.0072 17.2183 37.2514 18.2464 35.7493 19.1627L36.8488 23.1331C38.2221 22.2182 40.4114 21.4608 42.4838 21.4608C45.9145 21.4508 46.4759 23.5091 46.4759 24.8263V25.1381C38.9997 25.1264 34.278 27.8564 34.278 33.4176C34.278 36.8157 36.6826 39.9984 40.862 39.9984C43.4355 39.9984 45.5866 38.9162 46.8764 37.181H47.002C47.002 37.181 47.8568 40.9483 52.5613 39.5069C52.3153 37.9402 52.2352 36.2677 52.2352 34.2566V26.5027M61.5456 33.3478V10.4925H55.9597V39.5078H61.5456V33.3478ZM134.619 10.4925V31.8966C134.619 34.8489 135.147 36.9151 136.271 38.1796C137.257 39.2852 138.877 40.0008 140.819 40.0008C142.471 40.0008 144.095 39.6682 144.862 39.3683L144.79 34.7645C144.22 34.9115 143.565 35.0305 142.668 35.0305C140.765 35.0305 140.128 33.7441 140.128 31.0949V22.9053H144.993V17.353H140.128V10.4925H134.619M120.201 17.7105V39.5078H125.963V28.3472C125.963 27.7439 125.998 27.2183 126.088 26.7375C126.514 24.3985 128.209 22.9053 130.643 22.9053C131.31 22.9053 131.788 22.9818 132.305 23.0593V17.353C131.871 17.2617 131.576 17.219 131.036 17.219C128.886 17.219 126.439 18.6828 125.413 21.8228H125.257V17.7105H120.201ZM65.4568 17.7105V39.5078H71.0708V26.7259C71.0708 26.126 71.1376 25.4917 71.3345 24.9418C71.7997 23.6549 72.935 22.1477 74.7466 22.1477C77.013 22.1477 78.0714 24.1681 78.0714 27.0841V39.5062H83.6809V26.5686C83.6809 25.9963 83.755 25.3064 83.9154 24.8018C84.376 23.3371 85.5989 22.1461 87.2833 22.1461C89.5798 22.1461 90.6822 24.131 90.6822 27.5633V39.5055H96.2955V26.6668C96.2955 19.8969 93.0368 17.2169 89.3579 17.2169C87.7302 17.2169 86.444 17.647 85.2808 18.399C84.3041 19.0338 83.428 19.9333 82.6637 21.1157H82.5808C81.6937 18.7666 79.6064 17.2181 76.8865 17.2181C73.3923 17.2181 71.8218 19.0868 70.8693 20.6715H70.7856V17.7098H65.4568" fill="white" fill-opacity="0.6"/>
<path d="M198.227 38.4479H198.311C198.424 38.4479 198.496 38.3989 198.496 38.3261C198.496 38.2433 198.428 38.1982 198.324 38.1982C198.288 38.1982 198.251 38.2059 198.227 38.2059V38.45V38.4477L198.227 38.4479ZM198.214 39.0356H197.915V38.0099C197.983 37.9959 198.141 37.9709 198.343 37.9709C198.563 37.9709 198.661 38.0036 198.733 38.0549C198.794 38.0997 198.838 38.1763 198.838 38.2797C198.838 38.3849 198.746 38.4741 198.611 38.513V38.5261C198.721 38.5572 198.782 38.6416 198.813 38.7898C198.843 38.9378 198.862 38.9983 198.881 39.0363H198.543C198.513 38.9983 198.496 38.9075 198.476 38.8169C198.457 38.7131 198.41 38.661 198.311 38.661H198.213L198.214 39.0356V39.0356ZM198.337 37.6756C197.908 37.6756 197.585 38.0439 197.585 38.5135C197.585 38.971 197.909 39.3441 198.349 39.3441C198.79 39.3518 199.114 38.9712 199.114 38.506C199.114 38.043 198.79 37.6756 198.344 37.6756H198.337ZM198.356 37.3972C198.953 37.3972 199.43 37.8934 199.43 38.5058C199.43 39.1255 198.953 39.6223 198.348 39.6223C197.743 39.6223 197.26 39.1248 197.26 38.506C197.26 37.8934 197.743 37.3975 198.348 37.3975H198.355" fill="white" fill-opacity="0.6"/>
</g>
<defs>
<clipPath id="clip0_73_295">
<rect width="200" height="50" fill="white"/>
</clipPath>
</defs>
</svg>
