<svg width="221" height="221" viewBox="0 0 221 221" fill="none" xmlns="http://www.w3.org/2000/svg">
<circle cx="110.5" cy="110.5" r="110" stroke="white"/>
<path d="M103.128 205.154C101.659 205.06 100.394 204.616 99.3334 203.822C98.2512 203.026 97.3734 202.04 96.7002 200.864C96.0057 199.687 95.5109 198.394 95.2159 196.986C94.8982 195.598 94.7801 194.265 94.8615 192.987C94.943 191.71 95.23 190.392 95.7228 189.034C96.1928 187.696 96.8471 186.487 97.6854 185.408C98.5025 184.327 99.4983 183.46 100.673 182.809C101.826 182.155 103.137 181.875 104.606 181.969C106.075 182.063 107.351 182.507 108.433 183.303C109.515 184.099 110.404 185.085 111.098 186.263C111.771 187.439 112.267 188.721 112.585 190.109C112.88 191.517 112.986 192.86 112.905 194.138C112.824 195.415 112.548 196.723 112.078 198.061C111.585 199.419 110.93 200.638 110.113 201.719C109.275 202.799 108.268 203.665 107.094 204.317C105.919 204.968 104.597 205.248 103.128 205.154ZM104.715 203.908C105.63 203.967 106.392 203.748 107.001 203.253C107.61 202.757 108.099 202.125 108.469 201.358C108.838 200.591 109.115 199.775 109.298 198.91C109.46 198.044 109.564 197.259 109.608 196.557C109.649 195.918 109.634 195.148 109.563 194.245C109.471 193.342 109.328 192.403 109.134 191.428C108.917 190.474 108.636 189.515 108.291 188.553C107.925 187.589 107.499 186.717 107.015 185.938C106.507 185.179 105.928 184.544 105.276 184.032C104.624 183.541 103.882 183.27 103.052 183.217C102.136 183.158 101.374 183.377 100.765 183.873C100.157 184.368 99.6674 185 99.2978 185.767C98.9283 186.534 98.6624 187.351 98.5004 188.217C98.317 189.082 98.2029 189.866 98.1581 190.568C98.116 191.228 98.1417 191.999 98.2351 192.882C98.3058 193.784 98.4497 194.713 98.6668 195.667C98.8612 196.641 99.1415 197.61 99.5076 198.574C99.8524 199.537 100.278 200.398 100.786 201.157C101.271 201.936 101.839 202.571 102.492 203.061C103.144 203.573 103.884 203.855 104.715 203.908Z" fill="white"/>
<path d="M87.1004 191.639C86.7978 192.46 86.6754 193.131 86.7332 193.653C86.7836 194.194 86.8983 194.623 87.0773 194.939C87.309 195.298 87.6139 195.58 87.9921 195.788L87.8703 196.118C86.9422 195.799 86.0794 195.549 85.2819 195.369C84.477 195.208 83.6089 195.127 82.6775 195.124L82.4927 194.886L86.5669 183.837C87.423 181.515 87.1005 180.077 85.5993 179.524C85.119 179.347 84.6454 179.274 84.1787 179.307C83.7045 179.36 83.252 179.477 82.821 179.659C82.3827 179.861 81.9696 180.118 81.5818 180.43C81.174 180.734 80.8025 181.063 80.4673 181.417C79.6727 182.216 78.9265 183.191 78.2287 184.343L76.9223 187.886C76.6197 188.707 76.4973 189.378 76.5551 189.9C76.6055 190.441 76.7202 190.87 76.8992 191.186C77.1309 191.544 77.4359 191.827 77.814 192.035L77.6922 192.365C76.7641 192.046 75.9013 191.796 75.1038 191.615C74.2989 191.455 73.4308 191.374 72.4994 191.371L72.3146 191.133L76.7652 179.063C77.0678 178.242 77.1902 177.571 77.1324 177.05C77.0746 176.528 76.9462 176.106 76.7472 175.782C76.5429 175.411 76.2517 175.122 75.8735 174.914L75.9953 174.584L81.1294 176.477L79.5019 180.891C79.8244 180.509 80.2491 180.098 80.776 179.655C81.2755 179.226 81.8578 178.849 82.5227 178.526C83.1802 178.223 83.9119 178.026 84.718 177.937C85.524 177.848 86.3973 177.976 87.3381 178.323C88.7592 178.847 89.6414 179.661 89.9845 180.766C90.3203 181.89 90.1819 183.283 89.5693 184.944L87.1004 191.639Z" fill="white"/>
<path d="M67.1722 172.819C67.6805 172.107 67.9756 171.492 68.0574 170.974C68.1392 170.455 68.1268 170.014 68.0201 169.649C67.9209 169.238 67.7163 168.882 67.4063 168.582L67.6108 168.295L73.9127 172.796L73.7081 173.082C73.3237 172.887 72.912 172.802 72.4731 172.83C72.111 172.859 71.6981 172.997 71.2344 173.243C70.7706 173.488 70.2846 173.967 69.7763 174.679L64.9966 181.371C64.4883 182.083 64.1932 182.698 64.1114 183.216C64.0172 183.752 64.0147 184.196 64.104 184.548C64.233 184.955 64.4525 185.308 64.7625 185.608L64.558 185.894C63.747 185.342 62.9806 184.873 62.259 184.489C61.5249 184.122 60.7089 183.814 59.8112 183.566L59.6958 183.287L61.909 180.188C61.5445 180.478 61.139 180.753 60.6926 181.01C60.2289 181.256 59.7379 181.43 59.2196 181.531C58.7013 181.633 58.1743 181.637 57.6386 181.543C57.0732 181.453 56.504 181.204 55.9311 180.795C55.5665 180.535 55.2764 180.262 55.0606 179.977C54.8324 179.709 54.6539 179.463 54.5249 179.24C54.3736 178.975 54.2694 178.717 54.2124 178.466L56.0758 174.371L56.3845 174.434C56.2705 175.218 56.2259 175.959 56.2508 176.658C56.2905 177.264 56.4157 177.877 56.6266 178.5C56.8374 179.122 57.2032 179.619 57.7241 179.991C58.0886 180.252 58.4718 180.394 58.8735 180.419C59.2455 180.449 59.6349 180.399 60.0416 180.27C60.4185 180.146 60.8004 179.96 61.1873 179.712C61.5742 179.464 61.9412 179.189 62.2883 178.886C63.1042 178.184 63.9138 177.308 64.7173 176.256L67.1722 172.819Z" fill="white"/>
<path d="M41.9116 135.381L42.2192 135.21L45.9683 141.949L45.6607 142.12C45.3973 141.779 45.0667 141.535 44.6688 141.391C44.3185 141.244 43.8864 141.191 43.3726 141.233C42.8484 141.256 42.2041 141.48 41.4397 141.905L30.9252 147.754L47.2906 144.326L48.5351 146.563L45.8172 149.577C45.7985 149.587 45.7757 149.612 45.7488 149.651L37.2379 159.036L47.7245 153.203C48.4888 152.778 49.0191 152.348 49.3151 151.915C49.6112 151.482 49.7892 151.078 49.849 150.703C49.9358 150.288 49.9035 149.879 49.752 149.475L50.0596 149.304L52.782 154.198L52.4743 154.369C52.211 154.027 51.8752 153.774 51.4669 153.611C51.127 153.483 50.6949 153.43 50.1707 153.453C49.6465 153.476 49.0022 153.7 48.2379 154.126L35.0108 161.484C34.5117 162.079 34.1618 162.591 33.9611 163.02C33.7313 163.441 33.5896 163.8 33.5359 164.099C33.4449 164.418 33.4378 164.69 33.5146 164.916L33.207 165.087L29.909 159.159L30.2166 158.988C30.4592 159.292 30.7494 159.485 31.0872 159.565C31.396 159.638 31.682 159.625 31.9451 159.527C32.2082 159.43 32.3863 159.355 32.4795 159.303C32.871 159.085 33.3215 158.688 33.8309 158.112L44.9666 145.875L32.8867 148.384C31.4012 148.698 30.239 149.088 29.4001 149.555C28.5612 150.022 27.9626 150.525 27.6045 151.066C27.2463 151.607 27.0839 152.149 27.1174 152.692C27.1509 153.235 27.3024 153.749 27.5721 154.234L27.2644 154.405L22.6286 146.071L22.9363 145.9C23.2555 146.211 23.6514 146.418 24.1239 146.521C24.5487 146.627 25.0792 146.637 25.7153 146.551C26.3514 146.466 27.1261 146.169 28.0396 145.661L39.8685 139.081C40.6329 138.656 41.1631 138.226 41.4592 137.793C41.7552 137.36 41.9384 136.965 42.0086 136.609C42.0954 136.194 42.0631 135.785 41.9116 135.381Z" fill="white"/>
<path d="M20.427 132.239L20.5167 132.579C20.6364 133.033 20.8917 133.374 21.2827 133.602C21.6737 133.83 22.0858 133.886 22.519 133.772L23.5401 133.503L23.6543 133.936L22.6332 134.205C22.2 134.32 21.8695 134.572 21.6417 134.963C21.4138 135.354 21.3597 135.777 21.4794 136.23L21.5773 136.602L21.1441 136.716L21.0462 136.345C20.9265 135.891 20.6712 135.55 20.2802 135.322C19.8892 135.094 19.4668 135.04 19.0129 135.16L17.9918 135.429L17.8776 134.996L18.8987 134.727C19.3525 134.607 19.6934 134.352 19.9212 133.961C20.1491 133.57 20.2032 133.147 20.0835 132.693L19.9938 132.353L20.427 132.239ZM40.4639 125.268L42.4382 132.756L42.0979 132.846C41.9272 132.45 41.6643 132.122 41.3091 131.863C41.0115 131.654 40.6058 131.496 40.0922 131.389C39.5785 131.282 38.8988 131.34 38.053 131.563L30.1008 133.659C29.255 133.882 28.6352 134.167 28.2412 134.514C27.8265 134.866 27.5411 135.206 27.3849 135.534C27.2244 135.929 27.1676 136.341 27.2145 136.77L26.8741 136.86C26.6033 135.916 26.313 135.066 26.0032 134.31C25.6727 133.558 25.2413 132.801 24.7089 132.037L24.7983 131.748L37.2372 128.469C38.083 128.246 38.7029 127.961 39.0969 127.614C39.4909 127.268 39.7632 126.92 39.914 126.571C40.1006 126.191 40.1704 125.787 40.1235 125.358L40.4639 125.268Z" fill="white"/>
<path d="M22.3417 115.078C22.2996 114.29 22.2986 113.671 22.3386 113.22C22.3786 112.769 22.3913 112.405 22.3765 112.128C22.356 111.745 22.2381 111.537 22.0228 111.506C21.8063 111.454 21.6129 111.432 21.4425 111.441C21.2934 111.449 21.1347 111.479 20.9666 111.531L20.8217 111.218L27.5627 109.031L27.6756 109.346C26.9102 109.814 26.2658 110.35 25.7427 110.955C25.1971 111.54 24.7597 112.15 24.4306 112.788C24.079 113.405 23.8344 114.026 23.697 114.653C23.5584 115.259 23.5039 115.839 23.5335 116.393C23.5768 117.202 23.7937 117.863 24.1843 118.377C24.5536 118.891 25.0577 119.131 25.6968 119.097C26.3785 119.061 26.9182 118.765 27.3158 118.209C27.7134 117.654 28.0616 116.973 28.3604 116.167C28.658 115.339 28.9522 114.447 29.243 113.492C29.5124 112.538 29.8711 111.653 30.319 110.839C30.7657 110.003 31.337 109.3 32.0329 108.728C32.7288 108.157 33.6412 107.841 34.7703 107.781C35.665 107.733 36.4203 107.875 37.0361 108.205C37.6508 108.514 38.1433 108.936 38.5138 109.472C38.8842 110.008 39.1521 110.623 39.3174 111.32C39.503 111.993 39.6139 112.671 39.6503 113.353C39.7004 114.29 39.6512 115.169 39.5027 115.988C39.3755 116.807 39.2112 117.531 39.0099 118.162C38.7929 118.9 38.5412 119.586 38.2546 120.221L32.776 121.443L32.6665 121.192C33.8154 120.704 34.8398 120.083 35.7395 119.33C36.1071 119.011 36.4723 118.65 36.8353 118.246C37.1983 117.842 37.5164 117.398 37.7896 116.913C38.0628 116.428 38.2799 115.893 38.4409 115.308C38.5806 114.724 38.6328 114.101 38.5976 113.441C38.5373 112.312 38.2608 111.536 37.7683 111.114C37.2533 110.671 36.6443 110.469 35.9413 110.506C35.1105 110.551 34.4536 110.853 33.9708 111.413C33.488 111.973 33.0759 112.657 32.7345 113.466C32.3932 114.274 32.0984 115.155 31.8502 116.109C31.5807 117.063 31.2647 117.945 30.902 118.755C30.5393 119.565 30.074 120.252 29.5059 120.816C28.9379 121.381 28.1852 121.688 27.2479 121.738C26.694 121.768 26.1445 121.68 25.5994 121.474C25.0544 121.268 24.5546 120.91 24.1001 120.4C23.6231 119.87 23.2335 119.175 22.9312 118.315C22.6076 117.457 22.4111 116.378 22.3417 115.078Z" fill="white"/>
<path d="M23.9558 94.1443C24.1011 93.3685 24.2465 92.7663 24.3919 92.3377C24.5372 91.9091 24.6355 91.5586 24.6865 91.286C24.7572 90.9085 24.6916 90.6792 24.4898 90.598C24.2919 90.4958 24.1091 90.429 23.9413 90.3976C23.7946 90.3701 23.6334 90.3616 23.4578 90.3721L23.3909 90.034L30.4576 89.5019L30.4931 89.8341C29.6387 90.1082 28.8859 90.4773 28.2346 90.9413C27.5664 91.3804 26.997 91.8707 26.5267 92.412C26.0393 92.9284 25.6547 93.475 25.3731 94.0516C25.0954 94.6073 24.9055 95.1578 24.8033 95.703C24.6541 96.4998 24.7086 97.1937 24.9669 97.7847C25.2042 98.3717 25.6374 98.7242 26.2665 98.842C26.9375 98.9677 27.5317 98.8077 28.0493 98.362C28.5669 97.9163 29.066 97.337 29.5469 96.624C30.0316 95.89 30.5281 95.0932 31.0364 94.2334C31.5238 93.3697 32.0812 92.5951 32.7088 91.9095C33.3404 91.2031 34.0617 90.6545 34.8728 90.2638C35.6839 89.8731 36.6452 89.7819 37.7565 89.99C38.6372 90.155 39.3377 90.4707 39.8581 90.9371C40.3824 91.3826 40.7612 91.9093 40.9946 92.5173C41.228 93.1254 41.3428 93.7871 41.339 94.5027C41.3601 95.2012 41.3078 95.8859 41.1821 96.5569C41.0093 97.4795 40.7539 98.3216 40.4159 99.083C40.0989 99.8484 39.7682 100.514 39.4236 101.078C39.0385 101.744 38.6317 102.352 38.2032 102.901L32.591 102.794L32.5438 102.525C33.7756 102.321 34.9176 101.96 35.9699 101.441C36.4023 101.218 36.8426 100.953 37.2907 100.646C37.7388 100.34 38.1529 99.9831 38.5328 99.5768C38.9128 99.1705 39.2502 98.7019 39.5449 98.1711C39.8187 97.6364 40.0165 97.044 40.1383 96.394C40.3464 95.2826 40.2611 94.4636 39.8822 93.9368C39.4864 93.3852 38.9424 93.0446 38.2505 92.9149C37.4327 92.7618 36.7231 92.9002 36.1216 93.3301C35.5202 93.7601 34.9581 94.3276 34.4354 95.0328C33.9126 95.7379 33.4181 96.5243 32.9517 97.392C32.4643 98.2557 31.9488 99.0381 31.4051 99.7394C30.8614 100.441 30.2469 100.998 29.5615 101.413C28.8762 101.827 28.0723 101.948 27.1496 101.775C26.6045 101.673 26.0914 101.457 25.6103 101.128C25.1293 100.799 24.7282 100.334 24.407 99.7309C24.0688 99.1032 23.8544 98.3359 23.7638 97.4291C23.6522 96.5183 23.7162 95.4234 23.9558 94.1443Z" fill="white"/>
<path d="M26.0509 73.6864L25.9172 74.0121C25.7389 74.4462 25.737 74.8721 25.9115 75.2896C26.086 75.7072 26.3805 76.0011 26.7949 76.1712L27.7718 76.5723L27.6016 76.9867L26.6247 76.5856C26.2103 76.4155 25.7943 76.4176 25.3767 76.5921C24.9592 76.7666 24.6613 77.0709 24.483 77.5051L24.3372 77.8603L23.9227 77.6902L24.0686 77.3349C24.2468 76.9008 24.2487 76.4749 24.0743 76.0573C23.8998 75.6398 23.5955 75.3419 23.1613 75.1636L22.1844 74.7625L22.3546 74.3481L23.3315 74.7492C23.7656 74.9275 24.1915 74.9293 24.609 74.7549C25.0266 74.5804 25.3245 74.2761 25.5028 73.8419L25.6365 73.5163L26.0509 73.6864ZM46.2377 80.2106L43.2964 87.3742L42.9708 87.2405C43.0736 86.8215 43.0616 86.4015 42.9347 85.9804C42.8229 85.6347 42.5946 85.2642 42.2495 84.8689C41.9045 84.4735 41.3274 84.1098 40.5183 83.7776L32.9106 80.654C32.1014 80.3218 31.4352 80.1751 30.9119 80.2139C30.3689 80.2446 29.9362 80.3437 29.6138 80.5111C29.2473 80.7296 28.9535 81.0241 28.7322 81.3945L28.4066 81.2608C28.7596 80.3449 29.0407 79.4917 29.2499 78.7013C29.4394 77.9027 29.5522 77.0381 29.5884 76.1075L29.8337 75.9314L41.7337 80.8174C42.5428 81.1496 43.209 81.2963 43.7323 81.2574C44.2556 81.2186 44.6825 81.1056 45.013 80.9185C45.3911 80.7278 45.6908 80.4472 45.9121 80.0769L46.2377 80.2106Z" fill="white"/>
<path d="M38.7672 59.9615C39.4404 59.0005 40.2594 58.2589 41.2243 57.7367C42.184 57.1847 43.1978 56.853 44.2657 56.7415C45.3283 56.6003 46.404 56.6636 47.4927 56.9314C48.5814 57.1992 49.5888 57.6574 50.5149 58.3061C51.4409 58.9548 52.2245 59.7512 52.8656 60.6952C53.4892 61.6269 53.9249 62.6224 54.1727 63.6816C54.4153 64.711 54.4499 65.7771 54.2765 66.8799C54.0978 67.9529 53.6719 68.9699 52.9987 69.9309C52.3255 70.8919 51.5091 71.6484 50.5494 72.2003C49.5845 72.7225 48.5707 73.0543 47.5081 73.1955C46.428 73.3244 45.3435 73.255 44.2548 72.9872C43.1486 72.7072 42.1325 72.2429 41.2064 71.5941C40.2804 70.9454 39.5056 70.1552 38.882 69.2235C38.2584 68.2917 37.8314 67.3024 37.601 66.2554C37.3532 65.1963 37.3187 64.1301 37.4973 63.0571C37.6707 61.9544 38.094 60.9225 38.7672 59.9615ZM50.2777 62.047C49.5787 61.5574 48.7103 61.1053 47.6723 60.6908C46.6343 60.2762 45.5692 60.0119 44.4769 59.8979C43.3794 59.7543 42.3334 59.8159 41.3389 60.083C40.3566 60.3326 39.5717 60.8767 38.9842 61.7154C38.5925 62.2745 38.4193 62.8565 38.4645 63.4612C38.5045 64.0362 38.6747 64.6112 38.9751 65.1863C39.2703 65.7317 39.6432 66.2404 40.094 66.7124C40.557 67.167 41.0156 67.5534 41.4699 67.8716C42.1688 68.3612 43.0372 68.8133 44.0752 69.2279C45.1132 69.6424 46.181 69.9216 47.2785 70.0653C48.3707 70.1792 49.408 70.1114 50.3903 69.8618C51.3848 69.5948 52.1759 69.0419 52.7634 68.2032C53.1551 67.6441 53.3222 67.0709 53.2647 66.4837C53.2195 65.8789 53.0492 65.3039 52.7541 64.7585C52.4711 64.1957 52.0982 63.687 51.6352 63.2324C51.167 62.7481 50.7145 62.353 50.2777 62.047Z" fill="white"/>
<path d="M65.4254 55.6806L65.6456 55.9552L59.6036 60.7992L59.3834 60.5245C59.6762 60.2077 59.8691 59.8344 59.9619 59.4045C60.0315 59.0479 60.0111 58.6132 59.9006 58.1002C59.7901 57.5872 59.4613 56.9895 58.9142 56.3071L53.77 49.8906C53.2229 49.2082 52.711 48.7572 52.2344 48.5378C51.7444 48.3018 51.3178 48.179 50.9546 48.1694C50.5282 48.1831 50.1285 48.2985 49.7556 48.5154L49.5354 48.2408C50.2877 47.6103 50.9467 46.9999 51.5125 46.4096C52.0649 45.8027 52.5823 45.1008 53.0645 44.304L53.3644 44.2687L56.4669 48.1386C56.3231 47.6523 56.1959 47.0844 56.0853 46.4349C55.978 45.7553 55.9722 45.049 56.0681 44.3159C56.1506 43.5662 56.3697 42.8163 56.7254 42.0663C57.0978 41.303 57.6918 40.5944 58.5073 39.9405C59.1398 39.4334 59.7375 39.1046 60.3004 38.9541C60.8633 38.8036 61.4081 38.818 61.9347 38.9974C62.4646 39.1468 62.993 39.4477 63.5199 39.9003C64.0334 40.3362 64.5704 40.9037 65.1308 41.6028L69.8747 47.5199C70.4218 48.2024 70.9337 48.6533 71.4104 48.8727C71.887 49.0921 72.3153 49.1999 72.6951 49.1962C73.1182 49.2124 73.5163 49.112 73.8892 48.8951L74.1094 49.1697L68.0674 54.0137L67.8472 53.739C68.14 53.4222 68.3329 53.0489 68.4257 52.619C68.4953 52.2624 68.4749 51.8276 68.3644 51.3147C68.2539 50.8017 67.9251 50.204 67.378 49.5216L62.6342 43.6044C61.8335 42.6057 61.0882 42.0001 60.3983 41.7876C59.7118 41.5451 59.0273 41.6974 58.3448 42.2445C57.9287 42.5781 57.6209 42.9616 57.4215 43.3949C57.2087 43.8116 57.0759 44.2599 57.0231 44.7397C56.9569 45.2029 56.9574 45.681 57.0246 46.174C57.0917 46.667 57.1905 47.1484 57.3209 47.618C57.6253 48.7138 58.1079 49.8444 58.7688 51.0098L61.4109 54.3055C61.958 54.9879 62.4699 55.4388 62.9466 55.6582C63.4232 55.8776 63.8515 55.9854 64.2313 55.9817C64.6544 55.9979 65.0525 55.8976 65.4254 55.6806Z" fill="white"/>
<path d="M87.8068 18.4836L90.0767 17.9317L97.6445 49.0569L95.3746 49.6088L87.8068 18.4836Z" fill="white"/>
<path d="M129.922 19.2699C131.367 19.5524 132.564 20.156 133.513 21.0807C134.484 22.0095 135.227 23.1004 135.743 24.3533C136.28 25.6103 136.603 26.9561 136.714 28.3907C136.85 29.8084 136.795 31.1454 136.549 32.4016C136.304 33.6578 135.849 34.9275 135.185 36.2106C134.546 37.4769 133.742 38.5912 132.771 39.5535C131.821 40.5199 130.722 41.2505 129.473 41.7454C128.245 42.2444 126.909 42.3527 125.464 42.0702C124.02 41.7878 122.812 41.1821 121.842 40.2533C120.871 39.3245 120.117 38.2316 119.581 36.9746C119.065 35.7216 118.739 34.3863 118.603 32.9686C118.492 31.534 118.56 30.1886 118.805 28.9324C119.051 27.6762 119.493 26.4149 120.132 25.1486C120.796 23.8655 121.603 22.7408 122.553 21.7744C123.523 20.8121 124.633 20.0835 125.882 19.5886C127.131 19.0937 128.477 18.9875 129.922 19.2699ZM128.188 20.3003C127.288 20.1243 126.504 20.2428 125.836 20.6557C125.169 21.0686 124.602 21.6316 124.137 22.3449C123.671 23.0582 123.292 23.8317 122.998 24.6656C122.726 25.5035 122.522 26.268 122.387 26.9589C122.264 27.587 122.179 28.353 122.133 29.2569C122.108 30.1649 122.128 31.1146 122.195 32.1058C122.288 33.0803 122.442 34.067 122.66 35.066C122.899 36.0691 123.208 36.9882 123.588 37.8233C123.993 38.6416 124.486 39.3466 125.066 39.9382C125.65 40.5088 126.35 40.874 127.167 41.0336C128.067 41.2097 128.851 41.0912 129.519 40.6783C130.186 40.2654 130.753 39.7023 131.218 38.9891C131.684 38.2758 132.053 37.5002 132.325 36.6623C132.619 35.8284 132.833 35.066 132.968 34.3751C133.095 33.7261 133.169 32.958 133.19 32.0709C133.237 31.167 133.214 30.2279 133.122 29.2534C133.055 28.2621 132.902 27.2649 132.663 26.2619C132.446 25.2629 132.134 24.3542 131.729 23.5359C131.349 22.7008 130.867 21.9979 130.283 21.4272C129.703 20.8356 129.005 20.46 128.188 20.3003Z" fill="white"/>
<path d="M144.068 34.7403C144.474 33.9656 144.682 33.3159 144.692 32.7912C144.712 32.2477 144.653 31.8077 144.516 31.4711C144.333 31.0859 144.067 30.7659 143.719 30.5112L143.882 30.1994C144.761 30.636 145.585 30.9952 146.352 31.277C147.13 31.54 147.98 31.7327 148.903 31.8553L149.056 32.1158L143.59 42.5463C142.441 44.7382 142.575 46.2055 143.992 46.9482C144.446 47.1859 144.906 47.3187 145.373 47.3467C145.85 47.3558 146.314 47.2978 146.765 47.1728C147.226 47.0289 147.669 46.8274 148.093 46.5683C148.537 46.3192 148.948 46.0407 149.326 45.733C150.217 45.0439 151.083 44.1729 151.923 43.1202L153.676 39.7757C154.082 39.0009 154.29 38.3512 154.3 37.8266C154.32 37.2831 154.262 36.843 154.125 36.5064C153.941 36.1212 153.676 35.8013 153.327 35.5465L153.491 35.2348C154.37 35.6714 155.193 36.0306 155.961 36.3124C156.738 36.5753 157.589 36.7681 158.512 36.8906L158.664 37.1512L152.693 48.5454C152.287 49.3201 152.079 49.9698 152.069 50.4944C152.059 51.0191 152.132 51.4546 152.288 51.8011C152.442 52.1953 152.694 52.5197 153.042 52.7745L152.879 53.0863L148.032 50.5463L150.215 46.3798C149.846 46.7163 149.372 47.0698 148.792 47.4405C148.242 47.8021 147.616 48.1003 146.915 48.3351C146.223 48.5509 145.472 48.6511 144.662 48.6356C143.851 48.6202 143.001 48.3798 142.113 47.9143C140.772 47.2113 140.002 46.2901 139.804 45.1508C139.616 43.9926 139.933 42.6293 140.755 41.061L144.068 34.7403Z" fill="white"/>
<path d="M161.4 55.9755C160.804 56.6157 160.432 57.1876 160.284 57.691C160.136 58.1944 160.091 58.6338 160.15 59.009C160.195 59.43 160.352 59.8093 160.621 60.1469L160.381 60.4045L154.713 55.1281L154.953 54.8705C155.309 55.1144 155.706 55.2511 156.145 55.2807C156.508 55.2979 156.935 55.2146 157.426 55.031C157.918 54.8473 158.462 54.4354 159.058 53.7952L164.661 47.7756C165.257 47.1354 165.629 46.5636 165.777 46.0601C165.94 45.5411 165.999 45.1012 165.956 44.7405C165.881 44.3205 165.709 43.9418 165.44 43.6042L165.68 43.3466C166.413 43.9996 167.112 44.5633 167.778 45.0375C168.459 45.4962 169.228 45.9064 170.087 46.2681L170.165 46.5596L167.57 49.3469C167.969 49.1062 168.407 48.8868 168.883 48.6886C169.374 48.505 169.883 48.3962 170.411 48.3622C170.938 48.3282 171.461 48.3925 171.98 48.5551C172.529 48.7166 173.061 49.0371 173.576 49.5168C173.904 49.822 174.157 50.13 174.334 50.4406C174.526 50.7357 174.671 51.0022 174.77 51.2401C174.886 51.5228 174.956 51.792 174.98 52.0477L172.604 55.8687L172.306 55.7662C172.52 55.0038 172.66 54.2742 172.726 53.5775C172.764 52.9724 172.719 52.3475 172.591 51.7031C172.462 51.0586 172.163 50.5184 171.695 50.0823C171.367 49.777 171.005 49.5862 170.61 49.5098C170.245 49.4323 169.853 49.4313 169.433 49.5067C169.043 49.581 168.64 49.7162 168.225 49.9122C167.809 50.1082 167.409 50.3338 167.026 50.5891C166.126 51.1798 165.21 51.9447 164.278 52.8837L161.4 55.9755Z" fill="white"/>
<path d="M201.038 86.1574C200.814 85.8345 200.437 85.5626 199.908 85.3416C199.454 85.1358 198.835 84.975 198.049 84.8594C197.264 84.7437 196.202 84.7414 194.864 84.8527L177.3 86.391L176.328 84.0228L191.038 71.2375C191.734 70.629 192.242 70.0975 192.563 69.6429C192.911 69.2 193.15 68.8255 193.278 68.5193C193.409 68.1655 193.456 67.858 193.418 67.5969L193.743 67.4632L196.308 73.7092L195.982 73.8429C195.777 73.512 195.512 73.2866 195.186 73.1668C194.896 73.0783 194.605 73.071 194.312 73.145C194.039 73.2109 193.854 73.2641 193.755 73.3046C193.34 73.4747 192.852 73.802 192.29 74.2865L179.803 85.1559L192.094 84.0875C193.567 83.9671 194.747 83.7246 195.635 83.36C195.655 83.3519 195.887 83.2448 196.333 83.0387C196.787 82.8524 197.224 82.5116 197.643 82.0166C198.071 81.5413 198.296 81.0222 198.318 80.4595C198.349 79.9164 198.263 79.3982 198.061 78.9049L198.374 78.7416L201.352 85.9941L201.038 86.1574Z" fill="white"/>
<path d="M202.286 100.162L202.233 99.8135C202.163 99.3496 201.945 98.9835 201.581 98.7153C201.216 98.4471 200.812 98.3467 200.37 98.4141L199.326 98.5731L199.258 98.1302L200.302 97.9712C200.745 97.9038 201.101 97.6878 201.369 97.3233C201.637 96.9588 201.736 96.5445 201.665 96.0806L201.607 95.7009L202.05 95.6335L202.108 96.0131C202.179 96.4771 202.396 96.8432 202.761 97.1114C203.125 97.3796 203.54 97.4784 204.004 97.4077L205.047 97.2488L205.115 97.6917L204.071 97.8506C203.607 97.9213 203.241 98.1388 202.973 98.5034C202.704 98.8679 202.606 99.2821 202.676 99.7461L202.729 100.094L202.286 100.162ZM181.621 104.959L180.455 97.3027L180.803 97.2498C180.931 97.6619 181.157 98.0159 181.483 98.3116C181.757 98.5504 182.143 98.7505 182.643 98.9119C183.142 99.0732 183.824 99.0881 184.689 98.9564L192.819 97.7187C193.684 97.587 194.33 97.3699 194.759 97.0672C195.209 96.7614 195.529 96.4537 195.719 96.1442C195.921 95.7683 196.021 95.3646 196.02 94.9331L196.368 94.8801C196.537 95.8471 196.735 96.7232 196.963 97.5086C197.211 98.2908 197.559 99.0901 198.007 99.9067L197.888 100.184L185.17 102.12C184.306 102.252 183.659 102.469 183.23 102.771C182.802 103.074 182.494 103.391 182.307 103.721C182.081 104.079 181.968 104.474 181.969 104.906L181.621 104.959Z" fill="white"/>
<path d="M198.554 117.021C198.512 117.809 198.447 118.425 198.36 118.869C198.272 119.313 198.221 119.673 198.206 119.95C198.185 120.334 198.28 120.552 198.491 120.606C198.701 120.682 198.891 120.724 199.061 120.733C199.21 120.741 199.371 120.728 199.544 120.695L199.655 121.021L192.719 122.477L192.64 122.153C193.451 121.769 194.149 121.304 194.734 120.758C195.338 120.235 195.838 119.674 196.234 119.076C196.649 118.5 196.958 117.907 197.162 117.299C197.364 116.711 197.48 116.141 197.509 115.587C197.553 114.777 197.407 114.097 197.074 113.545C196.761 112.994 196.286 112.701 195.646 112.667C194.965 112.631 194.397 112.868 193.942 113.377C193.488 113.887 193.069 114.527 192.686 115.297C192.302 116.089 191.914 116.944 191.524 117.863C191.154 118.783 190.703 119.624 190.171 120.386C189.638 121.17 188.995 121.808 188.242 122.302C187.489 122.796 186.548 123.013 185.419 122.953C184.525 122.905 183.789 122.684 183.212 122.29C182.633 121.917 182.189 121.445 181.877 120.873C181.566 120.301 181.365 119.66 181.275 118.95C181.162 118.26 181.124 117.575 181.161 116.893C181.211 115.955 181.353 115.087 181.588 114.288C181.802 113.488 182.042 112.785 182.31 112.179C182.604 111.469 182.927 110.813 183.28 110.212L188.857 109.581L188.94 109.842C187.745 110.205 186.661 110.713 185.686 111.366C185.286 111.644 184.885 111.964 184.481 112.327C184.077 112.69 183.713 113.098 183.39 113.551C183.067 114.004 182.794 114.513 182.571 115.077C182.37 115.644 182.252 116.257 182.217 116.917C182.156 118.046 182.349 118.847 182.793 119.319C183.258 119.814 183.842 120.08 184.545 120.118C185.376 120.162 186.061 119.932 186.601 119.427C187.141 118.921 187.624 118.285 188.049 117.517C188.475 116.749 188.862 115.905 189.21 114.983C189.579 114.063 189.988 113.22 190.435 112.453C190.881 111.686 191.417 111.053 192.042 110.552C192.667 110.051 193.448 109.826 194.386 109.876C194.939 109.906 195.476 110.052 195.996 110.315C196.517 110.577 196.975 110.986 197.373 111.542C197.791 112.12 198.104 112.852 198.313 113.739C198.543 114.627 198.624 115.721 198.554 117.021Z" fill="white"/>
<path d="M199.166 137.576L199.256 137.236C199.375 136.782 199.321 136.36 199.093 135.969C198.865 135.578 198.535 135.325 198.102 135.211L197.081 134.941L197.195 134.508L198.216 134.777C198.649 134.892 199.061 134.835 199.452 134.607C199.843 134.379 200.099 134.038 200.218 133.585L200.316 133.213L200.749 133.327L200.651 133.699C200.532 134.153 200.586 134.575 200.814 134.966C201.042 135.357 201.382 135.612 201.836 135.732L202.857 136.001L202.743 136.434L201.722 136.165C201.268 136.046 200.846 136.1 200.455 136.327C200.064 136.555 199.808 136.896 199.689 137.35L199.599 137.69L199.166 137.576ZM178.297 133.762L180.271 126.273L180.611 126.363C180.564 126.792 180.632 127.207 180.813 127.608C180.969 127.936 181.244 128.273 181.638 128.619C182.032 128.966 182.652 129.251 183.498 129.474L191.45 131.571C192.296 131.794 192.975 131.851 193.489 131.744C194.023 131.642 194.439 131.487 194.737 131.279C195.071 131.014 195.324 130.684 195.495 130.287L195.835 130.377C195.606 131.331 195.439 132.214 195.335 133.025C195.253 133.842 195.254 134.714 195.341 135.641L195.121 135.848L182.682 132.568C181.836 132.345 181.156 132.287 180.643 132.394C180.129 132.502 179.721 132.67 179.418 132.899C179.068 133.138 178.808 133.455 178.637 133.851L178.297 133.762Z" fill="white"/>
<path d="M188.364 152.853C187.823 153.894 187.108 154.737 186.22 155.382C185.341 156.055 184.38 156.517 183.336 156.768C182.301 157.048 181.227 157.126 180.112 157.004C178.998 156.882 177.939 156.56 176.935 156.038C175.932 155.517 175.051 154.83 174.291 153.979C173.551 153.137 172.988 152.208 172.603 151.19C172.227 150.202 172.053 149.149 172.08 148.033C172.116 146.946 172.404 145.882 172.945 144.841C173.486 143.8 174.196 142.942 175.075 142.269C175.963 141.625 176.925 141.163 177.959 140.883C179.013 140.613 180.097 140.539 181.212 140.662C182.345 140.794 183.414 141.121 184.417 141.642C185.42 142.164 186.292 142.845 187.033 143.687C187.773 144.529 188.327 145.453 188.693 146.461C189.077 147.478 189.252 148.531 189.216 149.618C189.189 150.734 188.905 151.812 188.364 152.853ZM176.679 152.299C177.436 152.692 178.357 153.026 179.44 153.301C180.523 153.575 181.614 153.697 182.712 153.667C183.819 153.665 184.848 153.466 185.798 153.071C186.739 152.694 187.446 152.052 187.918 151.143C188.233 150.537 188.328 149.938 188.204 149.344C188.089 148.78 187.844 148.232 187.471 147.701C187.107 147.199 186.67 146.744 186.161 146.335C185.642 145.946 185.137 145.623 184.645 145.367C183.888 144.974 182.967 144.639 181.884 144.365C180.8 144.09 179.705 143.954 178.598 143.956C177.501 143.986 176.481 144.19 175.54 144.566C174.589 144.962 173.878 145.614 173.406 146.523C173.091 147.128 173.001 147.718 173.135 148.293C173.259 148.887 173.503 149.434 173.868 149.936C174.222 150.457 174.659 150.912 175.177 151.302C175.705 151.72 176.206 152.053 176.679 152.299Z" fill="white"/>
<path d="M162.499 160.6L162.245 160.357L167.598 154.761L167.852 155.004C167.604 155.357 167.462 155.752 167.426 156.191C167.404 156.553 167.481 156.982 167.658 157.476C167.835 157.97 168.24 158.519 168.872 159.124L174.815 164.809C175.447 165.413 176.013 165.793 176.515 165.948C177.032 166.117 177.471 166.183 177.832 166.145C178.253 166.075 178.634 165.908 178.975 165.644L179.229 165.887C178.566 166.611 177.993 167.303 177.51 167.963C177.042 168.637 176.622 169.401 176.248 170.254L175.956 170.328L172.371 166.9C172.578 167.363 172.779 167.909 172.974 168.539C173.169 169.198 173.268 169.898 173.269 170.637C173.286 171.391 173.167 172.163 172.913 172.953C172.644 173.759 172.149 174.539 171.426 175.295C170.866 175.881 170.316 176.285 169.778 176.508C169.24 176.732 168.698 176.789 168.152 176.68C167.607 176.602 167.044 176.373 166.462 175.993C165.896 175.629 165.289 175.137 164.642 174.517L159.161 169.275C158.529 168.67 157.962 168.291 157.461 168.136C156.96 167.981 156.521 167.93 156.145 167.984C155.723 168.024 155.342 168.175 155.001 168.439L154.746 168.196L160.099 162.6L160.354 162.843C160.105 163.196 159.963 163.591 159.928 164.03C159.905 164.392 159.983 164.821 160.16 165.315C160.337 165.809 160.741 166.358 161.373 166.963L166.854 172.205C167.779 173.09 168.597 173.592 169.309 173.712C170.021 173.862 170.68 173.621 171.284 172.989C171.653 172.604 171.908 172.183 172.049 171.728C172.205 171.287 172.277 170.825 172.267 170.342C172.271 169.874 172.208 169.4 172.077 168.921C171.945 168.441 171.784 167.976 171.593 167.528C171.148 166.482 170.521 165.424 169.712 164.356L166.66 161.436C166.028 160.831 165.461 160.452 164.96 160.297C164.458 160.142 164.02 160.091 163.644 160.145C163.222 160.185 162.841 160.336 162.499 160.6Z" fill="white"/>
<path d="M145.201 200.416L143.023 201.262L131.431 171.401L133.608 170.555L145.201 200.416Z" fill="white"/>
<path d="M114.5 86C108.002 86 101.771 88.5812 97.1759 93.1759C92.5812 97.7705 90 104.002 90 110.5C90 116.998 92.5812 123.229 97.1759 127.824C101.771 132.419 108.002 135 114.5 135L114.5 110.5V86Z" fill="#0745E8"/>
<path d="M114.5 90C114.809 101.191 123.809 110.191 135 110.5C123.809 110.809 114.809 119.809 114.5 131C114.191 119.809 105.191 110.809 94 110.5C105.191 110.191 114.191 101.191 114.5 90Z" fill="url(#paint0_linear_214_1263)"/>
<defs>
<linearGradient id="paint0_linear_214_1263" x1="135" y1="110.5" x2="94" y2="110.5" gradientUnits="userSpaceOnUse">
<stop offset="0.4999" stop-color="#0745E8"/>
<stop offset="0.5" stop-color="#6D5C72"/>
<stop offset="0.5001" stop-color="white"/>
</linearGradient>
</defs>
</svg>
