<svg width="40" height="40" viewBox="0 0 40 40" fill="none" xmlns="http://www.w3.org/2000/svg">
<rect width="40" height="40" rx="20" fill="#0745E8"/>
<path d="M29.9684 14.5175C29.8801 14.1719 29.7109 13.8522 29.4747 13.5849C29.2385 13.3176 28.9421 13.1102 28.61 12.98C25.3962 11.7388 20.2812 11.75 20 11.75C19.7188 11.75 14.6037 11.7388 11.39 12.98C11.0579 13.1102 10.7615 13.3176 10.5253 13.5849C10.2891 13.8522 10.1199 14.1719 10.0316 14.5175C9.78875 15.4531 9.5 17.1631 9.5 20C9.5 22.8369 9.78875 24.5469 10.0316 25.4825C10.1198 25.8283 10.289 26.1481 10.5252 26.4156C10.7614 26.6831 11.0578 26.8906 11.39 27.0209C14.4688 28.2088 19.2875 28.25 19.9381 28.25H20.0619C20.7125 28.25 25.5341 28.2088 28.61 27.0209C28.9422 26.8906 29.2386 26.6831 29.4748 26.4156C29.711 26.1481 29.8802 25.8283 29.9684 25.4825C30.2113 24.545 30.5 22.8369 30.5 20C30.5 17.1631 30.2113 15.4531 29.9684 14.5175ZM23.2081 20.3122L18.7081 23.3122C18.6516 23.3499 18.586 23.3715 18.5181 23.3748C18.4503 23.3781 18.3829 23.3629 18.323 23.3309C18.2631 23.2988 18.2131 23.2511 18.1782 23.1928C18.1434 23.1346 18.125 23.0679 18.125 23V17C18.125 16.9321 18.1434 16.8655 18.1782 16.8072C18.2131 16.7489 18.2631 16.7012 18.323 16.6692C18.3829 16.6371 18.4503 16.6219 18.5181 16.6252C18.586 16.6285 18.6516 16.6501 18.7081 16.6878L23.2081 19.6878C23.2596 19.722 23.3017 19.7685 23.3309 19.8229C23.3601 19.8774 23.3754 19.9382 23.3754 20C23.3754 20.0618 23.3601 20.1226 23.3309 20.1771C23.3017 20.2315 23.2596 20.278 23.2081 20.3122Z" fill="black"/>
</svg>
